G04 #@! TF.GenerationSoftware,KiCad,Pcbnew,5.1.0-060a0da~80~ubuntu16.04.1*
G04 #@! TF.CreationDate,2019-03-30T07:06:19+09:00*
G04 #@! TF.ProjectId,Akashi-01,416b6173-6869-42d3-9031-2e6b69636164,rev?*
G04 #@! TF.SameCoordinates,Original*
G04 #@! TF.FileFunction,Legend,Top*
G04 #@! TF.FilePolarity,Positive*
%FSLAX46Y46*%
G04 Gerber Fmt 4.6, Leading zero omitted, Abs format (unit mm)*
G04 Created by KiCad (PCBNEW 5.1.0-060a0da~80~ubuntu16.04.1) date 2019-03-30 07:06:19*
%MOMM*%
%LPD*%
G04 APERTURE LIST*
%ADD10C,0.150000*%
%ADD11C,0.120000*%
G04 APERTURE END LIST*
D10*
X150312380Y-91701904D02*
X149312380Y-91701904D01*
X150312380Y-91130476D02*
X149740952Y-91559047D01*
X149312380Y-91130476D02*
X149883809Y-91701904D01*
X142692380Y-91701904D02*
X141692380Y-91701904D01*
X142692380Y-91130476D02*
X142120952Y-91559047D01*
X141692380Y-91130476D02*
X142263809Y-91701904D01*
X135072380Y-91701904D02*
X134072380Y-91701904D01*
X135072380Y-91130476D02*
X134500952Y-91559047D01*
X134072380Y-91130476D02*
X134643809Y-91701904D01*
X127452380Y-91701904D02*
X126452380Y-91701904D01*
X127452380Y-91130476D02*
X126880952Y-91559047D01*
X126452380Y-91130476D02*
X127023809Y-91701904D01*
X178085714Y-61412380D02*
X177514285Y-61412380D01*
X177800000Y-61412380D02*
X177800000Y-60412380D01*
X177704761Y-60555238D01*
X177609523Y-60650476D01*
X177514285Y-60698095D01*
X117125714Y-61412380D02*
X116554285Y-61412380D01*
X116840000Y-61412380D02*
X116840000Y-60412380D01*
X116744761Y-60555238D01*
X116649523Y-60650476D01*
X116554285Y-60698095D01*
D11*
X153636000Y-91150000D02*
X153480000Y-91150000D01*
X151320000Y-91150000D02*
X151164000Y-91150000D01*
X153478608Y-94382335D02*
G75*
G03X153635516Y-91150000I-1078608J1672335D01*
G01*
X151321392Y-94382335D02*
G75*
G02X151164484Y-91150000I1078608J1672335D01*
G01*
X153479837Y-93751130D02*
G75*
G03X153480000Y-91669039I-1079837J1041130D01*
G01*
X151320163Y-93751130D02*
G75*
G02X151320000Y-91669039I1079837J1041130D01*
G01*
X143700163Y-93751130D02*
G75*
G02X143700000Y-91669039I1079837J1041130D01*
G01*
X145859837Y-93751130D02*
G75*
G03X145860000Y-91669039I-1079837J1041130D01*
G01*
X143701392Y-94382335D02*
G75*
G02X143544484Y-91150000I1078608J1672335D01*
G01*
X145858608Y-94382335D02*
G75*
G03X146015516Y-91150000I-1078608J1672335D01*
G01*
X143700000Y-91150000D02*
X143544000Y-91150000D01*
X146016000Y-91150000D02*
X145860000Y-91150000D01*
X138396000Y-91150000D02*
X138240000Y-91150000D01*
X136080000Y-91150000D02*
X135924000Y-91150000D01*
X138238608Y-94382335D02*
G75*
G03X138395516Y-91150000I-1078608J1672335D01*
G01*
X136081392Y-94382335D02*
G75*
G02X135924484Y-91150000I1078608J1672335D01*
G01*
X138239837Y-93751130D02*
G75*
G03X138240000Y-91669039I-1079837J1041130D01*
G01*
X136080163Y-93751130D02*
G75*
G02X136080000Y-91669039I1079837J1041130D01*
G01*
X128460163Y-93751130D02*
G75*
G02X128460000Y-91669039I1079837J1041130D01*
G01*
X130619837Y-93751130D02*
G75*
G03X130620000Y-91669039I-1079837J1041130D01*
G01*
X128461392Y-94382335D02*
G75*
G02X128304484Y-91150000I1078608J1672335D01*
G01*
X130618608Y-94382335D02*
G75*
G03X130775516Y-91150000I-1078608J1672335D01*
G01*
X128460000Y-91150000D02*
X128304000Y-91150000D01*
X130776000Y-91150000D02*
X130620000Y-91150000D01*
X151030000Y-104870000D02*
X153770000Y-104870000D01*
X153770000Y-104870000D02*
X153770000Y-98330000D01*
X153770000Y-98330000D02*
X151030000Y-98330000D01*
X151030000Y-98330000D02*
X151030000Y-104870000D01*
X152400000Y-105640000D02*
X152400000Y-104870000D01*
X152400000Y-97560000D02*
X152400000Y-98330000D01*
X144780000Y-97560000D02*
X144780000Y-98330000D01*
X144780000Y-105640000D02*
X144780000Y-104870000D01*
X143410000Y-98330000D02*
X143410000Y-104870000D01*
X146150000Y-98330000D02*
X143410000Y-98330000D01*
X146150000Y-104870000D02*
X146150000Y-98330000D01*
X143410000Y-104870000D02*
X146150000Y-104870000D01*
X135790000Y-104870000D02*
X138530000Y-104870000D01*
X138530000Y-104870000D02*
X138530000Y-98330000D01*
X138530000Y-98330000D02*
X135790000Y-98330000D01*
X135790000Y-98330000D02*
X135790000Y-104870000D01*
X137160000Y-105640000D02*
X137160000Y-104870000D01*
X137160000Y-97560000D02*
X137160000Y-98330000D01*
X129540000Y-97560000D02*
X129540000Y-98330000D01*
X129540000Y-105640000D02*
X129540000Y-104870000D01*
X128170000Y-98330000D02*
X128170000Y-104870000D01*
X130910000Y-98330000D02*
X128170000Y-98330000D01*
X130910000Y-104870000D02*
X130910000Y-98330000D01*
X128170000Y-104870000D02*
X130910000Y-104870000D01*
X164060000Y-76200000D02*
X163290000Y-76200000D01*
X155980000Y-76200000D02*
X156750000Y-76200000D01*
X163290000Y-74830000D02*
X156750000Y-74830000D01*
X163290000Y-77570000D02*
X163290000Y-74830000D01*
X156750000Y-77570000D02*
X163290000Y-77570000D01*
X156750000Y-74830000D02*
X156750000Y-77570000D01*
X143280000Y-86360000D02*
X144050000Y-86360000D01*
X151360000Y-86360000D02*
X150590000Y-86360000D01*
X144050000Y-87730000D02*
X150590000Y-87730000D01*
X144050000Y-84990000D02*
X144050000Y-87730000D01*
X150590000Y-84990000D02*
X144050000Y-84990000D01*
X150590000Y-87730000D02*
X150590000Y-84990000D01*
X150590000Y-82650000D02*
X150590000Y-79910000D01*
X150590000Y-79910000D02*
X144050000Y-79910000D01*
X144050000Y-79910000D02*
X144050000Y-82650000D01*
X144050000Y-82650000D02*
X150590000Y-82650000D01*
X151360000Y-81280000D02*
X150590000Y-81280000D01*
X143280000Y-81280000D02*
X144050000Y-81280000D01*
X163290000Y-87730000D02*
X163290000Y-84990000D01*
X163290000Y-84990000D02*
X156750000Y-84990000D01*
X156750000Y-84990000D02*
X156750000Y-87730000D01*
X156750000Y-87730000D02*
X163290000Y-87730000D01*
X164060000Y-86360000D02*
X163290000Y-86360000D01*
X155980000Y-86360000D02*
X156750000Y-86360000D01*
X144050000Y-74830000D02*
X144050000Y-77570000D01*
X144050000Y-77570000D02*
X150590000Y-77570000D01*
X150590000Y-77570000D02*
X150590000Y-74830000D01*
X150590000Y-74830000D02*
X144050000Y-74830000D01*
X143280000Y-76200000D02*
X144050000Y-76200000D01*
X151360000Y-76200000D02*
X150590000Y-76200000D01*
X155980000Y-81280000D02*
X156750000Y-81280000D01*
X164060000Y-81280000D02*
X163290000Y-81280000D01*
X156750000Y-82650000D02*
X163290000Y-82650000D01*
X156750000Y-79910000D02*
X156750000Y-82650000D01*
X163290000Y-79910000D02*
X156750000Y-79910000D01*
X163290000Y-82650000D02*
X163290000Y-79910000D01*
X174090000Y-78010000D02*
X171350000Y-78010000D01*
X171350000Y-78010000D02*
X171350000Y-84550000D01*
X171350000Y-84550000D02*
X174090000Y-84550000D01*
X174090000Y-84550000D02*
X174090000Y-78010000D01*
X172720000Y-77240000D02*
X172720000Y-78010000D01*
X172720000Y-85320000D02*
X172720000Y-84550000D01*
X167020000Y-99020000D02*
X168020000Y-99020000D01*
X167520000Y-98520000D02*
X167520000Y-99520000D01*
X174220000Y-102720000D02*
X174220000Y-105320000D01*
X174220000Y-97720000D02*
X174220000Y-100320000D01*
X174220000Y-92720000D02*
X174220000Y-95320000D01*
X160320000Y-94920000D02*
X160020000Y-95220000D01*
X159720000Y-94920000D02*
X160320000Y-94920000D01*
X160020000Y-95220000D02*
X159720000Y-94920000D01*
X160820000Y-92720000D02*
X160820000Y-95220000D01*
X165620000Y-92720000D02*
X160820000Y-92720000D01*
X160820000Y-105320000D02*
X160820000Y-102520000D01*
X165720000Y-105320000D02*
X160820000Y-105320000D01*
X174220000Y-105320000D02*
X169320000Y-105320000D01*
X169320000Y-92720000D02*
X174220000Y-92720000D01*
X170520000Y-99020000D02*
G75*
G03X170520000Y-99020000I-3000000J0D01*
G01*
X131310000Y-85565000D02*
X131310000Y-84940000D01*
X131310000Y-87780000D02*
X131310000Y-87155000D01*
X135350000Y-85565000D02*
X135350000Y-84940000D01*
X135350000Y-87780000D02*
X135350000Y-87155000D01*
X135350000Y-84940000D02*
X131310000Y-84940000D01*
X135350000Y-87780000D02*
X131310000Y-87780000D01*
X135390000Y-82700000D02*
X131350000Y-82700000D01*
X135390000Y-79860000D02*
X131350000Y-79860000D01*
X135390000Y-82700000D02*
X135390000Y-82075000D01*
X135390000Y-80485000D02*
X135390000Y-79860000D01*
X131350000Y-82700000D02*
X131350000Y-82075000D01*
X131350000Y-80485000D02*
X131350000Y-79860000D01*
X130870000Y-50225000D02*
X130870000Y-73085000D01*
X130870000Y-73085000D02*
X171510000Y-73085000D01*
X171510000Y-73085000D02*
X171510000Y-50225000D01*
X171510000Y-50225000D02*
X130870000Y-50225000D01*
X126680000Y-100330000D02*
G75*
G03X126680000Y-100330000I-950000J0D01*
G01*
X139380000Y-86360000D02*
G75*
G03X139380000Y-86360000I-950000J0D01*
G01*
X139380000Y-81280000D02*
G75*
G03X139380000Y-81280000I-950000J0D01*
G01*
X171130000Y-46355000D02*
G75*
G03X171130000Y-46355000I-950000J0D01*
G01*
X177480000Y-88900000D02*
G75*
G03X177480000Y-88900000I-950000J0D01*
G01*
X166050000Y-46355000D02*
G75*
G03X166050000Y-46355000I-950000J0D01*
G01*
X158430000Y-46355000D02*
G75*
G03X158430000Y-46355000I-950000J0D01*
G01*
X176210000Y-73660000D02*
G75*
G03X176210000Y-73660000I-950000J0D01*
G01*
X153350000Y-46355000D02*
G75*
G03X153350000Y-46355000I-950000J0D01*
G01*
X145730000Y-46355000D02*
G75*
G03X145730000Y-46355000I-950000J0D01*
G01*
X125410000Y-51435000D02*
G75*
G03X125410000Y-51435000I-950000J0D01*
G01*
X178750000Y-51435000D02*
G75*
G03X178750000Y-51435000I-950000J0D01*
G01*
D10*
X155812380Y-93448095D02*
X154812380Y-93448095D01*
X154812380Y-93210000D01*
X154860000Y-93067142D01*
X154955238Y-92971904D01*
X155050476Y-92924285D01*
X155240952Y-92876666D01*
X155383809Y-92876666D01*
X155574285Y-92924285D01*
X155669523Y-92971904D01*
X155764761Y-93067142D01*
X155812380Y-93210000D01*
X155812380Y-93448095D01*
X155812380Y-91924285D02*
X155812380Y-92495714D01*
X155812380Y-92210000D02*
X154812380Y-92210000D01*
X154955238Y-92305238D01*
X155050476Y-92400476D01*
X155098095Y-92495714D01*
X148192380Y-93448095D02*
X147192380Y-93448095D01*
X147192380Y-93210000D01*
X147240000Y-93067142D01*
X147335238Y-92971904D01*
X147430476Y-92924285D01*
X147620952Y-92876666D01*
X147763809Y-92876666D01*
X147954285Y-92924285D01*
X148049523Y-92971904D01*
X148144761Y-93067142D01*
X148192380Y-93210000D01*
X148192380Y-93448095D01*
X147287619Y-92495714D02*
X147240000Y-92448095D01*
X147192380Y-92352857D01*
X147192380Y-92114761D01*
X147240000Y-92019523D01*
X147287619Y-91971904D01*
X147382857Y-91924285D01*
X147478095Y-91924285D01*
X147620952Y-91971904D01*
X148192380Y-92543333D01*
X148192380Y-91924285D01*
X140572380Y-93448095D02*
X139572380Y-93448095D01*
X139572380Y-93210000D01*
X139620000Y-93067142D01*
X139715238Y-92971904D01*
X139810476Y-92924285D01*
X140000952Y-92876666D01*
X140143809Y-92876666D01*
X140334285Y-92924285D01*
X140429523Y-92971904D01*
X140524761Y-93067142D01*
X140572380Y-93210000D01*
X140572380Y-93448095D01*
X139572380Y-92543333D02*
X139572380Y-91924285D01*
X139953333Y-92257619D01*
X139953333Y-92114761D01*
X140000952Y-92019523D01*
X140048571Y-91971904D01*
X140143809Y-91924285D01*
X140381904Y-91924285D01*
X140477142Y-91971904D01*
X140524761Y-92019523D01*
X140572380Y-92114761D01*
X140572380Y-92400476D01*
X140524761Y-92495714D01*
X140477142Y-92543333D01*
X132952380Y-93448095D02*
X131952380Y-93448095D01*
X131952380Y-93210000D01*
X132000000Y-93067142D01*
X132095238Y-92971904D01*
X132190476Y-92924285D01*
X132380952Y-92876666D01*
X132523809Y-92876666D01*
X132714285Y-92924285D01*
X132809523Y-92971904D01*
X132904761Y-93067142D01*
X132952380Y-93210000D01*
X132952380Y-93448095D01*
X132285714Y-92019523D02*
X132952380Y-92019523D01*
X131904761Y-92257619D02*
X132619047Y-92495714D01*
X132619047Y-91876666D01*
X155392380Y-101766666D02*
X154916190Y-102100000D01*
X155392380Y-102338095D02*
X154392380Y-102338095D01*
X154392380Y-101957142D01*
X154440000Y-101861904D01*
X154487619Y-101814285D01*
X154582857Y-101766666D01*
X154725714Y-101766666D01*
X154820952Y-101814285D01*
X154868571Y-101861904D01*
X154916190Y-101957142D01*
X154916190Y-102338095D01*
X155392380Y-100814285D02*
X155392380Y-101385714D01*
X155392380Y-101100000D02*
X154392380Y-101100000D01*
X154535238Y-101195238D01*
X154630476Y-101290476D01*
X154678095Y-101385714D01*
X152852380Y-101719047D02*
X152852380Y-102290476D01*
X152852380Y-102004761D02*
X151852380Y-102004761D01*
X151995238Y-102100000D01*
X152090476Y-102195238D01*
X152138095Y-102290476D01*
X152852380Y-101290476D02*
X151852380Y-101290476D01*
X152471428Y-101195238D02*
X152852380Y-100909523D01*
X152185714Y-100909523D02*
X152566666Y-101290476D01*
X147772380Y-101766666D02*
X147296190Y-102100000D01*
X147772380Y-102338095D02*
X146772380Y-102338095D01*
X146772380Y-101957142D01*
X146820000Y-101861904D01*
X146867619Y-101814285D01*
X146962857Y-101766666D01*
X147105714Y-101766666D01*
X147200952Y-101814285D01*
X147248571Y-101861904D01*
X147296190Y-101957142D01*
X147296190Y-102338095D01*
X146867619Y-101385714D02*
X146820000Y-101338095D01*
X146772380Y-101242857D01*
X146772380Y-101004761D01*
X146820000Y-100909523D01*
X146867619Y-100861904D01*
X146962857Y-100814285D01*
X147058095Y-100814285D01*
X147200952Y-100861904D01*
X147772380Y-101433333D01*
X147772380Y-100814285D01*
X145232380Y-101719047D02*
X145232380Y-102290476D01*
X145232380Y-102004761D02*
X144232380Y-102004761D01*
X144375238Y-102100000D01*
X144470476Y-102195238D01*
X144518095Y-102290476D01*
X145232380Y-101290476D02*
X144232380Y-101290476D01*
X144851428Y-101195238D02*
X145232380Y-100909523D01*
X144565714Y-100909523D02*
X144946666Y-101290476D01*
X140152380Y-101766666D02*
X139676190Y-102100000D01*
X140152380Y-102338095D02*
X139152380Y-102338095D01*
X139152380Y-101957142D01*
X139200000Y-101861904D01*
X139247619Y-101814285D01*
X139342857Y-101766666D01*
X139485714Y-101766666D01*
X139580952Y-101814285D01*
X139628571Y-101861904D01*
X139676190Y-101957142D01*
X139676190Y-102338095D01*
X139152380Y-101433333D02*
X139152380Y-100814285D01*
X139533333Y-101147619D01*
X139533333Y-101004761D01*
X139580952Y-100909523D01*
X139628571Y-100861904D01*
X139723809Y-100814285D01*
X139961904Y-100814285D01*
X140057142Y-100861904D01*
X140104761Y-100909523D01*
X140152380Y-101004761D01*
X140152380Y-101290476D01*
X140104761Y-101385714D01*
X140057142Y-101433333D01*
X137612380Y-101719047D02*
X137612380Y-102290476D01*
X137612380Y-102004761D02*
X136612380Y-102004761D01*
X136755238Y-102100000D01*
X136850476Y-102195238D01*
X136898095Y-102290476D01*
X137612380Y-101290476D02*
X136612380Y-101290476D01*
X137231428Y-101195238D02*
X137612380Y-100909523D01*
X136945714Y-100909523D02*
X137326666Y-101290476D01*
X132532380Y-101766666D02*
X132056190Y-102100000D01*
X132532380Y-102338095D02*
X131532380Y-102338095D01*
X131532380Y-101957142D01*
X131580000Y-101861904D01*
X131627619Y-101814285D01*
X131722857Y-101766666D01*
X131865714Y-101766666D01*
X131960952Y-101814285D01*
X132008571Y-101861904D01*
X132056190Y-101957142D01*
X132056190Y-102338095D01*
X131865714Y-100909523D02*
X132532380Y-100909523D01*
X131484761Y-101147619D02*
X132199047Y-101385714D01*
X132199047Y-100766666D01*
X129992380Y-101719047D02*
X129992380Y-102290476D01*
X129992380Y-102004761D02*
X128992380Y-102004761D01*
X129135238Y-102100000D01*
X129230476Y-102195238D01*
X129278095Y-102290476D01*
X129992380Y-101290476D02*
X128992380Y-101290476D01*
X129611428Y-101195238D02*
X129992380Y-100909523D01*
X129325714Y-100909523D02*
X129706666Y-101290476D01*
X159853333Y-79192380D02*
X159520000Y-78716190D01*
X159281904Y-79192380D02*
X159281904Y-78192380D01*
X159662857Y-78192380D01*
X159758095Y-78240000D01*
X159805714Y-78287619D01*
X159853333Y-78382857D01*
X159853333Y-78525714D01*
X159805714Y-78620952D01*
X159758095Y-78668571D01*
X159662857Y-78716190D01*
X159281904Y-78716190D01*
X160758095Y-78192380D02*
X160281904Y-78192380D01*
X160234285Y-78668571D01*
X160281904Y-78620952D01*
X160377142Y-78573333D01*
X160615238Y-78573333D01*
X160710476Y-78620952D01*
X160758095Y-78668571D01*
X160805714Y-78763809D01*
X160805714Y-79001904D01*
X160758095Y-79097142D01*
X160710476Y-79144761D01*
X160615238Y-79192380D01*
X160377142Y-79192380D01*
X160281904Y-79144761D01*
X160234285Y-79097142D01*
X158615238Y-75747619D02*
X158662857Y-75700000D01*
X158758095Y-75652380D01*
X158996190Y-75652380D01*
X159091428Y-75700000D01*
X159139047Y-75747619D01*
X159186666Y-75842857D01*
X159186666Y-75938095D01*
X159139047Y-76080952D01*
X158567619Y-76652380D01*
X159186666Y-76652380D01*
X159615238Y-76557142D02*
X159662857Y-76604761D01*
X159615238Y-76652380D01*
X159567619Y-76604761D01*
X159615238Y-76557142D01*
X159615238Y-76652380D01*
X160043809Y-75747619D02*
X160091428Y-75700000D01*
X160186666Y-75652380D01*
X160424761Y-75652380D01*
X160520000Y-75700000D01*
X160567619Y-75747619D01*
X160615238Y-75842857D01*
X160615238Y-75938095D01*
X160567619Y-76080952D01*
X159996190Y-76652380D01*
X160615238Y-76652380D01*
X161043809Y-76652380D02*
X161043809Y-75652380D01*
X161139047Y-76271428D02*
X161424761Y-76652380D01*
X161424761Y-75985714D02*
X161043809Y-76366666D01*
X147153333Y-89182380D02*
X146820000Y-88706190D01*
X146581904Y-89182380D02*
X146581904Y-88182380D01*
X146962857Y-88182380D01*
X147058095Y-88230000D01*
X147105714Y-88277619D01*
X147153333Y-88372857D01*
X147153333Y-88515714D01*
X147105714Y-88610952D01*
X147058095Y-88658571D01*
X146962857Y-88706190D01*
X146581904Y-88706190D01*
X148010476Y-88182380D02*
X147820000Y-88182380D01*
X147724761Y-88230000D01*
X147677142Y-88277619D01*
X147581904Y-88420476D01*
X147534285Y-88610952D01*
X147534285Y-88991904D01*
X147581904Y-89087142D01*
X147629523Y-89134761D01*
X147724761Y-89182380D01*
X147915238Y-89182380D01*
X148010476Y-89134761D01*
X148058095Y-89087142D01*
X148105714Y-88991904D01*
X148105714Y-88753809D01*
X148058095Y-88658571D01*
X148010476Y-88610952D01*
X147915238Y-88563333D01*
X147724761Y-88563333D01*
X147629523Y-88610952D01*
X147581904Y-88658571D01*
X147534285Y-88753809D01*
X146724761Y-86812380D02*
X146153333Y-86812380D01*
X146439047Y-86812380D02*
X146439047Y-85812380D01*
X146343809Y-85955238D01*
X146248571Y-86050476D01*
X146153333Y-86098095D01*
X147343809Y-85812380D02*
X147439047Y-85812380D01*
X147534285Y-85860000D01*
X147581904Y-85907619D01*
X147629523Y-86002857D01*
X147677142Y-86193333D01*
X147677142Y-86431428D01*
X147629523Y-86621904D01*
X147581904Y-86717142D01*
X147534285Y-86764761D01*
X147439047Y-86812380D01*
X147343809Y-86812380D01*
X147248571Y-86764761D01*
X147200952Y-86717142D01*
X147153333Y-86621904D01*
X147105714Y-86431428D01*
X147105714Y-86193333D01*
X147153333Y-86002857D01*
X147200952Y-85907619D01*
X147248571Y-85860000D01*
X147343809Y-85812380D01*
X148105714Y-86812380D02*
X148105714Y-85812380D01*
X148200952Y-86431428D02*
X148486666Y-86812380D01*
X148486666Y-86145714D02*
X148105714Y-86526666D01*
X147153333Y-84102380D02*
X146820000Y-83626190D01*
X146581904Y-84102380D02*
X146581904Y-83102380D01*
X146962857Y-83102380D01*
X147058095Y-83150000D01*
X147105714Y-83197619D01*
X147153333Y-83292857D01*
X147153333Y-83435714D01*
X147105714Y-83530952D01*
X147058095Y-83578571D01*
X146962857Y-83626190D01*
X146581904Y-83626190D01*
X147486666Y-83102380D02*
X148153333Y-83102380D01*
X147724761Y-84102380D01*
X146724761Y-81732380D02*
X146153333Y-81732380D01*
X146439047Y-81732380D02*
X146439047Y-80732380D01*
X146343809Y-80875238D01*
X146248571Y-80970476D01*
X146153333Y-81018095D01*
X147343809Y-80732380D02*
X147439047Y-80732380D01*
X147534285Y-80780000D01*
X147581904Y-80827619D01*
X147629523Y-80922857D01*
X147677142Y-81113333D01*
X147677142Y-81351428D01*
X147629523Y-81541904D01*
X147581904Y-81637142D01*
X147534285Y-81684761D01*
X147439047Y-81732380D01*
X147343809Y-81732380D01*
X147248571Y-81684761D01*
X147200952Y-81637142D01*
X147153333Y-81541904D01*
X147105714Y-81351428D01*
X147105714Y-81113333D01*
X147153333Y-80922857D01*
X147200952Y-80827619D01*
X147248571Y-80780000D01*
X147343809Y-80732380D01*
X148105714Y-81732380D02*
X148105714Y-80732380D01*
X148200952Y-81351428D02*
X148486666Y-81732380D01*
X148486666Y-81065714D02*
X148105714Y-81446666D01*
X159853333Y-89182380D02*
X159520000Y-88706190D01*
X159281904Y-89182380D02*
X159281904Y-88182380D01*
X159662857Y-88182380D01*
X159758095Y-88230000D01*
X159805714Y-88277619D01*
X159853333Y-88372857D01*
X159853333Y-88515714D01*
X159805714Y-88610952D01*
X159758095Y-88658571D01*
X159662857Y-88706190D01*
X159281904Y-88706190D01*
X160424761Y-88610952D02*
X160329523Y-88563333D01*
X160281904Y-88515714D01*
X160234285Y-88420476D01*
X160234285Y-88372857D01*
X160281904Y-88277619D01*
X160329523Y-88230000D01*
X160424761Y-88182380D01*
X160615238Y-88182380D01*
X160710476Y-88230000D01*
X160758095Y-88277619D01*
X160805714Y-88372857D01*
X160805714Y-88420476D01*
X160758095Y-88515714D01*
X160710476Y-88563333D01*
X160615238Y-88610952D01*
X160424761Y-88610952D01*
X160329523Y-88658571D01*
X160281904Y-88706190D01*
X160234285Y-88801428D01*
X160234285Y-88991904D01*
X160281904Y-89087142D01*
X160329523Y-89134761D01*
X160424761Y-89182380D01*
X160615238Y-89182380D01*
X160710476Y-89134761D01*
X160758095Y-89087142D01*
X160805714Y-88991904D01*
X160805714Y-88801428D01*
X160758095Y-88706190D01*
X160710476Y-88658571D01*
X160615238Y-88610952D01*
X159424761Y-86812380D02*
X158853333Y-86812380D01*
X159139047Y-86812380D02*
X159139047Y-85812380D01*
X159043809Y-85955238D01*
X158948571Y-86050476D01*
X158853333Y-86098095D01*
X160043809Y-85812380D02*
X160139047Y-85812380D01*
X160234285Y-85860000D01*
X160281904Y-85907619D01*
X160329523Y-86002857D01*
X160377142Y-86193333D01*
X160377142Y-86431428D01*
X160329523Y-86621904D01*
X160281904Y-86717142D01*
X160234285Y-86764761D01*
X160139047Y-86812380D01*
X160043809Y-86812380D01*
X159948571Y-86764761D01*
X159900952Y-86717142D01*
X159853333Y-86621904D01*
X159805714Y-86431428D01*
X159805714Y-86193333D01*
X159853333Y-86002857D01*
X159900952Y-85907619D01*
X159948571Y-85860000D01*
X160043809Y-85812380D01*
X160805714Y-86812380D02*
X160805714Y-85812380D01*
X160900952Y-86431428D02*
X161186666Y-86812380D01*
X161186666Y-86145714D02*
X160805714Y-86526666D01*
X147153333Y-79192380D02*
X146820000Y-78716190D01*
X146581904Y-79192380D02*
X146581904Y-78192380D01*
X146962857Y-78192380D01*
X147058095Y-78240000D01*
X147105714Y-78287619D01*
X147153333Y-78382857D01*
X147153333Y-78525714D01*
X147105714Y-78620952D01*
X147058095Y-78668571D01*
X146962857Y-78716190D01*
X146581904Y-78716190D01*
X147629523Y-79192380D02*
X147820000Y-79192380D01*
X147915238Y-79144761D01*
X147962857Y-79097142D01*
X148058095Y-78954285D01*
X148105714Y-78763809D01*
X148105714Y-78382857D01*
X148058095Y-78287619D01*
X148010476Y-78240000D01*
X147915238Y-78192380D01*
X147724761Y-78192380D01*
X147629523Y-78240000D01*
X147581904Y-78287619D01*
X147534285Y-78382857D01*
X147534285Y-78620952D01*
X147581904Y-78716190D01*
X147629523Y-78763809D01*
X147724761Y-78811428D01*
X147915238Y-78811428D01*
X148010476Y-78763809D01*
X148058095Y-78716190D01*
X148105714Y-78620952D01*
X145915238Y-75747619D02*
X145962857Y-75700000D01*
X146058095Y-75652380D01*
X146296190Y-75652380D01*
X146391428Y-75700000D01*
X146439047Y-75747619D01*
X146486666Y-75842857D01*
X146486666Y-75938095D01*
X146439047Y-76080952D01*
X145867619Y-76652380D01*
X146486666Y-76652380D01*
X146915238Y-76557142D02*
X146962857Y-76604761D01*
X146915238Y-76652380D01*
X146867619Y-76604761D01*
X146915238Y-76557142D01*
X146915238Y-76652380D01*
X147343809Y-75747619D02*
X147391428Y-75700000D01*
X147486666Y-75652380D01*
X147724761Y-75652380D01*
X147820000Y-75700000D01*
X147867619Y-75747619D01*
X147915238Y-75842857D01*
X147915238Y-75938095D01*
X147867619Y-76080952D01*
X147296190Y-76652380D01*
X147915238Y-76652380D01*
X148343809Y-76652380D02*
X148343809Y-75652380D01*
X148439047Y-76271428D02*
X148724761Y-76652380D01*
X148724761Y-75985714D02*
X148343809Y-76366666D01*
X159377142Y-84102380D02*
X159043809Y-83626190D01*
X158805714Y-84102380D02*
X158805714Y-83102380D01*
X159186666Y-83102380D01*
X159281904Y-83150000D01*
X159329523Y-83197619D01*
X159377142Y-83292857D01*
X159377142Y-83435714D01*
X159329523Y-83530952D01*
X159281904Y-83578571D01*
X159186666Y-83626190D01*
X158805714Y-83626190D01*
X160329523Y-84102380D02*
X159758095Y-84102380D01*
X160043809Y-84102380D02*
X160043809Y-83102380D01*
X159948571Y-83245238D01*
X159853333Y-83340476D01*
X159758095Y-83388095D01*
X160948571Y-83102380D02*
X161043809Y-83102380D01*
X161139047Y-83150000D01*
X161186666Y-83197619D01*
X161234285Y-83292857D01*
X161281904Y-83483333D01*
X161281904Y-83721428D01*
X161234285Y-83911904D01*
X161186666Y-84007142D01*
X161139047Y-84054761D01*
X161043809Y-84102380D01*
X160948571Y-84102380D01*
X160853333Y-84054761D01*
X160805714Y-84007142D01*
X160758095Y-83911904D01*
X160710476Y-83721428D01*
X160710476Y-83483333D01*
X160758095Y-83292857D01*
X160805714Y-83197619D01*
X160853333Y-83150000D01*
X160948571Y-83102380D01*
X159424761Y-81732380D02*
X158853333Y-81732380D01*
X159139047Y-81732380D02*
X159139047Y-80732380D01*
X159043809Y-80875238D01*
X158948571Y-80970476D01*
X158853333Y-81018095D01*
X160043809Y-80732380D02*
X160139047Y-80732380D01*
X160234285Y-80780000D01*
X160281904Y-80827619D01*
X160329523Y-80922857D01*
X160377142Y-81113333D01*
X160377142Y-81351428D01*
X160329523Y-81541904D01*
X160281904Y-81637142D01*
X160234285Y-81684761D01*
X160139047Y-81732380D01*
X160043809Y-81732380D01*
X159948571Y-81684761D01*
X159900952Y-81637142D01*
X159853333Y-81541904D01*
X159805714Y-81351428D01*
X159805714Y-81113333D01*
X159853333Y-80922857D01*
X159900952Y-80827619D01*
X159948571Y-80780000D01*
X160043809Y-80732380D01*
X160805714Y-81732380D02*
X160805714Y-80732380D01*
X160900952Y-81351428D02*
X161186666Y-81732380D01*
X161186666Y-81065714D02*
X160805714Y-81446666D01*
X175542380Y-81922857D02*
X175066190Y-82256190D01*
X175542380Y-82494285D02*
X174542380Y-82494285D01*
X174542380Y-82113333D01*
X174590000Y-82018095D01*
X174637619Y-81970476D01*
X174732857Y-81922857D01*
X174875714Y-81922857D01*
X174970952Y-81970476D01*
X175018571Y-82018095D01*
X175066190Y-82113333D01*
X175066190Y-82494285D01*
X175542380Y-80970476D02*
X175542380Y-81541904D01*
X175542380Y-81256190D02*
X174542380Y-81256190D01*
X174685238Y-81351428D01*
X174780476Y-81446666D01*
X174828095Y-81541904D01*
X175542380Y-80018095D02*
X175542380Y-80589523D01*
X175542380Y-80303809D02*
X174542380Y-80303809D01*
X174685238Y-80399047D01*
X174780476Y-80494285D01*
X174828095Y-80589523D01*
X172505714Y-82208571D02*
X173172380Y-82208571D01*
X172124761Y-82446666D02*
X172839047Y-82684761D01*
X172839047Y-82065714D01*
X173077142Y-81684761D02*
X173124761Y-81637142D01*
X173172380Y-81684761D01*
X173124761Y-81732380D01*
X173077142Y-81684761D01*
X173172380Y-81684761D01*
X172172380Y-81303809D02*
X172172380Y-80637142D01*
X173172380Y-81065714D01*
X173172380Y-80256190D02*
X172172380Y-80256190D01*
X172791428Y-80160952D02*
X173172380Y-79875238D01*
X172505714Y-79875238D02*
X172886666Y-80256190D01*
X160591666Y-107084761D02*
X160734523Y-107132380D01*
X160972619Y-107132380D01*
X161067857Y-107084761D01*
X161115476Y-107037142D01*
X161163095Y-106941904D01*
X161163095Y-106846666D01*
X161115476Y-106751428D01*
X161067857Y-106703809D01*
X160972619Y-106656190D01*
X160782142Y-106608571D01*
X160686904Y-106560952D01*
X160639285Y-106513333D01*
X160591666Y-106418095D01*
X160591666Y-106322857D01*
X160639285Y-106227619D01*
X160686904Y-106180000D01*
X160782142Y-106132380D01*
X161020238Y-106132380D01*
X161163095Y-106180000D01*
X161496428Y-106132380D02*
X161734523Y-107132380D01*
X161925000Y-106418095D01*
X162115476Y-107132380D01*
X162353571Y-106132380D01*
X163258333Y-107132380D02*
X162686904Y-107132380D01*
X162972619Y-107132380D02*
X162972619Y-106132380D01*
X162877380Y-106275238D01*
X162782142Y-106370476D01*
X162686904Y-106418095D01*
X133163333Y-89267142D02*
X133115714Y-89314761D01*
X132972857Y-89362380D01*
X132877619Y-89362380D01*
X132734761Y-89314761D01*
X132639523Y-89219523D01*
X132591904Y-89124285D01*
X132544285Y-88933809D01*
X132544285Y-88790952D01*
X132591904Y-88600476D01*
X132639523Y-88505238D01*
X132734761Y-88410000D01*
X132877619Y-88362380D01*
X132972857Y-88362380D01*
X133115714Y-88410000D01*
X133163333Y-88457619D01*
X134115714Y-89362380D02*
X133544285Y-89362380D01*
X133830000Y-89362380D02*
X133830000Y-88362380D01*
X133734761Y-88505238D01*
X133639523Y-88600476D01*
X133544285Y-88648095D01*
X133203333Y-84187142D02*
X133155714Y-84234761D01*
X133012857Y-84282380D01*
X132917619Y-84282380D01*
X132774761Y-84234761D01*
X132679523Y-84139523D01*
X132631904Y-84044285D01*
X132584285Y-83853809D01*
X132584285Y-83710952D01*
X132631904Y-83520476D01*
X132679523Y-83425238D01*
X132774761Y-83330000D01*
X132917619Y-83282380D01*
X133012857Y-83282380D01*
X133155714Y-83330000D01*
X133203333Y-83377619D01*
X133584285Y-83377619D02*
X133631904Y-83330000D01*
X133727142Y-83282380D01*
X133965238Y-83282380D01*
X134060476Y-83330000D01*
X134108095Y-83377619D01*
X134155714Y-83472857D01*
X134155714Y-83568095D01*
X134108095Y-83710952D01*
X133536666Y-84282380D01*
X134155714Y-84282380D01*
X133500952Y-75382380D02*
X133024761Y-75382380D01*
X133024761Y-74382380D01*
X133834285Y-74858571D02*
X134167619Y-74858571D01*
X134310476Y-75382380D02*
X133834285Y-75382380D01*
X133834285Y-74382380D01*
X134310476Y-74382380D01*
X134739047Y-75382380D02*
X134739047Y-74382380D01*
X134977142Y-74382380D01*
X135120000Y-74430000D01*
X135215238Y-74525238D01*
X135262857Y-74620476D01*
X135310476Y-74810952D01*
X135310476Y-74953809D01*
X135262857Y-75144285D01*
X135215238Y-75239523D01*
X135120000Y-75334761D01*
X134977142Y-75382380D01*
X134739047Y-75382380D01*
X136262857Y-75382380D02*
X135691428Y-75382380D01*
X135977142Y-75382380D02*
X135977142Y-74382380D01*
X135881904Y-74525238D01*
X135786666Y-74620476D01*
X135691428Y-74668095D01*
X134951904Y-70949761D02*
X135094761Y-70997380D01*
X135332857Y-70997380D01*
X135428095Y-70949761D01*
X135475714Y-70902142D01*
X135523333Y-70806904D01*
X135523333Y-70711666D01*
X135475714Y-70616428D01*
X135428095Y-70568809D01*
X135332857Y-70521190D01*
X135142380Y-70473571D01*
X135047142Y-70425952D01*
X134999523Y-70378333D01*
X134951904Y-70283095D01*
X134951904Y-70187857D01*
X134999523Y-70092619D01*
X135047142Y-70045000D01*
X135142380Y-69997380D01*
X135380476Y-69997380D01*
X135523333Y-70045000D01*
X135951904Y-70330714D02*
X135951904Y-71330714D01*
X135951904Y-70378333D02*
X136047142Y-70330714D01*
X136237619Y-70330714D01*
X136332857Y-70378333D01*
X136380476Y-70425952D01*
X136428095Y-70521190D01*
X136428095Y-70806904D01*
X136380476Y-70902142D01*
X136332857Y-70949761D01*
X136237619Y-70997380D01*
X136047142Y-70997380D01*
X135951904Y-70949761D01*
X137285238Y-70997380D02*
X137285238Y-70473571D01*
X137237619Y-70378333D01*
X137142380Y-70330714D01*
X136951904Y-70330714D01*
X136856666Y-70378333D01*
X137285238Y-70949761D02*
X137190000Y-70997380D01*
X136951904Y-70997380D01*
X136856666Y-70949761D01*
X136809047Y-70854523D01*
X136809047Y-70759285D01*
X136856666Y-70664047D01*
X136951904Y-70616428D01*
X137190000Y-70616428D01*
X137285238Y-70568809D01*
X137761428Y-70997380D02*
X137761428Y-70330714D01*
X137761428Y-70521190D02*
X137809047Y-70425952D01*
X137856666Y-70378333D01*
X137951904Y-70330714D01*
X138047142Y-70330714D01*
X138380476Y-70997380D02*
X138380476Y-69997380D01*
X138475714Y-70616428D02*
X138761428Y-70997380D01*
X138761428Y-70330714D02*
X138380476Y-70711666D01*
X139523333Y-70473571D02*
X139190000Y-70473571D01*
X139190000Y-70997380D02*
X139190000Y-69997380D01*
X139666190Y-69997380D01*
X140475714Y-70330714D02*
X140475714Y-70997380D01*
X140047142Y-70330714D02*
X140047142Y-70854523D01*
X140094761Y-70949761D01*
X140190000Y-70997380D01*
X140332857Y-70997380D01*
X140428095Y-70949761D01*
X140475714Y-70902142D01*
X140951904Y-70330714D02*
X140951904Y-70997380D01*
X140951904Y-70425952D02*
X140999523Y-70378333D01*
X141094761Y-70330714D01*
X141237619Y-70330714D01*
X141332857Y-70378333D01*
X141380476Y-70473571D01*
X141380476Y-70997380D01*
X141856666Y-70616428D02*
X142618571Y-70616428D01*
X142999523Y-69997380D02*
X143666190Y-69997380D01*
X143237619Y-70997380D01*
X144047142Y-70616428D02*
X144809047Y-70616428D01*
X145237619Y-70949761D02*
X145380476Y-70997380D01*
X145618571Y-70997380D01*
X145713809Y-70949761D01*
X145761428Y-70902142D01*
X145809047Y-70806904D01*
X145809047Y-70711666D01*
X145761428Y-70616428D01*
X145713809Y-70568809D01*
X145618571Y-70521190D01*
X145428095Y-70473571D01*
X145332857Y-70425952D01*
X145285238Y-70378333D01*
X145237619Y-70283095D01*
X145237619Y-70187857D01*
X145285238Y-70092619D01*
X145332857Y-70045000D01*
X145428095Y-69997380D01*
X145666190Y-69997380D01*
X145809047Y-70045000D01*
X146618571Y-70949761D02*
X146523333Y-70997380D01*
X146332857Y-70997380D01*
X146237619Y-70949761D01*
X146190000Y-70854523D01*
X146190000Y-70473571D01*
X146237619Y-70378333D01*
X146332857Y-70330714D01*
X146523333Y-70330714D01*
X146618571Y-70378333D01*
X146666190Y-70473571D01*
X146666190Y-70568809D01*
X146190000Y-70664047D01*
X147523333Y-70330714D02*
X147523333Y-71140238D01*
X147475714Y-71235476D01*
X147428095Y-71283095D01*
X147332857Y-71330714D01*
X147190000Y-71330714D01*
X147094761Y-71283095D01*
X147523333Y-70949761D02*
X147428095Y-70997380D01*
X147237619Y-70997380D01*
X147142380Y-70949761D01*
X147094761Y-70902142D01*
X147047142Y-70806904D01*
X147047142Y-70521190D01*
X147094761Y-70425952D01*
X147142380Y-70378333D01*
X147237619Y-70330714D01*
X147428095Y-70330714D01*
X147523333Y-70378333D01*
X147999523Y-70997380D02*
X147999523Y-70330714D01*
X147999523Y-70425952D02*
X148047142Y-70378333D01*
X148142380Y-70330714D01*
X148285238Y-70330714D01*
X148380476Y-70378333D01*
X148428095Y-70473571D01*
X148428095Y-70997380D01*
X148428095Y-70473571D02*
X148475714Y-70378333D01*
X148570952Y-70330714D01*
X148713809Y-70330714D01*
X148809047Y-70378333D01*
X148856666Y-70473571D01*
X148856666Y-70997380D01*
X149713809Y-70949761D02*
X149618571Y-70997380D01*
X149428095Y-70997380D01*
X149332857Y-70949761D01*
X149285238Y-70854523D01*
X149285238Y-70473571D01*
X149332857Y-70378333D01*
X149428095Y-70330714D01*
X149618571Y-70330714D01*
X149713809Y-70378333D01*
X149761428Y-70473571D01*
X149761428Y-70568809D01*
X149285238Y-70664047D01*
X150190000Y-70330714D02*
X150190000Y-70997380D01*
X150190000Y-70425952D02*
X150237619Y-70378333D01*
X150332857Y-70330714D01*
X150475714Y-70330714D01*
X150570952Y-70378333D01*
X150618571Y-70473571D01*
X150618571Y-70997380D01*
X150951904Y-70330714D02*
X151332857Y-70330714D01*
X151094761Y-69997380D02*
X151094761Y-70854523D01*
X151142380Y-70949761D01*
X151237619Y-70997380D01*
X151332857Y-70997380D01*
X151666190Y-70616428D02*
X152428095Y-70616428D01*
X152856666Y-70949761D02*
X152999523Y-70997380D01*
X153237619Y-70997380D01*
X153332857Y-70949761D01*
X153380476Y-70902142D01*
X153428095Y-70806904D01*
X153428095Y-70711666D01*
X153380476Y-70616428D01*
X153332857Y-70568809D01*
X153237619Y-70521190D01*
X153047142Y-70473571D01*
X152951904Y-70425952D01*
X152904285Y-70378333D01*
X152856666Y-70283095D01*
X152856666Y-70187857D01*
X152904285Y-70092619D01*
X152951904Y-70045000D01*
X153047142Y-69997380D01*
X153285238Y-69997380D01*
X153428095Y-70045000D01*
X154237619Y-70949761D02*
X154142380Y-70997380D01*
X153951904Y-70997380D01*
X153856666Y-70949761D01*
X153809047Y-70854523D01*
X153809047Y-70473571D01*
X153856666Y-70378333D01*
X153951904Y-70330714D01*
X154142380Y-70330714D01*
X154237619Y-70378333D01*
X154285238Y-70473571D01*
X154285238Y-70568809D01*
X153809047Y-70664047D01*
X154713809Y-70997380D02*
X154713809Y-70330714D01*
X154713809Y-70521190D02*
X154761428Y-70425952D01*
X154809047Y-70378333D01*
X154904285Y-70330714D01*
X154999523Y-70330714D01*
X155332857Y-70997380D02*
X155332857Y-70330714D01*
X155332857Y-69997380D02*
X155285238Y-70045000D01*
X155332857Y-70092619D01*
X155380476Y-70045000D01*
X155332857Y-69997380D01*
X155332857Y-70092619D01*
X156237619Y-70997380D02*
X156237619Y-70473571D01*
X156190000Y-70378333D01*
X156094761Y-70330714D01*
X155904285Y-70330714D01*
X155809047Y-70378333D01*
X156237619Y-70949761D02*
X156142380Y-70997380D01*
X155904285Y-70997380D01*
X155809047Y-70949761D01*
X155761428Y-70854523D01*
X155761428Y-70759285D01*
X155809047Y-70664047D01*
X155904285Y-70616428D01*
X156142380Y-70616428D01*
X156237619Y-70568809D01*
X156856666Y-70997380D02*
X156761428Y-70949761D01*
X156713809Y-70854523D01*
X156713809Y-69997380D01*
X157237619Y-70616428D02*
X157999523Y-70616428D01*
X158475714Y-70997380D02*
X158475714Y-69997380D01*
X158713809Y-69997380D01*
X158856666Y-70045000D01*
X158951904Y-70140238D01*
X158999523Y-70235476D01*
X159047142Y-70425952D01*
X159047142Y-70568809D01*
X158999523Y-70759285D01*
X158951904Y-70854523D01*
X158856666Y-70949761D01*
X158713809Y-70997380D01*
X158475714Y-70997380D01*
X159475714Y-70997380D02*
X159475714Y-70330714D01*
X159475714Y-69997380D02*
X159428095Y-70045000D01*
X159475714Y-70092619D01*
X159523333Y-70045000D01*
X159475714Y-69997380D01*
X159475714Y-70092619D01*
X159904285Y-70949761D02*
X159999523Y-70997380D01*
X160190000Y-70997380D01*
X160285238Y-70949761D01*
X160332857Y-70854523D01*
X160332857Y-70806904D01*
X160285238Y-70711666D01*
X160190000Y-70664047D01*
X160047142Y-70664047D01*
X159951904Y-70616428D01*
X159904285Y-70521190D01*
X159904285Y-70473571D01*
X159951904Y-70378333D01*
X160047142Y-70330714D01*
X160190000Y-70330714D01*
X160285238Y-70378333D01*
X160761428Y-70330714D02*
X160761428Y-71330714D01*
X160761428Y-70378333D02*
X160856666Y-70330714D01*
X161047142Y-70330714D01*
X161142380Y-70378333D01*
X161190000Y-70425952D01*
X161237619Y-70521190D01*
X161237619Y-70806904D01*
X161190000Y-70902142D01*
X161142380Y-70949761D01*
X161047142Y-70997380D01*
X160856666Y-70997380D01*
X160761428Y-70949761D01*
X161809047Y-70997380D02*
X161713809Y-70949761D01*
X161666190Y-70854523D01*
X161666190Y-69997380D01*
X162618571Y-70997380D02*
X162618571Y-70473571D01*
X162570952Y-70378333D01*
X162475714Y-70330714D01*
X162285238Y-70330714D01*
X162190000Y-70378333D01*
X162618571Y-70949761D02*
X162523333Y-70997380D01*
X162285238Y-70997380D01*
X162190000Y-70949761D01*
X162142380Y-70854523D01*
X162142380Y-70759285D01*
X162190000Y-70664047D01*
X162285238Y-70616428D01*
X162523333Y-70616428D01*
X162618571Y-70568809D01*
X162999523Y-70330714D02*
X163237619Y-70997380D01*
X163475714Y-70330714D02*
X163237619Y-70997380D01*
X163142380Y-71235476D01*
X163094761Y-71283095D01*
X162999523Y-71330714D01*
X163856666Y-70616428D02*
X164618571Y-70616428D01*
X165666190Y-70997380D02*
X165332857Y-70521190D01*
X165094761Y-70997380D02*
X165094761Y-69997380D01*
X165475714Y-69997380D01*
X165570952Y-70045000D01*
X165618571Y-70092619D01*
X165666190Y-70187857D01*
X165666190Y-70330714D01*
X165618571Y-70425952D01*
X165570952Y-70473571D01*
X165475714Y-70521190D01*
X165094761Y-70521190D01*
X166475714Y-70949761D02*
X166380476Y-70997380D01*
X166190000Y-70997380D01*
X166094761Y-70949761D01*
X166047142Y-70854523D01*
X166047142Y-70473571D01*
X166094761Y-70378333D01*
X166190000Y-70330714D01*
X166380476Y-70330714D01*
X166475714Y-70378333D01*
X166523333Y-70473571D01*
X166523333Y-70568809D01*
X166047142Y-70664047D01*
X167380476Y-70997380D02*
X167380476Y-69997380D01*
X167380476Y-70949761D02*
X167285238Y-70997380D01*
X167094761Y-70997380D01*
X166999523Y-70949761D01*
X166951904Y-70902142D01*
X166904285Y-70806904D01*
X166904285Y-70521190D01*
X166951904Y-70425952D01*
X166999523Y-70378333D01*
X167094761Y-70330714D01*
X167285238Y-70330714D01*
X167380476Y-70378333D01*
X124468095Y-98134380D02*
X125039523Y-98134380D01*
X124753809Y-99134380D02*
X124753809Y-98134380D01*
X125372857Y-99134380D02*
X125372857Y-98134380D01*
X125753809Y-98134380D01*
X125849047Y-98182000D01*
X125896666Y-98229619D01*
X125944285Y-98324857D01*
X125944285Y-98467714D01*
X125896666Y-98562952D01*
X125849047Y-98610571D01*
X125753809Y-98658190D01*
X125372857Y-98658190D01*
X126896666Y-99134380D02*
X126325238Y-99134380D01*
X126610952Y-99134380D02*
X126610952Y-98134380D01*
X126515714Y-98277238D01*
X126420476Y-98372476D01*
X126325238Y-98420095D01*
X124563333Y-101865714D02*
X124563333Y-102532380D01*
X124563333Y-101960952D02*
X124610952Y-101913333D01*
X124706190Y-101865714D01*
X124849047Y-101865714D01*
X124944285Y-101913333D01*
X124991904Y-102008571D01*
X124991904Y-102532380D01*
X125420476Y-102484761D02*
X125563333Y-102532380D01*
X125801428Y-102532380D01*
X125896666Y-102484761D01*
X125944285Y-102437142D01*
X125991904Y-102341904D01*
X125991904Y-102246666D01*
X125944285Y-102151428D01*
X125896666Y-102103809D01*
X125801428Y-102056190D01*
X125610952Y-102008571D01*
X125515714Y-101960952D01*
X125468095Y-101913333D01*
X125420476Y-101818095D01*
X125420476Y-101722857D01*
X125468095Y-101627619D01*
X125515714Y-101580000D01*
X125610952Y-101532380D01*
X125849047Y-101532380D01*
X125991904Y-101580000D01*
X126372857Y-102484761D02*
X126515714Y-102532380D01*
X126753809Y-102532380D01*
X126849047Y-102484761D01*
X126896666Y-102437142D01*
X126944285Y-102341904D01*
X126944285Y-102246666D01*
X126896666Y-102151428D01*
X126849047Y-102103809D01*
X126753809Y-102056190D01*
X126563333Y-102008571D01*
X126468095Y-101960952D01*
X126420476Y-101913333D01*
X126372857Y-101818095D01*
X126372857Y-101722857D01*
X126420476Y-101627619D01*
X126468095Y-101580000D01*
X126563333Y-101532380D01*
X126801428Y-101532380D01*
X126944285Y-101580000D01*
X137168095Y-84164380D02*
X137739523Y-84164380D01*
X137453809Y-85164380D02*
X137453809Y-84164380D01*
X138072857Y-85164380D02*
X138072857Y-84164380D01*
X138453809Y-84164380D01*
X138549047Y-84212000D01*
X138596666Y-84259619D01*
X138644285Y-84354857D01*
X138644285Y-84497714D01*
X138596666Y-84592952D01*
X138549047Y-84640571D01*
X138453809Y-84688190D01*
X138072857Y-84688190D01*
X139025238Y-84259619D02*
X139072857Y-84212000D01*
X139168095Y-84164380D01*
X139406190Y-84164380D01*
X139501428Y-84212000D01*
X139549047Y-84259619D01*
X139596666Y-84354857D01*
X139596666Y-84450095D01*
X139549047Y-84592952D01*
X138977619Y-85164380D01*
X139596666Y-85164380D01*
X137739523Y-88467142D02*
X137691904Y-88514761D01*
X137549047Y-88562380D01*
X137453809Y-88562380D01*
X137310952Y-88514761D01*
X137215714Y-88419523D01*
X137168095Y-88324285D01*
X137120476Y-88133809D01*
X137120476Y-87990952D01*
X137168095Y-87800476D01*
X137215714Y-87705238D01*
X137310952Y-87610000D01*
X137453809Y-87562380D01*
X137549047Y-87562380D01*
X137691904Y-87610000D01*
X137739523Y-87657619D01*
X138168095Y-88562380D02*
X138168095Y-87562380D01*
X138168095Y-88038571D02*
X138739523Y-88038571D01*
X138739523Y-88562380D02*
X138739523Y-87562380D01*
X139739523Y-88562380D02*
X139168095Y-88562380D01*
X139453809Y-88562380D02*
X139453809Y-87562380D01*
X139358571Y-87705238D01*
X139263333Y-87800476D01*
X139168095Y-87848095D01*
X137168095Y-79084380D02*
X137739523Y-79084380D01*
X137453809Y-80084380D02*
X137453809Y-79084380D01*
X138072857Y-80084380D02*
X138072857Y-79084380D01*
X138453809Y-79084380D01*
X138549047Y-79132000D01*
X138596666Y-79179619D01*
X138644285Y-79274857D01*
X138644285Y-79417714D01*
X138596666Y-79512952D01*
X138549047Y-79560571D01*
X138453809Y-79608190D01*
X138072857Y-79608190D01*
X138977619Y-79084380D02*
X139596666Y-79084380D01*
X139263333Y-79465333D01*
X139406190Y-79465333D01*
X139501428Y-79512952D01*
X139549047Y-79560571D01*
X139596666Y-79655809D01*
X139596666Y-79893904D01*
X139549047Y-79989142D01*
X139501428Y-80036761D01*
X139406190Y-80084380D01*
X139120476Y-80084380D01*
X139025238Y-80036761D01*
X138977619Y-79989142D01*
X137739523Y-83387142D02*
X137691904Y-83434761D01*
X137549047Y-83482380D01*
X137453809Y-83482380D01*
X137310952Y-83434761D01*
X137215714Y-83339523D01*
X137168095Y-83244285D01*
X137120476Y-83053809D01*
X137120476Y-82910952D01*
X137168095Y-82720476D01*
X137215714Y-82625238D01*
X137310952Y-82530000D01*
X137453809Y-82482380D01*
X137549047Y-82482380D01*
X137691904Y-82530000D01*
X137739523Y-82577619D01*
X138168095Y-83482380D02*
X138168095Y-82482380D01*
X138168095Y-82958571D02*
X138739523Y-82958571D01*
X138739523Y-83482380D02*
X138739523Y-82482380D01*
X139168095Y-82577619D02*
X139215714Y-82530000D01*
X139310952Y-82482380D01*
X139549047Y-82482380D01*
X139644285Y-82530000D01*
X139691904Y-82577619D01*
X139739523Y-82672857D01*
X139739523Y-82768095D01*
X139691904Y-82910952D01*
X139120476Y-83482380D01*
X139739523Y-83482380D01*
X166378095Y-45172380D02*
X166949523Y-45172380D01*
X166663809Y-46172380D02*
X166663809Y-45172380D01*
X167282857Y-46172380D02*
X167282857Y-45172380D01*
X167663809Y-45172380D01*
X167759047Y-45220000D01*
X167806666Y-45267619D01*
X167854285Y-45362857D01*
X167854285Y-45505714D01*
X167806666Y-45600952D01*
X167759047Y-45648571D01*
X167663809Y-45696190D01*
X167282857Y-45696190D01*
X168711428Y-45505714D02*
X168711428Y-46172380D01*
X168473333Y-45124761D02*
X168235238Y-45839047D01*
X168854285Y-45839047D01*
X168989523Y-48509761D02*
X169132380Y-48557380D01*
X169370476Y-48557380D01*
X169465714Y-48509761D01*
X169513333Y-48462142D01*
X169560952Y-48366904D01*
X169560952Y-48271666D01*
X169513333Y-48176428D01*
X169465714Y-48128809D01*
X169370476Y-48081190D01*
X169180000Y-48033571D01*
X169084761Y-47985952D01*
X169037142Y-47938333D01*
X168989523Y-47843095D01*
X168989523Y-47747857D01*
X169037142Y-47652619D01*
X169084761Y-47605000D01*
X169180000Y-47557380D01*
X169418095Y-47557380D01*
X169560952Y-47605000D01*
X170560952Y-48462142D02*
X170513333Y-48509761D01*
X170370476Y-48557380D01*
X170275238Y-48557380D01*
X170132380Y-48509761D01*
X170037142Y-48414523D01*
X169989523Y-48319285D01*
X169941904Y-48128809D01*
X169941904Y-47985952D01*
X169989523Y-47795476D01*
X170037142Y-47700238D01*
X170132380Y-47605000D01*
X170275238Y-47557380D01*
X170370476Y-47557380D01*
X170513333Y-47605000D01*
X170560952Y-47652619D01*
X171465714Y-48557380D02*
X170989523Y-48557380D01*
X170989523Y-47557380D01*
X175268095Y-86704380D02*
X175839523Y-86704380D01*
X175553809Y-87704380D02*
X175553809Y-86704380D01*
X176172857Y-87704380D02*
X176172857Y-86704380D01*
X176553809Y-86704380D01*
X176649047Y-86752000D01*
X176696666Y-86799619D01*
X176744285Y-86894857D01*
X176744285Y-87037714D01*
X176696666Y-87132952D01*
X176649047Y-87180571D01*
X176553809Y-87228190D01*
X176172857Y-87228190D01*
X177649047Y-86704380D02*
X177172857Y-86704380D01*
X177125238Y-87180571D01*
X177172857Y-87132952D01*
X177268095Y-87085333D01*
X177506190Y-87085333D01*
X177601428Y-87132952D01*
X177649047Y-87180571D01*
X177696666Y-87275809D01*
X177696666Y-87513904D01*
X177649047Y-87609142D01*
X177601428Y-87656761D01*
X177506190Y-87704380D01*
X177268095Y-87704380D01*
X177172857Y-87656761D01*
X177125238Y-87609142D01*
X175768095Y-90102380D02*
X176339523Y-90102380D01*
X176053809Y-91102380D02*
X176053809Y-90102380D01*
X176577619Y-90102380D02*
X177244285Y-91102380D01*
X177244285Y-90102380D02*
X176577619Y-91102380D01*
X161298095Y-45172380D02*
X161869523Y-45172380D01*
X161583809Y-46172380D02*
X161583809Y-45172380D01*
X162202857Y-46172380D02*
X162202857Y-45172380D01*
X162583809Y-45172380D01*
X162679047Y-45220000D01*
X162726666Y-45267619D01*
X162774285Y-45362857D01*
X162774285Y-45505714D01*
X162726666Y-45600952D01*
X162679047Y-45648571D01*
X162583809Y-45696190D01*
X162202857Y-45696190D01*
X163631428Y-45172380D02*
X163440952Y-45172380D01*
X163345714Y-45220000D01*
X163298095Y-45267619D01*
X163202857Y-45410476D01*
X163155238Y-45600952D01*
X163155238Y-45981904D01*
X163202857Y-46077142D01*
X163250476Y-46124761D01*
X163345714Y-46172380D01*
X163536190Y-46172380D01*
X163631428Y-46124761D01*
X163679047Y-46077142D01*
X163726666Y-45981904D01*
X163726666Y-45743809D01*
X163679047Y-45648571D01*
X163631428Y-45600952D01*
X163536190Y-45553333D01*
X163345714Y-45553333D01*
X163250476Y-45600952D01*
X163202857Y-45648571D01*
X163155238Y-45743809D01*
X163885714Y-48509761D02*
X164028571Y-48557380D01*
X164266666Y-48557380D01*
X164361904Y-48509761D01*
X164409523Y-48462142D01*
X164457142Y-48366904D01*
X164457142Y-48271666D01*
X164409523Y-48176428D01*
X164361904Y-48128809D01*
X164266666Y-48081190D01*
X164076190Y-48033571D01*
X163980952Y-47985952D01*
X163933333Y-47938333D01*
X163885714Y-47843095D01*
X163885714Y-47747857D01*
X163933333Y-47652619D01*
X163980952Y-47605000D01*
X164076190Y-47557380D01*
X164314285Y-47557380D01*
X164457142Y-47605000D01*
X164885714Y-48557380D02*
X164885714Y-47557380D01*
X165123809Y-47557380D01*
X165266666Y-47605000D01*
X165361904Y-47700238D01*
X165409523Y-47795476D01*
X165457142Y-47985952D01*
X165457142Y-48128809D01*
X165409523Y-48319285D01*
X165361904Y-48414523D01*
X165266666Y-48509761D01*
X165123809Y-48557380D01*
X164885714Y-48557380D01*
X165838095Y-48271666D02*
X166314285Y-48271666D01*
X165742857Y-48557380D02*
X166076190Y-47557380D01*
X166409523Y-48557380D01*
X153678095Y-45172380D02*
X154249523Y-45172380D01*
X153963809Y-46172380D02*
X153963809Y-45172380D01*
X154582857Y-46172380D02*
X154582857Y-45172380D01*
X154963809Y-45172380D01*
X155059047Y-45220000D01*
X155106666Y-45267619D01*
X155154285Y-45362857D01*
X155154285Y-45505714D01*
X155106666Y-45600952D01*
X155059047Y-45648571D01*
X154963809Y-45696190D01*
X154582857Y-45696190D01*
X155487619Y-45172380D02*
X156154285Y-45172380D01*
X155725714Y-46172380D01*
X156194285Y-48509761D02*
X156337142Y-48557380D01*
X156575238Y-48557380D01*
X156670476Y-48509761D01*
X156718095Y-48462142D01*
X156765714Y-48366904D01*
X156765714Y-48271666D01*
X156718095Y-48176428D01*
X156670476Y-48128809D01*
X156575238Y-48081190D01*
X156384761Y-48033571D01*
X156289523Y-47985952D01*
X156241904Y-47938333D01*
X156194285Y-47843095D01*
X156194285Y-47747857D01*
X156241904Y-47652619D01*
X156289523Y-47605000D01*
X156384761Y-47557380D01*
X156622857Y-47557380D01*
X156765714Y-47605000D01*
X157765714Y-48462142D02*
X157718095Y-48509761D01*
X157575238Y-48557380D01*
X157480000Y-48557380D01*
X157337142Y-48509761D01*
X157241904Y-48414523D01*
X157194285Y-48319285D01*
X157146666Y-48128809D01*
X157146666Y-47985952D01*
X157194285Y-47795476D01*
X157241904Y-47700238D01*
X157337142Y-47605000D01*
X157480000Y-47557380D01*
X157575238Y-47557380D01*
X157718095Y-47605000D01*
X157765714Y-47652619D01*
X158194285Y-48557380D02*
X158194285Y-47557380D01*
X158765714Y-48557380D02*
X158337142Y-47985952D01*
X158765714Y-47557380D02*
X158194285Y-48128809D01*
X173998095Y-71464380D02*
X174569523Y-71464380D01*
X174283809Y-72464380D02*
X174283809Y-71464380D01*
X174902857Y-72464380D02*
X174902857Y-71464380D01*
X175283809Y-71464380D01*
X175379047Y-71512000D01*
X175426666Y-71559619D01*
X175474285Y-71654857D01*
X175474285Y-71797714D01*
X175426666Y-71892952D01*
X175379047Y-71940571D01*
X175283809Y-71988190D01*
X174902857Y-71988190D01*
X176045714Y-71892952D02*
X175950476Y-71845333D01*
X175902857Y-71797714D01*
X175855238Y-71702476D01*
X175855238Y-71654857D01*
X175902857Y-71559619D01*
X175950476Y-71512000D01*
X176045714Y-71464380D01*
X176236190Y-71464380D01*
X176331428Y-71512000D01*
X176379047Y-71559619D01*
X176426666Y-71654857D01*
X176426666Y-71702476D01*
X176379047Y-71797714D01*
X176331428Y-71845333D01*
X176236190Y-71892952D01*
X176045714Y-71892952D01*
X175950476Y-71940571D01*
X175902857Y-71988190D01*
X175855238Y-72083428D01*
X175855238Y-72273904D01*
X175902857Y-72369142D01*
X175950476Y-72416761D01*
X176045714Y-72464380D01*
X176236190Y-72464380D01*
X176331428Y-72416761D01*
X176379047Y-72369142D01*
X176426666Y-72273904D01*
X176426666Y-72083428D01*
X176379047Y-71988190D01*
X176331428Y-71940571D01*
X176236190Y-71892952D01*
X174712380Y-75862380D02*
X174379047Y-75386190D01*
X174140952Y-75862380D02*
X174140952Y-74862380D01*
X174521904Y-74862380D01*
X174617142Y-74910000D01*
X174664761Y-74957619D01*
X174712380Y-75052857D01*
X174712380Y-75195714D01*
X174664761Y-75290952D01*
X174617142Y-75338571D01*
X174521904Y-75386190D01*
X174140952Y-75386190D01*
X174998095Y-74862380D02*
X175569523Y-74862380D01*
X175283809Y-75862380D02*
X175283809Y-74862380D01*
X175855238Y-75814761D02*
X175998095Y-75862380D01*
X176236190Y-75862380D01*
X176331428Y-75814761D01*
X176379047Y-75767142D01*
X176426666Y-75671904D01*
X176426666Y-75576666D01*
X176379047Y-75481428D01*
X176331428Y-75433809D01*
X176236190Y-75386190D01*
X176045714Y-75338571D01*
X175950476Y-75290952D01*
X175902857Y-75243333D01*
X175855238Y-75148095D01*
X175855238Y-75052857D01*
X175902857Y-74957619D01*
X175950476Y-74910000D01*
X176045714Y-74862380D01*
X176283809Y-74862380D01*
X176426666Y-74910000D01*
X148598095Y-45172380D02*
X149169523Y-45172380D01*
X148883809Y-46172380D02*
X148883809Y-45172380D01*
X149502857Y-46172380D02*
X149502857Y-45172380D01*
X149883809Y-45172380D01*
X149979047Y-45220000D01*
X150026666Y-45267619D01*
X150074285Y-45362857D01*
X150074285Y-45505714D01*
X150026666Y-45600952D01*
X149979047Y-45648571D01*
X149883809Y-45696190D01*
X149502857Y-45696190D01*
X150550476Y-46172380D02*
X150740952Y-46172380D01*
X150836190Y-46124761D01*
X150883809Y-46077142D01*
X150979047Y-45934285D01*
X151026666Y-45743809D01*
X151026666Y-45362857D01*
X150979047Y-45267619D01*
X150931428Y-45220000D01*
X150836190Y-45172380D01*
X150645714Y-45172380D01*
X150550476Y-45220000D01*
X150502857Y-45267619D01*
X150455238Y-45362857D01*
X150455238Y-45600952D01*
X150502857Y-45696190D01*
X150550476Y-45743809D01*
X150645714Y-45791428D01*
X150836190Y-45791428D01*
X150931428Y-45743809D01*
X150979047Y-45696190D01*
X151026666Y-45600952D01*
X150828571Y-48557380D02*
X150828571Y-47557380D01*
X151161904Y-48271666D01*
X151495238Y-47557380D01*
X151495238Y-48557380D01*
X151971428Y-48557380D02*
X151971428Y-47557380D01*
X152400000Y-48509761D02*
X152542857Y-48557380D01*
X152780952Y-48557380D01*
X152876190Y-48509761D01*
X152923809Y-48462142D01*
X152971428Y-48366904D01*
X152971428Y-48271666D01*
X152923809Y-48176428D01*
X152876190Y-48128809D01*
X152780952Y-48081190D01*
X152590476Y-48033571D01*
X152495238Y-47985952D01*
X152447619Y-47938333D01*
X152400000Y-47843095D01*
X152400000Y-47747857D01*
X152447619Y-47652619D01*
X152495238Y-47605000D01*
X152590476Y-47557380D01*
X152828571Y-47557380D01*
X152971428Y-47605000D01*
X153590476Y-47557380D02*
X153780952Y-47557380D01*
X153876190Y-47605000D01*
X153971428Y-47700238D01*
X154019047Y-47890714D01*
X154019047Y-48224047D01*
X153971428Y-48414523D01*
X153876190Y-48509761D01*
X153780952Y-48557380D01*
X153590476Y-48557380D01*
X153495238Y-48509761D01*
X153400000Y-48414523D01*
X153352380Y-48224047D01*
X153352380Y-47890714D01*
X153400000Y-47700238D01*
X153495238Y-47605000D01*
X153590476Y-47557380D01*
X139866904Y-45172380D02*
X140438333Y-45172380D01*
X140152619Y-46172380D02*
X140152619Y-45172380D01*
X140771666Y-46172380D02*
X140771666Y-45172380D01*
X141152619Y-45172380D01*
X141247857Y-45220000D01*
X141295476Y-45267619D01*
X141343095Y-45362857D01*
X141343095Y-45505714D01*
X141295476Y-45600952D01*
X141247857Y-45648571D01*
X141152619Y-45696190D01*
X140771666Y-45696190D01*
X142295476Y-46172380D02*
X141724047Y-46172380D01*
X142009761Y-46172380D02*
X142009761Y-45172380D01*
X141914523Y-45315238D01*
X141819285Y-45410476D01*
X141724047Y-45458095D01*
X142914523Y-45172380D02*
X143009761Y-45172380D01*
X143105000Y-45220000D01*
X143152619Y-45267619D01*
X143200238Y-45362857D01*
X143247857Y-45553333D01*
X143247857Y-45791428D01*
X143200238Y-45981904D01*
X143152619Y-46077142D01*
X143105000Y-46124761D01*
X143009761Y-46172380D01*
X142914523Y-46172380D01*
X142819285Y-46124761D01*
X142771666Y-46077142D01*
X142724047Y-45981904D01*
X142676428Y-45791428D01*
X142676428Y-45553333D01*
X142724047Y-45362857D01*
X142771666Y-45267619D01*
X142819285Y-45220000D01*
X142914523Y-45172380D01*
X143208571Y-48557380D02*
X143208571Y-47557380D01*
X143541904Y-48271666D01*
X143875238Y-47557380D01*
X143875238Y-48557380D01*
X144541904Y-47557380D02*
X144732380Y-47557380D01*
X144827619Y-47605000D01*
X144922857Y-47700238D01*
X144970476Y-47890714D01*
X144970476Y-48224047D01*
X144922857Y-48414523D01*
X144827619Y-48509761D01*
X144732380Y-48557380D01*
X144541904Y-48557380D01*
X144446666Y-48509761D01*
X144351428Y-48414523D01*
X144303809Y-48224047D01*
X144303809Y-47890714D01*
X144351428Y-47700238D01*
X144446666Y-47605000D01*
X144541904Y-47557380D01*
X145351428Y-48509761D02*
X145494285Y-48557380D01*
X145732380Y-48557380D01*
X145827619Y-48509761D01*
X145875238Y-48462142D01*
X145922857Y-48366904D01*
X145922857Y-48271666D01*
X145875238Y-48176428D01*
X145827619Y-48128809D01*
X145732380Y-48081190D01*
X145541904Y-48033571D01*
X145446666Y-47985952D01*
X145399047Y-47938333D01*
X145351428Y-47843095D01*
X145351428Y-47747857D01*
X145399047Y-47652619D01*
X145446666Y-47605000D01*
X145541904Y-47557380D01*
X145780000Y-47557380D01*
X145922857Y-47605000D01*
X146351428Y-48557380D02*
X146351428Y-47557380D01*
X122721904Y-49239380D02*
X123293333Y-49239380D01*
X123007619Y-50239380D02*
X123007619Y-49239380D01*
X123626666Y-50239380D02*
X123626666Y-49239380D01*
X124007619Y-49239380D01*
X124102857Y-49287000D01*
X124150476Y-49334619D01*
X124198095Y-49429857D01*
X124198095Y-49572714D01*
X124150476Y-49667952D01*
X124102857Y-49715571D01*
X124007619Y-49763190D01*
X123626666Y-49763190D01*
X125150476Y-50239380D02*
X124579047Y-50239380D01*
X124864761Y-50239380D02*
X124864761Y-49239380D01*
X124769523Y-49382238D01*
X124674285Y-49477476D01*
X124579047Y-49525095D01*
X126102857Y-50239380D02*
X125531428Y-50239380D01*
X125817142Y-50239380D02*
X125817142Y-49239380D01*
X125721904Y-49382238D01*
X125626666Y-49477476D01*
X125531428Y-49525095D01*
X123698095Y-52685000D02*
X123602857Y-52637380D01*
X123460000Y-52637380D01*
X123317142Y-52685000D01*
X123221904Y-52780238D01*
X123174285Y-52875476D01*
X123126666Y-53065952D01*
X123126666Y-53208809D01*
X123174285Y-53399285D01*
X123221904Y-53494523D01*
X123317142Y-53589761D01*
X123460000Y-53637380D01*
X123555238Y-53637380D01*
X123698095Y-53589761D01*
X123745714Y-53542142D01*
X123745714Y-53208809D01*
X123555238Y-53208809D01*
X124174285Y-53637380D02*
X124174285Y-52637380D01*
X124745714Y-53637380D01*
X124745714Y-52637380D01*
X125221904Y-53637380D02*
X125221904Y-52637380D01*
X125460000Y-52637380D01*
X125602857Y-52685000D01*
X125698095Y-52780238D01*
X125745714Y-52875476D01*
X125793333Y-53065952D01*
X125793333Y-53208809D01*
X125745714Y-53399285D01*
X125698095Y-53494523D01*
X125602857Y-53589761D01*
X125460000Y-53637380D01*
X125221904Y-53637380D01*
X176061904Y-49239380D02*
X176633333Y-49239380D01*
X176347619Y-50239380D02*
X176347619Y-49239380D01*
X176966666Y-50239380D02*
X176966666Y-49239380D01*
X177347619Y-49239380D01*
X177442857Y-49287000D01*
X177490476Y-49334619D01*
X177538095Y-49429857D01*
X177538095Y-49572714D01*
X177490476Y-49667952D01*
X177442857Y-49715571D01*
X177347619Y-49763190D01*
X176966666Y-49763190D01*
X178490476Y-50239380D02*
X177919047Y-50239380D01*
X178204761Y-50239380D02*
X178204761Y-49239380D01*
X178109523Y-49382238D01*
X178014285Y-49477476D01*
X177919047Y-49525095D01*
X178871428Y-49334619D02*
X178919047Y-49287000D01*
X179014285Y-49239380D01*
X179252380Y-49239380D01*
X179347619Y-49287000D01*
X179395238Y-49334619D01*
X179442857Y-49429857D01*
X179442857Y-49525095D01*
X179395238Y-49667952D01*
X178823809Y-50239380D01*
X179442857Y-50239380D01*
X177038095Y-52685000D02*
X176942857Y-52637380D01*
X176800000Y-52637380D01*
X176657142Y-52685000D01*
X176561904Y-52780238D01*
X176514285Y-52875476D01*
X176466666Y-53065952D01*
X176466666Y-53208809D01*
X176514285Y-53399285D01*
X176561904Y-53494523D01*
X176657142Y-53589761D01*
X176800000Y-53637380D01*
X176895238Y-53637380D01*
X177038095Y-53589761D01*
X177085714Y-53542142D01*
X177085714Y-53208809D01*
X176895238Y-53208809D01*
X177514285Y-53637380D02*
X177514285Y-52637380D01*
X178085714Y-53637380D01*
X178085714Y-52637380D01*
X178561904Y-53637380D02*
X178561904Y-52637380D01*
X178800000Y-52637380D01*
X178942857Y-52685000D01*
X179038095Y-52780238D01*
X179085714Y-52875476D01*
X179133333Y-53065952D01*
X179133333Y-53208809D01*
X179085714Y-53399285D01*
X179038095Y-53494523D01*
X178942857Y-53589761D01*
X178800000Y-53637380D01*
X178561904Y-53637380D01*
M02*
