M48
; DRILL file {KiCad 5.1.2-f72e74a~84~ubuntu16.04.1} date 2019年05月12日 15時13分42秒
; FORMAT={-:-/ absolute / inch / decimal}
; #@! TF.CreationDate,2019-05-12T15:13:42+09:00
; #@! TF.GenerationSoftware,Kicad,Pcbnew,5.1.2-f72e74a~84~ubuntu16.04.1
FMAT,2
INCH
T1C0.0157
T2C0.0315
T3C0.0354
T4C0.0394
T5C0.0866
%
G90
G05
T1
X5.0404Y-4.1243
X5.1963Y-2.5284
X5.2892Y-2.9099
X5.2897Y-2.6219
X6.6678Y-3.1606
X6.7526Y-2.4989
X6.8Y-2.675
X6.875Y-2.4
X6.875Y-2.55
X7.0049Y-2.5151
X7.2958Y-3.0159
T2
X6.1Y-3.0
X6.5Y-3.0
X5.2Y-3.4
X5.2984Y-3.4
X5.6Y-3.0
X6.0Y-3.0
X5.1Y-3.8
X5.1Y-4.2
X5.2016Y-3.2
X5.3Y-3.2
X5.6Y-3.4
X6.0Y-3.4
X5.7Y-3.8
X5.7Y-4.2
X6.1Y-3.2
X6.5Y-3.2
X5.6Y-3.2
X6.0Y-3.2
X6.8Y-3.0
X6.8Y-3.4
X6.0Y-3.8
X6.0Y-4.2
X5.4Y-3.8
X5.4Y-4.2
X6.1Y-3.4
X6.5Y-3.4
T3
X5.7Y-3.6
X5.7Y-3.7
X5.4Y-3.6
X5.4Y-3.7
X5.1Y-3.6
X5.1Y-3.7
X6.0Y-3.6
X6.0Y-3.7
T4
X5.15Y-2.0
X5.15Y-2.1
X5.15Y-2.7
X5.15Y-2.8
X5.45Y-2.0
X5.55Y-2.0
X5.65Y-2.0
X5.75Y-2.0
X5.85Y-2.0
X5.95Y-2.0
X6.05Y-2.0
X6.15Y-2.0
X6.25Y-2.0
X6.35Y-2.0
X6.65Y-2.0
X6.65Y-2.1
X6.65Y-2.7
X6.65Y-2.8
X7.1Y-2.4
X7.1Y-2.5
X7.1Y-2.6
X7.1Y-2.7
X7.1Y-2.8
X7.1Y-2.9
X7.1Y-3.0
X7.1Y-3.1
X7.1Y-3.2
X7.1Y-3.3
X7.1Y-3.4
X7.1Y-3.5
X7.1Y-3.6
X7.1Y-3.7
X7.1Y-3.8
X7.1Y-3.9
X7.1Y-4.0
X7.1Y-4.1
X7.1Y-4.2
X7.2Y-2.4
X7.2Y-2.5
X7.2Y-2.6
X7.2Y-2.7
X7.2Y-2.8
X7.2Y-2.9
X7.2Y-3.0
X7.2Y-3.1
X7.2Y-3.2
X7.2Y-3.3
X7.2Y-3.4
X7.2Y-3.5
X7.2Y-3.6
X7.2Y-3.7
X7.2Y-3.8
X7.2Y-3.9
X7.2Y-4.0
X7.2Y-4.1
X7.2Y-4.2
X5.75Y-1.825
X4.95Y-3.95
X4.7Y-2.4
X4.7Y-2.5
X4.7Y-2.6
X4.7Y-2.7
X4.7Y-2.8
X4.7Y-2.9
X4.7Y-3.0
X4.7Y-3.1
X4.7Y-3.2
X4.7Y-3.3
X4.7Y-3.4
X4.7Y-3.5
X4.7Y-3.6
X4.7Y-3.7
X4.7Y-3.8
X4.7Y-3.9
X4.7Y-4.0
X4.7Y-4.1
X4.7Y-4.2
X4.8Y-2.4
X4.8Y-2.5
X4.8Y-2.6
X4.8Y-2.7
X4.8Y-2.8
X4.8Y-2.9
X4.8Y-3.0
X4.8Y-3.1
X4.8Y-3.2
X4.8Y-3.3
X4.8Y-3.4
X4.8Y-3.5
X4.8Y-3.6
X4.8Y-3.7
X4.8Y-3.8
X4.8Y-3.9
X4.8Y-4.0
X4.8Y-4.1
X4.8Y-4.2
X5.45Y-3.4
X5.45Y-3.2
X6.7Y-1.825
X6.5Y-1.825
X6.25Y-1.825
X7.0Y-2.025
X6.3Y-3.8
X6.3Y-3.8984
X6.3Y-3.9969
X6.8709Y-3.8
X6.8709Y-3.9969
X6.95Y-3.475
X6.0Y-1.825
X4.9Y-2.025
X6.9Y-2.875
T5
X6.5953Y-3.678
X6.5953Y-4.1189
T0
M30
