G04 #@! TF.GenerationSoftware,KiCad,Pcbnew,5.1.0-060a0da~80~ubuntu16.04.1*
G04 #@! TF.CreationDate,2019-03-30T07:06:19+09:00*
G04 #@! TF.ProjectId,Akashi-01,416b6173-6869-42d3-9031-2e6b69636164,rev?*
G04 #@! TF.SameCoordinates,Original*
G04 #@! TF.FileFunction,Soldermask,Bot*
G04 #@! TF.FilePolarity,Negative*
%FSLAX46Y46*%
G04 Gerber Fmt 4.6, Leading zero omitted, Abs format (unit mm)*
G04 Created by KiCad (PCBNEW 5.1.0-060a0da~80~ubuntu16.04.1) date 2019-03-30 07:06:19*
%MOMM*%
%LPD*%
G04 APERTURE LIST*
%ADD10C,0.100000*%
G04 APERTURE END LIST*
D10*
G36*
X182990443Y-105785519D02*
G01*
X183056627Y-105792037D01*
X183226466Y-105843557D01*
X183382991Y-105927222D01*
X183418729Y-105956552D01*
X183520186Y-106039814D01*
X183600369Y-106137519D01*
X183632778Y-106177009D01*
X183716443Y-106333534D01*
X183767963Y-106503373D01*
X183785359Y-106680000D01*
X183767963Y-106856627D01*
X183716443Y-107026466D01*
X183632778Y-107182991D01*
X183603448Y-107218729D01*
X183520186Y-107320186D01*
X183418729Y-107403448D01*
X183382991Y-107432778D01*
X183226466Y-107516443D01*
X183056627Y-107567963D01*
X182990443Y-107574481D01*
X182924260Y-107581000D01*
X182835740Y-107581000D01*
X182769557Y-107574481D01*
X182703373Y-107567963D01*
X182533534Y-107516443D01*
X182377009Y-107432778D01*
X182341271Y-107403448D01*
X182239814Y-107320186D01*
X182156552Y-107218729D01*
X182127222Y-107182991D01*
X182043557Y-107026466D01*
X181992037Y-106856627D01*
X181974641Y-106680000D01*
X181992037Y-106503373D01*
X182043557Y-106333534D01*
X182127222Y-106177009D01*
X182159631Y-106137519D01*
X182239814Y-106039814D01*
X182341271Y-105956552D01*
X182377009Y-105927222D01*
X182533534Y-105843557D01*
X182703373Y-105792037D01*
X182769557Y-105785519D01*
X182835740Y-105779000D01*
X182924260Y-105779000D01*
X182990443Y-105785519D01*
X182990443Y-105785519D01*
G37*
G36*
X119490443Y-105785519D02*
G01*
X119556627Y-105792037D01*
X119726466Y-105843557D01*
X119882991Y-105927222D01*
X119918729Y-105956552D01*
X120020186Y-106039814D01*
X120100369Y-106137519D01*
X120132778Y-106177009D01*
X120216443Y-106333534D01*
X120267963Y-106503373D01*
X120285359Y-106680000D01*
X120267963Y-106856627D01*
X120216443Y-107026466D01*
X120132778Y-107182991D01*
X120103448Y-107218729D01*
X120020186Y-107320186D01*
X119918729Y-107403448D01*
X119882991Y-107432778D01*
X119726466Y-107516443D01*
X119556627Y-107567963D01*
X119490443Y-107574481D01*
X119424260Y-107581000D01*
X119335740Y-107581000D01*
X119269557Y-107574481D01*
X119203373Y-107567963D01*
X119033534Y-107516443D01*
X118877009Y-107432778D01*
X118841271Y-107403448D01*
X118739814Y-107320186D01*
X118656552Y-107218729D01*
X118627222Y-107182991D01*
X118543557Y-107026466D01*
X118492037Y-106856627D01*
X118474641Y-106680000D01*
X118492037Y-106503373D01*
X118543557Y-106333534D01*
X118627222Y-106177009D01*
X118659631Y-106137519D01*
X118739814Y-106039814D01*
X118841271Y-105956552D01*
X118877009Y-105927222D01*
X119033534Y-105843557D01*
X119203373Y-105792037D01*
X119269557Y-105785519D01*
X119335740Y-105779000D01*
X119424260Y-105779000D01*
X119490443Y-105785519D01*
X119490443Y-105785519D01*
G37*
G36*
X122030443Y-105785519D02*
G01*
X122096627Y-105792037D01*
X122266466Y-105843557D01*
X122422991Y-105927222D01*
X122458729Y-105956552D01*
X122560186Y-106039814D01*
X122640369Y-106137519D01*
X122672778Y-106177009D01*
X122756443Y-106333534D01*
X122807963Y-106503373D01*
X122825359Y-106680000D01*
X122807963Y-106856627D01*
X122756443Y-107026466D01*
X122672778Y-107182991D01*
X122643448Y-107218729D01*
X122560186Y-107320186D01*
X122458729Y-107403448D01*
X122422991Y-107432778D01*
X122266466Y-107516443D01*
X122096627Y-107567963D01*
X122030443Y-107574481D01*
X121964260Y-107581000D01*
X121875740Y-107581000D01*
X121809557Y-107574481D01*
X121743373Y-107567963D01*
X121573534Y-107516443D01*
X121417009Y-107432778D01*
X121381271Y-107403448D01*
X121279814Y-107320186D01*
X121196552Y-107218729D01*
X121167222Y-107182991D01*
X121083557Y-107026466D01*
X121032037Y-106856627D01*
X121014641Y-106680000D01*
X121032037Y-106503373D01*
X121083557Y-106333534D01*
X121167222Y-106177009D01*
X121199631Y-106137519D01*
X121279814Y-106039814D01*
X121381271Y-105956552D01*
X121417009Y-105927222D01*
X121573534Y-105843557D01*
X121743373Y-105792037D01*
X121809557Y-105785519D01*
X121875740Y-105779000D01*
X121964260Y-105779000D01*
X122030443Y-105785519D01*
X122030443Y-105785519D01*
G37*
G36*
X180450443Y-105785519D02*
G01*
X180516627Y-105792037D01*
X180686466Y-105843557D01*
X180842991Y-105927222D01*
X180878729Y-105956552D01*
X180980186Y-106039814D01*
X181060369Y-106137519D01*
X181092778Y-106177009D01*
X181176443Y-106333534D01*
X181227963Y-106503373D01*
X181245359Y-106680000D01*
X181227963Y-106856627D01*
X181176443Y-107026466D01*
X181092778Y-107182991D01*
X181063448Y-107218729D01*
X180980186Y-107320186D01*
X180878729Y-107403448D01*
X180842991Y-107432778D01*
X180686466Y-107516443D01*
X180516627Y-107567963D01*
X180450443Y-107574481D01*
X180384260Y-107581000D01*
X180295740Y-107581000D01*
X180229557Y-107574481D01*
X180163373Y-107567963D01*
X179993534Y-107516443D01*
X179837009Y-107432778D01*
X179801271Y-107403448D01*
X179699814Y-107320186D01*
X179616552Y-107218729D01*
X179587222Y-107182991D01*
X179503557Y-107026466D01*
X179452037Y-106856627D01*
X179434641Y-106680000D01*
X179452037Y-106503373D01*
X179503557Y-106333534D01*
X179587222Y-106177009D01*
X179619631Y-106137519D01*
X179699814Y-106039814D01*
X179801271Y-105956552D01*
X179837009Y-105927222D01*
X179993534Y-105843557D01*
X180163373Y-105792037D01*
X180229557Y-105785519D01*
X180295740Y-105779000D01*
X180384260Y-105779000D01*
X180450443Y-105785519D01*
X180450443Y-105785519D01*
G37*
G36*
X152648228Y-105861703D02*
G01*
X152803100Y-105925853D01*
X152942481Y-106018985D01*
X153061015Y-106137519D01*
X153154147Y-106276900D01*
X153218297Y-106431772D01*
X153251000Y-106596184D01*
X153251000Y-106763816D01*
X153218297Y-106928228D01*
X153154147Y-107083100D01*
X153061015Y-107222481D01*
X152942481Y-107341015D01*
X152803100Y-107434147D01*
X152648228Y-107498297D01*
X152483816Y-107531000D01*
X152316184Y-107531000D01*
X152151772Y-107498297D01*
X151996900Y-107434147D01*
X151857519Y-107341015D01*
X151738985Y-107222481D01*
X151645853Y-107083100D01*
X151581703Y-106928228D01*
X151549000Y-106763816D01*
X151549000Y-106596184D01*
X151581703Y-106431772D01*
X151645853Y-106276900D01*
X151738985Y-106137519D01*
X151857519Y-106018985D01*
X151996900Y-105925853D01*
X152151772Y-105861703D01*
X152316184Y-105829000D01*
X152483816Y-105829000D01*
X152648228Y-105861703D01*
X152648228Y-105861703D01*
G37*
G36*
X145028228Y-105861703D02*
G01*
X145183100Y-105925853D01*
X145322481Y-106018985D01*
X145441015Y-106137519D01*
X145534147Y-106276900D01*
X145598297Y-106431772D01*
X145631000Y-106596184D01*
X145631000Y-106763816D01*
X145598297Y-106928228D01*
X145534147Y-107083100D01*
X145441015Y-107222481D01*
X145322481Y-107341015D01*
X145183100Y-107434147D01*
X145028228Y-107498297D01*
X144863816Y-107531000D01*
X144696184Y-107531000D01*
X144531772Y-107498297D01*
X144376900Y-107434147D01*
X144237519Y-107341015D01*
X144118985Y-107222481D01*
X144025853Y-107083100D01*
X143961703Y-106928228D01*
X143929000Y-106763816D01*
X143929000Y-106596184D01*
X143961703Y-106431772D01*
X144025853Y-106276900D01*
X144118985Y-106137519D01*
X144237519Y-106018985D01*
X144376900Y-105925853D01*
X144531772Y-105861703D01*
X144696184Y-105829000D01*
X144863816Y-105829000D01*
X145028228Y-105861703D01*
X145028228Y-105861703D01*
G37*
G36*
X137408228Y-105861703D02*
G01*
X137563100Y-105925853D01*
X137702481Y-106018985D01*
X137821015Y-106137519D01*
X137914147Y-106276900D01*
X137978297Y-106431772D01*
X138011000Y-106596184D01*
X138011000Y-106763816D01*
X137978297Y-106928228D01*
X137914147Y-107083100D01*
X137821015Y-107222481D01*
X137702481Y-107341015D01*
X137563100Y-107434147D01*
X137408228Y-107498297D01*
X137243816Y-107531000D01*
X137076184Y-107531000D01*
X136911772Y-107498297D01*
X136756900Y-107434147D01*
X136617519Y-107341015D01*
X136498985Y-107222481D01*
X136405853Y-107083100D01*
X136341703Y-106928228D01*
X136309000Y-106763816D01*
X136309000Y-106596184D01*
X136341703Y-106431772D01*
X136405853Y-106276900D01*
X136498985Y-106137519D01*
X136617519Y-106018985D01*
X136756900Y-105925853D01*
X136911772Y-105861703D01*
X137076184Y-105829000D01*
X137243816Y-105829000D01*
X137408228Y-105861703D01*
X137408228Y-105861703D01*
G37*
G36*
X129788228Y-105861703D02*
G01*
X129943100Y-105925853D01*
X130082481Y-106018985D01*
X130201015Y-106137519D01*
X130294147Y-106276900D01*
X130358297Y-106431772D01*
X130391000Y-106596184D01*
X130391000Y-106763816D01*
X130358297Y-106928228D01*
X130294147Y-107083100D01*
X130201015Y-107222481D01*
X130082481Y-107341015D01*
X129943100Y-107434147D01*
X129788228Y-107498297D01*
X129623816Y-107531000D01*
X129456184Y-107531000D01*
X129291772Y-107498297D01*
X129136900Y-107434147D01*
X128997519Y-107341015D01*
X128878985Y-107222481D01*
X128785853Y-107083100D01*
X128721703Y-106928228D01*
X128689000Y-106763816D01*
X128689000Y-106596184D01*
X128721703Y-106431772D01*
X128785853Y-106276900D01*
X128878985Y-106137519D01*
X128997519Y-106018985D01*
X129136900Y-105925853D01*
X129291772Y-105861703D01*
X129456184Y-105829000D01*
X129623816Y-105829000D01*
X129788228Y-105861703D01*
X129788228Y-105861703D01*
G37*
G36*
X167943241Y-103224760D02*
G01*
X168207305Y-103334139D01*
X168444958Y-103492934D01*
X168647066Y-103695042D01*
X168805861Y-103932695D01*
X168915240Y-104196759D01*
X168971000Y-104477088D01*
X168971000Y-104762912D01*
X168915240Y-105043241D01*
X168805861Y-105307305D01*
X168647066Y-105544958D01*
X168444958Y-105747066D01*
X168207305Y-105905861D01*
X167943241Y-106015240D01*
X167662912Y-106071000D01*
X167377088Y-106071000D01*
X167096759Y-106015240D01*
X166832695Y-105905861D01*
X166595042Y-105747066D01*
X166392934Y-105544958D01*
X166234139Y-105307305D01*
X166124760Y-105043241D01*
X166069000Y-104762912D01*
X166069000Y-104477088D01*
X166124760Y-104196759D01*
X166234139Y-103932695D01*
X166392934Y-103695042D01*
X166595042Y-103492934D01*
X166832695Y-103334139D01*
X167096759Y-103224760D01*
X167377088Y-103169000D01*
X167662912Y-103169000D01*
X167943241Y-103224760D01*
X167943241Y-103224760D01*
G37*
G36*
X122030443Y-103245519D02*
G01*
X122096627Y-103252037D01*
X122266466Y-103303557D01*
X122422991Y-103387222D01*
X122458729Y-103416552D01*
X122560186Y-103499814D01*
X122643448Y-103601271D01*
X122672778Y-103637009D01*
X122756443Y-103793534D01*
X122807963Y-103963373D01*
X122825359Y-104140000D01*
X122807963Y-104316627D01*
X122756443Y-104486466D01*
X122672778Y-104642991D01*
X122643448Y-104678729D01*
X122560186Y-104780186D01*
X122458729Y-104863448D01*
X122422991Y-104892778D01*
X122266466Y-104976443D01*
X122096627Y-105027963D01*
X122030442Y-105034482D01*
X121964260Y-105041000D01*
X121875740Y-105041000D01*
X121809557Y-105034481D01*
X121743373Y-105027963D01*
X121573534Y-104976443D01*
X121417009Y-104892778D01*
X121381271Y-104863448D01*
X121279814Y-104780186D01*
X121196552Y-104678729D01*
X121167222Y-104642991D01*
X121083557Y-104486466D01*
X121032037Y-104316627D01*
X121014641Y-104140000D01*
X121032037Y-103963373D01*
X121083557Y-103793534D01*
X121167222Y-103637009D01*
X121196552Y-103601271D01*
X121279814Y-103499814D01*
X121381271Y-103416552D01*
X121417009Y-103387222D01*
X121573534Y-103303557D01*
X121743373Y-103252037D01*
X121809558Y-103245518D01*
X121875740Y-103239000D01*
X121964260Y-103239000D01*
X122030443Y-103245519D01*
X122030443Y-103245519D01*
G37*
G36*
X182990443Y-103245519D02*
G01*
X183056627Y-103252037D01*
X183226466Y-103303557D01*
X183382991Y-103387222D01*
X183418729Y-103416552D01*
X183520186Y-103499814D01*
X183603448Y-103601271D01*
X183632778Y-103637009D01*
X183716443Y-103793534D01*
X183767963Y-103963373D01*
X183785359Y-104140000D01*
X183767963Y-104316627D01*
X183716443Y-104486466D01*
X183632778Y-104642991D01*
X183603448Y-104678729D01*
X183520186Y-104780186D01*
X183418729Y-104863448D01*
X183382991Y-104892778D01*
X183226466Y-104976443D01*
X183056627Y-105027963D01*
X182990442Y-105034482D01*
X182924260Y-105041000D01*
X182835740Y-105041000D01*
X182769557Y-105034481D01*
X182703373Y-105027963D01*
X182533534Y-104976443D01*
X182377009Y-104892778D01*
X182341271Y-104863448D01*
X182239814Y-104780186D01*
X182156552Y-104678729D01*
X182127222Y-104642991D01*
X182043557Y-104486466D01*
X181992037Y-104316627D01*
X181974641Y-104140000D01*
X181992037Y-103963373D01*
X182043557Y-103793534D01*
X182127222Y-103637009D01*
X182156552Y-103601271D01*
X182239814Y-103499814D01*
X182341271Y-103416552D01*
X182377009Y-103387222D01*
X182533534Y-103303557D01*
X182703373Y-103252037D01*
X182769558Y-103245518D01*
X182835740Y-103239000D01*
X182924260Y-103239000D01*
X182990443Y-103245519D01*
X182990443Y-103245519D01*
G37*
G36*
X180450443Y-103245519D02*
G01*
X180516627Y-103252037D01*
X180686466Y-103303557D01*
X180842991Y-103387222D01*
X180878729Y-103416552D01*
X180980186Y-103499814D01*
X181063448Y-103601271D01*
X181092778Y-103637009D01*
X181176443Y-103793534D01*
X181227963Y-103963373D01*
X181245359Y-104140000D01*
X181227963Y-104316627D01*
X181176443Y-104486466D01*
X181092778Y-104642991D01*
X181063448Y-104678729D01*
X180980186Y-104780186D01*
X180878729Y-104863448D01*
X180842991Y-104892778D01*
X180686466Y-104976443D01*
X180516627Y-105027963D01*
X180450442Y-105034482D01*
X180384260Y-105041000D01*
X180295740Y-105041000D01*
X180229557Y-105034481D01*
X180163373Y-105027963D01*
X179993534Y-104976443D01*
X179837009Y-104892778D01*
X179801271Y-104863448D01*
X179699814Y-104780186D01*
X179616552Y-104678729D01*
X179587222Y-104642991D01*
X179503557Y-104486466D01*
X179452037Y-104316627D01*
X179434641Y-104140000D01*
X179452037Y-103963373D01*
X179503557Y-103793534D01*
X179587222Y-103637009D01*
X179616552Y-103601271D01*
X179699814Y-103499814D01*
X179801271Y-103416552D01*
X179837009Y-103387222D01*
X179993534Y-103303557D01*
X180163373Y-103252037D01*
X180229558Y-103245518D01*
X180295740Y-103239000D01*
X180384260Y-103239000D01*
X180450443Y-103245519D01*
X180450443Y-103245519D01*
G37*
G36*
X119490443Y-103245519D02*
G01*
X119556627Y-103252037D01*
X119726466Y-103303557D01*
X119882991Y-103387222D01*
X119918729Y-103416552D01*
X120020186Y-103499814D01*
X120103448Y-103601271D01*
X120132778Y-103637009D01*
X120216443Y-103793534D01*
X120267963Y-103963373D01*
X120285359Y-104140000D01*
X120267963Y-104316627D01*
X120216443Y-104486466D01*
X120132778Y-104642991D01*
X120103448Y-104678729D01*
X120020186Y-104780186D01*
X119918729Y-104863448D01*
X119882991Y-104892778D01*
X119726466Y-104976443D01*
X119556627Y-105027963D01*
X119490442Y-105034482D01*
X119424260Y-105041000D01*
X119335740Y-105041000D01*
X119269557Y-105034481D01*
X119203373Y-105027963D01*
X119033534Y-104976443D01*
X118877009Y-104892778D01*
X118841271Y-104863448D01*
X118739814Y-104780186D01*
X118656552Y-104678729D01*
X118627222Y-104642991D01*
X118543557Y-104486466D01*
X118492037Y-104316627D01*
X118474641Y-104140000D01*
X118492037Y-103963373D01*
X118543557Y-103793534D01*
X118627222Y-103637009D01*
X118656552Y-103601271D01*
X118739814Y-103499814D01*
X118841271Y-103416552D01*
X118877009Y-103387222D01*
X119033534Y-103303557D01*
X119203373Y-103252037D01*
X119269558Y-103245518D01*
X119335740Y-103239000D01*
X119424260Y-103239000D01*
X119490443Y-103245519D01*
X119490443Y-103245519D01*
G37*
G36*
X174826564Y-100509389D02*
G01*
X175017833Y-100588615D01*
X175017835Y-100588616D01*
X175183036Y-100699000D01*
X175189973Y-100703635D01*
X175336365Y-100850027D01*
X175451385Y-101022167D01*
X175530611Y-101213436D01*
X175571000Y-101416484D01*
X175571000Y-101623516D01*
X175530611Y-101826564D01*
X175480946Y-101946466D01*
X175451384Y-102017835D01*
X175336365Y-102189973D01*
X175189973Y-102336365D01*
X175017835Y-102451384D01*
X175017834Y-102451385D01*
X175017833Y-102451385D01*
X174826564Y-102530611D01*
X174623516Y-102571000D01*
X174416484Y-102571000D01*
X174213436Y-102530611D01*
X174022167Y-102451385D01*
X174022166Y-102451385D01*
X174022165Y-102451384D01*
X173850027Y-102336365D01*
X173703635Y-102189973D01*
X173588616Y-102017835D01*
X173559054Y-101946466D01*
X173509389Y-101826564D01*
X173469000Y-101623516D01*
X173469000Y-101416484D01*
X173509389Y-101213436D01*
X173588615Y-101022167D01*
X173703635Y-100850027D01*
X173850027Y-100703635D01*
X173856964Y-100699000D01*
X174022165Y-100588616D01*
X174022167Y-100588615D01*
X174213436Y-100509389D01*
X174416484Y-100469000D01*
X174623516Y-100469000D01*
X174826564Y-100509389D01*
X174826564Y-100509389D01*
G37*
G36*
X160326564Y-100509389D02*
G01*
X160517833Y-100588615D01*
X160517835Y-100588616D01*
X160683036Y-100699000D01*
X160689973Y-100703635D01*
X160836365Y-100850027D01*
X160951385Y-101022167D01*
X161030611Y-101213436D01*
X161071000Y-101416484D01*
X161071000Y-101623516D01*
X161030611Y-101826564D01*
X160980946Y-101946466D01*
X160951384Y-102017835D01*
X160836365Y-102189973D01*
X160689973Y-102336365D01*
X160517835Y-102451384D01*
X160517834Y-102451385D01*
X160517833Y-102451385D01*
X160326564Y-102530611D01*
X160123516Y-102571000D01*
X159916484Y-102571000D01*
X159713436Y-102530611D01*
X159522167Y-102451385D01*
X159522166Y-102451385D01*
X159522165Y-102451384D01*
X159350027Y-102336365D01*
X159203635Y-102189973D01*
X159088616Y-102017835D01*
X159059054Y-101946466D01*
X159009389Y-101826564D01*
X158969000Y-101623516D01*
X158969000Y-101416484D01*
X159009389Y-101213436D01*
X159088615Y-101022167D01*
X159203635Y-100850027D01*
X159350027Y-100703635D01*
X159356964Y-100699000D01*
X159522165Y-100588616D01*
X159522167Y-100588615D01*
X159713436Y-100509389D01*
X159916484Y-100469000D01*
X160123516Y-100469000D01*
X160326564Y-100509389D01*
X160326564Y-100509389D01*
G37*
G36*
X119471319Y-100703635D02*
G01*
X119556627Y-100712037D01*
X119726466Y-100763557D01*
X119882991Y-100847222D01*
X119918729Y-100876552D01*
X120020186Y-100959814D01*
X120085858Y-101039837D01*
X120132778Y-101097009D01*
X120132779Y-101097011D01*
X120195010Y-101213435D01*
X120216443Y-101253534D01*
X120267963Y-101423373D01*
X120285359Y-101600000D01*
X120267963Y-101776627D01*
X120216443Y-101946466D01*
X120132778Y-102102991D01*
X120103448Y-102138729D01*
X120020186Y-102240186D01*
X119918729Y-102323448D01*
X119882991Y-102352778D01*
X119726466Y-102436443D01*
X119556627Y-102487963D01*
X119490442Y-102494482D01*
X119424260Y-102501000D01*
X119335740Y-102501000D01*
X119269558Y-102494482D01*
X119203373Y-102487963D01*
X119033534Y-102436443D01*
X118877009Y-102352778D01*
X118841271Y-102323448D01*
X118739814Y-102240186D01*
X118656552Y-102138729D01*
X118627222Y-102102991D01*
X118543557Y-101946466D01*
X118492037Y-101776627D01*
X118474641Y-101600000D01*
X118492037Y-101423373D01*
X118543557Y-101253534D01*
X118564991Y-101213435D01*
X118627221Y-101097011D01*
X118627222Y-101097009D01*
X118674142Y-101039837D01*
X118739814Y-100959814D01*
X118841271Y-100876552D01*
X118877009Y-100847222D01*
X119033534Y-100763557D01*
X119203373Y-100712037D01*
X119288681Y-100703635D01*
X119335740Y-100699000D01*
X119424260Y-100699000D01*
X119471319Y-100703635D01*
X119471319Y-100703635D01*
G37*
G36*
X122011319Y-100703635D02*
G01*
X122096627Y-100712037D01*
X122266466Y-100763557D01*
X122422991Y-100847222D01*
X122458729Y-100876552D01*
X122560186Y-100959814D01*
X122625858Y-101039837D01*
X122672778Y-101097009D01*
X122672779Y-101097011D01*
X122735010Y-101213435D01*
X122756443Y-101253534D01*
X122807963Y-101423373D01*
X122825359Y-101600000D01*
X122807963Y-101776627D01*
X122756443Y-101946466D01*
X122672778Y-102102991D01*
X122643448Y-102138729D01*
X122560186Y-102240186D01*
X122458729Y-102323448D01*
X122422991Y-102352778D01*
X122266466Y-102436443D01*
X122096627Y-102487963D01*
X122030442Y-102494482D01*
X121964260Y-102501000D01*
X121875740Y-102501000D01*
X121809558Y-102494482D01*
X121743373Y-102487963D01*
X121573534Y-102436443D01*
X121417009Y-102352778D01*
X121381271Y-102323448D01*
X121279814Y-102240186D01*
X121196552Y-102138729D01*
X121167222Y-102102991D01*
X121083557Y-101946466D01*
X121032037Y-101776627D01*
X121014641Y-101600000D01*
X121032037Y-101423373D01*
X121083557Y-101253534D01*
X121104991Y-101213435D01*
X121167221Y-101097011D01*
X121167222Y-101097009D01*
X121214142Y-101039837D01*
X121279814Y-100959814D01*
X121381271Y-100876552D01*
X121417009Y-100847222D01*
X121573534Y-100763557D01*
X121743373Y-100712037D01*
X121828681Y-100703635D01*
X121875740Y-100699000D01*
X121964260Y-100699000D01*
X122011319Y-100703635D01*
X122011319Y-100703635D01*
G37*
G36*
X180431319Y-100703635D02*
G01*
X180516627Y-100712037D01*
X180686466Y-100763557D01*
X180842991Y-100847222D01*
X180878729Y-100876552D01*
X180980186Y-100959814D01*
X181045858Y-101039837D01*
X181092778Y-101097009D01*
X181092779Y-101097011D01*
X181155010Y-101213435D01*
X181176443Y-101253534D01*
X181227963Y-101423373D01*
X181245359Y-101600000D01*
X181227963Y-101776627D01*
X181176443Y-101946466D01*
X181092778Y-102102991D01*
X181063448Y-102138729D01*
X180980186Y-102240186D01*
X180878729Y-102323448D01*
X180842991Y-102352778D01*
X180686466Y-102436443D01*
X180516627Y-102487963D01*
X180450442Y-102494482D01*
X180384260Y-102501000D01*
X180295740Y-102501000D01*
X180229558Y-102494482D01*
X180163373Y-102487963D01*
X179993534Y-102436443D01*
X179837009Y-102352778D01*
X179801271Y-102323448D01*
X179699814Y-102240186D01*
X179616552Y-102138729D01*
X179587222Y-102102991D01*
X179503557Y-101946466D01*
X179452037Y-101776627D01*
X179434641Y-101600000D01*
X179452037Y-101423373D01*
X179503557Y-101253534D01*
X179524991Y-101213435D01*
X179587221Y-101097011D01*
X179587222Y-101097009D01*
X179634142Y-101039837D01*
X179699814Y-100959814D01*
X179801271Y-100876552D01*
X179837009Y-100847222D01*
X179993534Y-100763557D01*
X180163373Y-100712037D01*
X180248681Y-100703635D01*
X180295740Y-100699000D01*
X180384260Y-100699000D01*
X180431319Y-100703635D01*
X180431319Y-100703635D01*
G37*
G36*
X182971319Y-100703635D02*
G01*
X183056627Y-100712037D01*
X183226466Y-100763557D01*
X183382991Y-100847222D01*
X183418729Y-100876552D01*
X183520186Y-100959814D01*
X183585858Y-101039837D01*
X183632778Y-101097009D01*
X183632779Y-101097011D01*
X183695010Y-101213435D01*
X183716443Y-101253534D01*
X183767963Y-101423373D01*
X183785359Y-101600000D01*
X183767963Y-101776627D01*
X183716443Y-101946466D01*
X183632778Y-102102991D01*
X183603448Y-102138729D01*
X183520186Y-102240186D01*
X183418729Y-102323448D01*
X183382991Y-102352778D01*
X183226466Y-102436443D01*
X183056627Y-102487963D01*
X182990442Y-102494482D01*
X182924260Y-102501000D01*
X182835740Y-102501000D01*
X182769558Y-102494482D01*
X182703373Y-102487963D01*
X182533534Y-102436443D01*
X182377009Y-102352778D01*
X182341271Y-102323448D01*
X182239814Y-102240186D01*
X182156552Y-102138729D01*
X182127222Y-102102991D01*
X182043557Y-101946466D01*
X181992037Y-101776627D01*
X181974641Y-101600000D01*
X181992037Y-101423373D01*
X182043557Y-101253534D01*
X182064991Y-101213435D01*
X182127221Y-101097011D01*
X182127222Y-101097009D01*
X182174142Y-101039837D01*
X182239814Y-100959814D01*
X182341271Y-100876552D01*
X182377009Y-100847222D01*
X182533534Y-100763557D01*
X182703373Y-100712037D01*
X182788681Y-100703635D01*
X182835740Y-100699000D01*
X182924260Y-100699000D01*
X182971319Y-100703635D01*
X182971319Y-100703635D01*
G37*
G36*
X125963642Y-99559781D02*
G01*
X126109414Y-99620162D01*
X126109416Y-99620163D01*
X126240608Y-99707822D01*
X126352178Y-99819392D01*
X126439837Y-99950584D01*
X126439838Y-99950586D01*
X126500219Y-100096358D01*
X126531000Y-100251107D01*
X126531000Y-100408893D01*
X126500219Y-100563642D01*
X126442232Y-100703635D01*
X126439837Y-100709416D01*
X126352178Y-100840608D01*
X126240608Y-100952178D01*
X126109416Y-101039837D01*
X126109415Y-101039838D01*
X126109414Y-101039838D01*
X125963642Y-101100219D01*
X125808893Y-101131000D01*
X125651107Y-101131000D01*
X125496358Y-101100219D01*
X125350586Y-101039838D01*
X125350585Y-101039838D01*
X125350584Y-101039837D01*
X125219392Y-100952178D01*
X125107822Y-100840608D01*
X125020163Y-100709416D01*
X125017768Y-100703635D01*
X124959781Y-100563642D01*
X124929000Y-100408893D01*
X124929000Y-100251107D01*
X124959781Y-100096358D01*
X125020162Y-99950586D01*
X125020163Y-99950584D01*
X125107822Y-99819392D01*
X125219392Y-99707822D01*
X125350584Y-99620163D01*
X125350586Y-99620162D01*
X125496358Y-99559781D01*
X125651107Y-99529000D01*
X125808893Y-99529000D01*
X125963642Y-99559781D01*
X125963642Y-99559781D01*
G37*
G36*
X160326564Y-98009389D02*
G01*
X160517833Y-98088615D01*
X160517835Y-98088616D01*
X160623172Y-98159000D01*
X160689973Y-98203635D01*
X160836365Y-98350027D01*
X160951385Y-98522167D01*
X161030611Y-98713436D01*
X161071000Y-98916484D01*
X161071000Y-99123516D01*
X161030611Y-99326564D01*
X160951385Y-99517833D01*
X160951384Y-99517835D01*
X160836365Y-99689973D01*
X160689973Y-99836365D01*
X160517835Y-99951384D01*
X160517834Y-99951385D01*
X160517833Y-99951385D01*
X160326564Y-100030611D01*
X160123516Y-100071000D01*
X159916484Y-100071000D01*
X159713436Y-100030611D01*
X159522167Y-99951385D01*
X159522166Y-99951385D01*
X159522165Y-99951384D01*
X159350027Y-99836365D01*
X159203635Y-99689973D01*
X159088616Y-99517835D01*
X159088615Y-99517833D01*
X159009389Y-99326564D01*
X158969000Y-99123516D01*
X158969000Y-98916484D01*
X159009389Y-98713436D01*
X159088615Y-98522167D01*
X159203635Y-98350027D01*
X159350027Y-98203635D01*
X159416828Y-98159000D01*
X159522165Y-98088616D01*
X159522167Y-98088615D01*
X159713436Y-98009389D01*
X159916484Y-97969000D01*
X160123516Y-97969000D01*
X160326564Y-98009389D01*
X160326564Y-98009389D01*
G37*
G36*
X122030443Y-98165519D02*
G01*
X122096627Y-98172037D01*
X122266466Y-98223557D01*
X122422991Y-98307222D01*
X122458729Y-98336552D01*
X122560186Y-98419814D01*
X122643448Y-98521271D01*
X122672778Y-98557009D01*
X122756443Y-98713534D01*
X122807963Y-98883373D01*
X122825359Y-99060000D01*
X122807963Y-99236627D01*
X122756443Y-99406466D01*
X122672778Y-99562991D01*
X122643448Y-99598729D01*
X122560186Y-99700186D01*
X122458729Y-99783448D01*
X122422991Y-99812778D01*
X122266466Y-99896443D01*
X122096627Y-99947963D01*
X122030443Y-99954481D01*
X121964260Y-99961000D01*
X121875740Y-99961000D01*
X121809557Y-99954481D01*
X121743373Y-99947963D01*
X121573534Y-99896443D01*
X121417009Y-99812778D01*
X121381271Y-99783448D01*
X121279814Y-99700186D01*
X121196552Y-99598729D01*
X121167222Y-99562991D01*
X121083557Y-99406466D01*
X121032037Y-99236627D01*
X121014641Y-99060000D01*
X121032037Y-98883373D01*
X121083557Y-98713534D01*
X121167222Y-98557009D01*
X121196552Y-98521271D01*
X121279814Y-98419814D01*
X121381271Y-98336552D01*
X121417009Y-98307222D01*
X121573534Y-98223557D01*
X121743373Y-98172037D01*
X121809557Y-98165519D01*
X121875740Y-98159000D01*
X121964260Y-98159000D01*
X122030443Y-98165519D01*
X122030443Y-98165519D01*
G37*
G36*
X182990443Y-98165519D02*
G01*
X183056627Y-98172037D01*
X183226466Y-98223557D01*
X183382991Y-98307222D01*
X183418729Y-98336552D01*
X183520186Y-98419814D01*
X183603448Y-98521271D01*
X183632778Y-98557009D01*
X183716443Y-98713534D01*
X183767963Y-98883373D01*
X183785359Y-99060000D01*
X183767963Y-99236627D01*
X183716443Y-99406466D01*
X183632778Y-99562991D01*
X183603448Y-99598729D01*
X183520186Y-99700186D01*
X183418729Y-99783448D01*
X183382991Y-99812778D01*
X183226466Y-99896443D01*
X183056627Y-99947963D01*
X182990443Y-99954481D01*
X182924260Y-99961000D01*
X182835740Y-99961000D01*
X182769557Y-99954481D01*
X182703373Y-99947963D01*
X182533534Y-99896443D01*
X182377009Y-99812778D01*
X182341271Y-99783448D01*
X182239814Y-99700186D01*
X182156552Y-99598729D01*
X182127222Y-99562991D01*
X182043557Y-99406466D01*
X181992037Y-99236627D01*
X181974641Y-99060000D01*
X181992037Y-98883373D01*
X182043557Y-98713534D01*
X182127222Y-98557009D01*
X182156552Y-98521271D01*
X182239814Y-98419814D01*
X182341271Y-98336552D01*
X182377009Y-98307222D01*
X182533534Y-98223557D01*
X182703373Y-98172037D01*
X182769557Y-98165519D01*
X182835740Y-98159000D01*
X182924260Y-98159000D01*
X182990443Y-98165519D01*
X182990443Y-98165519D01*
G37*
G36*
X180450443Y-98165519D02*
G01*
X180516627Y-98172037D01*
X180686466Y-98223557D01*
X180842991Y-98307222D01*
X180878729Y-98336552D01*
X180980186Y-98419814D01*
X181063448Y-98521271D01*
X181092778Y-98557009D01*
X181176443Y-98713534D01*
X181227963Y-98883373D01*
X181245359Y-99060000D01*
X181227963Y-99236627D01*
X181176443Y-99406466D01*
X181092778Y-99562991D01*
X181063448Y-99598729D01*
X180980186Y-99700186D01*
X180878729Y-99783448D01*
X180842991Y-99812778D01*
X180686466Y-99896443D01*
X180516627Y-99947963D01*
X180450443Y-99954481D01*
X180384260Y-99961000D01*
X180295740Y-99961000D01*
X180229557Y-99954481D01*
X180163373Y-99947963D01*
X179993534Y-99896443D01*
X179837009Y-99812778D01*
X179801271Y-99783448D01*
X179699814Y-99700186D01*
X179616552Y-99598729D01*
X179587222Y-99562991D01*
X179503557Y-99406466D01*
X179452037Y-99236627D01*
X179434641Y-99060000D01*
X179452037Y-98883373D01*
X179503557Y-98713534D01*
X179587222Y-98557009D01*
X179616552Y-98521271D01*
X179699814Y-98419814D01*
X179801271Y-98336552D01*
X179837009Y-98307222D01*
X179993534Y-98223557D01*
X180163373Y-98172037D01*
X180229557Y-98165519D01*
X180295740Y-98159000D01*
X180384260Y-98159000D01*
X180450443Y-98165519D01*
X180450443Y-98165519D01*
G37*
G36*
X119490443Y-98165519D02*
G01*
X119556627Y-98172037D01*
X119726466Y-98223557D01*
X119882991Y-98307222D01*
X119918729Y-98336552D01*
X120020186Y-98419814D01*
X120103448Y-98521271D01*
X120132778Y-98557009D01*
X120216443Y-98713534D01*
X120267963Y-98883373D01*
X120285359Y-99060000D01*
X120267963Y-99236627D01*
X120216443Y-99406466D01*
X120132778Y-99562991D01*
X120103448Y-99598729D01*
X120020186Y-99700186D01*
X119918729Y-99783448D01*
X119882991Y-99812778D01*
X119726466Y-99896443D01*
X119556627Y-99947963D01*
X119490443Y-99954481D01*
X119424260Y-99961000D01*
X119335740Y-99961000D01*
X119269557Y-99954481D01*
X119203373Y-99947963D01*
X119033534Y-99896443D01*
X118877009Y-99812778D01*
X118841271Y-99783448D01*
X118739814Y-99700186D01*
X118656552Y-99598729D01*
X118627222Y-99562991D01*
X118543557Y-99406466D01*
X118492037Y-99236627D01*
X118474641Y-99060000D01*
X118492037Y-98883373D01*
X118543557Y-98713534D01*
X118627222Y-98557009D01*
X118656552Y-98521271D01*
X118739814Y-98419814D01*
X118841271Y-98336552D01*
X118877009Y-98307222D01*
X119033534Y-98223557D01*
X119203373Y-98172037D01*
X119269557Y-98165519D01*
X119335740Y-98159000D01*
X119424260Y-98159000D01*
X119490443Y-98165519D01*
X119490443Y-98165519D01*
G37*
G36*
X174826564Y-95509389D02*
G01*
X175017833Y-95588615D01*
X175017835Y-95588616D01*
X175082819Y-95632037D01*
X175189973Y-95703635D01*
X175336365Y-95850027D01*
X175451385Y-96022167D01*
X175530611Y-96213436D01*
X175571000Y-96416484D01*
X175571000Y-96623516D01*
X175530611Y-96826564D01*
X175514083Y-96866466D01*
X175451384Y-97017835D01*
X175336365Y-97189973D01*
X175189973Y-97336365D01*
X175017835Y-97451384D01*
X175017834Y-97451385D01*
X175017833Y-97451385D01*
X174826564Y-97530611D01*
X174623516Y-97571000D01*
X174416484Y-97571000D01*
X174213436Y-97530611D01*
X174022167Y-97451385D01*
X174022166Y-97451385D01*
X174022165Y-97451384D01*
X173850027Y-97336365D01*
X173703635Y-97189973D01*
X173588616Y-97017835D01*
X173525917Y-96866466D01*
X173509389Y-96826564D01*
X173469000Y-96623516D01*
X173469000Y-96416484D01*
X173509389Y-96213436D01*
X173588615Y-96022167D01*
X173703635Y-95850027D01*
X173850027Y-95703635D01*
X173957181Y-95632037D01*
X174022165Y-95588616D01*
X174022167Y-95588615D01*
X174213436Y-95509389D01*
X174416484Y-95469000D01*
X174623516Y-95469000D01*
X174826564Y-95509389D01*
X174826564Y-95509389D01*
G37*
G36*
X161071000Y-97571000D02*
G01*
X158969000Y-97571000D01*
X158969000Y-95469000D01*
X161071000Y-95469000D01*
X161071000Y-97571000D01*
X161071000Y-97571000D01*
G37*
G36*
X182990442Y-95625518D02*
G01*
X183056627Y-95632037D01*
X183226466Y-95683557D01*
X183382991Y-95767222D01*
X183418729Y-95796552D01*
X183520186Y-95879814D01*
X183603448Y-95981271D01*
X183632778Y-96017009D01*
X183716443Y-96173534D01*
X183767963Y-96343373D01*
X183785359Y-96520000D01*
X183767963Y-96696627D01*
X183716443Y-96866466D01*
X183632778Y-97022991D01*
X183603448Y-97058729D01*
X183520186Y-97160186D01*
X183418729Y-97243448D01*
X183382991Y-97272778D01*
X183226466Y-97356443D01*
X183056627Y-97407963D01*
X182990442Y-97414482D01*
X182924260Y-97421000D01*
X182835740Y-97421000D01*
X182769558Y-97414482D01*
X182703373Y-97407963D01*
X182533534Y-97356443D01*
X182377009Y-97272778D01*
X182341271Y-97243448D01*
X182239814Y-97160186D01*
X182156552Y-97058729D01*
X182127222Y-97022991D01*
X182043557Y-96866466D01*
X181992037Y-96696627D01*
X181974641Y-96520000D01*
X181992037Y-96343373D01*
X182043557Y-96173534D01*
X182127222Y-96017009D01*
X182156552Y-95981271D01*
X182239814Y-95879814D01*
X182341271Y-95796552D01*
X182377009Y-95767222D01*
X182533534Y-95683557D01*
X182703373Y-95632037D01*
X182769558Y-95625518D01*
X182835740Y-95619000D01*
X182924260Y-95619000D01*
X182990442Y-95625518D01*
X182990442Y-95625518D01*
G37*
G36*
X119490442Y-95625518D02*
G01*
X119556627Y-95632037D01*
X119726466Y-95683557D01*
X119882991Y-95767222D01*
X119918729Y-95796552D01*
X120020186Y-95879814D01*
X120103448Y-95981271D01*
X120132778Y-96017009D01*
X120216443Y-96173534D01*
X120267963Y-96343373D01*
X120285359Y-96520000D01*
X120267963Y-96696627D01*
X120216443Y-96866466D01*
X120132778Y-97022991D01*
X120103448Y-97058729D01*
X120020186Y-97160186D01*
X119918729Y-97243448D01*
X119882991Y-97272778D01*
X119726466Y-97356443D01*
X119556627Y-97407963D01*
X119490442Y-97414482D01*
X119424260Y-97421000D01*
X119335740Y-97421000D01*
X119269558Y-97414482D01*
X119203373Y-97407963D01*
X119033534Y-97356443D01*
X118877009Y-97272778D01*
X118841271Y-97243448D01*
X118739814Y-97160186D01*
X118656552Y-97058729D01*
X118627222Y-97022991D01*
X118543557Y-96866466D01*
X118492037Y-96696627D01*
X118474641Y-96520000D01*
X118492037Y-96343373D01*
X118543557Y-96173534D01*
X118627222Y-96017009D01*
X118656552Y-95981271D01*
X118739814Y-95879814D01*
X118841271Y-95796552D01*
X118877009Y-95767222D01*
X119033534Y-95683557D01*
X119203373Y-95632037D01*
X119269558Y-95625518D01*
X119335740Y-95619000D01*
X119424260Y-95619000D01*
X119490442Y-95625518D01*
X119490442Y-95625518D01*
G37*
G36*
X122030442Y-95625518D02*
G01*
X122096627Y-95632037D01*
X122266466Y-95683557D01*
X122422991Y-95767222D01*
X122458729Y-95796552D01*
X122560186Y-95879814D01*
X122643448Y-95981271D01*
X122672778Y-96017009D01*
X122756443Y-96173534D01*
X122807963Y-96343373D01*
X122825359Y-96520000D01*
X122807963Y-96696627D01*
X122756443Y-96866466D01*
X122672778Y-97022991D01*
X122643448Y-97058729D01*
X122560186Y-97160186D01*
X122458729Y-97243448D01*
X122422991Y-97272778D01*
X122266466Y-97356443D01*
X122096627Y-97407963D01*
X122030442Y-97414482D01*
X121964260Y-97421000D01*
X121875740Y-97421000D01*
X121809558Y-97414482D01*
X121743373Y-97407963D01*
X121573534Y-97356443D01*
X121417009Y-97272778D01*
X121381271Y-97243448D01*
X121279814Y-97160186D01*
X121196552Y-97058729D01*
X121167222Y-97022991D01*
X121083557Y-96866466D01*
X121032037Y-96696627D01*
X121014641Y-96520000D01*
X121032037Y-96343373D01*
X121083557Y-96173534D01*
X121167222Y-96017009D01*
X121196552Y-95981271D01*
X121279814Y-95879814D01*
X121381271Y-95796552D01*
X121417009Y-95767222D01*
X121573534Y-95683557D01*
X121743373Y-95632037D01*
X121809558Y-95625518D01*
X121875740Y-95619000D01*
X121964260Y-95619000D01*
X122030442Y-95625518D01*
X122030442Y-95625518D01*
G37*
G36*
X180450442Y-95625518D02*
G01*
X180516627Y-95632037D01*
X180686466Y-95683557D01*
X180842991Y-95767222D01*
X180878729Y-95796552D01*
X180980186Y-95879814D01*
X181063448Y-95981271D01*
X181092778Y-96017009D01*
X181176443Y-96173534D01*
X181227963Y-96343373D01*
X181245359Y-96520000D01*
X181227963Y-96696627D01*
X181176443Y-96866466D01*
X181092778Y-97022991D01*
X181063448Y-97058729D01*
X180980186Y-97160186D01*
X180878729Y-97243448D01*
X180842991Y-97272778D01*
X180686466Y-97356443D01*
X180516627Y-97407963D01*
X180450442Y-97414482D01*
X180384260Y-97421000D01*
X180295740Y-97421000D01*
X180229558Y-97414482D01*
X180163373Y-97407963D01*
X179993534Y-97356443D01*
X179837009Y-97272778D01*
X179801271Y-97243448D01*
X179699814Y-97160186D01*
X179616552Y-97058729D01*
X179587222Y-97022991D01*
X179503557Y-96866466D01*
X179452037Y-96696627D01*
X179434641Y-96520000D01*
X179452037Y-96343373D01*
X179503557Y-96173534D01*
X179587222Y-96017009D01*
X179616552Y-95981271D01*
X179699814Y-95879814D01*
X179801271Y-95796552D01*
X179837009Y-95767222D01*
X179993534Y-95683557D01*
X180163373Y-95632037D01*
X180229558Y-95625518D01*
X180295740Y-95619000D01*
X180384260Y-95619000D01*
X180450442Y-95625518D01*
X180450442Y-95625518D01*
G37*
G36*
X129706823Y-95681313D02*
G01*
X129867242Y-95729976D01*
X129936922Y-95767221D01*
X130015078Y-95808996D01*
X130144659Y-95915341D01*
X130251004Y-96044922D01*
X130251005Y-96044924D01*
X130330024Y-96192758D01*
X130378687Y-96353177D01*
X130395117Y-96520000D01*
X130378687Y-96686823D01*
X130330024Y-96847242D01*
X130319747Y-96866468D01*
X130251004Y-96995078D01*
X130144659Y-97124659D01*
X130015078Y-97231004D01*
X130015076Y-97231005D01*
X129867242Y-97310024D01*
X129706823Y-97358687D01*
X129581804Y-97371000D01*
X129498196Y-97371000D01*
X129373177Y-97358687D01*
X129212758Y-97310024D01*
X129064924Y-97231005D01*
X129064922Y-97231004D01*
X128935341Y-97124659D01*
X128828996Y-96995078D01*
X128760253Y-96866468D01*
X128749976Y-96847242D01*
X128701313Y-96686823D01*
X128684883Y-96520000D01*
X128701313Y-96353177D01*
X128749976Y-96192758D01*
X128828995Y-96044924D01*
X128828996Y-96044922D01*
X128935341Y-95915341D01*
X129064922Y-95808996D01*
X129143078Y-95767221D01*
X129212758Y-95729976D01*
X129373177Y-95681313D01*
X129498196Y-95669000D01*
X129581804Y-95669000D01*
X129706823Y-95681313D01*
X129706823Y-95681313D01*
G37*
G36*
X152566823Y-95681313D02*
G01*
X152727242Y-95729976D01*
X152796922Y-95767221D01*
X152875078Y-95808996D01*
X153004659Y-95915341D01*
X153111004Y-96044922D01*
X153111005Y-96044924D01*
X153190024Y-96192758D01*
X153238687Y-96353177D01*
X153255117Y-96520000D01*
X153238687Y-96686823D01*
X153190024Y-96847242D01*
X153179747Y-96866468D01*
X153111004Y-96995078D01*
X153004659Y-97124659D01*
X152875078Y-97231004D01*
X152875076Y-97231005D01*
X152727242Y-97310024D01*
X152566823Y-97358687D01*
X152441804Y-97371000D01*
X152358196Y-97371000D01*
X152233177Y-97358687D01*
X152072758Y-97310024D01*
X151924924Y-97231005D01*
X151924922Y-97231004D01*
X151795341Y-97124659D01*
X151688996Y-96995078D01*
X151620253Y-96866468D01*
X151609976Y-96847242D01*
X151561313Y-96686823D01*
X151544883Y-96520000D01*
X151561313Y-96353177D01*
X151609976Y-96192758D01*
X151688995Y-96044924D01*
X151688996Y-96044922D01*
X151795341Y-95915341D01*
X151924922Y-95808996D01*
X152003078Y-95767221D01*
X152072758Y-95729976D01*
X152233177Y-95681313D01*
X152358196Y-95669000D01*
X152441804Y-95669000D01*
X152566823Y-95681313D01*
X152566823Y-95681313D01*
G37*
G36*
X144946823Y-95681313D02*
G01*
X145107242Y-95729976D01*
X145176922Y-95767221D01*
X145255078Y-95808996D01*
X145384659Y-95915341D01*
X145491004Y-96044922D01*
X145491005Y-96044924D01*
X145570024Y-96192758D01*
X145618687Y-96353177D01*
X145635117Y-96520000D01*
X145618687Y-96686823D01*
X145570024Y-96847242D01*
X145559747Y-96866468D01*
X145491004Y-96995078D01*
X145384659Y-97124659D01*
X145255078Y-97231004D01*
X145255076Y-97231005D01*
X145107242Y-97310024D01*
X144946823Y-97358687D01*
X144821804Y-97371000D01*
X144738196Y-97371000D01*
X144613177Y-97358687D01*
X144452758Y-97310024D01*
X144304924Y-97231005D01*
X144304922Y-97231004D01*
X144175341Y-97124659D01*
X144068996Y-96995078D01*
X144000253Y-96866468D01*
X143989976Y-96847242D01*
X143941313Y-96686823D01*
X143924883Y-96520000D01*
X143941313Y-96353177D01*
X143989976Y-96192758D01*
X144068995Y-96044924D01*
X144068996Y-96044922D01*
X144175341Y-95915341D01*
X144304922Y-95808996D01*
X144383078Y-95767221D01*
X144452758Y-95729976D01*
X144613177Y-95681313D01*
X144738196Y-95669000D01*
X144821804Y-95669000D01*
X144946823Y-95681313D01*
X144946823Y-95681313D01*
G37*
G36*
X137326823Y-95681313D02*
G01*
X137487242Y-95729976D01*
X137556922Y-95767221D01*
X137635078Y-95808996D01*
X137764659Y-95915341D01*
X137871004Y-96044922D01*
X137871005Y-96044924D01*
X137950024Y-96192758D01*
X137998687Y-96353177D01*
X138015117Y-96520000D01*
X137998687Y-96686823D01*
X137950024Y-96847242D01*
X137939747Y-96866468D01*
X137871004Y-96995078D01*
X137764659Y-97124659D01*
X137635078Y-97231004D01*
X137635076Y-97231005D01*
X137487242Y-97310024D01*
X137326823Y-97358687D01*
X137201804Y-97371000D01*
X137118196Y-97371000D01*
X136993177Y-97358687D01*
X136832758Y-97310024D01*
X136684924Y-97231005D01*
X136684922Y-97231004D01*
X136555341Y-97124659D01*
X136448996Y-96995078D01*
X136380253Y-96866468D01*
X136369976Y-96847242D01*
X136321313Y-96686823D01*
X136304883Y-96520000D01*
X136321313Y-96353177D01*
X136369976Y-96192758D01*
X136448995Y-96044924D01*
X136448996Y-96044922D01*
X136555341Y-95915341D01*
X136684922Y-95808996D01*
X136763078Y-95767221D01*
X136832758Y-95729976D01*
X136993177Y-95681313D01*
X137118196Y-95669000D01*
X137201804Y-95669000D01*
X137326823Y-95681313D01*
X137326823Y-95681313D01*
G37*
G36*
X152677395Y-93065546D02*
G01*
X152850466Y-93137234D01*
X152927818Y-93188919D01*
X153006227Y-93241310D01*
X153138690Y-93373773D01*
X153138691Y-93373775D01*
X153242766Y-93529534D01*
X153314454Y-93702605D01*
X153351000Y-93886333D01*
X153351000Y-94073667D01*
X153314454Y-94257395D01*
X153242766Y-94430466D01*
X153242765Y-94430467D01*
X153138690Y-94586227D01*
X153006227Y-94718690D01*
X152985141Y-94732779D01*
X152850466Y-94822766D01*
X152677395Y-94894454D01*
X152493667Y-94931000D01*
X152306333Y-94931000D01*
X152122605Y-94894454D01*
X151949534Y-94822766D01*
X151814859Y-94732779D01*
X151793773Y-94718690D01*
X151661310Y-94586227D01*
X151557235Y-94430467D01*
X151557234Y-94430466D01*
X151485546Y-94257395D01*
X151449000Y-94073667D01*
X151449000Y-93886333D01*
X151485546Y-93702605D01*
X151557234Y-93529534D01*
X151661309Y-93373775D01*
X151661310Y-93373773D01*
X151793773Y-93241310D01*
X151872182Y-93188919D01*
X151949534Y-93137234D01*
X152122605Y-93065546D01*
X152306333Y-93029000D01*
X152493667Y-93029000D01*
X152677395Y-93065546D01*
X152677395Y-93065546D01*
G37*
G36*
X145057395Y-93065546D02*
G01*
X145230466Y-93137234D01*
X145307818Y-93188919D01*
X145386227Y-93241310D01*
X145518690Y-93373773D01*
X145518691Y-93373775D01*
X145622766Y-93529534D01*
X145694454Y-93702605D01*
X145731000Y-93886333D01*
X145731000Y-94073667D01*
X145694454Y-94257395D01*
X145622766Y-94430466D01*
X145622765Y-94430467D01*
X145518690Y-94586227D01*
X145386227Y-94718690D01*
X145365141Y-94732779D01*
X145230466Y-94822766D01*
X145057395Y-94894454D01*
X144873667Y-94931000D01*
X144686333Y-94931000D01*
X144502605Y-94894454D01*
X144329534Y-94822766D01*
X144194859Y-94732779D01*
X144173773Y-94718690D01*
X144041310Y-94586227D01*
X143937235Y-94430467D01*
X143937234Y-94430466D01*
X143865546Y-94257395D01*
X143829000Y-94073667D01*
X143829000Y-93886333D01*
X143865546Y-93702605D01*
X143937234Y-93529534D01*
X144041309Y-93373775D01*
X144041310Y-93373773D01*
X144173773Y-93241310D01*
X144252182Y-93188919D01*
X144329534Y-93137234D01*
X144502605Y-93065546D01*
X144686333Y-93029000D01*
X144873667Y-93029000D01*
X145057395Y-93065546D01*
X145057395Y-93065546D01*
G37*
G36*
X137437395Y-93065546D02*
G01*
X137610466Y-93137234D01*
X137687818Y-93188919D01*
X137766227Y-93241310D01*
X137898690Y-93373773D01*
X137898691Y-93373775D01*
X138002766Y-93529534D01*
X138074454Y-93702605D01*
X138111000Y-93886333D01*
X138111000Y-94073667D01*
X138074454Y-94257395D01*
X138002766Y-94430466D01*
X138002765Y-94430467D01*
X137898690Y-94586227D01*
X137766227Y-94718690D01*
X137745141Y-94732779D01*
X137610466Y-94822766D01*
X137437395Y-94894454D01*
X137253667Y-94931000D01*
X137066333Y-94931000D01*
X136882605Y-94894454D01*
X136709534Y-94822766D01*
X136574859Y-94732779D01*
X136553773Y-94718690D01*
X136421310Y-94586227D01*
X136317235Y-94430467D01*
X136317234Y-94430466D01*
X136245546Y-94257395D01*
X136209000Y-94073667D01*
X136209000Y-93886333D01*
X136245546Y-93702605D01*
X136317234Y-93529534D01*
X136421309Y-93373775D01*
X136421310Y-93373773D01*
X136553773Y-93241310D01*
X136632182Y-93188919D01*
X136709534Y-93137234D01*
X136882605Y-93065546D01*
X137066333Y-93029000D01*
X137253667Y-93029000D01*
X137437395Y-93065546D01*
X137437395Y-93065546D01*
G37*
G36*
X129817395Y-93065546D02*
G01*
X129990466Y-93137234D01*
X130067818Y-93188919D01*
X130146227Y-93241310D01*
X130278690Y-93373773D01*
X130278691Y-93373775D01*
X130382766Y-93529534D01*
X130454454Y-93702605D01*
X130491000Y-93886333D01*
X130491000Y-94073667D01*
X130454454Y-94257395D01*
X130382766Y-94430466D01*
X130382765Y-94430467D01*
X130278690Y-94586227D01*
X130146227Y-94718690D01*
X130125141Y-94732779D01*
X129990466Y-94822766D01*
X129817395Y-94894454D01*
X129633667Y-94931000D01*
X129446333Y-94931000D01*
X129262605Y-94894454D01*
X129089534Y-94822766D01*
X128954859Y-94732779D01*
X128933773Y-94718690D01*
X128801310Y-94586227D01*
X128697235Y-94430467D01*
X128697234Y-94430466D01*
X128625546Y-94257395D01*
X128589000Y-94073667D01*
X128589000Y-93886333D01*
X128625546Y-93702605D01*
X128697234Y-93529534D01*
X128801309Y-93373775D01*
X128801310Y-93373773D01*
X128933773Y-93241310D01*
X129012182Y-93188919D01*
X129089534Y-93137234D01*
X129262605Y-93065546D01*
X129446333Y-93029000D01*
X129633667Y-93029000D01*
X129817395Y-93065546D01*
X129817395Y-93065546D01*
G37*
G36*
X180450443Y-93085519D02*
G01*
X180516627Y-93092037D01*
X180686466Y-93143557D01*
X180842991Y-93227222D01*
X180860156Y-93241309D01*
X180980186Y-93339814D01*
X181063448Y-93441271D01*
X181092778Y-93477009D01*
X181176443Y-93633534D01*
X181227963Y-93803373D01*
X181245359Y-93980000D01*
X181227963Y-94156627D01*
X181176443Y-94326466D01*
X181092778Y-94482991D01*
X181063448Y-94518729D01*
X180980186Y-94620186D01*
X180878729Y-94703448D01*
X180842991Y-94732778D01*
X180686466Y-94816443D01*
X180516627Y-94867963D01*
X180450443Y-94874481D01*
X180384260Y-94881000D01*
X180295740Y-94881000D01*
X180229557Y-94874481D01*
X180163373Y-94867963D01*
X179993534Y-94816443D01*
X179837009Y-94732778D01*
X179801271Y-94703448D01*
X179699814Y-94620186D01*
X179616552Y-94518729D01*
X179587222Y-94482991D01*
X179503557Y-94326466D01*
X179452037Y-94156627D01*
X179434641Y-93980000D01*
X179452037Y-93803373D01*
X179503557Y-93633534D01*
X179587222Y-93477009D01*
X179616552Y-93441271D01*
X179699814Y-93339814D01*
X179819844Y-93241309D01*
X179837009Y-93227222D01*
X179993534Y-93143557D01*
X180163373Y-93092037D01*
X180229557Y-93085519D01*
X180295740Y-93079000D01*
X180384260Y-93079000D01*
X180450443Y-93085519D01*
X180450443Y-93085519D01*
G37*
G36*
X182990443Y-93085519D02*
G01*
X183056627Y-93092037D01*
X183226466Y-93143557D01*
X183382991Y-93227222D01*
X183400156Y-93241309D01*
X183520186Y-93339814D01*
X183603448Y-93441271D01*
X183632778Y-93477009D01*
X183716443Y-93633534D01*
X183767963Y-93803373D01*
X183785359Y-93980000D01*
X183767963Y-94156627D01*
X183716443Y-94326466D01*
X183632778Y-94482991D01*
X183603448Y-94518729D01*
X183520186Y-94620186D01*
X183418729Y-94703448D01*
X183382991Y-94732778D01*
X183226466Y-94816443D01*
X183056627Y-94867963D01*
X182990443Y-94874481D01*
X182924260Y-94881000D01*
X182835740Y-94881000D01*
X182769557Y-94874481D01*
X182703373Y-94867963D01*
X182533534Y-94816443D01*
X182377009Y-94732778D01*
X182341271Y-94703448D01*
X182239814Y-94620186D01*
X182156552Y-94518729D01*
X182127222Y-94482991D01*
X182043557Y-94326466D01*
X181992037Y-94156627D01*
X181974641Y-93980000D01*
X181992037Y-93803373D01*
X182043557Y-93633534D01*
X182127222Y-93477009D01*
X182156552Y-93441271D01*
X182239814Y-93339814D01*
X182359844Y-93241309D01*
X182377009Y-93227222D01*
X182533534Y-93143557D01*
X182703373Y-93092037D01*
X182769557Y-93085519D01*
X182835740Y-93079000D01*
X182924260Y-93079000D01*
X182990443Y-93085519D01*
X182990443Y-93085519D01*
G37*
G36*
X119490443Y-93085519D02*
G01*
X119556627Y-93092037D01*
X119726466Y-93143557D01*
X119882991Y-93227222D01*
X119900156Y-93241309D01*
X120020186Y-93339814D01*
X120103448Y-93441271D01*
X120132778Y-93477009D01*
X120216443Y-93633534D01*
X120267963Y-93803373D01*
X120285359Y-93980000D01*
X120267963Y-94156627D01*
X120216443Y-94326466D01*
X120132778Y-94482991D01*
X120103448Y-94518729D01*
X120020186Y-94620186D01*
X119918729Y-94703448D01*
X119882991Y-94732778D01*
X119726466Y-94816443D01*
X119556627Y-94867963D01*
X119490443Y-94874481D01*
X119424260Y-94881000D01*
X119335740Y-94881000D01*
X119269557Y-94874481D01*
X119203373Y-94867963D01*
X119033534Y-94816443D01*
X118877009Y-94732778D01*
X118841271Y-94703448D01*
X118739814Y-94620186D01*
X118656552Y-94518729D01*
X118627222Y-94482991D01*
X118543557Y-94326466D01*
X118492037Y-94156627D01*
X118474641Y-93980000D01*
X118492037Y-93803373D01*
X118543557Y-93633534D01*
X118627222Y-93477009D01*
X118656552Y-93441271D01*
X118739814Y-93339814D01*
X118859844Y-93241309D01*
X118877009Y-93227222D01*
X119033534Y-93143557D01*
X119203373Y-93092037D01*
X119269557Y-93085519D01*
X119335740Y-93079000D01*
X119424260Y-93079000D01*
X119490443Y-93085519D01*
X119490443Y-93085519D01*
G37*
G36*
X122030443Y-93085519D02*
G01*
X122096627Y-93092037D01*
X122266466Y-93143557D01*
X122422991Y-93227222D01*
X122440156Y-93241309D01*
X122560186Y-93339814D01*
X122643448Y-93441271D01*
X122672778Y-93477009D01*
X122756443Y-93633534D01*
X122807963Y-93803373D01*
X122825359Y-93980000D01*
X122807963Y-94156627D01*
X122756443Y-94326466D01*
X122672778Y-94482991D01*
X122643448Y-94518729D01*
X122560186Y-94620186D01*
X122458729Y-94703448D01*
X122422991Y-94732778D01*
X122266466Y-94816443D01*
X122096627Y-94867963D01*
X122030443Y-94874481D01*
X121964260Y-94881000D01*
X121875740Y-94881000D01*
X121809557Y-94874481D01*
X121743373Y-94867963D01*
X121573534Y-94816443D01*
X121417009Y-94732778D01*
X121381271Y-94703448D01*
X121279814Y-94620186D01*
X121196552Y-94518729D01*
X121167222Y-94482991D01*
X121083557Y-94326466D01*
X121032037Y-94156627D01*
X121014641Y-93980000D01*
X121032037Y-93803373D01*
X121083557Y-93633534D01*
X121167222Y-93477009D01*
X121196552Y-93441271D01*
X121279814Y-93339814D01*
X121399844Y-93241309D01*
X121417009Y-93227222D01*
X121573534Y-93143557D01*
X121743373Y-93092037D01*
X121809557Y-93085519D01*
X121875740Y-93079000D01*
X121964260Y-93079000D01*
X122030443Y-93085519D01*
X122030443Y-93085519D01*
G37*
G36*
X167943241Y-92024760D02*
G01*
X168207305Y-92134139D01*
X168444958Y-92292934D01*
X168647066Y-92495042D01*
X168805861Y-92732695D01*
X168915240Y-92996759D01*
X168971000Y-93277088D01*
X168971000Y-93562912D01*
X168915240Y-93843241D01*
X168805861Y-94107305D01*
X168647066Y-94344958D01*
X168444958Y-94547066D01*
X168207305Y-94705861D01*
X167943241Y-94815240D01*
X167662912Y-94871000D01*
X167377088Y-94871000D01*
X167096759Y-94815240D01*
X166832695Y-94705861D01*
X166595042Y-94547066D01*
X166392934Y-94344958D01*
X166234139Y-94107305D01*
X166124760Y-93843241D01*
X166069000Y-93562912D01*
X166069000Y-93277088D01*
X166124760Y-92996759D01*
X166234139Y-92732695D01*
X166392934Y-92495042D01*
X166595042Y-92292934D01*
X166832695Y-92134139D01*
X167096759Y-92024760D01*
X167377088Y-91969000D01*
X167662912Y-91969000D01*
X167943241Y-92024760D01*
X167943241Y-92024760D01*
G37*
G36*
X130491000Y-92391000D02*
G01*
X128589000Y-92391000D01*
X128589000Y-90489000D01*
X130491000Y-90489000D01*
X130491000Y-92391000D01*
X130491000Y-92391000D01*
G37*
G36*
X153351000Y-92391000D02*
G01*
X151449000Y-92391000D01*
X151449000Y-90489000D01*
X153351000Y-90489000D01*
X153351000Y-92391000D01*
X153351000Y-92391000D01*
G37*
G36*
X145731000Y-92391000D02*
G01*
X143829000Y-92391000D01*
X143829000Y-90489000D01*
X145731000Y-90489000D01*
X145731000Y-92391000D01*
X145731000Y-92391000D01*
G37*
G36*
X138111000Y-92391000D02*
G01*
X136209000Y-92391000D01*
X136209000Y-90489000D01*
X138111000Y-90489000D01*
X138111000Y-92391000D01*
X138111000Y-92391000D01*
G37*
G36*
X180450443Y-90545519D02*
G01*
X180516627Y-90552037D01*
X180686466Y-90603557D01*
X180842991Y-90687222D01*
X180878729Y-90716552D01*
X180980186Y-90799814D01*
X181063448Y-90901271D01*
X181092778Y-90937009D01*
X181176443Y-91093534D01*
X181227963Y-91263373D01*
X181245359Y-91440000D01*
X181227963Y-91616627D01*
X181176443Y-91786466D01*
X181092778Y-91942991D01*
X181071433Y-91969000D01*
X180980186Y-92080186D01*
X180878729Y-92163448D01*
X180842991Y-92192778D01*
X180686466Y-92276443D01*
X180516627Y-92327963D01*
X180450443Y-92334481D01*
X180384260Y-92341000D01*
X180295740Y-92341000D01*
X180229557Y-92334481D01*
X180163373Y-92327963D01*
X179993534Y-92276443D01*
X179837009Y-92192778D01*
X179801271Y-92163448D01*
X179699814Y-92080186D01*
X179608567Y-91969000D01*
X179587222Y-91942991D01*
X179503557Y-91786466D01*
X179452037Y-91616627D01*
X179434641Y-91440000D01*
X179452037Y-91263373D01*
X179503557Y-91093534D01*
X179587222Y-90937009D01*
X179616552Y-90901271D01*
X179699814Y-90799814D01*
X179801271Y-90716552D01*
X179837009Y-90687222D01*
X179993534Y-90603557D01*
X180163373Y-90552037D01*
X180229558Y-90545518D01*
X180295740Y-90539000D01*
X180384260Y-90539000D01*
X180450443Y-90545519D01*
X180450443Y-90545519D01*
G37*
G36*
X119490443Y-90545519D02*
G01*
X119556627Y-90552037D01*
X119726466Y-90603557D01*
X119882991Y-90687222D01*
X119918729Y-90716552D01*
X120020186Y-90799814D01*
X120103448Y-90901271D01*
X120132778Y-90937009D01*
X120216443Y-91093534D01*
X120267963Y-91263373D01*
X120285359Y-91440000D01*
X120267963Y-91616627D01*
X120216443Y-91786466D01*
X120132778Y-91942991D01*
X120111433Y-91969000D01*
X120020186Y-92080186D01*
X119918729Y-92163448D01*
X119882991Y-92192778D01*
X119726466Y-92276443D01*
X119556627Y-92327963D01*
X119490443Y-92334481D01*
X119424260Y-92341000D01*
X119335740Y-92341000D01*
X119269557Y-92334481D01*
X119203373Y-92327963D01*
X119033534Y-92276443D01*
X118877009Y-92192778D01*
X118841271Y-92163448D01*
X118739814Y-92080186D01*
X118648567Y-91969000D01*
X118627222Y-91942991D01*
X118543557Y-91786466D01*
X118492037Y-91616627D01*
X118474641Y-91440000D01*
X118492037Y-91263373D01*
X118543557Y-91093534D01*
X118627222Y-90937009D01*
X118656552Y-90901271D01*
X118739814Y-90799814D01*
X118841271Y-90716552D01*
X118877009Y-90687222D01*
X119033534Y-90603557D01*
X119203373Y-90552037D01*
X119269557Y-90545519D01*
X119335740Y-90539000D01*
X119424260Y-90539000D01*
X119490443Y-90545519D01*
X119490443Y-90545519D01*
G37*
G36*
X182990443Y-90545519D02*
G01*
X183056627Y-90552037D01*
X183226466Y-90603557D01*
X183382991Y-90687222D01*
X183418729Y-90716552D01*
X183520186Y-90799814D01*
X183603448Y-90901271D01*
X183632778Y-90937009D01*
X183716443Y-91093534D01*
X183767963Y-91263373D01*
X183785359Y-91440000D01*
X183767963Y-91616627D01*
X183716443Y-91786466D01*
X183632778Y-91942991D01*
X183611433Y-91969000D01*
X183520186Y-92080186D01*
X183418729Y-92163448D01*
X183382991Y-92192778D01*
X183226466Y-92276443D01*
X183056627Y-92327963D01*
X182990443Y-92334481D01*
X182924260Y-92341000D01*
X182835740Y-92341000D01*
X182769557Y-92334481D01*
X182703373Y-92327963D01*
X182533534Y-92276443D01*
X182377009Y-92192778D01*
X182341271Y-92163448D01*
X182239814Y-92080186D01*
X182148567Y-91969000D01*
X182127222Y-91942991D01*
X182043557Y-91786466D01*
X181992037Y-91616627D01*
X181974641Y-91440000D01*
X181992037Y-91263373D01*
X182043557Y-91093534D01*
X182127222Y-90937009D01*
X182156552Y-90901271D01*
X182239814Y-90799814D01*
X182341271Y-90716552D01*
X182377009Y-90687222D01*
X182533534Y-90603557D01*
X182703373Y-90552037D01*
X182769558Y-90545518D01*
X182835740Y-90539000D01*
X182924260Y-90539000D01*
X182990443Y-90545519D01*
X182990443Y-90545519D01*
G37*
G36*
X122030443Y-90545519D02*
G01*
X122096627Y-90552037D01*
X122266466Y-90603557D01*
X122422991Y-90687222D01*
X122458729Y-90716552D01*
X122560186Y-90799814D01*
X122643448Y-90901271D01*
X122672778Y-90937009D01*
X122756443Y-91093534D01*
X122807963Y-91263373D01*
X122825359Y-91440000D01*
X122807963Y-91616627D01*
X122756443Y-91786466D01*
X122672778Y-91942991D01*
X122651433Y-91969000D01*
X122560186Y-92080186D01*
X122458729Y-92163448D01*
X122422991Y-92192778D01*
X122266466Y-92276443D01*
X122096627Y-92327963D01*
X122030443Y-92334481D01*
X121964260Y-92341000D01*
X121875740Y-92341000D01*
X121809557Y-92334481D01*
X121743373Y-92327963D01*
X121573534Y-92276443D01*
X121417009Y-92192778D01*
X121381271Y-92163448D01*
X121279814Y-92080186D01*
X121188567Y-91969000D01*
X121167222Y-91942991D01*
X121083557Y-91786466D01*
X121032037Y-91616627D01*
X121014641Y-91440000D01*
X121032037Y-91263373D01*
X121083557Y-91093534D01*
X121167222Y-90937009D01*
X121196552Y-90901271D01*
X121279814Y-90799814D01*
X121381271Y-90716552D01*
X121417009Y-90687222D01*
X121573534Y-90603557D01*
X121743373Y-90552037D01*
X121809557Y-90545519D01*
X121875740Y-90539000D01*
X121964260Y-90539000D01*
X122030443Y-90545519D01*
X122030443Y-90545519D01*
G37*
G36*
X122030443Y-88005519D02*
G01*
X122096627Y-88012037D01*
X122266466Y-88063557D01*
X122422991Y-88147222D01*
X122458729Y-88176552D01*
X122560186Y-88259814D01*
X122643448Y-88361271D01*
X122672778Y-88397009D01*
X122756443Y-88553534D01*
X122807963Y-88723373D01*
X122825359Y-88900000D01*
X122807963Y-89076627D01*
X122756443Y-89246466D01*
X122672778Y-89402991D01*
X122643448Y-89438729D01*
X122560186Y-89540186D01*
X122458729Y-89623448D01*
X122422991Y-89652778D01*
X122266466Y-89736443D01*
X122096627Y-89787963D01*
X122030443Y-89794481D01*
X121964260Y-89801000D01*
X121875740Y-89801000D01*
X121809557Y-89794481D01*
X121743373Y-89787963D01*
X121573534Y-89736443D01*
X121417009Y-89652778D01*
X121381271Y-89623448D01*
X121279814Y-89540186D01*
X121196552Y-89438729D01*
X121167222Y-89402991D01*
X121083557Y-89246466D01*
X121032037Y-89076627D01*
X121014641Y-88900000D01*
X121032037Y-88723373D01*
X121083557Y-88553534D01*
X121167222Y-88397009D01*
X121196552Y-88361271D01*
X121279814Y-88259814D01*
X121381271Y-88176552D01*
X121417009Y-88147222D01*
X121573534Y-88063557D01*
X121743373Y-88012037D01*
X121809557Y-88005519D01*
X121875740Y-87999000D01*
X121964260Y-87999000D01*
X122030443Y-88005519D01*
X122030443Y-88005519D01*
G37*
G36*
X182990443Y-88005519D02*
G01*
X183056627Y-88012037D01*
X183226466Y-88063557D01*
X183382991Y-88147222D01*
X183418729Y-88176552D01*
X183520186Y-88259814D01*
X183603448Y-88361271D01*
X183632778Y-88397009D01*
X183716443Y-88553534D01*
X183767963Y-88723373D01*
X183785359Y-88900000D01*
X183767963Y-89076627D01*
X183716443Y-89246466D01*
X183632778Y-89402991D01*
X183603448Y-89438729D01*
X183520186Y-89540186D01*
X183418729Y-89623448D01*
X183382991Y-89652778D01*
X183226466Y-89736443D01*
X183056627Y-89787963D01*
X182990443Y-89794481D01*
X182924260Y-89801000D01*
X182835740Y-89801000D01*
X182769557Y-89794481D01*
X182703373Y-89787963D01*
X182533534Y-89736443D01*
X182377009Y-89652778D01*
X182341271Y-89623448D01*
X182239814Y-89540186D01*
X182156552Y-89438729D01*
X182127222Y-89402991D01*
X182043557Y-89246466D01*
X181992037Y-89076627D01*
X181974641Y-88900000D01*
X181992037Y-88723373D01*
X182043557Y-88553534D01*
X182127222Y-88397009D01*
X182156552Y-88361271D01*
X182239814Y-88259814D01*
X182341271Y-88176552D01*
X182377009Y-88147222D01*
X182533534Y-88063557D01*
X182703373Y-88012037D01*
X182769558Y-88005518D01*
X182835740Y-87999000D01*
X182924260Y-87999000D01*
X182990443Y-88005519D01*
X182990443Y-88005519D01*
G37*
G36*
X180450443Y-88005519D02*
G01*
X180516627Y-88012037D01*
X180686466Y-88063557D01*
X180842991Y-88147222D01*
X180878729Y-88176552D01*
X180980186Y-88259814D01*
X181063448Y-88361271D01*
X181092778Y-88397009D01*
X181176443Y-88553534D01*
X181227963Y-88723373D01*
X181245359Y-88900000D01*
X181227963Y-89076627D01*
X181176443Y-89246466D01*
X181092778Y-89402991D01*
X181063448Y-89438729D01*
X180980186Y-89540186D01*
X180878729Y-89623448D01*
X180842991Y-89652778D01*
X180686466Y-89736443D01*
X180516627Y-89787963D01*
X180450443Y-89794481D01*
X180384260Y-89801000D01*
X180295740Y-89801000D01*
X180229557Y-89794481D01*
X180163373Y-89787963D01*
X179993534Y-89736443D01*
X179837009Y-89652778D01*
X179801271Y-89623448D01*
X179699814Y-89540186D01*
X179616552Y-89438729D01*
X179587222Y-89402991D01*
X179503557Y-89246466D01*
X179452037Y-89076627D01*
X179434641Y-88900000D01*
X179452037Y-88723373D01*
X179503557Y-88553534D01*
X179587222Y-88397009D01*
X179616552Y-88361271D01*
X179699814Y-88259814D01*
X179801271Y-88176552D01*
X179837009Y-88147222D01*
X179993534Y-88063557D01*
X180163373Y-88012037D01*
X180229558Y-88005518D01*
X180295740Y-87999000D01*
X180384260Y-87999000D01*
X180450443Y-88005519D01*
X180450443Y-88005519D01*
G37*
G36*
X119490443Y-88005519D02*
G01*
X119556627Y-88012037D01*
X119726466Y-88063557D01*
X119882991Y-88147222D01*
X119918729Y-88176552D01*
X120020186Y-88259814D01*
X120103448Y-88361271D01*
X120132778Y-88397009D01*
X120216443Y-88553534D01*
X120267963Y-88723373D01*
X120285359Y-88900000D01*
X120267963Y-89076627D01*
X120216443Y-89246466D01*
X120132778Y-89402991D01*
X120103448Y-89438729D01*
X120020186Y-89540186D01*
X119918729Y-89623448D01*
X119882991Y-89652778D01*
X119726466Y-89736443D01*
X119556627Y-89787963D01*
X119490443Y-89794481D01*
X119424260Y-89801000D01*
X119335740Y-89801000D01*
X119269557Y-89794481D01*
X119203373Y-89787963D01*
X119033534Y-89736443D01*
X118877009Y-89652778D01*
X118841271Y-89623448D01*
X118739814Y-89540186D01*
X118656552Y-89438729D01*
X118627222Y-89402991D01*
X118543557Y-89246466D01*
X118492037Y-89076627D01*
X118474641Y-88900000D01*
X118492037Y-88723373D01*
X118543557Y-88553534D01*
X118627222Y-88397009D01*
X118656552Y-88361271D01*
X118739814Y-88259814D01*
X118841271Y-88176552D01*
X118877009Y-88147222D01*
X119033534Y-88063557D01*
X119203373Y-88012037D01*
X119269557Y-88005519D01*
X119335740Y-87999000D01*
X119424260Y-87999000D01*
X119490443Y-88005519D01*
X119490443Y-88005519D01*
G37*
G36*
X176763642Y-88129781D02*
G01*
X176909414Y-88190162D01*
X176909416Y-88190163D01*
X177040608Y-88277822D01*
X177152178Y-88389392D01*
X177239837Y-88520584D01*
X177239838Y-88520586D01*
X177300219Y-88666358D01*
X177331000Y-88821107D01*
X177331000Y-88978893D01*
X177300219Y-89133642D01*
X177239838Y-89279414D01*
X177239837Y-89279416D01*
X177152178Y-89410608D01*
X177040608Y-89522178D01*
X176909416Y-89609837D01*
X176909415Y-89609838D01*
X176909414Y-89609838D01*
X176763642Y-89670219D01*
X176608893Y-89701000D01*
X176451107Y-89701000D01*
X176296358Y-89670219D01*
X176150586Y-89609838D01*
X176150585Y-89609838D01*
X176150584Y-89609837D01*
X176019392Y-89522178D01*
X175907822Y-89410608D01*
X175820163Y-89279416D01*
X175820162Y-89279414D01*
X175759781Y-89133642D01*
X175729000Y-88978893D01*
X175729000Y-88821107D01*
X175759781Y-88666358D01*
X175820162Y-88520586D01*
X175820163Y-88520584D01*
X175907822Y-88389392D01*
X176019392Y-88277822D01*
X176150584Y-88190163D01*
X176150586Y-88190162D01*
X176296358Y-88129781D01*
X176451107Y-88099000D01*
X176608893Y-88099000D01*
X176763642Y-88129781D01*
X176763642Y-88129781D01*
G37*
G36*
X182990442Y-85465518D02*
G01*
X183056627Y-85472037D01*
X183226466Y-85523557D01*
X183382991Y-85607222D01*
X183418729Y-85636552D01*
X183520186Y-85719814D01*
X183600369Y-85817519D01*
X183632778Y-85857009D01*
X183716443Y-86013534D01*
X183767963Y-86183373D01*
X183785359Y-86360000D01*
X183767963Y-86536627D01*
X183716443Y-86706466D01*
X183632778Y-86862991D01*
X183603448Y-86898729D01*
X183520186Y-87000186D01*
X183418729Y-87083448D01*
X183382991Y-87112778D01*
X183226466Y-87196443D01*
X183056627Y-87247963D01*
X182990442Y-87254482D01*
X182924260Y-87261000D01*
X182835740Y-87261000D01*
X182769558Y-87254482D01*
X182703373Y-87247963D01*
X182533534Y-87196443D01*
X182377009Y-87112778D01*
X182341271Y-87083448D01*
X182239814Y-87000186D01*
X182156552Y-86898729D01*
X182127222Y-86862991D01*
X182043557Y-86706466D01*
X181992037Y-86536627D01*
X181974641Y-86360000D01*
X181992037Y-86183373D01*
X182043557Y-86013534D01*
X182127222Y-85857009D01*
X182159631Y-85817519D01*
X182239814Y-85719814D01*
X182341271Y-85636552D01*
X182377009Y-85607222D01*
X182533534Y-85523557D01*
X182703373Y-85472037D01*
X182769558Y-85465518D01*
X182835740Y-85459000D01*
X182924260Y-85459000D01*
X182990442Y-85465518D01*
X182990442Y-85465518D01*
G37*
G36*
X180450442Y-85465518D02*
G01*
X180516627Y-85472037D01*
X180686466Y-85523557D01*
X180842991Y-85607222D01*
X180878729Y-85636552D01*
X180980186Y-85719814D01*
X181060369Y-85817519D01*
X181092778Y-85857009D01*
X181176443Y-86013534D01*
X181227963Y-86183373D01*
X181245359Y-86360000D01*
X181227963Y-86536627D01*
X181176443Y-86706466D01*
X181092778Y-86862991D01*
X181063448Y-86898729D01*
X180980186Y-87000186D01*
X180878729Y-87083448D01*
X180842991Y-87112778D01*
X180686466Y-87196443D01*
X180516627Y-87247963D01*
X180450442Y-87254482D01*
X180384260Y-87261000D01*
X180295740Y-87261000D01*
X180229558Y-87254482D01*
X180163373Y-87247963D01*
X179993534Y-87196443D01*
X179837009Y-87112778D01*
X179801271Y-87083448D01*
X179699814Y-87000186D01*
X179616552Y-86898729D01*
X179587222Y-86862991D01*
X179503557Y-86706466D01*
X179452037Y-86536627D01*
X179434641Y-86360000D01*
X179452037Y-86183373D01*
X179503557Y-86013534D01*
X179587222Y-85857009D01*
X179619631Y-85817519D01*
X179699814Y-85719814D01*
X179801271Y-85636552D01*
X179837009Y-85607222D01*
X179993534Y-85523557D01*
X180163373Y-85472037D01*
X180229558Y-85465518D01*
X180295740Y-85459000D01*
X180384260Y-85459000D01*
X180450442Y-85465518D01*
X180450442Y-85465518D01*
G37*
G36*
X122030442Y-85465518D02*
G01*
X122096627Y-85472037D01*
X122266466Y-85523557D01*
X122422991Y-85607222D01*
X122458729Y-85636552D01*
X122560186Y-85719814D01*
X122640369Y-85817519D01*
X122672778Y-85857009D01*
X122756443Y-86013534D01*
X122807963Y-86183373D01*
X122825359Y-86360000D01*
X122807963Y-86536627D01*
X122756443Y-86706466D01*
X122672778Y-86862991D01*
X122643448Y-86898729D01*
X122560186Y-87000186D01*
X122458729Y-87083448D01*
X122422991Y-87112778D01*
X122266466Y-87196443D01*
X122096627Y-87247963D01*
X122030442Y-87254482D01*
X121964260Y-87261000D01*
X121875740Y-87261000D01*
X121809558Y-87254482D01*
X121743373Y-87247963D01*
X121573534Y-87196443D01*
X121417009Y-87112778D01*
X121381271Y-87083448D01*
X121279814Y-87000186D01*
X121196552Y-86898729D01*
X121167222Y-86862991D01*
X121083557Y-86706466D01*
X121032037Y-86536627D01*
X121014641Y-86360000D01*
X121032037Y-86183373D01*
X121083557Y-86013534D01*
X121167222Y-85857009D01*
X121199631Y-85817519D01*
X121279814Y-85719814D01*
X121381271Y-85636552D01*
X121417009Y-85607222D01*
X121573534Y-85523557D01*
X121743373Y-85472037D01*
X121809558Y-85465518D01*
X121875740Y-85459000D01*
X121964260Y-85459000D01*
X122030442Y-85465518D01*
X122030442Y-85465518D01*
G37*
G36*
X119490442Y-85465518D02*
G01*
X119556627Y-85472037D01*
X119726466Y-85523557D01*
X119882991Y-85607222D01*
X119918729Y-85636552D01*
X120020186Y-85719814D01*
X120100369Y-85817519D01*
X120132778Y-85857009D01*
X120216443Y-86013534D01*
X120267963Y-86183373D01*
X120285359Y-86360000D01*
X120267963Y-86536627D01*
X120216443Y-86706466D01*
X120132778Y-86862991D01*
X120103448Y-86898729D01*
X120020186Y-87000186D01*
X119918729Y-87083448D01*
X119882991Y-87112778D01*
X119726466Y-87196443D01*
X119556627Y-87247963D01*
X119490442Y-87254482D01*
X119424260Y-87261000D01*
X119335740Y-87261000D01*
X119269558Y-87254482D01*
X119203373Y-87247963D01*
X119033534Y-87196443D01*
X118877009Y-87112778D01*
X118841271Y-87083448D01*
X118739814Y-87000186D01*
X118656552Y-86898729D01*
X118627222Y-86862991D01*
X118543557Y-86706466D01*
X118492037Y-86536627D01*
X118474641Y-86360000D01*
X118492037Y-86183373D01*
X118543557Y-86013534D01*
X118627222Y-85857009D01*
X118659631Y-85817519D01*
X118739814Y-85719814D01*
X118841271Y-85636552D01*
X118877009Y-85607222D01*
X119033534Y-85523557D01*
X119203373Y-85472037D01*
X119269558Y-85465518D01*
X119335740Y-85459000D01*
X119424260Y-85459000D01*
X119490442Y-85465518D01*
X119490442Y-85465518D01*
G37*
G36*
X152648228Y-85541703D02*
G01*
X152803100Y-85605853D01*
X152942481Y-85698985D01*
X153061015Y-85817519D01*
X153154147Y-85956900D01*
X153218297Y-86111772D01*
X153251000Y-86276184D01*
X153251000Y-86443816D01*
X153218297Y-86608228D01*
X153154147Y-86763100D01*
X153061015Y-86902481D01*
X152942481Y-87021015D01*
X152803100Y-87114147D01*
X152648228Y-87178297D01*
X152483816Y-87211000D01*
X152316184Y-87211000D01*
X152151772Y-87178297D01*
X151996900Y-87114147D01*
X151857519Y-87021015D01*
X151738985Y-86902481D01*
X151645853Y-86763100D01*
X151581703Y-86608228D01*
X151549000Y-86443816D01*
X151549000Y-86276184D01*
X151581703Y-86111772D01*
X151645853Y-85956900D01*
X151738985Y-85817519D01*
X151857519Y-85698985D01*
X151996900Y-85605853D01*
X152151772Y-85541703D01*
X152316184Y-85509000D01*
X152483816Y-85509000D01*
X152648228Y-85541703D01*
X152648228Y-85541703D01*
G37*
G36*
X142406823Y-85521313D02*
G01*
X142567242Y-85569976D01*
X142604296Y-85589782D01*
X142715078Y-85648996D01*
X142844659Y-85755341D01*
X142951004Y-85884922D01*
X142951005Y-85884924D01*
X143030024Y-86032758D01*
X143078687Y-86193177D01*
X143095117Y-86360000D01*
X143078687Y-86526823D01*
X143030024Y-86687242D01*
X142989477Y-86763100D01*
X142951004Y-86835078D01*
X142844659Y-86964659D01*
X142715078Y-87071004D01*
X142715076Y-87071005D01*
X142567242Y-87150024D01*
X142406823Y-87198687D01*
X142281804Y-87211000D01*
X142198196Y-87211000D01*
X142073177Y-87198687D01*
X141912758Y-87150024D01*
X141764924Y-87071005D01*
X141764922Y-87071004D01*
X141635341Y-86964659D01*
X141528996Y-86835078D01*
X141490523Y-86763100D01*
X141449976Y-86687242D01*
X141401313Y-86526823D01*
X141384883Y-86360000D01*
X141401313Y-86193177D01*
X141449976Y-86032758D01*
X141528995Y-85884924D01*
X141528996Y-85884922D01*
X141635341Y-85755341D01*
X141764922Y-85648996D01*
X141875704Y-85589782D01*
X141912758Y-85569976D01*
X142073177Y-85521313D01*
X142198196Y-85509000D01*
X142281804Y-85509000D01*
X142406823Y-85521313D01*
X142406823Y-85521313D01*
G37*
G36*
X134828228Y-85541703D02*
G01*
X134983100Y-85605853D01*
X135122481Y-85698985D01*
X135241015Y-85817519D01*
X135334147Y-85956900D01*
X135398297Y-86111772D01*
X135431000Y-86276184D01*
X135431000Y-86443816D01*
X135398297Y-86608228D01*
X135334147Y-86763100D01*
X135241015Y-86902481D01*
X135122481Y-87021015D01*
X134983100Y-87114147D01*
X134828228Y-87178297D01*
X134663816Y-87211000D01*
X134496184Y-87211000D01*
X134331772Y-87178297D01*
X134176900Y-87114147D01*
X134037519Y-87021015D01*
X133918985Y-86902481D01*
X133825853Y-86763100D01*
X133761703Y-86608228D01*
X133729000Y-86443816D01*
X133729000Y-86276184D01*
X133761703Y-86111772D01*
X133825853Y-85956900D01*
X133918985Y-85817519D01*
X134037519Y-85698985D01*
X134176900Y-85605853D01*
X134331772Y-85541703D01*
X134496184Y-85509000D01*
X134663816Y-85509000D01*
X134828228Y-85541703D01*
X134828228Y-85541703D01*
G37*
G36*
X132328228Y-85541703D02*
G01*
X132483100Y-85605853D01*
X132622481Y-85698985D01*
X132741015Y-85817519D01*
X132834147Y-85956900D01*
X132898297Y-86111772D01*
X132931000Y-86276184D01*
X132931000Y-86443816D01*
X132898297Y-86608228D01*
X132834147Y-86763100D01*
X132741015Y-86902481D01*
X132622481Y-87021015D01*
X132483100Y-87114147D01*
X132328228Y-87178297D01*
X132163816Y-87211000D01*
X131996184Y-87211000D01*
X131831772Y-87178297D01*
X131676900Y-87114147D01*
X131537519Y-87021015D01*
X131418985Y-86902481D01*
X131325853Y-86763100D01*
X131261703Y-86608228D01*
X131229000Y-86443816D01*
X131229000Y-86276184D01*
X131261703Y-86111772D01*
X131325853Y-85956900D01*
X131418985Y-85817519D01*
X131537519Y-85698985D01*
X131676900Y-85605853D01*
X131831772Y-85541703D01*
X131996184Y-85509000D01*
X132163816Y-85509000D01*
X132328228Y-85541703D01*
X132328228Y-85541703D01*
G37*
G36*
X165348228Y-85541703D02*
G01*
X165503100Y-85605853D01*
X165642481Y-85698985D01*
X165761015Y-85817519D01*
X165854147Y-85956900D01*
X165918297Y-86111772D01*
X165951000Y-86276184D01*
X165951000Y-86443816D01*
X165918297Y-86608228D01*
X165854147Y-86763100D01*
X165761015Y-86902481D01*
X165642481Y-87021015D01*
X165503100Y-87114147D01*
X165348228Y-87178297D01*
X165183816Y-87211000D01*
X165016184Y-87211000D01*
X164851772Y-87178297D01*
X164696900Y-87114147D01*
X164557519Y-87021015D01*
X164438985Y-86902481D01*
X164345853Y-86763100D01*
X164281703Y-86608228D01*
X164249000Y-86443816D01*
X164249000Y-86276184D01*
X164281703Y-86111772D01*
X164345853Y-85956900D01*
X164438985Y-85817519D01*
X164557519Y-85698985D01*
X164696900Y-85605853D01*
X164851772Y-85541703D01*
X165016184Y-85509000D01*
X165183816Y-85509000D01*
X165348228Y-85541703D01*
X165348228Y-85541703D01*
G37*
G36*
X155106823Y-85521313D02*
G01*
X155267242Y-85569976D01*
X155304296Y-85589782D01*
X155415078Y-85648996D01*
X155544659Y-85755341D01*
X155651004Y-85884922D01*
X155651005Y-85884924D01*
X155730024Y-86032758D01*
X155778687Y-86193177D01*
X155795117Y-86360000D01*
X155778687Y-86526823D01*
X155730024Y-86687242D01*
X155689477Y-86763100D01*
X155651004Y-86835078D01*
X155544659Y-86964659D01*
X155415078Y-87071004D01*
X155415076Y-87071005D01*
X155267242Y-87150024D01*
X155106823Y-87198687D01*
X154981804Y-87211000D01*
X154898196Y-87211000D01*
X154773177Y-87198687D01*
X154612758Y-87150024D01*
X154464924Y-87071005D01*
X154464922Y-87071004D01*
X154335341Y-86964659D01*
X154228996Y-86835078D01*
X154190523Y-86763100D01*
X154149976Y-86687242D01*
X154101313Y-86526823D01*
X154084883Y-86360000D01*
X154101313Y-86193177D01*
X154149976Y-86032758D01*
X154228995Y-85884924D01*
X154228996Y-85884922D01*
X154335341Y-85755341D01*
X154464922Y-85648996D01*
X154575704Y-85589782D01*
X154612758Y-85569976D01*
X154773177Y-85521313D01*
X154898196Y-85509000D01*
X154981804Y-85509000D01*
X155106823Y-85521313D01*
X155106823Y-85521313D01*
G37*
G36*
X172886823Y-85521313D02*
G01*
X173047242Y-85569976D01*
X173084296Y-85589782D01*
X173195078Y-85648996D01*
X173324659Y-85755341D01*
X173431004Y-85884922D01*
X173431005Y-85884924D01*
X173510024Y-86032758D01*
X173558687Y-86193177D01*
X173575117Y-86360000D01*
X173558687Y-86526823D01*
X173510024Y-86687242D01*
X173469477Y-86763100D01*
X173431004Y-86835078D01*
X173324659Y-86964659D01*
X173195078Y-87071004D01*
X173195076Y-87071005D01*
X173047242Y-87150024D01*
X172886823Y-87198687D01*
X172761804Y-87211000D01*
X172678196Y-87211000D01*
X172553177Y-87198687D01*
X172392758Y-87150024D01*
X172244924Y-87071005D01*
X172244922Y-87071004D01*
X172115341Y-86964659D01*
X172008996Y-86835078D01*
X171970523Y-86763100D01*
X171929976Y-86687242D01*
X171881313Y-86526823D01*
X171864883Y-86360000D01*
X171881313Y-86193177D01*
X171929976Y-86032758D01*
X172008995Y-85884924D01*
X172008996Y-85884922D01*
X172115341Y-85755341D01*
X172244922Y-85648996D01*
X172355704Y-85589782D01*
X172392758Y-85569976D01*
X172553177Y-85521313D01*
X172678196Y-85509000D01*
X172761804Y-85509000D01*
X172886823Y-85521313D01*
X172886823Y-85521313D01*
G37*
G36*
X138663642Y-85589781D02*
G01*
X138806599Y-85648996D01*
X138809416Y-85650163D01*
X138940608Y-85737822D01*
X139052178Y-85849392D01*
X139124012Y-85956900D01*
X139139838Y-85980586D01*
X139200219Y-86126358D01*
X139231000Y-86281107D01*
X139231000Y-86438893D01*
X139200219Y-86593642D01*
X139139838Y-86739414D01*
X139139837Y-86739416D01*
X139052178Y-86870608D01*
X138940608Y-86982178D01*
X138809416Y-87069837D01*
X138809415Y-87069838D01*
X138809414Y-87069838D01*
X138663642Y-87130219D01*
X138508893Y-87161000D01*
X138351107Y-87161000D01*
X138196358Y-87130219D01*
X138050586Y-87069838D01*
X138050585Y-87069838D01*
X138050584Y-87069837D01*
X137919392Y-86982178D01*
X137807822Y-86870608D01*
X137720163Y-86739416D01*
X137720162Y-86739414D01*
X137659781Y-86593642D01*
X137629000Y-86438893D01*
X137629000Y-86281107D01*
X137659781Y-86126358D01*
X137720162Y-85980586D01*
X137735988Y-85956900D01*
X137807822Y-85849392D01*
X137919392Y-85737822D01*
X138050584Y-85650163D01*
X138053401Y-85648996D01*
X138196358Y-85589781D01*
X138351107Y-85559000D01*
X138508893Y-85559000D01*
X138663642Y-85589781D01*
X138663642Y-85589781D01*
G37*
G36*
X122030443Y-82925519D02*
G01*
X122096627Y-82932037D01*
X122266466Y-82983557D01*
X122422991Y-83067222D01*
X122458729Y-83096552D01*
X122560186Y-83179814D01*
X122643448Y-83281271D01*
X122672778Y-83317009D01*
X122756443Y-83473534D01*
X122807963Y-83643373D01*
X122825359Y-83820000D01*
X122807963Y-83996627D01*
X122756443Y-84166466D01*
X122672778Y-84322991D01*
X122643448Y-84358729D01*
X122560186Y-84460186D01*
X122458729Y-84543448D01*
X122422991Y-84572778D01*
X122266466Y-84656443D01*
X122096627Y-84707963D01*
X122030443Y-84714481D01*
X121964260Y-84721000D01*
X121875740Y-84721000D01*
X121809557Y-84714481D01*
X121743373Y-84707963D01*
X121573534Y-84656443D01*
X121417009Y-84572778D01*
X121381271Y-84543448D01*
X121279814Y-84460186D01*
X121196552Y-84358729D01*
X121167222Y-84322991D01*
X121083557Y-84166466D01*
X121032037Y-83996627D01*
X121014641Y-83820000D01*
X121032037Y-83643373D01*
X121083557Y-83473534D01*
X121167222Y-83317009D01*
X121196552Y-83281271D01*
X121279814Y-83179814D01*
X121381271Y-83096552D01*
X121417009Y-83067222D01*
X121573534Y-82983557D01*
X121743373Y-82932037D01*
X121809557Y-82925519D01*
X121875740Y-82919000D01*
X121964260Y-82919000D01*
X122030443Y-82925519D01*
X122030443Y-82925519D01*
G37*
G36*
X119490443Y-82925519D02*
G01*
X119556627Y-82932037D01*
X119726466Y-82983557D01*
X119882991Y-83067222D01*
X119918729Y-83096552D01*
X120020186Y-83179814D01*
X120103448Y-83281271D01*
X120132778Y-83317009D01*
X120216443Y-83473534D01*
X120267963Y-83643373D01*
X120285359Y-83820000D01*
X120267963Y-83996627D01*
X120216443Y-84166466D01*
X120132778Y-84322991D01*
X120103448Y-84358729D01*
X120020186Y-84460186D01*
X119918729Y-84543448D01*
X119882991Y-84572778D01*
X119726466Y-84656443D01*
X119556627Y-84707963D01*
X119490443Y-84714481D01*
X119424260Y-84721000D01*
X119335740Y-84721000D01*
X119269557Y-84714481D01*
X119203373Y-84707963D01*
X119033534Y-84656443D01*
X118877009Y-84572778D01*
X118841271Y-84543448D01*
X118739814Y-84460186D01*
X118656552Y-84358729D01*
X118627222Y-84322991D01*
X118543557Y-84166466D01*
X118492037Y-83996627D01*
X118474641Y-83820000D01*
X118492037Y-83643373D01*
X118543557Y-83473534D01*
X118627222Y-83317009D01*
X118656552Y-83281271D01*
X118739814Y-83179814D01*
X118841271Y-83096552D01*
X118877009Y-83067222D01*
X119033534Y-82983557D01*
X119203373Y-82932037D01*
X119269557Y-82925519D01*
X119335740Y-82919000D01*
X119424260Y-82919000D01*
X119490443Y-82925519D01*
X119490443Y-82925519D01*
G37*
G36*
X180450443Y-82925519D02*
G01*
X180516627Y-82932037D01*
X180686466Y-82983557D01*
X180842991Y-83067222D01*
X180878729Y-83096552D01*
X180980186Y-83179814D01*
X181063448Y-83281271D01*
X181092778Y-83317009D01*
X181176443Y-83473534D01*
X181227963Y-83643373D01*
X181245359Y-83820000D01*
X181227963Y-83996627D01*
X181176443Y-84166466D01*
X181092778Y-84322991D01*
X181063448Y-84358729D01*
X180980186Y-84460186D01*
X180878729Y-84543448D01*
X180842991Y-84572778D01*
X180686466Y-84656443D01*
X180516627Y-84707963D01*
X180450443Y-84714481D01*
X180384260Y-84721000D01*
X180295740Y-84721000D01*
X180229557Y-84714481D01*
X180163373Y-84707963D01*
X179993534Y-84656443D01*
X179837009Y-84572778D01*
X179801271Y-84543448D01*
X179699814Y-84460186D01*
X179616552Y-84358729D01*
X179587222Y-84322991D01*
X179503557Y-84166466D01*
X179452037Y-83996627D01*
X179434641Y-83820000D01*
X179452037Y-83643373D01*
X179503557Y-83473534D01*
X179587222Y-83317009D01*
X179616552Y-83281271D01*
X179699814Y-83179814D01*
X179801271Y-83096552D01*
X179837009Y-83067222D01*
X179993534Y-82983557D01*
X180163373Y-82932037D01*
X180229557Y-82925519D01*
X180295740Y-82919000D01*
X180384260Y-82919000D01*
X180450443Y-82925519D01*
X180450443Y-82925519D01*
G37*
G36*
X182990443Y-82925519D02*
G01*
X183056627Y-82932037D01*
X183226466Y-82983557D01*
X183382991Y-83067222D01*
X183418729Y-83096552D01*
X183520186Y-83179814D01*
X183603448Y-83281271D01*
X183632778Y-83317009D01*
X183716443Y-83473534D01*
X183767963Y-83643373D01*
X183785359Y-83820000D01*
X183767963Y-83996627D01*
X183716443Y-84166466D01*
X183632778Y-84322991D01*
X183603448Y-84358729D01*
X183520186Y-84460186D01*
X183418729Y-84543448D01*
X183382991Y-84572778D01*
X183226466Y-84656443D01*
X183056627Y-84707963D01*
X182990443Y-84714481D01*
X182924260Y-84721000D01*
X182835740Y-84721000D01*
X182769557Y-84714481D01*
X182703373Y-84707963D01*
X182533534Y-84656443D01*
X182377009Y-84572778D01*
X182341271Y-84543448D01*
X182239814Y-84460186D01*
X182156552Y-84358729D01*
X182127222Y-84322991D01*
X182043557Y-84166466D01*
X181992037Y-83996627D01*
X181974641Y-83820000D01*
X181992037Y-83643373D01*
X182043557Y-83473534D01*
X182127222Y-83317009D01*
X182156552Y-83281271D01*
X182239814Y-83179814D01*
X182341271Y-83096552D01*
X182377009Y-83067222D01*
X182533534Y-82983557D01*
X182703373Y-82932037D01*
X182769557Y-82925519D01*
X182835740Y-82919000D01*
X182924260Y-82919000D01*
X182990443Y-82925519D01*
X182990443Y-82925519D01*
G37*
G36*
X119490442Y-80385518D02*
G01*
X119556627Y-80392037D01*
X119726466Y-80443557D01*
X119882991Y-80527222D01*
X119918729Y-80556552D01*
X120020186Y-80639814D01*
X120100369Y-80737519D01*
X120132778Y-80777009D01*
X120216443Y-80933534D01*
X120267963Y-81103373D01*
X120285359Y-81280000D01*
X120267963Y-81456627D01*
X120216443Y-81626466D01*
X120132778Y-81782991D01*
X120103448Y-81818729D01*
X120020186Y-81920186D01*
X119918729Y-82003448D01*
X119882991Y-82032778D01*
X119726466Y-82116443D01*
X119556627Y-82167963D01*
X119490443Y-82174481D01*
X119424260Y-82181000D01*
X119335740Y-82181000D01*
X119269557Y-82174481D01*
X119203373Y-82167963D01*
X119033534Y-82116443D01*
X118877009Y-82032778D01*
X118841271Y-82003448D01*
X118739814Y-81920186D01*
X118656552Y-81818729D01*
X118627222Y-81782991D01*
X118543557Y-81626466D01*
X118492037Y-81456627D01*
X118474641Y-81280000D01*
X118492037Y-81103373D01*
X118543557Y-80933534D01*
X118627222Y-80777009D01*
X118659631Y-80737519D01*
X118739814Y-80639814D01*
X118841271Y-80556552D01*
X118877009Y-80527222D01*
X119033534Y-80443557D01*
X119203373Y-80392037D01*
X119269558Y-80385518D01*
X119335740Y-80379000D01*
X119424260Y-80379000D01*
X119490442Y-80385518D01*
X119490442Y-80385518D01*
G37*
G36*
X122030442Y-80385518D02*
G01*
X122096627Y-80392037D01*
X122266466Y-80443557D01*
X122422991Y-80527222D01*
X122458729Y-80556552D01*
X122560186Y-80639814D01*
X122640369Y-80737519D01*
X122672778Y-80777009D01*
X122756443Y-80933534D01*
X122807963Y-81103373D01*
X122825359Y-81280000D01*
X122807963Y-81456627D01*
X122756443Y-81626466D01*
X122672778Y-81782991D01*
X122643448Y-81818729D01*
X122560186Y-81920186D01*
X122458729Y-82003448D01*
X122422991Y-82032778D01*
X122266466Y-82116443D01*
X122096627Y-82167963D01*
X122030443Y-82174481D01*
X121964260Y-82181000D01*
X121875740Y-82181000D01*
X121809557Y-82174481D01*
X121743373Y-82167963D01*
X121573534Y-82116443D01*
X121417009Y-82032778D01*
X121381271Y-82003448D01*
X121279814Y-81920186D01*
X121196552Y-81818729D01*
X121167222Y-81782991D01*
X121083557Y-81626466D01*
X121032037Y-81456627D01*
X121014641Y-81280000D01*
X121032037Y-81103373D01*
X121083557Y-80933534D01*
X121167222Y-80777009D01*
X121199631Y-80737519D01*
X121279814Y-80639814D01*
X121381271Y-80556552D01*
X121417009Y-80527222D01*
X121573534Y-80443557D01*
X121743373Y-80392037D01*
X121809558Y-80385518D01*
X121875740Y-80379000D01*
X121964260Y-80379000D01*
X122030442Y-80385518D01*
X122030442Y-80385518D01*
G37*
G36*
X180450442Y-80385518D02*
G01*
X180516627Y-80392037D01*
X180686466Y-80443557D01*
X180842991Y-80527222D01*
X180878729Y-80556552D01*
X180980186Y-80639814D01*
X181060369Y-80737519D01*
X181092778Y-80777009D01*
X181176443Y-80933534D01*
X181227963Y-81103373D01*
X181245359Y-81280000D01*
X181227963Y-81456627D01*
X181176443Y-81626466D01*
X181092778Y-81782991D01*
X181063448Y-81818729D01*
X180980186Y-81920186D01*
X180878729Y-82003448D01*
X180842991Y-82032778D01*
X180686466Y-82116443D01*
X180516627Y-82167963D01*
X180450443Y-82174481D01*
X180384260Y-82181000D01*
X180295740Y-82181000D01*
X180229557Y-82174481D01*
X180163373Y-82167963D01*
X179993534Y-82116443D01*
X179837009Y-82032778D01*
X179801271Y-82003448D01*
X179699814Y-81920186D01*
X179616552Y-81818729D01*
X179587222Y-81782991D01*
X179503557Y-81626466D01*
X179452037Y-81456627D01*
X179434641Y-81280000D01*
X179452037Y-81103373D01*
X179503557Y-80933534D01*
X179587222Y-80777009D01*
X179619631Y-80737519D01*
X179699814Y-80639814D01*
X179801271Y-80556552D01*
X179837009Y-80527222D01*
X179993534Y-80443557D01*
X180163373Y-80392037D01*
X180229558Y-80385518D01*
X180295740Y-80379000D01*
X180384260Y-80379000D01*
X180450442Y-80385518D01*
X180450442Y-80385518D01*
G37*
G36*
X182990442Y-80385518D02*
G01*
X183056627Y-80392037D01*
X183226466Y-80443557D01*
X183382991Y-80527222D01*
X183418729Y-80556552D01*
X183520186Y-80639814D01*
X183600369Y-80737519D01*
X183632778Y-80777009D01*
X183716443Y-80933534D01*
X183767963Y-81103373D01*
X183785359Y-81280000D01*
X183767963Y-81456627D01*
X183716443Y-81626466D01*
X183632778Y-81782991D01*
X183603448Y-81818729D01*
X183520186Y-81920186D01*
X183418729Y-82003448D01*
X183382991Y-82032778D01*
X183226466Y-82116443D01*
X183056627Y-82167963D01*
X182990443Y-82174481D01*
X182924260Y-82181000D01*
X182835740Y-82181000D01*
X182769557Y-82174481D01*
X182703373Y-82167963D01*
X182533534Y-82116443D01*
X182377009Y-82032778D01*
X182341271Y-82003448D01*
X182239814Y-81920186D01*
X182156552Y-81818729D01*
X182127222Y-81782991D01*
X182043557Y-81626466D01*
X181992037Y-81456627D01*
X181974641Y-81280000D01*
X181992037Y-81103373D01*
X182043557Y-80933534D01*
X182127222Y-80777009D01*
X182159631Y-80737519D01*
X182239814Y-80639814D01*
X182341271Y-80556552D01*
X182377009Y-80527222D01*
X182533534Y-80443557D01*
X182703373Y-80392037D01*
X182769558Y-80385518D01*
X182835740Y-80379000D01*
X182924260Y-80379000D01*
X182990442Y-80385518D01*
X182990442Y-80385518D01*
G37*
G36*
X152648228Y-80461703D02*
G01*
X152803100Y-80525853D01*
X152942481Y-80618985D01*
X153061015Y-80737519D01*
X153154147Y-80876900D01*
X153218297Y-81031772D01*
X153251000Y-81196184D01*
X153251000Y-81363816D01*
X153218297Y-81528228D01*
X153154147Y-81683100D01*
X153061015Y-81822481D01*
X152942481Y-81941015D01*
X152803100Y-82034147D01*
X152648228Y-82098297D01*
X152483816Y-82131000D01*
X152316184Y-82131000D01*
X152151772Y-82098297D01*
X151996900Y-82034147D01*
X151857519Y-81941015D01*
X151738985Y-81822481D01*
X151645853Y-81683100D01*
X151581703Y-81528228D01*
X151549000Y-81363816D01*
X151549000Y-81196184D01*
X151581703Y-81031772D01*
X151645853Y-80876900D01*
X151738985Y-80737519D01*
X151857519Y-80618985D01*
X151996900Y-80525853D01*
X152151772Y-80461703D01*
X152316184Y-80429000D01*
X152483816Y-80429000D01*
X152648228Y-80461703D01*
X152648228Y-80461703D01*
G37*
G36*
X132368228Y-80461703D02*
G01*
X132523100Y-80525853D01*
X132662481Y-80618985D01*
X132781015Y-80737519D01*
X132874147Y-80876900D01*
X132938297Y-81031772D01*
X132971000Y-81196184D01*
X132971000Y-81363816D01*
X132938297Y-81528228D01*
X132874147Y-81683100D01*
X132781015Y-81822481D01*
X132662481Y-81941015D01*
X132523100Y-82034147D01*
X132368228Y-82098297D01*
X132203816Y-82131000D01*
X132036184Y-82131000D01*
X131871772Y-82098297D01*
X131716900Y-82034147D01*
X131577519Y-81941015D01*
X131458985Y-81822481D01*
X131365853Y-81683100D01*
X131301703Y-81528228D01*
X131269000Y-81363816D01*
X131269000Y-81196184D01*
X131301703Y-81031772D01*
X131365853Y-80876900D01*
X131458985Y-80737519D01*
X131577519Y-80618985D01*
X131716900Y-80525853D01*
X131871772Y-80461703D01*
X132036184Y-80429000D01*
X132203816Y-80429000D01*
X132368228Y-80461703D01*
X132368228Y-80461703D01*
G37*
G36*
X142406823Y-80441313D02*
G01*
X142567242Y-80489976D01*
X142604296Y-80509782D01*
X142715078Y-80568996D01*
X142844659Y-80675341D01*
X142951004Y-80804922D01*
X142951005Y-80804924D01*
X143030024Y-80952758D01*
X143078687Y-81113177D01*
X143095117Y-81280000D01*
X143078687Y-81446823D01*
X143030024Y-81607242D01*
X142989477Y-81683100D01*
X142951004Y-81755078D01*
X142844659Y-81884659D01*
X142715078Y-81991004D01*
X142715076Y-81991005D01*
X142567242Y-82070024D01*
X142406823Y-82118687D01*
X142281804Y-82131000D01*
X142198196Y-82131000D01*
X142073177Y-82118687D01*
X141912758Y-82070024D01*
X141764924Y-81991005D01*
X141764922Y-81991004D01*
X141635341Y-81884659D01*
X141528996Y-81755078D01*
X141490523Y-81683100D01*
X141449976Y-81607242D01*
X141401313Y-81446823D01*
X141384883Y-81280000D01*
X141401313Y-81113177D01*
X141449976Y-80952758D01*
X141528995Y-80804924D01*
X141528996Y-80804922D01*
X141635341Y-80675341D01*
X141764922Y-80568996D01*
X141875704Y-80509782D01*
X141912758Y-80489976D01*
X142073177Y-80441313D01*
X142198196Y-80429000D01*
X142281804Y-80429000D01*
X142406823Y-80441313D01*
X142406823Y-80441313D01*
G37*
G36*
X165348228Y-80461703D02*
G01*
X165503100Y-80525853D01*
X165642481Y-80618985D01*
X165761015Y-80737519D01*
X165854147Y-80876900D01*
X165918297Y-81031772D01*
X165951000Y-81196184D01*
X165951000Y-81363816D01*
X165918297Y-81528228D01*
X165854147Y-81683100D01*
X165761015Y-81822481D01*
X165642481Y-81941015D01*
X165503100Y-82034147D01*
X165348228Y-82098297D01*
X165183816Y-82131000D01*
X165016184Y-82131000D01*
X164851772Y-82098297D01*
X164696900Y-82034147D01*
X164557519Y-81941015D01*
X164438985Y-81822481D01*
X164345853Y-81683100D01*
X164281703Y-81528228D01*
X164249000Y-81363816D01*
X164249000Y-81196184D01*
X164281703Y-81031772D01*
X164345853Y-80876900D01*
X164438985Y-80737519D01*
X164557519Y-80618985D01*
X164696900Y-80525853D01*
X164851772Y-80461703D01*
X165016184Y-80429000D01*
X165183816Y-80429000D01*
X165348228Y-80461703D01*
X165348228Y-80461703D01*
G37*
G36*
X134868228Y-80461703D02*
G01*
X135023100Y-80525853D01*
X135162481Y-80618985D01*
X135281015Y-80737519D01*
X135374147Y-80876900D01*
X135438297Y-81031772D01*
X135471000Y-81196184D01*
X135471000Y-81363816D01*
X135438297Y-81528228D01*
X135374147Y-81683100D01*
X135281015Y-81822481D01*
X135162481Y-81941015D01*
X135023100Y-82034147D01*
X134868228Y-82098297D01*
X134703816Y-82131000D01*
X134536184Y-82131000D01*
X134371772Y-82098297D01*
X134216900Y-82034147D01*
X134077519Y-81941015D01*
X133958985Y-81822481D01*
X133865853Y-81683100D01*
X133801703Y-81528228D01*
X133769000Y-81363816D01*
X133769000Y-81196184D01*
X133801703Y-81031772D01*
X133865853Y-80876900D01*
X133958985Y-80737519D01*
X134077519Y-80618985D01*
X134216900Y-80525853D01*
X134371772Y-80461703D01*
X134536184Y-80429000D01*
X134703816Y-80429000D01*
X134868228Y-80461703D01*
X134868228Y-80461703D01*
G37*
G36*
X155106823Y-80441313D02*
G01*
X155267242Y-80489976D01*
X155304296Y-80509782D01*
X155415078Y-80568996D01*
X155544659Y-80675341D01*
X155651004Y-80804922D01*
X155651005Y-80804924D01*
X155730024Y-80952758D01*
X155778687Y-81113177D01*
X155795117Y-81280000D01*
X155778687Y-81446823D01*
X155730024Y-81607242D01*
X155689477Y-81683100D01*
X155651004Y-81755078D01*
X155544659Y-81884659D01*
X155415078Y-81991004D01*
X155415076Y-81991005D01*
X155267242Y-82070024D01*
X155106823Y-82118687D01*
X154981804Y-82131000D01*
X154898196Y-82131000D01*
X154773177Y-82118687D01*
X154612758Y-82070024D01*
X154464924Y-81991005D01*
X154464922Y-81991004D01*
X154335341Y-81884659D01*
X154228996Y-81755078D01*
X154190523Y-81683100D01*
X154149976Y-81607242D01*
X154101313Y-81446823D01*
X154084883Y-81280000D01*
X154101313Y-81113177D01*
X154149976Y-80952758D01*
X154228995Y-80804924D01*
X154228996Y-80804922D01*
X154335341Y-80675341D01*
X154464922Y-80568996D01*
X154575704Y-80509782D01*
X154612758Y-80489976D01*
X154773177Y-80441313D01*
X154898196Y-80429000D01*
X154981804Y-80429000D01*
X155106823Y-80441313D01*
X155106823Y-80441313D01*
G37*
G36*
X138663642Y-80509781D02*
G01*
X138806599Y-80568996D01*
X138809416Y-80570163D01*
X138940608Y-80657822D01*
X139052178Y-80769392D01*
X139124012Y-80876900D01*
X139139838Y-80900586D01*
X139200219Y-81046358D01*
X139231000Y-81201107D01*
X139231000Y-81358893D01*
X139200219Y-81513642D01*
X139139838Y-81659414D01*
X139139837Y-81659416D01*
X139052178Y-81790608D01*
X138940608Y-81902178D01*
X138809416Y-81989837D01*
X138809415Y-81989838D01*
X138809414Y-81989838D01*
X138663642Y-82050219D01*
X138508893Y-82081000D01*
X138351107Y-82081000D01*
X138196358Y-82050219D01*
X138050586Y-81989838D01*
X138050585Y-81989838D01*
X138050584Y-81989837D01*
X137919392Y-81902178D01*
X137807822Y-81790608D01*
X137720163Y-81659416D01*
X137720162Y-81659414D01*
X137659781Y-81513642D01*
X137629000Y-81358893D01*
X137629000Y-81201107D01*
X137659781Y-81046358D01*
X137720162Y-80900586D01*
X137735988Y-80876900D01*
X137807822Y-80769392D01*
X137919392Y-80657822D01*
X138050584Y-80570163D01*
X138053401Y-80568996D01*
X138196358Y-80509781D01*
X138351107Y-80479000D01*
X138508893Y-80479000D01*
X138663642Y-80509781D01*
X138663642Y-80509781D01*
G37*
G36*
X119490443Y-77845519D02*
G01*
X119556627Y-77852037D01*
X119726466Y-77903557D01*
X119882991Y-77987222D01*
X119918729Y-78016552D01*
X120020186Y-78099814D01*
X120103448Y-78201271D01*
X120132778Y-78237009D01*
X120216443Y-78393534D01*
X120267963Y-78563373D01*
X120285359Y-78740000D01*
X120267963Y-78916627D01*
X120216443Y-79086466D01*
X120132778Y-79242991D01*
X120103448Y-79278729D01*
X120020186Y-79380186D01*
X119918729Y-79463448D01*
X119882991Y-79492778D01*
X119726466Y-79576443D01*
X119556627Y-79627963D01*
X119490442Y-79634482D01*
X119424260Y-79641000D01*
X119335740Y-79641000D01*
X119269558Y-79634482D01*
X119203373Y-79627963D01*
X119033534Y-79576443D01*
X118877009Y-79492778D01*
X118841271Y-79463448D01*
X118739814Y-79380186D01*
X118656552Y-79278729D01*
X118627222Y-79242991D01*
X118543557Y-79086466D01*
X118492037Y-78916627D01*
X118474641Y-78740000D01*
X118492037Y-78563373D01*
X118543557Y-78393534D01*
X118627222Y-78237009D01*
X118656552Y-78201271D01*
X118739814Y-78099814D01*
X118841271Y-78016552D01*
X118877009Y-77987222D01*
X119033534Y-77903557D01*
X119203373Y-77852037D01*
X119269557Y-77845519D01*
X119335740Y-77839000D01*
X119424260Y-77839000D01*
X119490443Y-77845519D01*
X119490443Y-77845519D01*
G37*
G36*
X122030443Y-77845519D02*
G01*
X122096627Y-77852037D01*
X122266466Y-77903557D01*
X122422991Y-77987222D01*
X122458729Y-78016552D01*
X122560186Y-78099814D01*
X122643448Y-78201271D01*
X122672778Y-78237009D01*
X122756443Y-78393534D01*
X122807963Y-78563373D01*
X122825359Y-78740000D01*
X122807963Y-78916627D01*
X122756443Y-79086466D01*
X122672778Y-79242991D01*
X122643448Y-79278729D01*
X122560186Y-79380186D01*
X122458729Y-79463448D01*
X122422991Y-79492778D01*
X122266466Y-79576443D01*
X122096627Y-79627963D01*
X122030442Y-79634482D01*
X121964260Y-79641000D01*
X121875740Y-79641000D01*
X121809558Y-79634482D01*
X121743373Y-79627963D01*
X121573534Y-79576443D01*
X121417009Y-79492778D01*
X121381271Y-79463448D01*
X121279814Y-79380186D01*
X121196552Y-79278729D01*
X121167222Y-79242991D01*
X121083557Y-79086466D01*
X121032037Y-78916627D01*
X121014641Y-78740000D01*
X121032037Y-78563373D01*
X121083557Y-78393534D01*
X121167222Y-78237009D01*
X121196552Y-78201271D01*
X121279814Y-78099814D01*
X121381271Y-78016552D01*
X121417009Y-77987222D01*
X121573534Y-77903557D01*
X121743373Y-77852037D01*
X121809557Y-77845519D01*
X121875740Y-77839000D01*
X121964260Y-77839000D01*
X122030443Y-77845519D01*
X122030443Y-77845519D01*
G37*
G36*
X182990443Y-77845519D02*
G01*
X183056627Y-77852037D01*
X183226466Y-77903557D01*
X183382991Y-77987222D01*
X183418729Y-78016552D01*
X183520186Y-78099814D01*
X183603448Y-78201271D01*
X183632778Y-78237009D01*
X183716443Y-78393534D01*
X183767963Y-78563373D01*
X183785359Y-78740000D01*
X183767963Y-78916627D01*
X183716443Y-79086466D01*
X183632778Y-79242991D01*
X183603448Y-79278729D01*
X183520186Y-79380186D01*
X183418729Y-79463448D01*
X183382991Y-79492778D01*
X183226466Y-79576443D01*
X183056627Y-79627963D01*
X182990442Y-79634482D01*
X182924260Y-79641000D01*
X182835740Y-79641000D01*
X182769558Y-79634482D01*
X182703373Y-79627963D01*
X182533534Y-79576443D01*
X182377009Y-79492778D01*
X182341271Y-79463448D01*
X182239814Y-79380186D01*
X182156552Y-79278729D01*
X182127222Y-79242991D01*
X182043557Y-79086466D01*
X181992037Y-78916627D01*
X181974641Y-78740000D01*
X181992037Y-78563373D01*
X182043557Y-78393534D01*
X182127222Y-78237009D01*
X182156552Y-78201271D01*
X182239814Y-78099814D01*
X182341271Y-78016552D01*
X182377009Y-77987222D01*
X182533534Y-77903557D01*
X182703373Y-77852037D01*
X182769557Y-77845519D01*
X182835740Y-77839000D01*
X182924260Y-77839000D01*
X182990443Y-77845519D01*
X182990443Y-77845519D01*
G37*
G36*
X180450443Y-77845519D02*
G01*
X180516627Y-77852037D01*
X180686466Y-77903557D01*
X180842991Y-77987222D01*
X180878729Y-78016552D01*
X180980186Y-78099814D01*
X181063448Y-78201271D01*
X181092778Y-78237009D01*
X181176443Y-78393534D01*
X181227963Y-78563373D01*
X181245359Y-78740000D01*
X181227963Y-78916627D01*
X181176443Y-79086466D01*
X181092778Y-79242991D01*
X181063448Y-79278729D01*
X180980186Y-79380186D01*
X180878729Y-79463448D01*
X180842991Y-79492778D01*
X180686466Y-79576443D01*
X180516627Y-79627963D01*
X180450442Y-79634482D01*
X180384260Y-79641000D01*
X180295740Y-79641000D01*
X180229558Y-79634482D01*
X180163373Y-79627963D01*
X179993534Y-79576443D01*
X179837009Y-79492778D01*
X179801271Y-79463448D01*
X179699814Y-79380186D01*
X179616552Y-79278729D01*
X179587222Y-79242991D01*
X179503557Y-79086466D01*
X179452037Y-78916627D01*
X179434641Y-78740000D01*
X179452037Y-78563373D01*
X179503557Y-78393534D01*
X179587222Y-78237009D01*
X179616552Y-78201271D01*
X179699814Y-78099814D01*
X179801271Y-78016552D01*
X179837009Y-77987222D01*
X179993534Y-77903557D01*
X180163373Y-77852037D01*
X180229557Y-77845519D01*
X180295740Y-77839000D01*
X180384260Y-77839000D01*
X180450443Y-77845519D01*
X180450443Y-77845519D01*
G37*
G36*
X180450442Y-75305518D02*
G01*
X180516627Y-75312037D01*
X180686466Y-75363557D01*
X180842991Y-75447222D01*
X180878729Y-75476552D01*
X180980186Y-75559814D01*
X181060369Y-75657519D01*
X181092778Y-75697009D01*
X181176443Y-75853534D01*
X181227963Y-76023373D01*
X181245359Y-76200000D01*
X181227963Y-76376627D01*
X181176443Y-76546466D01*
X181092778Y-76702991D01*
X181063448Y-76738729D01*
X180980186Y-76840186D01*
X180878729Y-76923448D01*
X180842991Y-76952778D01*
X180686466Y-77036443D01*
X180516627Y-77087963D01*
X180450442Y-77094482D01*
X180384260Y-77101000D01*
X180295740Y-77101000D01*
X180229558Y-77094482D01*
X180163373Y-77087963D01*
X179993534Y-77036443D01*
X179837009Y-76952778D01*
X179801271Y-76923448D01*
X179699814Y-76840186D01*
X179616552Y-76738729D01*
X179587222Y-76702991D01*
X179503557Y-76546466D01*
X179452037Y-76376627D01*
X179434641Y-76200000D01*
X179452037Y-76023373D01*
X179503557Y-75853534D01*
X179587222Y-75697009D01*
X179619631Y-75657519D01*
X179699814Y-75559814D01*
X179801271Y-75476552D01*
X179837009Y-75447222D01*
X179993534Y-75363557D01*
X180163373Y-75312037D01*
X180229558Y-75305518D01*
X180295740Y-75299000D01*
X180384260Y-75299000D01*
X180450442Y-75305518D01*
X180450442Y-75305518D01*
G37*
G36*
X119490442Y-75305518D02*
G01*
X119556627Y-75312037D01*
X119726466Y-75363557D01*
X119882991Y-75447222D01*
X119918729Y-75476552D01*
X120020186Y-75559814D01*
X120100369Y-75657519D01*
X120132778Y-75697009D01*
X120216443Y-75853534D01*
X120267963Y-76023373D01*
X120285359Y-76200000D01*
X120267963Y-76376627D01*
X120216443Y-76546466D01*
X120132778Y-76702991D01*
X120103448Y-76738729D01*
X120020186Y-76840186D01*
X119918729Y-76923448D01*
X119882991Y-76952778D01*
X119726466Y-77036443D01*
X119556627Y-77087963D01*
X119490442Y-77094482D01*
X119424260Y-77101000D01*
X119335740Y-77101000D01*
X119269558Y-77094482D01*
X119203373Y-77087963D01*
X119033534Y-77036443D01*
X118877009Y-76952778D01*
X118841271Y-76923448D01*
X118739814Y-76840186D01*
X118656552Y-76738729D01*
X118627222Y-76702991D01*
X118543557Y-76546466D01*
X118492037Y-76376627D01*
X118474641Y-76200000D01*
X118492037Y-76023373D01*
X118543557Y-75853534D01*
X118627222Y-75697009D01*
X118659631Y-75657519D01*
X118739814Y-75559814D01*
X118841271Y-75476552D01*
X118877009Y-75447222D01*
X119033534Y-75363557D01*
X119203373Y-75312037D01*
X119269558Y-75305518D01*
X119335740Y-75299000D01*
X119424260Y-75299000D01*
X119490442Y-75305518D01*
X119490442Y-75305518D01*
G37*
G36*
X182990442Y-75305518D02*
G01*
X183056627Y-75312037D01*
X183226466Y-75363557D01*
X183382991Y-75447222D01*
X183418729Y-75476552D01*
X183520186Y-75559814D01*
X183600369Y-75657519D01*
X183632778Y-75697009D01*
X183716443Y-75853534D01*
X183767963Y-76023373D01*
X183785359Y-76200000D01*
X183767963Y-76376627D01*
X183716443Y-76546466D01*
X183632778Y-76702991D01*
X183603448Y-76738729D01*
X183520186Y-76840186D01*
X183418729Y-76923448D01*
X183382991Y-76952778D01*
X183226466Y-77036443D01*
X183056627Y-77087963D01*
X182990442Y-77094482D01*
X182924260Y-77101000D01*
X182835740Y-77101000D01*
X182769558Y-77094482D01*
X182703373Y-77087963D01*
X182533534Y-77036443D01*
X182377009Y-76952778D01*
X182341271Y-76923448D01*
X182239814Y-76840186D01*
X182156552Y-76738729D01*
X182127222Y-76702991D01*
X182043557Y-76546466D01*
X181992037Y-76376627D01*
X181974641Y-76200000D01*
X181992037Y-76023373D01*
X182043557Y-75853534D01*
X182127222Y-75697009D01*
X182159631Y-75657519D01*
X182239814Y-75559814D01*
X182341271Y-75476552D01*
X182377009Y-75447222D01*
X182533534Y-75363557D01*
X182703373Y-75312037D01*
X182769558Y-75305518D01*
X182835740Y-75299000D01*
X182924260Y-75299000D01*
X182990442Y-75305518D01*
X182990442Y-75305518D01*
G37*
G36*
X122030442Y-75305518D02*
G01*
X122096627Y-75312037D01*
X122266466Y-75363557D01*
X122422991Y-75447222D01*
X122458729Y-75476552D01*
X122560186Y-75559814D01*
X122640369Y-75657519D01*
X122672778Y-75697009D01*
X122756443Y-75853534D01*
X122807963Y-76023373D01*
X122825359Y-76200000D01*
X122807963Y-76376627D01*
X122756443Y-76546466D01*
X122672778Y-76702991D01*
X122643448Y-76738729D01*
X122560186Y-76840186D01*
X122458729Y-76923448D01*
X122422991Y-76952778D01*
X122266466Y-77036443D01*
X122096627Y-77087963D01*
X122030442Y-77094482D01*
X121964260Y-77101000D01*
X121875740Y-77101000D01*
X121809558Y-77094482D01*
X121743373Y-77087963D01*
X121573534Y-77036443D01*
X121417009Y-76952778D01*
X121381271Y-76923448D01*
X121279814Y-76840186D01*
X121196552Y-76738729D01*
X121167222Y-76702991D01*
X121083557Y-76546466D01*
X121032037Y-76376627D01*
X121014641Y-76200000D01*
X121032037Y-76023373D01*
X121083557Y-75853534D01*
X121167222Y-75697009D01*
X121199631Y-75657519D01*
X121279814Y-75559814D01*
X121381271Y-75476552D01*
X121417009Y-75447222D01*
X121573534Y-75363557D01*
X121743373Y-75312037D01*
X121809558Y-75305518D01*
X121875740Y-75299000D01*
X121964260Y-75299000D01*
X122030442Y-75305518D01*
X122030442Y-75305518D01*
G37*
G36*
X155188228Y-75381703D02*
G01*
X155343100Y-75445853D01*
X155482481Y-75538985D01*
X155601015Y-75657519D01*
X155694147Y-75796900D01*
X155758297Y-75951772D01*
X155791000Y-76116184D01*
X155791000Y-76283816D01*
X155758297Y-76448228D01*
X155694147Y-76603100D01*
X155601015Y-76742481D01*
X155482481Y-76861015D01*
X155343100Y-76954147D01*
X155188228Y-77018297D01*
X155023816Y-77051000D01*
X154856184Y-77051000D01*
X154691772Y-77018297D01*
X154536900Y-76954147D01*
X154397519Y-76861015D01*
X154278985Y-76742481D01*
X154185853Y-76603100D01*
X154121703Y-76448228D01*
X154089000Y-76283816D01*
X154089000Y-76116184D01*
X154121703Y-75951772D01*
X154185853Y-75796900D01*
X154278985Y-75657519D01*
X154397519Y-75538985D01*
X154536900Y-75445853D01*
X154691772Y-75381703D01*
X154856184Y-75349000D01*
X155023816Y-75349000D01*
X155188228Y-75381703D01*
X155188228Y-75381703D01*
G37*
G36*
X152566823Y-75361313D02*
G01*
X152727242Y-75409976D01*
X152794361Y-75445852D01*
X152875078Y-75488996D01*
X153004659Y-75595341D01*
X153111004Y-75724922D01*
X153111005Y-75724924D01*
X153190024Y-75872758D01*
X153238687Y-76033177D01*
X153255117Y-76200000D01*
X153238687Y-76366823D01*
X153190024Y-76527242D01*
X153149477Y-76603100D01*
X153111004Y-76675078D01*
X153004659Y-76804659D01*
X152875078Y-76911004D01*
X152875076Y-76911005D01*
X152727242Y-76990024D01*
X152566823Y-77038687D01*
X152441804Y-77051000D01*
X152358196Y-77051000D01*
X152233177Y-77038687D01*
X152072758Y-76990024D01*
X151924924Y-76911005D01*
X151924922Y-76911004D01*
X151795341Y-76804659D01*
X151688996Y-76675078D01*
X151650523Y-76603100D01*
X151609976Y-76527242D01*
X151561313Y-76366823D01*
X151544883Y-76200000D01*
X151561313Y-76033177D01*
X151609976Y-75872758D01*
X151688995Y-75724924D01*
X151688996Y-75724922D01*
X151795341Y-75595341D01*
X151924922Y-75488996D01*
X152005639Y-75445852D01*
X152072758Y-75409976D01*
X152233177Y-75361313D01*
X152358196Y-75349000D01*
X152441804Y-75349000D01*
X152566823Y-75361313D01*
X152566823Y-75361313D01*
G37*
G36*
X142488228Y-75381703D02*
G01*
X142643100Y-75445853D01*
X142782481Y-75538985D01*
X142901015Y-75657519D01*
X142994147Y-75796900D01*
X143058297Y-75951772D01*
X143091000Y-76116184D01*
X143091000Y-76283816D01*
X143058297Y-76448228D01*
X142994147Y-76603100D01*
X142901015Y-76742481D01*
X142782481Y-76861015D01*
X142643100Y-76954147D01*
X142488228Y-77018297D01*
X142323816Y-77051000D01*
X142156184Y-77051000D01*
X141991772Y-77018297D01*
X141836900Y-76954147D01*
X141697519Y-76861015D01*
X141578985Y-76742481D01*
X141485853Y-76603100D01*
X141421703Y-76448228D01*
X141389000Y-76283816D01*
X141389000Y-76116184D01*
X141421703Y-75951772D01*
X141485853Y-75796900D01*
X141578985Y-75657519D01*
X141697519Y-75538985D01*
X141836900Y-75445853D01*
X141991772Y-75381703D01*
X142156184Y-75349000D01*
X142323816Y-75349000D01*
X142488228Y-75381703D01*
X142488228Y-75381703D01*
G37*
G36*
X165266823Y-75361313D02*
G01*
X165427242Y-75409976D01*
X165494361Y-75445852D01*
X165575078Y-75488996D01*
X165704659Y-75595341D01*
X165811004Y-75724922D01*
X165811005Y-75724924D01*
X165890024Y-75872758D01*
X165938687Y-76033177D01*
X165955117Y-76200000D01*
X165938687Y-76366823D01*
X165890024Y-76527242D01*
X165849477Y-76603100D01*
X165811004Y-76675078D01*
X165704659Y-76804659D01*
X165575078Y-76911004D01*
X165575076Y-76911005D01*
X165427242Y-76990024D01*
X165266823Y-77038687D01*
X165141804Y-77051000D01*
X165058196Y-77051000D01*
X164933177Y-77038687D01*
X164772758Y-76990024D01*
X164624924Y-76911005D01*
X164624922Y-76911004D01*
X164495341Y-76804659D01*
X164388996Y-76675078D01*
X164350523Y-76603100D01*
X164309976Y-76527242D01*
X164261313Y-76366823D01*
X164244883Y-76200000D01*
X164261313Y-76033177D01*
X164309976Y-75872758D01*
X164388995Y-75724924D01*
X164388996Y-75724922D01*
X164495341Y-75595341D01*
X164624922Y-75488996D01*
X164705639Y-75445852D01*
X164772758Y-75409976D01*
X164933177Y-75361313D01*
X165058196Y-75349000D01*
X165141804Y-75349000D01*
X165266823Y-75361313D01*
X165266823Y-75361313D01*
G37*
G36*
X172968228Y-75381703D02*
G01*
X173123100Y-75445853D01*
X173262481Y-75538985D01*
X173381015Y-75657519D01*
X173474147Y-75796900D01*
X173538297Y-75951772D01*
X173571000Y-76116184D01*
X173571000Y-76283816D01*
X173538297Y-76448228D01*
X173474147Y-76603100D01*
X173381015Y-76742481D01*
X173262481Y-76861015D01*
X173123100Y-76954147D01*
X172968228Y-77018297D01*
X172803816Y-77051000D01*
X172636184Y-77051000D01*
X172471772Y-77018297D01*
X172316900Y-76954147D01*
X172177519Y-76861015D01*
X172058985Y-76742481D01*
X171965853Y-76603100D01*
X171901703Y-76448228D01*
X171869000Y-76283816D01*
X171869000Y-76116184D01*
X171901703Y-75951772D01*
X171965853Y-75796900D01*
X172058985Y-75657519D01*
X172177519Y-75538985D01*
X172316900Y-75445853D01*
X172471772Y-75381703D01*
X172636184Y-75349000D01*
X172803816Y-75349000D01*
X172968228Y-75381703D01*
X172968228Y-75381703D01*
G37*
G36*
X122030442Y-72765518D02*
G01*
X122096627Y-72772037D01*
X122266466Y-72823557D01*
X122422991Y-72907222D01*
X122458729Y-72936552D01*
X122560186Y-73019814D01*
X122643448Y-73121271D01*
X122672778Y-73157009D01*
X122756443Y-73313534D01*
X122807963Y-73483373D01*
X122825359Y-73660000D01*
X122807963Y-73836627D01*
X122756443Y-74006466D01*
X122672778Y-74162991D01*
X122643448Y-74198729D01*
X122560186Y-74300186D01*
X122458729Y-74383448D01*
X122422991Y-74412778D01*
X122266466Y-74496443D01*
X122096627Y-74547963D01*
X122030442Y-74554482D01*
X121964260Y-74561000D01*
X121875740Y-74561000D01*
X121809558Y-74554482D01*
X121743373Y-74547963D01*
X121573534Y-74496443D01*
X121417009Y-74412778D01*
X121381271Y-74383448D01*
X121279814Y-74300186D01*
X121196552Y-74198729D01*
X121167222Y-74162991D01*
X121083557Y-74006466D01*
X121032037Y-73836627D01*
X121014641Y-73660000D01*
X121032037Y-73483373D01*
X121083557Y-73313534D01*
X121167222Y-73157009D01*
X121196552Y-73121271D01*
X121279814Y-73019814D01*
X121381271Y-72936552D01*
X121417009Y-72907222D01*
X121573534Y-72823557D01*
X121743373Y-72772037D01*
X121809558Y-72765518D01*
X121875740Y-72759000D01*
X121964260Y-72759000D01*
X122030442Y-72765518D01*
X122030442Y-72765518D01*
G37*
G36*
X119490442Y-72765518D02*
G01*
X119556627Y-72772037D01*
X119726466Y-72823557D01*
X119882991Y-72907222D01*
X119918729Y-72936552D01*
X120020186Y-73019814D01*
X120103448Y-73121271D01*
X120132778Y-73157009D01*
X120216443Y-73313534D01*
X120267963Y-73483373D01*
X120285359Y-73660000D01*
X120267963Y-73836627D01*
X120216443Y-74006466D01*
X120132778Y-74162991D01*
X120103448Y-74198729D01*
X120020186Y-74300186D01*
X119918729Y-74383448D01*
X119882991Y-74412778D01*
X119726466Y-74496443D01*
X119556627Y-74547963D01*
X119490442Y-74554482D01*
X119424260Y-74561000D01*
X119335740Y-74561000D01*
X119269558Y-74554482D01*
X119203373Y-74547963D01*
X119033534Y-74496443D01*
X118877009Y-74412778D01*
X118841271Y-74383448D01*
X118739814Y-74300186D01*
X118656552Y-74198729D01*
X118627222Y-74162991D01*
X118543557Y-74006466D01*
X118492037Y-73836627D01*
X118474641Y-73660000D01*
X118492037Y-73483373D01*
X118543557Y-73313534D01*
X118627222Y-73157009D01*
X118656552Y-73121271D01*
X118739814Y-73019814D01*
X118841271Y-72936552D01*
X118877009Y-72907222D01*
X119033534Y-72823557D01*
X119203373Y-72772037D01*
X119269558Y-72765518D01*
X119335740Y-72759000D01*
X119424260Y-72759000D01*
X119490442Y-72765518D01*
X119490442Y-72765518D01*
G37*
G36*
X182990442Y-72765518D02*
G01*
X183056627Y-72772037D01*
X183226466Y-72823557D01*
X183382991Y-72907222D01*
X183418729Y-72936552D01*
X183520186Y-73019814D01*
X183603448Y-73121271D01*
X183632778Y-73157009D01*
X183716443Y-73313534D01*
X183767963Y-73483373D01*
X183785359Y-73660000D01*
X183767963Y-73836627D01*
X183716443Y-74006466D01*
X183632778Y-74162991D01*
X183603448Y-74198729D01*
X183520186Y-74300186D01*
X183418729Y-74383448D01*
X183382991Y-74412778D01*
X183226466Y-74496443D01*
X183056627Y-74547963D01*
X182990442Y-74554482D01*
X182924260Y-74561000D01*
X182835740Y-74561000D01*
X182769558Y-74554482D01*
X182703373Y-74547963D01*
X182533534Y-74496443D01*
X182377009Y-74412778D01*
X182341271Y-74383448D01*
X182239814Y-74300186D01*
X182156552Y-74198729D01*
X182127222Y-74162991D01*
X182043557Y-74006466D01*
X181992037Y-73836627D01*
X181974641Y-73660000D01*
X181992037Y-73483373D01*
X182043557Y-73313534D01*
X182127222Y-73157009D01*
X182156552Y-73121271D01*
X182239814Y-73019814D01*
X182341271Y-72936552D01*
X182377009Y-72907222D01*
X182533534Y-72823557D01*
X182703373Y-72772037D01*
X182769558Y-72765518D01*
X182835740Y-72759000D01*
X182924260Y-72759000D01*
X182990442Y-72765518D01*
X182990442Y-72765518D01*
G37*
G36*
X180450442Y-72765518D02*
G01*
X180516627Y-72772037D01*
X180686466Y-72823557D01*
X180842991Y-72907222D01*
X180878729Y-72936552D01*
X180980186Y-73019814D01*
X181063448Y-73121271D01*
X181092778Y-73157009D01*
X181176443Y-73313534D01*
X181227963Y-73483373D01*
X181245359Y-73660000D01*
X181227963Y-73836627D01*
X181176443Y-74006466D01*
X181092778Y-74162991D01*
X181063448Y-74198729D01*
X180980186Y-74300186D01*
X180878729Y-74383448D01*
X180842991Y-74412778D01*
X180686466Y-74496443D01*
X180516627Y-74547963D01*
X180450442Y-74554482D01*
X180384260Y-74561000D01*
X180295740Y-74561000D01*
X180229558Y-74554482D01*
X180163373Y-74547963D01*
X179993534Y-74496443D01*
X179837009Y-74412778D01*
X179801271Y-74383448D01*
X179699814Y-74300186D01*
X179616552Y-74198729D01*
X179587222Y-74162991D01*
X179503557Y-74006466D01*
X179452037Y-73836627D01*
X179434641Y-73660000D01*
X179452037Y-73483373D01*
X179503557Y-73313534D01*
X179587222Y-73157009D01*
X179616552Y-73121271D01*
X179699814Y-73019814D01*
X179801271Y-72936552D01*
X179837009Y-72907222D01*
X179993534Y-72823557D01*
X180163373Y-72772037D01*
X180229558Y-72765518D01*
X180295740Y-72759000D01*
X180384260Y-72759000D01*
X180450442Y-72765518D01*
X180450442Y-72765518D01*
G37*
G36*
X175493642Y-72889781D02*
G01*
X175639414Y-72950162D01*
X175639416Y-72950163D01*
X175770608Y-73037822D01*
X175882178Y-73149392D01*
X175969837Y-73280584D01*
X175969838Y-73280586D01*
X176030219Y-73426358D01*
X176061000Y-73581107D01*
X176061000Y-73738893D01*
X176030219Y-73893642D01*
X175969838Y-74039414D01*
X175969837Y-74039416D01*
X175882178Y-74170608D01*
X175770608Y-74282178D01*
X175639416Y-74369837D01*
X175639415Y-74369838D01*
X175639414Y-74369838D01*
X175493642Y-74430219D01*
X175338893Y-74461000D01*
X175181107Y-74461000D01*
X175026358Y-74430219D01*
X174880586Y-74369838D01*
X174880585Y-74369838D01*
X174880584Y-74369837D01*
X174749392Y-74282178D01*
X174637822Y-74170608D01*
X174550163Y-74039416D01*
X174550162Y-74039414D01*
X174489781Y-73893642D01*
X174459000Y-73738893D01*
X174459000Y-73581107D01*
X174489781Y-73426358D01*
X174550162Y-73280586D01*
X174550163Y-73280584D01*
X174637822Y-73149392D01*
X174749392Y-73037822D01*
X174880584Y-72950163D01*
X174880586Y-72950162D01*
X175026358Y-72889781D01*
X175181107Y-72859000D01*
X175338893Y-72859000D01*
X175493642Y-72889781D01*
X175493642Y-72889781D01*
G37*
G36*
X170477142Y-71033242D02*
G01*
X170625101Y-71094529D01*
X170758255Y-71183499D01*
X170871501Y-71296745D01*
X170960471Y-71429899D01*
X171021758Y-71577858D01*
X171053000Y-71734925D01*
X171053000Y-71895075D01*
X171021758Y-72052142D01*
X170960471Y-72200101D01*
X170871501Y-72333255D01*
X170758255Y-72446501D01*
X170625101Y-72535471D01*
X170477142Y-72596758D01*
X170320075Y-72628000D01*
X170159925Y-72628000D01*
X170002858Y-72596758D01*
X169854899Y-72535471D01*
X169721745Y-72446501D01*
X169608499Y-72333255D01*
X169519529Y-72200101D01*
X169458242Y-72052142D01*
X169427000Y-71895075D01*
X169427000Y-71734925D01*
X169458242Y-71577858D01*
X169519529Y-71429899D01*
X169608499Y-71296745D01*
X169721745Y-71183499D01*
X169854899Y-71094529D01*
X170002858Y-71033242D01*
X170159925Y-71002000D01*
X170320075Y-71002000D01*
X170477142Y-71033242D01*
X170477142Y-71033242D01*
G37*
G36*
X132377142Y-71033242D02*
G01*
X132525101Y-71094529D01*
X132658255Y-71183499D01*
X132771501Y-71296745D01*
X132860471Y-71429899D01*
X132921758Y-71577858D01*
X132953000Y-71734925D01*
X132953000Y-71895075D01*
X132921758Y-72052142D01*
X132860471Y-72200101D01*
X132771501Y-72333255D01*
X132658255Y-72446501D01*
X132525101Y-72535471D01*
X132377142Y-72596758D01*
X132220075Y-72628000D01*
X132059925Y-72628000D01*
X131902858Y-72596758D01*
X131754899Y-72535471D01*
X131621745Y-72446501D01*
X131508499Y-72333255D01*
X131419529Y-72200101D01*
X131358242Y-72052142D01*
X131327000Y-71895075D01*
X131327000Y-71734925D01*
X131358242Y-71577858D01*
X131419529Y-71429899D01*
X131508499Y-71296745D01*
X131621745Y-71183499D01*
X131754899Y-71094529D01*
X131902858Y-71033242D01*
X132059925Y-71002000D01*
X132220075Y-71002000D01*
X132377142Y-71033242D01*
X132377142Y-71033242D01*
G37*
G36*
X180450442Y-70225518D02*
G01*
X180516627Y-70232037D01*
X180686466Y-70283557D01*
X180842991Y-70367222D01*
X180878729Y-70396552D01*
X180980186Y-70479814D01*
X181063448Y-70581271D01*
X181092778Y-70617009D01*
X181176443Y-70773534D01*
X181227963Y-70943373D01*
X181245359Y-71120000D01*
X181227963Y-71296627D01*
X181176443Y-71466466D01*
X181092778Y-71622991D01*
X181063448Y-71658729D01*
X180980186Y-71760186D01*
X180878729Y-71843448D01*
X180842991Y-71872778D01*
X180686466Y-71956443D01*
X180516627Y-72007963D01*
X180450443Y-72014481D01*
X180384260Y-72021000D01*
X180295740Y-72021000D01*
X180229557Y-72014481D01*
X180163373Y-72007963D01*
X179993534Y-71956443D01*
X179837009Y-71872778D01*
X179801271Y-71843448D01*
X179699814Y-71760186D01*
X179616552Y-71658729D01*
X179587222Y-71622991D01*
X179503557Y-71466466D01*
X179452037Y-71296627D01*
X179434641Y-71120000D01*
X179452037Y-70943373D01*
X179503557Y-70773534D01*
X179587222Y-70617009D01*
X179616552Y-70581271D01*
X179699814Y-70479814D01*
X179801271Y-70396552D01*
X179837009Y-70367222D01*
X179993534Y-70283557D01*
X180163373Y-70232037D01*
X180229558Y-70225518D01*
X180295740Y-70219000D01*
X180384260Y-70219000D01*
X180450442Y-70225518D01*
X180450442Y-70225518D01*
G37*
G36*
X119490442Y-70225518D02*
G01*
X119556627Y-70232037D01*
X119726466Y-70283557D01*
X119882991Y-70367222D01*
X119918729Y-70396552D01*
X120020186Y-70479814D01*
X120103448Y-70581271D01*
X120132778Y-70617009D01*
X120216443Y-70773534D01*
X120267963Y-70943373D01*
X120285359Y-71120000D01*
X120267963Y-71296627D01*
X120216443Y-71466466D01*
X120132778Y-71622991D01*
X120103448Y-71658729D01*
X120020186Y-71760186D01*
X119918729Y-71843448D01*
X119882991Y-71872778D01*
X119726466Y-71956443D01*
X119556627Y-72007963D01*
X119490443Y-72014481D01*
X119424260Y-72021000D01*
X119335740Y-72021000D01*
X119269557Y-72014481D01*
X119203373Y-72007963D01*
X119033534Y-71956443D01*
X118877009Y-71872778D01*
X118841271Y-71843448D01*
X118739814Y-71760186D01*
X118656552Y-71658729D01*
X118627222Y-71622991D01*
X118543557Y-71466466D01*
X118492037Y-71296627D01*
X118474641Y-71120000D01*
X118492037Y-70943373D01*
X118543557Y-70773534D01*
X118627222Y-70617009D01*
X118656552Y-70581271D01*
X118739814Y-70479814D01*
X118841271Y-70396552D01*
X118877009Y-70367222D01*
X119033534Y-70283557D01*
X119203373Y-70232037D01*
X119269558Y-70225518D01*
X119335740Y-70219000D01*
X119424260Y-70219000D01*
X119490442Y-70225518D01*
X119490442Y-70225518D01*
G37*
G36*
X122030442Y-70225518D02*
G01*
X122096627Y-70232037D01*
X122266466Y-70283557D01*
X122422991Y-70367222D01*
X122458729Y-70396552D01*
X122560186Y-70479814D01*
X122643448Y-70581271D01*
X122672778Y-70617009D01*
X122756443Y-70773534D01*
X122807963Y-70943373D01*
X122825359Y-71120000D01*
X122807963Y-71296627D01*
X122756443Y-71466466D01*
X122672778Y-71622991D01*
X122643448Y-71658729D01*
X122560186Y-71760186D01*
X122458729Y-71843448D01*
X122422991Y-71872778D01*
X122266466Y-71956443D01*
X122096627Y-72007963D01*
X122030443Y-72014481D01*
X121964260Y-72021000D01*
X121875740Y-72021000D01*
X121809557Y-72014481D01*
X121743373Y-72007963D01*
X121573534Y-71956443D01*
X121417009Y-71872778D01*
X121381271Y-71843448D01*
X121279814Y-71760186D01*
X121196552Y-71658729D01*
X121167222Y-71622991D01*
X121083557Y-71466466D01*
X121032037Y-71296627D01*
X121014641Y-71120000D01*
X121032037Y-70943373D01*
X121083557Y-70773534D01*
X121167222Y-70617009D01*
X121196552Y-70581271D01*
X121279814Y-70479814D01*
X121381271Y-70396552D01*
X121417009Y-70367222D01*
X121573534Y-70283557D01*
X121743373Y-70232037D01*
X121809558Y-70225518D01*
X121875740Y-70219000D01*
X121964260Y-70219000D01*
X122030442Y-70225518D01*
X122030442Y-70225518D01*
G37*
G36*
X182990442Y-70225518D02*
G01*
X183056627Y-70232037D01*
X183226466Y-70283557D01*
X183382991Y-70367222D01*
X183418729Y-70396552D01*
X183520186Y-70479814D01*
X183603448Y-70581271D01*
X183632778Y-70617009D01*
X183716443Y-70773534D01*
X183767963Y-70943373D01*
X183785359Y-71120000D01*
X183767963Y-71296627D01*
X183716443Y-71466466D01*
X183632778Y-71622991D01*
X183603448Y-71658729D01*
X183520186Y-71760186D01*
X183418729Y-71843448D01*
X183382991Y-71872778D01*
X183226466Y-71956443D01*
X183056627Y-72007963D01*
X182990443Y-72014481D01*
X182924260Y-72021000D01*
X182835740Y-72021000D01*
X182769557Y-72014481D01*
X182703373Y-72007963D01*
X182533534Y-71956443D01*
X182377009Y-71872778D01*
X182341271Y-71843448D01*
X182239814Y-71760186D01*
X182156552Y-71658729D01*
X182127222Y-71622991D01*
X182043557Y-71466466D01*
X181992037Y-71296627D01*
X181974641Y-71120000D01*
X181992037Y-70943373D01*
X182043557Y-70773534D01*
X182127222Y-70617009D01*
X182156552Y-70581271D01*
X182239814Y-70479814D01*
X182341271Y-70396552D01*
X182377009Y-70367222D01*
X182533534Y-70283557D01*
X182703373Y-70232037D01*
X182769558Y-70225518D01*
X182835740Y-70219000D01*
X182924260Y-70219000D01*
X182990442Y-70225518D01*
X182990442Y-70225518D01*
G37*
G36*
X170477142Y-68493242D02*
G01*
X170625101Y-68554529D01*
X170758255Y-68643499D01*
X170871501Y-68756745D01*
X170960471Y-68889899D01*
X171021758Y-69037858D01*
X171053000Y-69194925D01*
X171053000Y-69355075D01*
X171021758Y-69512142D01*
X170960471Y-69660101D01*
X170871501Y-69793255D01*
X170758255Y-69906501D01*
X170625101Y-69995471D01*
X170477142Y-70056758D01*
X170320075Y-70088000D01*
X170159925Y-70088000D01*
X170002858Y-70056758D01*
X169854899Y-69995471D01*
X169721745Y-69906501D01*
X169608499Y-69793255D01*
X169519529Y-69660101D01*
X169458242Y-69512142D01*
X169427000Y-69355075D01*
X169427000Y-69194925D01*
X169458242Y-69037858D01*
X169519529Y-68889899D01*
X169608499Y-68756745D01*
X169721745Y-68643499D01*
X169854899Y-68554529D01*
X170002858Y-68493242D01*
X170159925Y-68462000D01*
X170320075Y-68462000D01*
X170477142Y-68493242D01*
X170477142Y-68493242D01*
G37*
G36*
X132377142Y-68493242D02*
G01*
X132525101Y-68554529D01*
X132658255Y-68643499D01*
X132771501Y-68756745D01*
X132860471Y-68889899D01*
X132921758Y-69037858D01*
X132953000Y-69194925D01*
X132953000Y-69355075D01*
X132921758Y-69512142D01*
X132860471Y-69660101D01*
X132771501Y-69793255D01*
X132658255Y-69906501D01*
X132525101Y-69995471D01*
X132377142Y-70056758D01*
X132220075Y-70088000D01*
X132059925Y-70088000D01*
X131902858Y-70056758D01*
X131754899Y-69995471D01*
X131621745Y-69906501D01*
X131508499Y-69793255D01*
X131419529Y-69660101D01*
X131358242Y-69512142D01*
X131327000Y-69355075D01*
X131327000Y-69194925D01*
X131358242Y-69037858D01*
X131419529Y-68889899D01*
X131508499Y-68756745D01*
X131621745Y-68643499D01*
X131754899Y-68554529D01*
X131902858Y-68493242D01*
X132059925Y-68462000D01*
X132220075Y-68462000D01*
X132377142Y-68493242D01*
X132377142Y-68493242D01*
G37*
G36*
X119490443Y-67685519D02*
G01*
X119556627Y-67692037D01*
X119726466Y-67743557D01*
X119882991Y-67827222D01*
X119918729Y-67856552D01*
X120020186Y-67939814D01*
X120103448Y-68041271D01*
X120132778Y-68077009D01*
X120216443Y-68233534D01*
X120267963Y-68403373D01*
X120285359Y-68580000D01*
X120267963Y-68756627D01*
X120216443Y-68926466D01*
X120132778Y-69082991D01*
X120103448Y-69118729D01*
X120020186Y-69220186D01*
X119918729Y-69303448D01*
X119882991Y-69332778D01*
X119726466Y-69416443D01*
X119556627Y-69467963D01*
X119490442Y-69474482D01*
X119424260Y-69481000D01*
X119335740Y-69481000D01*
X119269558Y-69474482D01*
X119203373Y-69467963D01*
X119033534Y-69416443D01*
X118877009Y-69332778D01*
X118841271Y-69303448D01*
X118739814Y-69220186D01*
X118656552Y-69118729D01*
X118627222Y-69082991D01*
X118543557Y-68926466D01*
X118492037Y-68756627D01*
X118474641Y-68580000D01*
X118492037Y-68403373D01*
X118543557Y-68233534D01*
X118627222Y-68077009D01*
X118656552Y-68041271D01*
X118739814Y-67939814D01*
X118841271Y-67856552D01*
X118877009Y-67827222D01*
X119033534Y-67743557D01*
X119203373Y-67692037D01*
X119269557Y-67685519D01*
X119335740Y-67679000D01*
X119424260Y-67679000D01*
X119490443Y-67685519D01*
X119490443Y-67685519D01*
G37*
G36*
X180450443Y-67685519D02*
G01*
X180516627Y-67692037D01*
X180686466Y-67743557D01*
X180842991Y-67827222D01*
X180878729Y-67856552D01*
X180980186Y-67939814D01*
X181063448Y-68041271D01*
X181092778Y-68077009D01*
X181176443Y-68233534D01*
X181227963Y-68403373D01*
X181245359Y-68580000D01*
X181227963Y-68756627D01*
X181176443Y-68926466D01*
X181092778Y-69082991D01*
X181063448Y-69118729D01*
X180980186Y-69220186D01*
X180878729Y-69303448D01*
X180842991Y-69332778D01*
X180686466Y-69416443D01*
X180516627Y-69467963D01*
X180450442Y-69474482D01*
X180384260Y-69481000D01*
X180295740Y-69481000D01*
X180229558Y-69474482D01*
X180163373Y-69467963D01*
X179993534Y-69416443D01*
X179837009Y-69332778D01*
X179801271Y-69303448D01*
X179699814Y-69220186D01*
X179616552Y-69118729D01*
X179587222Y-69082991D01*
X179503557Y-68926466D01*
X179452037Y-68756627D01*
X179434641Y-68580000D01*
X179452037Y-68403373D01*
X179503557Y-68233534D01*
X179587222Y-68077009D01*
X179616552Y-68041271D01*
X179699814Y-67939814D01*
X179801271Y-67856552D01*
X179837009Y-67827222D01*
X179993534Y-67743557D01*
X180163373Y-67692037D01*
X180229557Y-67685519D01*
X180295740Y-67679000D01*
X180384260Y-67679000D01*
X180450443Y-67685519D01*
X180450443Y-67685519D01*
G37*
G36*
X182990443Y-67685519D02*
G01*
X183056627Y-67692037D01*
X183226466Y-67743557D01*
X183382991Y-67827222D01*
X183418729Y-67856552D01*
X183520186Y-67939814D01*
X183603448Y-68041271D01*
X183632778Y-68077009D01*
X183716443Y-68233534D01*
X183767963Y-68403373D01*
X183785359Y-68580000D01*
X183767963Y-68756627D01*
X183716443Y-68926466D01*
X183632778Y-69082991D01*
X183603448Y-69118729D01*
X183520186Y-69220186D01*
X183418729Y-69303448D01*
X183382991Y-69332778D01*
X183226466Y-69416443D01*
X183056627Y-69467963D01*
X182990442Y-69474482D01*
X182924260Y-69481000D01*
X182835740Y-69481000D01*
X182769558Y-69474482D01*
X182703373Y-69467963D01*
X182533534Y-69416443D01*
X182377009Y-69332778D01*
X182341271Y-69303448D01*
X182239814Y-69220186D01*
X182156552Y-69118729D01*
X182127222Y-69082991D01*
X182043557Y-68926466D01*
X181992037Y-68756627D01*
X181974641Y-68580000D01*
X181992037Y-68403373D01*
X182043557Y-68233534D01*
X182127222Y-68077009D01*
X182156552Y-68041271D01*
X182239814Y-67939814D01*
X182341271Y-67856552D01*
X182377009Y-67827222D01*
X182533534Y-67743557D01*
X182703373Y-67692037D01*
X182769557Y-67685519D01*
X182835740Y-67679000D01*
X182924260Y-67679000D01*
X182990443Y-67685519D01*
X182990443Y-67685519D01*
G37*
G36*
X122030443Y-67685519D02*
G01*
X122096627Y-67692037D01*
X122266466Y-67743557D01*
X122422991Y-67827222D01*
X122458729Y-67856552D01*
X122560186Y-67939814D01*
X122643448Y-68041271D01*
X122672778Y-68077009D01*
X122756443Y-68233534D01*
X122807963Y-68403373D01*
X122825359Y-68580000D01*
X122807963Y-68756627D01*
X122756443Y-68926466D01*
X122672778Y-69082991D01*
X122643448Y-69118729D01*
X122560186Y-69220186D01*
X122458729Y-69303448D01*
X122422991Y-69332778D01*
X122266466Y-69416443D01*
X122096627Y-69467963D01*
X122030442Y-69474482D01*
X121964260Y-69481000D01*
X121875740Y-69481000D01*
X121809558Y-69474482D01*
X121743373Y-69467963D01*
X121573534Y-69416443D01*
X121417009Y-69332778D01*
X121381271Y-69303448D01*
X121279814Y-69220186D01*
X121196552Y-69118729D01*
X121167222Y-69082991D01*
X121083557Y-68926466D01*
X121032037Y-68756627D01*
X121014641Y-68580000D01*
X121032037Y-68403373D01*
X121083557Y-68233534D01*
X121167222Y-68077009D01*
X121196552Y-68041271D01*
X121279814Y-67939814D01*
X121381271Y-67856552D01*
X121417009Y-67827222D01*
X121573534Y-67743557D01*
X121743373Y-67692037D01*
X121809557Y-67685519D01*
X121875740Y-67679000D01*
X121964260Y-67679000D01*
X122030443Y-67685519D01*
X122030443Y-67685519D01*
G37*
G36*
X119490442Y-65145518D02*
G01*
X119556627Y-65152037D01*
X119726466Y-65203557D01*
X119882991Y-65287222D01*
X119918729Y-65316552D01*
X120020186Y-65399814D01*
X120103448Y-65501271D01*
X120132778Y-65537009D01*
X120216443Y-65693534D01*
X120267963Y-65863373D01*
X120285359Y-66040000D01*
X120267963Y-66216627D01*
X120216443Y-66386466D01*
X120132778Y-66542991D01*
X120103448Y-66578729D01*
X120020186Y-66680186D01*
X119918729Y-66763448D01*
X119882991Y-66792778D01*
X119726466Y-66876443D01*
X119556627Y-66927963D01*
X119490442Y-66934482D01*
X119424260Y-66941000D01*
X119335740Y-66941000D01*
X119269558Y-66934482D01*
X119203373Y-66927963D01*
X119033534Y-66876443D01*
X118877009Y-66792778D01*
X118841271Y-66763448D01*
X118739814Y-66680186D01*
X118656552Y-66578729D01*
X118627222Y-66542991D01*
X118543557Y-66386466D01*
X118492037Y-66216627D01*
X118474641Y-66040000D01*
X118492037Y-65863373D01*
X118543557Y-65693534D01*
X118627222Y-65537009D01*
X118656552Y-65501271D01*
X118739814Y-65399814D01*
X118841271Y-65316552D01*
X118877009Y-65287222D01*
X119033534Y-65203557D01*
X119203373Y-65152037D01*
X119269558Y-65145518D01*
X119335740Y-65139000D01*
X119424260Y-65139000D01*
X119490442Y-65145518D01*
X119490442Y-65145518D01*
G37*
G36*
X122030442Y-65145518D02*
G01*
X122096627Y-65152037D01*
X122266466Y-65203557D01*
X122422991Y-65287222D01*
X122458729Y-65316552D01*
X122560186Y-65399814D01*
X122643448Y-65501271D01*
X122672778Y-65537009D01*
X122756443Y-65693534D01*
X122807963Y-65863373D01*
X122825359Y-66040000D01*
X122807963Y-66216627D01*
X122756443Y-66386466D01*
X122672778Y-66542991D01*
X122643448Y-66578729D01*
X122560186Y-66680186D01*
X122458729Y-66763448D01*
X122422991Y-66792778D01*
X122266466Y-66876443D01*
X122096627Y-66927963D01*
X122030442Y-66934482D01*
X121964260Y-66941000D01*
X121875740Y-66941000D01*
X121809558Y-66934482D01*
X121743373Y-66927963D01*
X121573534Y-66876443D01*
X121417009Y-66792778D01*
X121381271Y-66763448D01*
X121279814Y-66680186D01*
X121196552Y-66578729D01*
X121167222Y-66542991D01*
X121083557Y-66386466D01*
X121032037Y-66216627D01*
X121014641Y-66040000D01*
X121032037Y-65863373D01*
X121083557Y-65693534D01*
X121167222Y-65537009D01*
X121196552Y-65501271D01*
X121279814Y-65399814D01*
X121381271Y-65316552D01*
X121417009Y-65287222D01*
X121573534Y-65203557D01*
X121743373Y-65152037D01*
X121809558Y-65145518D01*
X121875740Y-65139000D01*
X121964260Y-65139000D01*
X122030442Y-65145518D01*
X122030442Y-65145518D01*
G37*
G36*
X182990442Y-65145518D02*
G01*
X183056627Y-65152037D01*
X183226466Y-65203557D01*
X183382991Y-65287222D01*
X183418729Y-65316552D01*
X183520186Y-65399814D01*
X183603448Y-65501271D01*
X183632778Y-65537009D01*
X183716443Y-65693534D01*
X183767963Y-65863373D01*
X183785359Y-66040000D01*
X183767963Y-66216627D01*
X183716443Y-66386466D01*
X183632778Y-66542991D01*
X183603448Y-66578729D01*
X183520186Y-66680186D01*
X183418729Y-66763448D01*
X183382991Y-66792778D01*
X183226466Y-66876443D01*
X183056627Y-66927963D01*
X182990442Y-66934482D01*
X182924260Y-66941000D01*
X182835740Y-66941000D01*
X182769558Y-66934482D01*
X182703373Y-66927963D01*
X182533534Y-66876443D01*
X182377009Y-66792778D01*
X182341271Y-66763448D01*
X182239814Y-66680186D01*
X182156552Y-66578729D01*
X182127222Y-66542991D01*
X182043557Y-66386466D01*
X181992037Y-66216627D01*
X181974641Y-66040000D01*
X181992037Y-65863373D01*
X182043557Y-65693534D01*
X182127222Y-65537009D01*
X182156552Y-65501271D01*
X182239814Y-65399814D01*
X182341271Y-65316552D01*
X182377009Y-65287222D01*
X182533534Y-65203557D01*
X182703373Y-65152037D01*
X182769558Y-65145518D01*
X182835740Y-65139000D01*
X182924260Y-65139000D01*
X182990442Y-65145518D01*
X182990442Y-65145518D01*
G37*
G36*
X180450442Y-65145518D02*
G01*
X180516627Y-65152037D01*
X180686466Y-65203557D01*
X180842991Y-65287222D01*
X180878729Y-65316552D01*
X180980186Y-65399814D01*
X181063448Y-65501271D01*
X181092778Y-65537009D01*
X181176443Y-65693534D01*
X181227963Y-65863373D01*
X181245359Y-66040000D01*
X181227963Y-66216627D01*
X181176443Y-66386466D01*
X181092778Y-66542991D01*
X181063448Y-66578729D01*
X180980186Y-66680186D01*
X180878729Y-66763448D01*
X180842991Y-66792778D01*
X180686466Y-66876443D01*
X180516627Y-66927963D01*
X180450442Y-66934482D01*
X180384260Y-66941000D01*
X180295740Y-66941000D01*
X180229558Y-66934482D01*
X180163373Y-66927963D01*
X179993534Y-66876443D01*
X179837009Y-66792778D01*
X179801271Y-66763448D01*
X179699814Y-66680186D01*
X179616552Y-66578729D01*
X179587222Y-66542991D01*
X179503557Y-66386466D01*
X179452037Y-66216627D01*
X179434641Y-66040000D01*
X179452037Y-65863373D01*
X179503557Y-65693534D01*
X179587222Y-65537009D01*
X179616552Y-65501271D01*
X179699814Y-65399814D01*
X179801271Y-65316552D01*
X179837009Y-65287222D01*
X179993534Y-65203557D01*
X180163373Y-65152037D01*
X180229558Y-65145518D01*
X180295740Y-65139000D01*
X180384260Y-65139000D01*
X180450442Y-65145518D01*
X180450442Y-65145518D01*
G37*
G36*
X182990442Y-62605518D02*
G01*
X183056627Y-62612037D01*
X183226466Y-62663557D01*
X183382991Y-62747222D01*
X183418729Y-62776552D01*
X183520186Y-62859814D01*
X183603448Y-62961271D01*
X183632778Y-62997009D01*
X183716443Y-63153534D01*
X183767963Y-63323373D01*
X183785359Y-63500000D01*
X183767963Y-63676627D01*
X183716443Y-63846466D01*
X183632778Y-64002991D01*
X183603448Y-64038729D01*
X183520186Y-64140186D01*
X183418729Y-64223448D01*
X183382991Y-64252778D01*
X183226466Y-64336443D01*
X183056627Y-64387963D01*
X182990442Y-64394482D01*
X182924260Y-64401000D01*
X182835740Y-64401000D01*
X182769558Y-64394482D01*
X182703373Y-64387963D01*
X182533534Y-64336443D01*
X182377009Y-64252778D01*
X182341271Y-64223448D01*
X182239814Y-64140186D01*
X182156552Y-64038729D01*
X182127222Y-64002991D01*
X182043557Y-63846466D01*
X181992037Y-63676627D01*
X181974641Y-63500000D01*
X181992037Y-63323373D01*
X182043557Y-63153534D01*
X182127222Y-62997009D01*
X182156552Y-62961271D01*
X182239814Y-62859814D01*
X182341271Y-62776552D01*
X182377009Y-62747222D01*
X182533534Y-62663557D01*
X182703373Y-62612037D01*
X182769558Y-62605518D01*
X182835740Y-62599000D01*
X182924260Y-62599000D01*
X182990442Y-62605518D01*
X182990442Y-62605518D01*
G37*
G36*
X180450442Y-62605518D02*
G01*
X180516627Y-62612037D01*
X180686466Y-62663557D01*
X180842991Y-62747222D01*
X180878729Y-62776552D01*
X180980186Y-62859814D01*
X181063448Y-62961271D01*
X181092778Y-62997009D01*
X181176443Y-63153534D01*
X181227963Y-63323373D01*
X181245359Y-63500000D01*
X181227963Y-63676627D01*
X181176443Y-63846466D01*
X181092778Y-64002991D01*
X181063448Y-64038729D01*
X180980186Y-64140186D01*
X180878729Y-64223448D01*
X180842991Y-64252778D01*
X180686466Y-64336443D01*
X180516627Y-64387963D01*
X180450442Y-64394482D01*
X180384260Y-64401000D01*
X180295740Y-64401000D01*
X180229558Y-64394482D01*
X180163373Y-64387963D01*
X179993534Y-64336443D01*
X179837009Y-64252778D01*
X179801271Y-64223448D01*
X179699814Y-64140186D01*
X179616552Y-64038729D01*
X179587222Y-64002991D01*
X179503557Y-63846466D01*
X179452037Y-63676627D01*
X179434641Y-63500000D01*
X179452037Y-63323373D01*
X179503557Y-63153534D01*
X179587222Y-62997009D01*
X179616552Y-62961271D01*
X179699814Y-62859814D01*
X179801271Y-62776552D01*
X179837009Y-62747222D01*
X179993534Y-62663557D01*
X180163373Y-62612037D01*
X180229558Y-62605518D01*
X180295740Y-62599000D01*
X180384260Y-62599000D01*
X180450442Y-62605518D01*
X180450442Y-62605518D01*
G37*
G36*
X119490442Y-62605518D02*
G01*
X119556627Y-62612037D01*
X119726466Y-62663557D01*
X119882991Y-62747222D01*
X119918729Y-62776552D01*
X120020186Y-62859814D01*
X120103448Y-62961271D01*
X120132778Y-62997009D01*
X120216443Y-63153534D01*
X120267963Y-63323373D01*
X120285359Y-63500000D01*
X120267963Y-63676627D01*
X120216443Y-63846466D01*
X120132778Y-64002991D01*
X120103448Y-64038729D01*
X120020186Y-64140186D01*
X119918729Y-64223448D01*
X119882991Y-64252778D01*
X119726466Y-64336443D01*
X119556627Y-64387963D01*
X119490442Y-64394482D01*
X119424260Y-64401000D01*
X119335740Y-64401000D01*
X119269558Y-64394482D01*
X119203373Y-64387963D01*
X119033534Y-64336443D01*
X118877009Y-64252778D01*
X118841271Y-64223448D01*
X118739814Y-64140186D01*
X118656552Y-64038729D01*
X118627222Y-64002991D01*
X118543557Y-63846466D01*
X118492037Y-63676627D01*
X118474641Y-63500000D01*
X118492037Y-63323373D01*
X118543557Y-63153534D01*
X118627222Y-62997009D01*
X118656552Y-62961271D01*
X118739814Y-62859814D01*
X118841271Y-62776552D01*
X118877009Y-62747222D01*
X119033534Y-62663557D01*
X119203373Y-62612037D01*
X119269558Y-62605518D01*
X119335740Y-62599000D01*
X119424260Y-62599000D01*
X119490442Y-62605518D01*
X119490442Y-62605518D01*
G37*
G36*
X122030442Y-62605518D02*
G01*
X122096627Y-62612037D01*
X122266466Y-62663557D01*
X122422991Y-62747222D01*
X122458729Y-62776552D01*
X122560186Y-62859814D01*
X122643448Y-62961271D01*
X122672778Y-62997009D01*
X122756443Y-63153534D01*
X122807963Y-63323373D01*
X122825359Y-63500000D01*
X122807963Y-63676627D01*
X122756443Y-63846466D01*
X122672778Y-64002991D01*
X122643448Y-64038729D01*
X122560186Y-64140186D01*
X122458729Y-64223448D01*
X122422991Y-64252778D01*
X122266466Y-64336443D01*
X122096627Y-64387963D01*
X122030442Y-64394482D01*
X121964260Y-64401000D01*
X121875740Y-64401000D01*
X121809558Y-64394482D01*
X121743373Y-64387963D01*
X121573534Y-64336443D01*
X121417009Y-64252778D01*
X121381271Y-64223448D01*
X121279814Y-64140186D01*
X121196552Y-64038729D01*
X121167222Y-64002991D01*
X121083557Y-63846466D01*
X121032037Y-63676627D01*
X121014641Y-63500000D01*
X121032037Y-63323373D01*
X121083557Y-63153534D01*
X121167222Y-62997009D01*
X121196552Y-62961271D01*
X121279814Y-62859814D01*
X121381271Y-62776552D01*
X121417009Y-62747222D01*
X121573534Y-62663557D01*
X121743373Y-62612037D01*
X121809558Y-62605518D01*
X121875740Y-62599000D01*
X121964260Y-62599000D01*
X122030442Y-62605518D01*
X122030442Y-62605518D01*
G37*
G36*
X120281000Y-61861000D02*
G01*
X118479000Y-61861000D01*
X118479000Y-60059000D01*
X120281000Y-60059000D01*
X120281000Y-61861000D01*
X120281000Y-61861000D01*
G37*
G36*
X181241000Y-61861000D02*
G01*
X179439000Y-61861000D01*
X179439000Y-60059000D01*
X181241000Y-60059000D01*
X181241000Y-61861000D01*
X181241000Y-61861000D01*
G37*
G36*
X122030442Y-60065518D02*
G01*
X122096627Y-60072037D01*
X122266466Y-60123557D01*
X122422991Y-60207222D01*
X122458729Y-60236552D01*
X122560186Y-60319814D01*
X122643448Y-60421271D01*
X122672778Y-60457009D01*
X122756443Y-60613534D01*
X122807963Y-60783373D01*
X122825359Y-60960000D01*
X122807963Y-61136627D01*
X122756443Y-61306466D01*
X122672778Y-61462991D01*
X122643448Y-61498729D01*
X122560186Y-61600186D01*
X122458729Y-61683448D01*
X122422991Y-61712778D01*
X122266466Y-61796443D01*
X122096627Y-61847963D01*
X122030443Y-61854481D01*
X121964260Y-61861000D01*
X121875740Y-61861000D01*
X121809557Y-61854481D01*
X121743373Y-61847963D01*
X121573534Y-61796443D01*
X121417009Y-61712778D01*
X121381271Y-61683448D01*
X121279814Y-61600186D01*
X121196552Y-61498729D01*
X121167222Y-61462991D01*
X121083557Y-61306466D01*
X121032037Y-61136627D01*
X121014641Y-60960000D01*
X121032037Y-60783373D01*
X121083557Y-60613534D01*
X121167222Y-60457009D01*
X121196552Y-60421271D01*
X121279814Y-60319814D01*
X121381271Y-60236552D01*
X121417009Y-60207222D01*
X121573534Y-60123557D01*
X121743373Y-60072037D01*
X121809558Y-60065518D01*
X121875740Y-60059000D01*
X121964260Y-60059000D01*
X122030442Y-60065518D01*
X122030442Y-60065518D01*
G37*
G36*
X182990442Y-60065518D02*
G01*
X183056627Y-60072037D01*
X183226466Y-60123557D01*
X183382991Y-60207222D01*
X183418729Y-60236552D01*
X183520186Y-60319814D01*
X183603448Y-60421271D01*
X183632778Y-60457009D01*
X183716443Y-60613534D01*
X183767963Y-60783373D01*
X183785359Y-60960000D01*
X183767963Y-61136627D01*
X183716443Y-61306466D01*
X183632778Y-61462991D01*
X183603448Y-61498729D01*
X183520186Y-61600186D01*
X183418729Y-61683448D01*
X183382991Y-61712778D01*
X183226466Y-61796443D01*
X183056627Y-61847963D01*
X182990443Y-61854481D01*
X182924260Y-61861000D01*
X182835740Y-61861000D01*
X182769557Y-61854481D01*
X182703373Y-61847963D01*
X182533534Y-61796443D01*
X182377009Y-61712778D01*
X182341271Y-61683448D01*
X182239814Y-61600186D01*
X182156552Y-61498729D01*
X182127222Y-61462991D01*
X182043557Y-61306466D01*
X181992037Y-61136627D01*
X181974641Y-60960000D01*
X181992037Y-60783373D01*
X182043557Y-60613534D01*
X182127222Y-60457009D01*
X182156552Y-60421271D01*
X182239814Y-60319814D01*
X182341271Y-60236552D01*
X182377009Y-60207222D01*
X182533534Y-60123557D01*
X182703373Y-60072037D01*
X182769558Y-60065518D01*
X182835740Y-60059000D01*
X182924260Y-60059000D01*
X182990442Y-60065518D01*
X182990442Y-60065518D01*
G37*
G36*
X170477142Y-53253242D02*
G01*
X170625101Y-53314529D01*
X170758255Y-53403499D01*
X170871501Y-53516745D01*
X170960471Y-53649899D01*
X171021758Y-53797858D01*
X171053000Y-53954925D01*
X171053000Y-54115075D01*
X171021758Y-54272142D01*
X170960471Y-54420101D01*
X170871501Y-54553255D01*
X170758255Y-54666501D01*
X170625101Y-54755471D01*
X170477142Y-54816758D01*
X170320075Y-54848000D01*
X170159925Y-54848000D01*
X170002858Y-54816758D01*
X169854899Y-54755471D01*
X169721745Y-54666501D01*
X169608499Y-54553255D01*
X169519529Y-54420101D01*
X169458242Y-54272142D01*
X169427000Y-54115075D01*
X169427000Y-53954925D01*
X169458242Y-53797858D01*
X169519529Y-53649899D01*
X169608499Y-53516745D01*
X169721745Y-53403499D01*
X169854899Y-53314529D01*
X170002858Y-53253242D01*
X170159925Y-53222000D01*
X170320075Y-53222000D01*
X170477142Y-53253242D01*
X170477142Y-53253242D01*
G37*
G36*
X132377142Y-53253242D02*
G01*
X132525101Y-53314529D01*
X132658255Y-53403499D01*
X132771501Y-53516745D01*
X132860471Y-53649899D01*
X132921758Y-53797858D01*
X132953000Y-53954925D01*
X132953000Y-54115075D01*
X132921758Y-54272142D01*
X132860471Y-54420101D01*
X132771501Y-54553255D01*
X132658255Y-54666501D01*
X132525101Y-54755471D01*
X132377142Y-54816758D01*
X132220075Y-54848000D01*
X132059925Y-54848000D01*
X131902858Y-54816758D01*
X131754899Y-54755471D01*
X131621745Y-54666501D01*
X131508499Y-54553255D01*
X131419529Y-54420101D01*
X131358242Y-54272142D01*
X131327000Y-54115075D01*
X131327000Y-53954925D01*
X131358242Y-53797858D01*
X131419529Y-53649899D01*
X131508499Y-53516745D01*
X131621745Y-53403499D01*
X131754899Y-53314529D01*
X131902858Y-53253242D01*
X132059925Y-53222000D01*
X132220075Y-53222000D01*
X132377142Y-53253242D01*
X132377142Y-53253242D01*
G37*
G36*
X139997142Y-50713242D02*
G01*
X140145101Y-50774529D01*
X140278255Y-50863499D01*
X140391501Y-50976745D01*
X140480471Y-51109899D01*
X140541758Y-51257858D01*
X140573000Y-51414925D01*
X140573000Y-51575075D01*
X140541758Y-51732142D01*
X140480471Y-51880101D01*
X140391501Y-52013255D01*
X140278255Y-52126501D01*
X140145101Y-52215471D01*
X139997142Y-52276758D01*
X139840075Y-52308000D01*
X139679925Y-52308000D01*
X139522858Y-52276758D01*
X139374899Y-52215471D01*
X139241745Y-52126501D01*
X139128499Y-52013255D01*
X139039529Y-51880101D01*
X138978242Y-51732142D01*
X138947000Y-51575075D01*
X138947000Y-51414925D01*
X138978242Y-51257858D01*
X139039529Y-51109899D01*
X139128499Y-50976745D01*
X139241745Y-50863499D01*
X139374899Y-50774529D01*
X139522858Y-50713242D01*
X139679925Y-50682000D01*
X139840075Y-50682000D01*
X139997142Y-50713242D01*
X139997142Y-50713242D01*
G37*
G36*
X132377142Y-50713242D02*
G01*
X132525101Y-50774529D01*
X132658255Y-50863499D01*
X132771501Y-50976745D01*
X132860471Y-51109899D01*
X132921758Y-51257858D01*
X132953000Y-51414925D01*
X132953000Y-51575075D01*
X132921758Y-51732142D01*
X132860471Y-51880101D01*
X132771501Y-52013255D01*
X132658255Y-52126501D01*
X132525101Y-52215471D01*
X132377142Y-52276758D01*
X132220075Y-52308000D01*
X132059925Y-52308000D01*
X131902858Y-52276758D01*
X131754899Y-52215471D01*
X131621745Y-52126501D01*
X131508499Y-52013255D01*
X131419529Y-51880101D01*
X131358242Y-51732142D01*
X131327000Y-51575075D01*
X131327000Y-51414925D01*
X131358242Y-51257858D01*
X131419529Y-51109899D01*
X131508499Y-50976745D01*
X131621745Y-50863499D01*
X131754899Y-50774529D01*
X131902858Y-50713242D01*
X132059925Y-50682000D01*
X132220075Y-50682000D01*
X132377142Y-50713242D01*
X132377142Y-50713242D01*
G37*
G36*
X170477142Y-50713242D02*
G01*
X170625101Y-50774529D01*
X170758255Y-50863499D01*
X170871501Y-50976745D01*
X170960471Y-51109899D01*
X171021758Y-51257858D01*
X171053000Y-51414925D01*
X171053000Y-51575075D01*
X171021758Y-51732142D01*
X170960471Y-51880101D01*
X170871501Y-52013255D01*
X170758255Y-52126501D01*
X170625101Y-52215471D01*
X170477142Y-52276758D01*
X170320075Y-52308000D01*
X170159925Y-52308000D01*
X170002858Y-52276758D01*
X169854899Y-52215471D01*
X169721745Y-52126501D01*
X169608499Y-52013255D01*
X169519529Y-51880101D01*
X169458242Y-51732142D01*
X169427000Y-51575075D01*
X169427000Y-51414925D01*
X169458242Y-51257858D01*
X169519529Y-51109899D01*
X169608499Y-50976745D01*
X169721745Y-50863499D01*
X169854899Y-50774529D01*
X170002858Y-50713242D01*
X170159925Y-50682000D01*
X170320075Y-50682000D01*
X170477142Y-50713242D01*
X170477142Y-50713242D01*
G37*
G36*
X145077142Y-50713242D02*
G01*
X145225101Y-50774529D01*
X145358255Y-50863499D01*
X145471501Y-50976745D01*
X145560471Y-51109899D01*
X145621758Y-51257858D01*
X145653000Y-51414925D01*
X145653000Y-51575075D01*
X145621758Y-51732142D01*
X145560471Y-51880101D01*
X145471501Y-52013255D01*
X145358255Y-52126501D01*
X145225101Y-52215471D01*
X145077142Y-52276758D01*
X144920075Y-52308000D01*
X144759925Y-52308000D01*
X144602858Y-52276758D01*
X144454899Y-52215471D01*
X144321745Y-52126501D01*
X144208499Y-52013255D01*
X144119529Y-51880101D01*
X144058242Y-51732142D01*
X144027000Y-51575075D01*
X144027000Y-51414925D01*
X144058242Y-51257858D01*
X144119529Y-51109899D01*
X144208499Y-50976745D01*
X144321745Y-50863499D01*
X144454899Y-50774529D01*
X144602858Y-50713242D01*
X144759925Y-50682000D01*
X144920075Y-50682000D01*
X145077142Y-50713242D01*
X145077142Y-50713242D01*
G37*
G36*
X147617142Y-50713242D02*
G01*
X147765101Y-50774529D01*
X147898255Y-50863499D01*
X148011501Y-50976745D01*
X148100471Y-51109899D01*
X148161758Y-51257858D01*
X148193000Y-51414925D01*
X148193000Y-51575075D01*
X148161758Y-51732142D01*
X148100471Y-51880101D01*
X148011501Y-52013255D01*
X147898255Y-52126501D01*
X147765101Y-52215471D01*
X147617142Y-52276758D01*
X147460075Y-52308000D01*
X147299925Y-52308000D01*
X147142858Y-52276758D01*
X146994899Y-52215471D01*
X146861745Y-52126501D01*
X146748499Y-52013255D01*
X146659529Y-51880101D01*
X146598242Y-51732142D01*
X146567000Y-51575075D01*
X146567000Y-51414925D01*
X146598242Y-51257858D01*
X146659529Y-51109899D01*
X146748499Y-50976745D01*
X146861745Y-50863499D01*
X146994899Y-50774529D01*
X147142858Y-50713242D01*
X147299925Y-50682000D01*
X147460075Y-50682000D01*
X147617142Y-50713242D01*
X147617142Y-50713242D01*
G37*
G36*
X150157142Y-50713242D02*
G01*
X150305101Y-50774529D01*
X150438255Y-50863499D01*
X150551501Y-50976745D01*
X150640471Y-51109899D01*
X150701758Y-51257858D01*
X150733000Y-51414925D01*
X150733000Y-51575075D01*
X150701758Y-51732142D01*
X150640471Y-51880101D01*
X150551501Y-52013255D01*
X150438255Y-52126501D01*
X150305101Y-52215471D01*
X150157142Y-52276758D01*
X150000075Y-52308000D01*
X149839925Y-52308000D01*
X149682858Y-52276758D01*
X149534899Y-52215471D01*
X149401745Y-52126501D01*
X149288499Y-52013255D01*
X149199529Y-51880101D01*
X149138242Y-51732142D01*
X149107000Y-51575075D01*
X149107000Y-51414925D01*
X149138242Y-51257858D01*
X149199529Y-51109899D01*
X149288499Y-50976745D01*
X149401745Y-50863499D01*
X149534899Y-50774529D01*
X149682858Y-50713242D01*
X149839925Y-50682000D01*
X150000075Y-50682000D01*
X150157142Y-50713242D01*
X150157142Y-50713242D01*
G37*
G36*
X155237142Y-50713242D02*
G01*
X155385101Y-50774529D01*
X155518255Y-50863499D01*
X155631501Y-50976745D01*
X155720471Y-51109899D01*
X155781758Y-51257858D01*
X155813000Y-51414925D01*
X155813000Y-51575075D01*
X155781758Y-51732142D01*
X155720471Y-51880101D01*
X155631501Y-52013255D01*
X155518255Y-52126501D01*
X155385101Y-52215471D01*
X155237142Y-52276758D01*
X155080075Y-52308000D01*
X154919925Y-52308000D01*
X154762858Y-52276758D01*
X154614899Y-52215471D01*
X154481745Y-52126501D01*
X154368499Y-52013255D01*
X154279529Y-51880101D01*
X154218242Y-51732142D01*
X154187000Y-51575075D01*
X154187000Y-51414925D01*
X154218242Y-51257858D01*
X154279529Y-51109899D01*
X154368499Y-50976745D01*
X154481745Y-50863499D01*
X154614899Y-50774529D01*
X154762858Y-50713242D01*
X154919925Y-50682000D01*
X155080075Y-50682000D01*
X155237142Y-50713242D01*
X155237142Y-50713242D01*
G37*
G36*
X157777142Y-50713242D02*
G01*
X157925101Y-50774529D01*
X158058255Y-50863499D01*
X158171501Y-50976745D01*
X158260471Y-51109899D01*
X158321758Y-51257858D01*
X158353000Y-51414925D01*
X158353000Y-51575075D01*
X158321758Y-51732142D01*
X158260471Y-51880101D01*
X158171501Y-52013255D01*
X158058255Y-52126501D01*
X157925101Y-52215471D01*
X157777142Y-52276758D01*
X157620075Y-52308000D01*
X157459925Y-52308000D01*
X157302858Y-52276758D01*
X157154899Y-52215471D01*
X157021745Y-52126501D01*
X156908499Y-52013255D01*
X156819529Y-51880101D01*
X156758242Y-51732142D01*
X156727000Y-51575075D01*
X156727000Y-51414925D01*
X156758242Y-51257858D01*
X156819529Y-51109899D01*
X156908499Y-50976745D01*
X157021745Y-50863499D01*
X157154899Y-50774529D01*
X157302858Y-50713242D01*
X157459925Y-50682000D01*
X157620075Y-50682000D01*
X157777142Y-50713242D01*
X157777142Y-50713242D01*
G37*
G36*
X160317142Y-50713242D02*
G01*
X160465101Y-50774529D01*
X160598255Y-50863499D01*
X160711501Y-50976745D01*
X160800471Y-51109899D01*
X160861758Y-51257858D01*
X160893000Y-51414925D01*
X160893000Y-51575075D01*
X160861758Y-51732142D01*
X160800471Y-51880101D01*
X160711501Y-52013255D01*
X160598255Y-52126501D01*
X160465101Y-52215471D01*
X160317142Y-52276758D01*
X160160075Y-52308000D01*
X159999925Y-52308000D01*
X159842858Y-52276758D01*
X159694899Y-52215471D01*
X159561745Y-52126501D01*
X159448499Y-52013255D01*
X159359529Y-51880101D01*
X159298242Y-51732142D01*
X159267000Y-51575075D01*
X159267000Y-51414925D01*
X159298242Y-51257858D01*
X159359529Y-51109899D01*
X159448499Y-50976745D01*
X159561745Y-50863499D01*
X159694899Y-50774529D01*
X159842858Y-50713242D01*
X159999925Y-50682000D01*
X160160075Y-50682000D01*
X160317142Y-50713242D01*
X160317142Y-50713242D01*
G37*
G36*
X162857142Y-50713242D02*
G01*
X163005101Y-50774529D01*
X163138255Y-50863499D01*
X163251501Y-50976745D01*
X163340471Y-51109899D01*
X163401758Y-51257858D01*
X163433000Y-51414925D01*
X163433000Y-51575075D01*
X163401758Y-51732142D01*
X163340471Y-51880101D01*
X163251501Y-52013255D01*
X163138255Y-52126501D01*
X163005101Y-52215471D01*
X162857142Y-52276758D01*
X162700075Y-52308000D01*
X162539925Y-52308000D01*
X162382858Y-52276758D01*
X162234899Y-52215471D01*
X162101745Y-52126501D01*
X161988499Y-52013255D01*
X161899529Y-51880101D01*
X161838242Y-51732142D01*
X161807000Y-51575075D01*
X161807000Y-51414925D01*
X161838242Y-51257858D01*
X161899529Y-51109899D01*
X161988499Y-50976745D01*
X162101745Y-50863499D01*
X162234899Y-50774529D01*
X162382858Y-50713242D01*
X162539925Y-50682000D01*
X162700075Y-50682000D01*
X162857142Y-50713242D01*
X162857142Y-50713242D01*
G37*
G36*
X142537142Y-50713242D02*
G01*
X142685101Y-50774529D01*
X142818255Y-50863499D01*
X142931501Y-50976745D01*
X143020471Y-51109899D01*
X143081758Y-51257858D01*
X143113000Y-51414925D01*
X143113000Y-51575075D01*
X143081758Y-51732142D01*
X143020471Y-51880101D01*
X142931501Y-52013255D01*
X142818255Y-52126501D01*
X142685101Y-52215471D01*
X142537142Y-52276758D01*
X142380075Y-52308000D01*
X142219925Y-52308000D01*
X142062858Y-52276758D01*
X141914899Y-52215471D01*
X141781745Y-52126501D01*
X141668499Y-52013255D01*
X141579529Y-51880101D01*
X141518242Y-51732142D01*
X141487000Y-51575075D01*
X141487000Y-51414925D01*
X141518242Y-51257858D01*
X141579529Y-51109899D01*
X141668499Y-50976745D01*
X141781745Y-50863499D01*
X141914899Y-50774529D01*
X142062858Y-50713242D01*
X142219925Y-50682000D01*
X142380075Y-50682000D01*
X142537142Y-50713242D01*
X142537142Y-50713242D01*
G37*
G36*
X152697142Y-50713242D02*
G01*
X152845101Y-50774529D01*
X152978255Y-50863499D01*
X153091501Y-50976745D01*
X153180471Y-51109899D01*
X153241758Y-51257858D01*
X153273000Y-51414925D01*
X153273000Y-51575075D01*
X153241758Y-51732142D01*
X153180471Y-51880101D01*
X153091501Y-52013255D01*
X152978255Y-52126501D01*
X152845101Y-52215471D01*
X152697142Y-52276758D01*
X152540075Y-52308000D01*
X152379925Y-52308000D01*
X152222858Y-52276758D01*
X152074899Y-52215471D01*
X151941745Y-52126501D01*
X151828499Y-52013255D01*
X151739529Y-51880101D01*
X151678242Y-51732142D01*
X151647000Y-51575075D01*
X151647000Y-51414925D01*
X151678242Y-51257858D01*
X151739529Y-51109899D01*
X151828499Y-50976745D01*
X151941745Y-50863499D01*
X152074899Y-50774529D01*
X152222858Y-50713242D01*
X152379925Y-50682000D01*
X152540075Y-50682000D01*
X152697142Y-50713242D01*
X152697142Y-50713242D01*
G37*
G36*
X178033642Y-50664781D02*
G01*
X178150639Y-50713243D01*
X178179416Y-50725163D01*
X178310608Y-50812822D01*
X178422178Y-50924392D01*
X178509837Y-51055584D01*
X178509838Y-51055586D01*
X178570219Y-51201358D01*
X178601000Y-51356107D01*
X178601000Y-51513893D01*
X178570219Y-51668642D01*
X178543916Y-51732142D01*
X178509837Y-51814416D01*
X178422178Y-51945608D01*
X178310608Y-52057178D01*
X178179416Y-52144837D01*
X178179415Y-52144838D01*
X178179414Y-52144838D01*
X178033642Y-52205219D01*
X177878893Y-52236000D01*
X177721107Y-52236000D01*
X177566358Y-52205219D01*
X177420586Y-52144838D01*
X177420585Y-52144838D01*
X177420584Y-52144837D01*
X177289392Y-52057178D01*
X177177822Y-51945608D01*
X177090163Y-51814416D01*
X177056084Y-51732142D01*
X177029781Y-51668642D01*
X176999000Y-51513893D01*
X176999000Y-51356107D01*
X177029781Y-51201358D01*
X177090162Y-51055586D01*
X177090163Y-51055584D01*
X177177822Y-50924392D01*
X177289392Y-50812822D01*
X177420584Y-50725163D01*
X177449361Y-50713243D01*
X177566358Y-50664781D01*
X177721107Y-50634000D01*
X177878893Y-50634000D01*
X178033642Y-50664781D01*
X178033642Y-50664781D01*
G37*
G36*
X124693642Y-50664781D02*
G01*
X124810639Y-50713243D01*
X124839416Y-50725163D01*
X124970608Y-50812822D01*
X125082178Y-50924392D01*
X125169837Y-51055584D01*
X125169838Y-51055586D01*
X125230219Y-51201358D01*
X125261000Y-51356107D01*
X125261000Y-51513893D01*
X125230219Y-51668642D01*
X125203916Y-51732142D01*
X125169837Y-51814416D01*
X125082178Y-51945608D01*
X124970608Y-52057178D01*
X124839416Y-52144837D01*
X124839415Y-52144838D01*
X124839414Y-52144838D01*
X124693642Y-52205219D01*
X124538893Y-52236000D01*
X124381107Y-52236000D01*
X124226358Y-52205219D01*
X124080586Y-52144838D01*
X124080585Y-52144838D01*
X124080584Y-52144837D01*
X123949392Y-52057178D01*
X123837822Y-51945608D01*
X123750163Y-51814416D01*
X123716084Y-51732142D01*
X123689781Y-51668642D01*
X123659000Y-51513893D01*
X123659000Y-51356107D01*
X123689781Y-51201358D01*
X123750162Y-51055586D01*
X123750163Y-51055584D01*
X123837822Y-50924392D01*
X123949392Y-50812822D01*
X124080584Y-50725163D01*
X124109361Y-50713243D01*
X124226358Y-50664781D01*
X124381107Y-50634000D01*
X124538893Y-50634000D01*
X124693642Y-50664781D01*
X124693642Y-50664781D01*
G37*
G36*
X170413642Y-45584781D02*
G01*
X170559414Y-45645162D01*
X170559416Y-45645163D01*
X170690608Y-45732822D01*
X170802178Y-45844392D01*
X170889837Y-45975584D01*
X170889838Y-45975586D01*
X170950219Y-46121358D01*
X170981000Y-46276107D01*
X170981000Y-46433893D01*
X170950219Y-46588642D01*
X170889838Y-46734414D01*
X170889837Y-46734416D01*
X170802178Y-46865608D01*
X170690608Y-46977178D01*
X170559416Y-47064837D01*
X170559415Y-47064838D01*
X170559414Y-47064838D01*
X170413642Y-47125219D01*
X170258893Y-47156000D01*
X170101107Y-47156000D01*
X169946358Y-47125219D01*
X169800586Y-47064838D01*
X169800585Y-47064838D01*
X169800584Y-47064837D01*
X169669392Y-46977178D01*
X169557822Y-46865608D01*
X169470163Y-46734416D01*
X169470162Y-46734414D01*
X169409781Y-46588642D01*
X169379000Y-46433893D01*
X169379000Y-46276107D01*
X169409781Y-46121358D01*
X169470162Y-45975586D01*
X169470163Y-45975584D01*
X169557822Y-45844392D01*
X169669392Y-45732822D01*
X169800584Y-45645163D01*
X169800586Y-45645162D01*
X169946358Y-45584781D01*
X170101107Y-45554000D01*
X170258893Y-45554000D01*
X170413642Y-45584781D01*
X170413642Y-45584781D01*
G37*
G36*
X165333642Y-45584781D02*
G01*
X165479414Y-45645162D01*
X165479416Y-45645163D01*
X165610608Y-45732822D01*
X165722178Y-45844392D01*
X165809837Y-45975584D01*
X165809838Y-45975586D01*
X165870219Y-46121358D01*
X165901000Y-46276107D01*
X165901000Y-46433893D01*
X165870219Y-46588642D01*
X165809838Y-46734414D01*
X165809837Y-46734416D01*
X165722178Y-46865608D01*
X165610608Y-46977178D01*
X165479416Y-47064837D01*
X165479415Y-47064838D01*
X165479414Y-47064838D01*
X165333642Y-47125219D01*
X165178893Y-47156000D01*
X165021107Y-47156000D01*
X164866358Y-47125219D01*
X164720586Y-47064838D01*
X164720585Y-47064838D01*
X164720584Y-47064837D01*
X164589392Y-46977178D01*
X164477822Y-46865608D01*
X164390163Y-46734416D01*
X164390162Y-46734414D01*
X164329781Y-46588642D01*
X164299000Y-46433893D01*
X164299000Y-46276107D01*
X164329781Y-46121358D01*
X164390162Y-45975586D01*
X164390163Y-45975584D01*
X164477822Y-45844392D01*
X164589392Y-45732822D01*
X164720584Y-45645163D01*
X164720586Y-45645162D01*
X164866358Y-45584781D01*
X165021107Y-45554000D01*
X165178893Y-45554000D01*
X165333642Y-45584781D01*
X165333642Y-45584781D01*
G37*
G36*
X157713642Y-45584781D02*
G01*
X157859414Y-45645162D01*
X157859416Y-45645163D01*
X157990608Y-45732822D01*
X158102178Y-45844392D01*
X158189837Y-45975584D01*
X158189838Y-45975586D01*
X158250219Y-46121358D01*
X158281000Y-46276107D01*
X158281000Y-46433893D01*
X158250219Y-46588642D01*
X158189838Y-46734414D01*
X158189837Y-46734416D01*
X158102178Y-46865608D01*
X157990608Y-46977178D01*
X157859416Y-47064837D01*
X157859415Y-47064838D01*
X157859414Y-47064838D01*
X157713642Y-47125219D01*
X157558893Y-47156000D01*
X157401107Y-47156000D01*
X157246358Y-47125219D01*
X157100586Y-47064838D01*
X157100585Y-47064838D01*
X157100584Y-47064837D01*
X156969392Y-46977178D01*
X156857822Y-46865608D01*
X156770163Y-46734416D01*
X156770162Y-46734414D01*
X156709781Y-46588642D01*
X156679000Y-46433893D01*
X156679000Y-46276107D01*
X156709781Y-46121358D01*
X156770162Y-45975586D01*
X156770163Y-45975584D01*
X156857822Y-45844392D01*
X156969392Y-45732822D01*
X157100584Y-45645163D01*
X157100586Y-45645162D01*
X157246358Y-45584781D01*
X157401107Y-45554000D01*
X157558893Y-45554000D01*
X157713642Y-45584781D01*
X157713642Y-45584781D01*
G37*
G36*
X152633642Y-45584781D02*
G01*
X152779414Y-45645162D01*
X152779416Y-45645163D01*
X152910608Y-45732822D01*
X153022178Y-45844392D01*
X153109837Y-45975584D01*
X153109838Y-45975586D01*
X153170219Y-46121358D01*
X153201000Y-46276107D01*
X153201000Y-46433893D01*
X153170219Y-46588642D01*
X153109838Y-46734414D01*
X153109837Y-46734416D01*
X153022178Y-46865608D01*
X152910608Y-46977178D01*
X152779416Y-47064837D01*
X152779415Y-47064838D01*
X152779414Y-47064838D01*
X152633642Y-47125219D01*
X152478893Y-47156000D01*
X152321107Y-47156000D01*
X152166358Y-47125219D01*
X152020586Y-47064838D01*
X152020585Y-47064838D01*
X152020584Y-47064837D01*
X151889392Y-46977178D01*
X151777822Y-46865608D01*
X151690163Y-46734416D01*
X151690162Y-46734414D01*
X151629781Y-46588642D01*
X151599000Y-46433893D01*
X151599000Y-46276107D01*
X151629781Y-46121358D01*
X151690162Y-45975586D01*
X151690163Y-45975584D01*
X151777822Y-45844392D01*
X151889392Y-45732822D01*
X152020584Y-45645163D01*
X152020586Y-45645162D01*
X152166358Y-45584781D01*
X152321107Y-45554000D01*
X152478893Y-45554000D01*
X152633642Y-45584781D01*
X152633642Y-45584781D01*
G37*
G36*
X145013642Y-45584781D02*
G01*
X145159414Y-45645162D01*
X145159416Y-45645163D01*
X145290608Y-45732822D01*
X145402178Y-45844392D01*
X145489837Y-45975584D01*
X145489838Y-45975586D01*
X145550219Y-46121358D01*
X145581000Y-46276107D01*
X145581000Y-46433893D01*
X145550219Y-46588642D01*
X145489838Y-46734414D01*
X145489837Y-46734416D01*
X145402178Y-46865608D01*
X145290608Y-46977178D01*
X145159416Y-47064837D01*
X145159415Y-47064838D01*
X145159414Y-47064838D01*
X145013642Y-47125219D01*
X144858893Y-47156000D01*
X144701107Y-47156000D01*
X144546358Y-47125219D01*
X144400586Y-47064838D01*
X144400585Y-47064838D01*
X144400584Y-47064837D01*
X144269392Y-46977178D01*
X144157822Y-46865608D01*
X144070163Y-46734416D01*
X144070162Y-46734414D01*
X144009781Y-46588642D01*
X143979000Y-46433893D01*
X143979000Y-46276107D01*
X144009781Y-46121358D01*
X144070162Y-45975586D01*
X144070163Y-45975584D01*
X144157822Y-45844392D01*
X144269392Y-45732822D01*
X144400584Y-45645163D01*
X144400586Y-45645162D01*
X144546358Y-45584781D01*
X144701107Y-45554000D01*
X144858893Y-45554000D01*
X145013642Y-45584781D01*
X145013642Y-45584781D01*
G37*
M02*
