M48
; DRILL file {KiCad 5.1.0-060a0da~80~ubuntu16.04.1} date 2019年03月30日 07時06分23秒
; FORMAT={-:-/ absolute / inch / decimal}
; #@! TF.CreationDate,2019-03-30T07:06:23+09:00
; #@! TF.GenerationSoftware,Kicad,Pcbnew,5.1.0-060a0da~80~ubuntu16.04.1
FMAT,2
INCH
T1C0.0157
T2C0.0276
T3C0.0300
T4C0.0315
T5C0.0354
T6C0.0394
T7C0.0866
%
G90
G05
T1
X5.0404Y-4.1243
X5.1963Y-2.5284
X5.2892Y-2.9099
X5.2897Y-2.6219
X5.56Y-2.2433
X5.7024Y-2.1285
X5.7377Y-2.0989
X6.6271Y-2.675
X6.6678Y-3.1606
X6.7526Y-2.4989
X7.0049Y-2.5151
X7.2958Y-3.0159
T2
X6.0Y-1.825
X6.2Y-1.825
X5.45Y-3.2
X6.9Y-2.9
X6.7Y-1.825
X5.45Y-3.4
X7.0Y-2.025
X4.95Y-3.95
X6.95Y-3.5
X4.9Y-2.025
X5.7Y-1.825
X6.5Y-1.825
T3
X5.2024Y-2.0274
X5.2024Y-2.1274
X5.2024Y-2.7274
X5.2024Y-2.8274
X5.5024Y-2.0274
X5.6024Y-2.0274
X5.7024Y-2.0274
X5.8024Y-2.0274
X5.9024Y-2.0274
X6.0024Y-2.0274
X6.1024Y-2.0274
X6.2024Y-2.0274
X6.3024Y-2.0274
X6.4024Y-2.0274
X6.7024Y-2.0274
X6.7024Y-2.1274
X6.7024Y-2.7274
X6.7024Y-2.8274
T4
X5.4Y-3.8
X5.4Y-4.2
X5.6Y-3.2
X6.0Y-3.2
X5.2016Y-3.2
X5.3Y-3.2
X6.0Y-3.8
X6.0Y-4.2
X5.2Y-3.4
X5.2984Y-3.4
X6.8Y-3.0
X6.8Y-3.4
X6.1Y-3.0
X6.5Y-3.0
X5.6Y-3.4
X6.0Y-3.4
X5.6Y-3.0
X6.0Y-3.0
X5.1Y-3.8
X5.1Y-4.2
X6.1Y-3.2
X6.5Y-3.2
X6.1Y-3.4
X6.5Y-3.4
X5.7Y-3.8
X5.7Y-4.2
T5
X5.4Y-3.6
X5.4Y-3.7
X5.7Y-3.6
X5.7Y-3.7
X5.1Y-3.6
X5.1Y-3.7
X6.0Y-3.6
X6.0Y-3.7
T6
X6.3Y-3.8
X6.3Y-3.8984
X6.3Y-3.9969
X6.8709Y-3.8
X6.8709Y-3.9969
X4.7Y-2.4
X4.7Y-2.5
X4.7Y-2.6
X4.7Y-2.7
X4.7Y-2.8
X4.7Y-2.9
X4.7Y-3.0
X4.7Y-3.1
X4.7Y-3.2
X4.7Y-3.3
X4.7Y-3.4
X4.7Y-3.5
X4.7Y-3.6
X4.7Y-3.7
X4.7Y-3.8
X4.7Y-3.9
X4.7Y-4.0
X4.7Y-4.1
X4.7Y-4.2
X4.8Y-2.4
X4.8Y-2.5
X4.8Y-2.6
X4.8Y-2.7
X4.8Y-2.8
X4.8Y-2.9
X4.8Y-3.0
X4.8Y-3.1
X4.8Y-3.2
X4.8Y-3.3
X4.8Y-3.4
X4.8Y-3.5
X4.8Y-3.6
X4.8Y-3.7
X4.8Y-3.8
X4.8Y-3.9
X4.8Y-4.0
X4.8Y-4.1
X4.8Y-4.2
X7.1Y-2.4
X7.1Y-2.5
X7.1Y-2.6
X7.1Y-2.7
X7.1Y-2.8
X7.1Y-2.9
X7.1Y-3.0
X7.1Y-3.1
X7.1Y-3.2
X7.1Y-3.3
X7.1Y-3.4
X7.1Y-3.5
X7.1Y-3.6
X7.1Y-3.7
X7.1Y-3.8
X7.1Y-3.9
X7.1Y-4.0
X7.1Y-4.1
X7.1Y-4.2
X7.2Y-2.4
X7.2Y-2.5
X7.2Y-2.6
X7.2Y-2.7
X7.2Y-2.8
X7.2Y-2.9
X7.2Y-3.0
X7.2Y-3.1
X7.2Y-3.2
X7.2Y-3.3
X7.2Y-3.4
X7.2Y-3.5
X7.2Y-3.6
X7.2Y-3.7
X7.2Y-3.8
X7.2Y-3.9
X7.2Y-4.0
X7.2Y-4.1
X7.2Y-4.2
T7
X6.5953Y-3.678
X6.5953Y-4.1189
T0
M30
