G04 #@! TF.GenerationSoftware,KiCad,Pcbnew,5.1.0-060a0da~80~ubuntu16.04.1*
G04 #@! TF.CreationDate,2019-04-14T22:16:02+09:00*
G04 #@! TF.ProjectId,Akashi-01,416b6173-6869-42d3-9031-2e6b69636164,rev?*
G04 #@! TF.SameCoordinates,Original*
G04 #@! TF.FileFunction,Copper,L2,Bot*
G04 #@! TF.FilePolarity,Positive*
%FSLAX46Y46*%
G04 Gerber Fmt 4.6, Leading zero omitted, Abs format (unit mm)*
G04 Created by KiCad (PCBNEW 5.1.0-060a0da~80~ubuntu16.04.1) date 2019-04-14 22:16:02*
%MOMM*%
%LPD*%
G04 APERTURE LIST*
%ADD10C,1.524000*%
%ADD11O,1.700000X1.700000*%
%ADD12R,1.700000X1.700000*%
%ADD13R,1.800000X1.800000*%
%ADD14C,1.800000*%
%ADD15C,1.600000*%
%ADD16O,1.600000X1.600000*%
%ADD17C,2.000000*%
%ADD18C,2.800000*%
%ADD19R,2.000000X2.000000*%
%ADD20C,0.800000*%
%ADD21C,0.250000*%
%ADD22C,0.254000*%
G04 APERTURE END LIST*
D10*
X139760000Y-51495000D03*
X142300000Y-51495000D03*
X162620000Y-51495000D03*
X160080000Y-51495000D03*
X157540000Y-51495000D03*
X155000000Y-51495000D03*
X152460000Y-51495000D03*
X149920000Y-51495000D03*
X147380000Y-51495000D03*
X144840000Y-51495000D03*
X170240000Y-51495000D03*
X170240000Y-54035000D03*
X170240000Y-69275000D03*
X170240000Y-71815000D03*
X132140000Y-71815000D03*
X132140000Y-69275000D03*
X132140000Y-54035000D03*
X132140000Y-51495000D03*
D11*
X121920000Y-106680000D03*
X119380000Y-106680000D03*
X121920000Y-104140000D03*
X119380000Y-104140000D03*
X121920000Y-101600000D03*
X119380000Y-101600000D03*
X121920000Y-99060000D03*
X119380000Y-99060000D03*
X121920000Y-96520000D03*
X119380000Y-96520000D03*
X121920000Y-93980000D03*
X119380000Y-93980000D03*
X121920000Y-91440000D03*
X119380000Y-91440000D03*
X121920000Y-88900000D03*
X119380000Y-88900000D03*
X121920000Y-86360000D03*
X119380000Y-86360000D03*
X121920000Y-83820000D03*
X119380000Y-83820000D03*
X121920000Y-81280000D03*
X119380000Y-81280000D03*
X121920000Y-78740000D03*
X119380000Y-78740000D03*
X121920000Y-76200000D03*
X119380000Y-76200000D03*
X121920000Y-73660000D03*
X119380000Y-73660000D03*
X121920000Y-71120000D03*
X119380000Y-71120000D03*
X121920000Y-68580000D03*
X119380000Y-68580000D03*
X121920000Y-66040000D03*
X119380000Y-66040000D03*
X121920000Y-63500000D03*
X119380000Y-63500000D03*
X121920000Y-60960000D03*
D12*
X119380000Y-60960000D03*
X180340000Y-60960000D03*
D11*
X182880000Y-60960000D03*
X180340000Y-63500000D03*
X182880000Y-63500000D03*
X180340000Y-66040000D03*
X182880000Y-66040000D03*
X180340000Y-68580000D03*
X182880000Y-68580000D03*
X180340000Y-71120000D03*
X182880000Y-71120000D03*
X180340000Y-73660000D03*
X182880000Y-73660000D03*
X180340000Y-76200000D03*
X182880000Y-76200000D03*
X180340000Y-78740000D03*
X182880000Y-78740000D03*
X180340000Y-81280000D03*
X182880000Y-81280000D03*
X180340000Y-83820000D03*
X182880000Y-83820000D03*
X180340000Y-86360000D03*
X182880000Y-86360000D03*
X180340000Y-88900000D03*
X182880000Y-88900000D03*
X180340000Y-91440000D03*
X182880000Y-91440000D03*
X180340000Y-93980000D03*
X182880000Y-93980000D03*
X180340000Y-96520000D03*
X182880000Y-96520000D03*
X180340000Y-99060000D03*
X182880000Y-99060000D03*
X180340000Y-101600000D03*
X182880000Y-101600000D03*
X180340000Y-104140000D03*
X182880000Y-104140000D03*
X180340000Y-106680000D03*
X182880000Y-106680000D03*
D13*
X152400000Y-91440000D03*
D14*
X152400000Y-93980000D03*
X144780000Y-93980000D03*
D13*
X144780000Y-91440000D03*
X137160000Y-91440000D03*
D14*
X137160000Y-93980000D03*
X129540000Y-93980000D03*
D13*
X129540000Y-91440000D03*
D15*
X152400000Y-106680000D03*
D16*
X152400000Y-96520000D03*
X144780000Y-96520000D03*
D15*
X144780000Y-106680000D03*
X137160000Y-106680000D03*
D16*
X137160000Y-96520000D03*
X129540000Y-96520000D03*
D15*
X129540000Y-106680000D03*
D16*
X165100000Y-76200000D03*
D15*
X154940000Y-76200000D03*
D16*
X142240000Y-86360000D03*
D15*
X152400000Y-86360000D03*
X152400000Y-81280000D03*
D16*
X142240000Y-81280000D03*
D15*
X165100000Y-86360000D03*
D16*
X154940000Y-86360000D03*
D15*
X142240000Y-76200000D03*
D16*
X152400000Y-76200000D03*
X154940000Y-81280000D03*
D15*
X165100000Y-81280000D03*
X172720000Y-76200000D03*
D16*
X172720000Y-86360000D03*
D17*
X174520000Y-101520000D03*
X174520000Y-96520000D03*
D18*
X167520000Y-104620000D03*
X167520000Y-93420000D03*
D17*
X160020000Y-101520000D03*
X160020000Y-99020000D03*
D19*
X160020000Y-96520000D03*
D15*
X132080000Y-86360000D03*
X134580000Y-86360000D03*
X134620000Y-81280000D03*
X132120000Y-81280000D03*
D17*
X125730000Y-100330000D03*
X138430000Y-86360000D03*
X138430000Y-81280000D03*
X170180000Y-46355000D03*
X176530000Y-88265000D03*
X165100000Y-46355000D03*
X157480000Y-46355000D03*
X175260000Y-73025000D03*
X152400000Y-46355000D03*
X144780000Y-46355000D03*
X124460000Y-51435000D03*
X177800000Y-51435000D03*
D20*
X128026800Y-104756600D03*
X169363200Y-80278800D03*
X134344700Y-73912400D03*
X131985700Y-64222100D03*
X134358700Y-66595100D03*
X185313800Y-76604100D03*
X177923700Y-63883200D03*
X168329400Y-67944300D03*
X171515500Y-63471900D03*
X144840000Y-54063300D03*
X141225000Y-56978800D03*
X145738400Y-53311200D03*
D21*
X129540000Y-106680000D02*
X129540000Y-106269800D01*
X129540000Y-106269800D02*
X128026800Y-104756600D01*
X180340000Y-71120000D02*
X179490001Y-70270001D01*
X179490001Y-70270001D02*
X177165000Y-67945000D01*
X170240000Y-71815000D02*
X172720000Y-74295000D01*
X172720000Y-74295000D02*
X172720000Y-76200000D01*
X169363200Y-80278800D02*
X166101200Y-80278800D01*
X166101200Y-80278800D02*
X165100000Y-81280000D01*
X134344700Y-73912400D02*
X134237400Y-73912400D01*
X134237400Y-73912400D02*
X132140000Y-71815000D01*
X134358700Y-66595100D02*
X131985700Y-64222100D01*
X182880000Y-81280000D02*
X182880000Y-80104700D01*
X185313800Y-76604100D02*
X185313800Y-78038200D01*
X185313800Y-78038200D02*
X183247300Y-80104700D01*
X183247300Y-80104700D02*
X182880000Y-80104700D01*
X165100000Y-76200000D02*
X165100000Y-71173700D01*
X165100000Y-71173700D02*
X168329400Y-67944300D01*
X177923700Y-63883200D02*
X178306900Y-63500000D01*
X178306900Y-63500000D02*
X180340000Y-63500000D01*
X180340000Y-73660000D02*
X180340000Y-72484700D01*
X171515500Y-63471900D02*
X171515500Y-64027500D01*
X171515500Y-64027500D02*
X179972700Y-72484700D01*
X179972700Y-72484700D02*
X180340000Y-72484700D01*
X180340000Y-73660000D02*
X180340000Y-74835300D01*
X182880000Y-96520000D02*
X182880000Y-95344700D01*
X182880000Y-95344700D02*
X182512600Y-95344700D01*
X182512600Y-95344700D02*
X181515300Y-94347400D01*
X181515300Y-94347400D02*
X181515300Y-75643200D01*
X181515300Y-75643200D02*
X180707400Y-74835300D01*
X180707400Y-74835300D02*
X180340000Y-74835300D01*
X182880000Y-76200000D02*
X182880000Y-73660000D01*
X152400000Y-46355000D02*
X152460000Y-46415000D01*
X152460000Y-46415000D02*
X152460000Y-51495000D01*
X144840000Y-51495000D02*
X144840000Y-54063300D01*
X180340000Y-101600000D02*
X180340000Y-100424700D01*
X180340000Y-100424700D02*
X179972700Y-100424700D01*
X179972700Y-100424700D02*
X176530000Y-96982000D01*
X176530000Y-96982000D02*
X176530000Y-88900000D01*
X142300000Y-51495000D02*
X141225000Y-52570000D01*
X141225000Y-52570000D02*
X141225000Y-56978800D01*
X147380000Y-51495000D02*
X147380000Y-51669600D01*
X147380000Y-51669600D02*
X145738400Y-53311200D01*
D22*
G36*
X185928000Y-75769712D02*
G01*
X185804056Y-75686895D01*
X185615698Y-75608874D01*
X185415739Y-75569100D01*
X185211861Y-75569100D01*
X185011902Y-75608874D01*
X184823544Y-75686895D01*
X184654026Y-75800163D01*
X184509863Y-75944326D01*
X184396595Y-76113844D01*
X184370019Y-76178005D01*
X184343513Y-75908889D01*
X184258599Y-75628966D01*
X184120706Y-75370986D01*
X183935134Y-75144866D01*
X183709014Y-74959294D01*
X183654209Y-74930000D01*
X183709014Y-74900706D01*
X183935134Y-74715134D01*
X184120706Y-74489014D01*
X184258599Y-74231034D01*
X184343513Y-73951111D01*
X184372185Y-73660000D01*
X184343513Y-73368889D01*
X184258599Y-73088966D01*
X184120706Y-72830986D01*
X183935134Y-72604866D01*
X183709014Y-72419294D01*
X183654209Y-72390000D01*
X183709014Y-72360706D01*
X183935134Y-72175134D01*
X184120706Y-71949014D01*
X184258599Y-71691034D01*
X184343513Y-71411111D01*
X184372185Y-71120000D01*
X184343513Y-70828889D01*
X184258599Y-70548966D01*
X184120706Y-70290986D01*
X183935134Y-70064866D01*
X183709014Y-69879294D01*
X183654209Y-69850000D01*
X183709014Y-69820706D01*
X183935134Y-69635134D01*
X184120706Y-69409014D01*
X184258599Y-69151034D01*
X184343513Y-68871111D01*
X184372185Y-68580000D01*
X184343513Y-68288889D01*
X184258599Y-68008966D01*
X184120706Y-67750986D01*
X183935134Y-67524866D01*
X183709014Y-67339294D01*
X183654209Y-67310000D01*
X183709014Y-67280706D01*
X183935134Y-67095134D01*
X184120706Y-66869014D01*
X184258599Y-66611034D01*
X184343513Y-66331111D01*
X184372185Y-66040000D01*
X184343513Y-65748889D01*
X184258599Y-65468966D01*
X184120706Y-65210986D01*
X183935134Y-64984866D01*
X183709014Y-64799294D01*
X183654209Y-64770000D01*
X183709014Y-64740706D01*
X183935134Y-64555134D01*
X184120706Y-64329014D01*
X184258599Y-64071034D01*
X184343513Y-63791111D01*
X184372185Y-63500000D01*
X184343513Y-63208889D01*
X184258599Y-62928966D01*
X184120706Y-62670986D01*
X183935134Y-62444866D01*
X183709014Y-62259294D01*
X183654209Y-62230000D01*
X183709014Y-62200706D01*
X183935134Y-62015134D01*
X184120706Y-61789014D01*
X184258599Y-61531034D01*
X184343513Y-61251111D01*
X184372185Y-60960000D01*
X184343513Y-60668889D01*
X184258599Y-60388966D01*
X184120706Y-60130986D01*
X183935134Y-59904866D01*
X183709014Y-59719294D01*
X183451034Y-59581401D01*
X183171111Y-59496487D01*
X182952950Y-59475000D01*
X182807050Y-59475000D01*
X182588889Y-59496487D01*
X182308966Y-59581401D01*
X182050986Y-59719294D01*
X181824866Y-59904866D01*
X181800393Y-59934687D01*
X181779502Y-59865820D01*
X181720537Y-59755506D01*
X181641185Y-59658815D01*
X181544494Y-59579463D01*
X181434180Y-59520498D01*
X181314482Y-59484188D01*
X181190000Y-59471928D01*
X179490000Y-59471928D01*
X179365518Y-59484188D01*
X179245820Y-59520498D01*
X179135506Y-59579463D01*
X179038815Y-59658815D01*
X178959463Y-59755506D01*
X178900498Y-59865820D01*
X178864188Y-59985518D01*
X178851928Y-60110000D01*
X178851928Y-61810000D01*
X178864188Y-61934482D01*
X178900498Y-62054180D01*
X178959463Y-62164494D01*
X179038815Y-62261185D01*
X179135506Y-62340537D01*
X179245820Y-62399502D01*
X179314687Y-62420393D01*
X179284866Y-62444866D01*
X179099294Y-62670986D01*
X179062405Y-62740000D01*
X178344225Y-62740000D01*
X178306900Y-62736324D01*
X178269575Y-62740000D01*
X178269567Y-62740000D01*
X178157914Y-62750997D01*
X178014653Y-62794454D01*
X177914103Y-62848200D01*
X177821761Y-62848200D01*
X177621802Y-62887974D01*
X177433444Y-62965995D01*
X177263926Y-63079263D01*
X177119763Y-63223426D01*
X177006495Y-63392944D01*
X176928474Y-63581302D01*
X176888700Y-63781261D01*
X176888700Y-63985139D01*
X176928474Y-64185098D01*
X177006495Y-64373456D01*
X177119763Y-64542974D01*
X177263926Y-64687137D01*
X177433444Y-64800405D01*
X177621802Y-64878426D01*
X177821761Y-64918200D01*
X178025639Y-64918200D01*
X178225598Y-64878426D01*
X178413956Y-64800405D01*
X178583474Y-64687137D01*
X178727637Y-64542974D01*
X178840905Y-64373456D01*
X178887900Y-64260000D01*
X179062405Y-64260000D01*
X179099294Y-64329014D01*
X179284866Y-64555134D01*
X179510986Y-64740706D01*
X179565791Y-64770000D01*
X179510986Y-64799294D01*
X179284866Y-64984866D01*
X179099294Y-65210986D01*
X178961401Y-65468966D01*
X178876487Y-65748889D01*
X178847815Y-66040000D01*
X178876487Y-66331111D01*
X178961401Y-66611034D01*
X179099294Y-66869014D01*
X179284866Y-67095134D01*
X179510986Y-67280706D01*
X179565791Y-67310000D01*
X179510986Y-67339294D01*
X179284866Y-67524866D01*
X179099294Y-67750986D01*
X178961401Y-68008966D01*
X178876487Y-68288889D01*
X178847815Y-68580000D01*
X178876487Y-68871111D01*
X178961401Y-69151034D01*
X179099294Y-69409014D01*
X179284866Y-69635134D01*
X179510986Y-69820706D01*
X179575523Y-69855201D01*
X179458645Y-69924822D01*
X179242412Y-70119731D01*
X179068359Y-70353080D01*
X179019165Y-70456363D01*
X172459725Y-63896924D01*
X172510726Y-63773798D01*
X172550500Y-63573839D01*
X172550500Y-63369961D01*
X172510726Y-63170002D01*
X172432705Y-62981644D01*
X172319437Y-62812126D01*
X172175274Y-62667963D01*
X172005756Y-62554695D01*
X171817398Y-62476674D01*
X171617439Y-62436900D01*
X171413561Y-62436900D01*
X171213602Y-62476674D01*
X171025244Y-62554695D01*
X170855726Y-62667963D01*
X170711563Y-62812126D01*
X170598295Y-62981644D01*
X170520274Y-63170002D01*
X170480500Y-63369961D01*
X170480500Y-63573839D01*
X170520274Y-63773798D01*
X170598295Y-63962156D01*
X170711563Y-64131674D01*
X170770904Y-64191015D01*
X170809954Y-64319747D01*
X170834537Y-64365736D01*
X170880526Y-64451776D01*
X170935018Y-64518174D01*
X170975500Y-64567501D01*
X171004498Y-64591299D01*
X179164604Y-72751406D01*
X179099294Y-72830986D01*
X178961401Y-73088966D01*
X178876487Y-73368889D01*
X178847815Y-73660000D01*
X178876487Y-73951111D01*
X178961401Y-74231034D01*
X179099294Y-74489014D01*
X179284866Y-74715134D01*
X179510986Y-74900706D01*
X179565791Y-74930000D01*
X179510986Y-74959294D01*
X179284866Y-75144866D01*
X179099294Y-75370986D01*
X178961401Y-75628966D01*
X178876487Y-75908889D01*
X178847815Y-76200000D01*
X178876487Y-76491111D01*
X178961401Y-76771034D01*
X179099294Y-77029014D01*
X179284866Y-77255134D01*
X179510986Y-77440706D01*
X179565791Y-77470000D01*
X179510986Y-77499294D01*
X179284866Y-77684866D01*
X179099294Y-77910986D01*
X178961401Y-78168966D01*
X178876487Y-78448889D01*
X178847815Y-78740000D01*
X178876487Y-79031111D01*
X178961401Y-79311034D01*
X179099294Y-79569014D01*
X179284866Y-79795134D01*
X179510986Y-79980706D01*
X179565791Y-80010000D01*
X179510986Y-80039294D01*
X179284866Y-80224866D01*
X179099294Y-80450986D01*
X178961401Y-80708966D01*
X178876487Y-80988889D01*
X178847815Y-81280000D01*
X178876487Y-81571111D01*
X178961401Y-81851034D01*
X179099294Y-82109014D01*
X179284866Y-82335134D01*
X179510986Y-82520706D01*
X179565791Y-82550000D01*
X179510986Y-82579294D01*
X179284866Y-82764866D01*
X179099294Y-82990986D01*
X178961401Y-83248966D01*
X178876487Y-83528889D01*
X178847815Y-83820000D01*
X178876487Y-84111111D01*
X178961401Y-84391034D01*
X179099294Y-84649014D01*
X179284866Y-84875134D01*
X179510986Y-85060706D01*
X179565791Y-85090000D01*
X179510986Y-85119294D01*
X179284866Y-85304866D01*
X179099294Y-85530986D01*
X178961401Y-85788966D01*
X178876487Y-86068889D01*
X178847815Y-86360000D01*
X178876487Y-86651111D01*
X178961401Y-86931034D01*
X179099294Y-87189014D01*
X179284866Y-87415134D01*
X179510986Y-87600706D01*
X179565791Y-87630000D01*
X179510986Y-87659294D01*
X179284866Y-87844866D01*
X179099294Y-88070986D01*
X178961401Y-88328966D01*
X178876487Y-88608889D01*
X178847815Y-88900000D01*
X178876487Y-89191111D01*
X178961401Y-89471034D01*
X179099294Y-89729014D01*
X179284866Y-89955134D01*
X179510986Y-90140706D01*
X179565791Y-90170000D01*
X179510986Y-90199294D01*
X179284866Y-90384866D01*
X179099294Y-90610986D01*
X178961401Y-90868966D01*
X178876487Y-91148889D01*
X178847815Y-91440000D01*
X178876487Y-91731111D01*
X178961401Y-92011034D01*
X179099294Y-92269014D01*
X179284866Y-92495134D01*
X179510986Y-92680706D01*
X179565791Y-92710000D01*
X179510986Y-92739294D01*
X179284866Y-92924866D01*
X179099294Y-93150986D01*
X178961401Y-93408966D01*
X178876487Y-93688889D01*
X178847815Y-93980000D01*
X178876487Y-94271111D01*
X178961401Y-94551034D01*
X179099294Y-94809014D01*
X179284866Y-95035134D01*
X179510986Y-95220706D01*
X179565791Y-95250000D01*
X179510986Y-95279294D01*
X179284866Y-95464866D01*
X179099294Y-95690986D01*
X178961401Y-95948966D01*
X178876487Y-96228889D01*
X178847815Y-96520000D01*
X178876487Y-96811111D01*
X178961401Y-97091034D01*
X179099294Y-97349014D01*
X179284866Y-97575134D01*
X179510986Y-97760706D01*
X179565791Y-97790000D01*
X179510986Y-97819294D01*
X179284866Y-98004866D01*
X179099294Y-98230986D01*
X179013778Y-98390976D01*
X177290000Y-96667199D01*
X177290000Y-89719909D01*
X177304463Y-89713918D01*
X177572252Y-89534987D01*
X177799987Y-89307252D01*
X177978918Y-89039463D01*
X178102168Y-88741912D01*
X178165000Y-88426033D01*
X178165000Y-88103967D01*
X178102168Y-87788088D01*
X177978918Y-87490537D01*
X177799987Y-87222748D01*
X177572252Y-86995013D01*
X177304463Y-86816082D01*
X177006912Y-86692832D01*
X176691033Y-86630000D01*
X176368967Y-86630000D01*
X176053088Y-86692832D01*
X175755537Y-86816082D01*
X175487748Y-86995013D01*
X175260013Y-87222748D01*
X175081082Y-87490537D01*
X174957832Y-87788088D01*
X174895000Y-88103967D01*
X174895000Y-88426033D01*
X174957832Y-88741912D01*
X175081082Y-89039463D01*
X175260013Y-89307252D01*
X175487748Y-89534987D01*
X175755537Y-89713918D01*
X175770001Y-89719909D01*
X175770000Y-95457761D01*
X175562252Y-95250013D01*
X175294463Y-95071082D01*
X174996912Y-94947832D01*
X174681033Y-94885000D01*
X174358967Y-94885000D01*
X174043088Y-94947832D01*
X173745537Y-95071082D01*
X173477748Y-95250013D01*
X173250013Y-95477748D01*
X173071082Y-95745537D01*
X172947832Y-96043088D01*
X172885000Y-96358967D01*
X172885000Y-96681033D01*
X172947832Y-96996912D01*
X173071082Y-97294463D01*
X173250013Y-97562252D01*
X173477748Y-97789987D01*
X173745537Y-97968918D01*
X174043088Y-98092168D01*
X174358967Y-98155000D01*
X174681033Y-98155000D01*
X174996912Y-98092168D01*
X175294463Y-97968918D01*
X175562252Y-97789987D01*
X175789987Y-97562252D01*
X175894662Y-97405595D01*
X175895026Y-97406276D01*
X175907963Y-97422039D01*
X175989999Y-97522001D01*
X176019003Y-97545804D01*
X179164604Y-100691406D01*
X179099294Y-100770986D01*
X178961401Y-101028966D01*
X178876487Y-101308889D01*
X178847815Y-101600000D01*
X178876487Y-101891111D01*
X178961401Y-102171034D01*
X179099294Y-102429014D01*
X179284866Y-102655134D01*
X179510986Y-102840706D01*
X179565791Y-102870000D01*
X179510986Y-102899294D01*
X179284866Y-103084866D01*
X179099294Y-103310986D01*
X178961401Y-103568966D01*
X178876487Y-103848889D01*
X178847815Y-104140000D01*
X178876487Y-104431111D01*
X178961401Y-104711034D01*
X179099294Y-104969014D01*
X179284866Y-105195134D01*
X179510986Y-105380706D01*
X179565791Y-105410000D01*
X179510986Y-105439294D01*
X179284866Y-105624866D01*
X179099294Y-105850986D01*
X178961401Y-106108966D01*
X178876487Y-106388889D01*
X178847815Y-106680000D01*
X178876487Y-106971111D01*
X178961401Y-107251034D01*
X179099294Y-107509014D01*
X179284866Y-107735134D01*
X179510986Y-107920706D01*
X179768966Y-108058599D01*
X180048889Y-108143513D01*
X180267050Y-108165000D01*
X180412950Y-108165000D01*
X180631111Y-108143513D01*
X180911034Y-108058599D01*
X181169014Y-107920706D01*
X181395134Y-107735134D01*
X181580706Y-107509014D01*
X181610000Y-107454209D01*
X181639294Y-107509014D01*
X181824866Y-107735134D01*
X182050986Y-107920706D01*
X182308966Y-108058599D01*
X182588889Y-108143513D01*
X182807050Y-108165000D01*
X182952950Y-108165000D01*
X183171111Y-108143513D01*
X183451034Y-108058599D01*
X183709014Y-107920706D01*
X183935134Y-107735134D01*
X184120706Y-107509014D01*
X184258599Y-107251034D01*
X184343513Y-106971111D01*
X184372185Y-106680000D01*
X184343513Y-106388889D01*
X184258599Y-106108966D01*
X184120706Y-105850986D01*
X183935134Y-105624866D01*
X183709014Y-105439294D01*
X183654209Y-105410000D01*
X183709014Y-105380706D01*
X183935134Y-105195134D01*
X184120706Y-104969014D01*
X184258599Y-104711034D01*
X184343513Y-104431111D01*
X184372185Y-104140000D01*
X184343513Y-103848889D01*
X184258599Y-103568966D01*
X184120706Y-103310986D01*
X183935134Y-103084866D01*
X183709014Y-102899294D01*
X183654209Y-102870000D01*
X183709014Y-102840706D01*
X183935134Y-102655134D01*
X184120706Y-102429014D01*
X184258599Y-102171034D01*
X184343513Y-101891111D01*
X184372185Y-101600000D01*
X184343513Y-101308889D01*
X184258599Y-101028966D01*
X184120706Y-100770986D01*
X183935134Y-100544866D01*
X183709014Y-100359294D01*
X183654209Y-100330000D01*
X183709014Y-100300706D01*
X183935134Y-100115134D01*
X184120706Y-99889014D01*
X184258599Y-99631034D01*
X184343513Y-99351111D01*
X184372185Y-99060000D01*
X184343513Y-98768889D01*
X184258599Y-98488966D01*
X184120706Y-98230986D01*
X183935134Y-98004866D01*
X183709014Y-97819294D01*
X183654209Y-97790000D01*
X183709014Y-97760706D01*
X183935134Y-97575134D01*
X184120706Y-97349014D01*
X184258599Y-97091034D01*
X184343513Y-96811111D01*
X184372185Y-96520000D01*
X184343513Y-96228889D01*
X184258599Y-95948966D01*
X184120706Y-95690986D01*
X183935134Y-95464866D01*
X183709014Y-95279294D01*
X183654209Y-95250000D01*
X183709014Y-95220706D01*
X183935134Y-95035134D01*
X184120706Y-94809014D01*
X184258599Y-94551034D01*
X184343513Y-94271111D01*
X184372185Y-93980000D01*
X184343513Y-93688889D01*
X184258599Y-93408966D01*
X184120706Y-93150986D01*
X183935134Y-92924866D01*
X183709014Y-92739294D01*
X183654209Y-92710000D01*
X183709014Y-92680706D01*
X183935134Y-92495134D01*
X184120706Y-92269014D01*
X184258599Y-92011034D01*
X184343513Y-91731111D01*
X184372185Y-91440000D01*
X184343513Y-91148889D01*
X184258599Y-90868966D01*
X184120706Y-90610986D01*
X183935134Y-90384866D01*
X183709014Y-90199294D01*
X183654209Y-90170000D01*
X183709014Y-90140706D01*
X183935134Y-89955134D01*
X184120706Y-89729014D01*
X184258599Y-89471034D01*
X184343513Y-89191111D01*
X184372185Y-88900000D01*
X184343513Y-88608889D01*
X184258599Y-88328966D01*
X184120706Y-88070986D01*
X183935134Y-87844866D01*
X183709014Y-87659294D01*
X183654209Y-87630000D01*
X183709014Y-87600706D01*
X183935134Y-87415134D01*
X184120706Y-87189014D01*
X184258599Y-86931034D01*
X184343513Y-86651111D01*
X184372185Y-86360000D01*
X184343513Y-86068889D01*
X184258599Y-85788966D01*
X184120706Y-85530986D01*
X183935134Y-85304866D01*
X183709014Y-85119294D01*
X183644477Y-85084799D01*
X183761355Y-85015178D01*
X183977588Y-84820269D01*
X184151641Y-84586920D01*
X184276825Y-84324099D01*
X184321476Y-84176890D01*
X184200155Y-83947000D01*
X183007000Y-83947000D01*
X183007000Y-83967000D01*
X182753000Y-83967000D01*
X182753000Y-83947000D01*
X182733000Y-83947000D01*
X182733000Y-83693000D01*
X182753000Y-83693000D01*
X182753000Y-83673000D01*
X183007000Y-83673000D01*
X183007000Y-83693000D01*
X184200155Y-83693000D01*
X184321476Y-83463110D01*
X184276825Y-83315901D01*
X184151641Y-83053080D01*
X183977588Y-82819731D01*
X183761355Y-82624822D01*
X183644477Y-82555201D01*
X183709014Y-82520706D01*
X183935134Y-82335134D01*
X184120706Y-82109014D01*
X184258599Y-81851034D01*
X184343513Y-81571111D01*
X184372185Y-81280000D01*
X184343513Y-80988889D01*
X184258599Y-80708966D01*
X184120706Y-80450986D01*
X184055396Y-80371405D01*
X185824803Y-78601999D01*
X185853801Y-78578201D01*
X185928000Y-78487789D01*
X185928000Y-109728000D01*
X116332000Y-109728000D01*
X116332000Y-86360000D01*
X117887815Y-86360000D01*
X117916487Y-86651111D01*
X118001401Y-86931034D01*
X118139294Y-87189014D01*
X118324866Y-87415134D01*
X118550986Y-87600706D01*
X118605791Y-87630000D01*
X118550986Y-87659294D01*
X118324866Y-87844866D01*
X118139294Y-88070986D01*
X118001401Y-88328966D01*
X117916487Y-88608889D01*
X117887815Y-88900000D01*
X117916487Y-89191111D01*
X118001401Y-89471034D01*
X118139294Y-89729014D01*
X118324866Y-89955134D01*
X118550986Y-90140706D01*
X118605791Y-90170000D01*
X118550986Y-90199294D01*
X118324866Y-90384866D01*
X118139294Y-90610986D01*
X118001401Y-90868966D01*
X117916487Y-91148889D01*
X117887815Y-91440000D01*
X117916487Y-91731111D01*
X118001401Y-92011034D01*
X118139294Y-92269014D01*
X118324866Y-92495134D01*
X118550986Y-92680706D01*
X118605791Y-92710000D01*
X118550986Y-92739294D01*
X118324866Y-92924866D01*
X118139294Y-93150986D01*
X118001401Y-93408966D01*
X117916487Y-93688889D01*
X117887815Y-93980000D01*
X117916487Y-94271111D01*
X118001401Y-94551034D01*
X118139294Y-94809014D01*
X118324866Y-95035134D01*
X118550986Y-95220706D01*
X118605791Y-95250000D01*
X118550986Y-95279294D01*
X118324866Y-95464866D01*
X118139294Y-95690986D01*
X118001401Y-95948966D01*
X117916487Y-96228889D01*
X117887815Y-96520000D01*
X117916487Y-96811111D01*
X118001401Y-97091034D01*
X118139294Y-97349014D01*
X118324866Y-97575134D01*
X118550986Y-97760706D01*
X118605791Y-97790000D01*
X118550986Y-97819294D01*
X118324866Y-98004866D01*
X118139294Y-98230986D01*
X118001401Y-98488966D01*
X117916487Y-98768889D01*
X117887815Y-99060000D01*
X117916487Y-99351111D01*
X118001401Y-99631034D01*
X118139294Y-99889014D01*
X118324866Y-100115134D01*
X118550986Y-100300706D01*
X118605791Y-100330000D01*
X118550986Y-100359294D01*
X118324866Y-100544866D01*
X118139294Y-100770986D01*
X118001401Y-101028966D01*
X117916487Y-101308889D01*
X117887815Y-101600000D01*
X117916487Y-101891111D01*
X118001401Y-102171034D01*
X118139294Y-102429014D01*
X118324866Y-102655134D01*
X118550986Y-102840706D01*
X118605791Y-102870000D01*
X118550986Y-102899294D01*
X118324866Y-103084866D01*
X118139294Y-103310986D01*
X118001401Y-103568966D01*
X117916487Y-103848889D01*
X117887815Y-104140000D01*
X117916487Y-104431111D01*
X118001401Y-104711034D01*
X118139294Y-104969014D01*
X118324866Y-105195134D01*
X118550986Y-105380706D01*
X118605791Y-105410000D01*
X118550986Y-105439294D01*
X118324866Y-105624866D01*
X118139294Y-105850986D01*
X118001401Y-106108966D01*
X117916487Y-106388889D01*
X117887815Y-106680000D01*
X117916487Y-106971111D01*
X118001401Y-107251034D01*
X118139294Y-107509014D01*
X118324866Y-107735134D01*
X118550986Y-107920706D01*
X118808966Y-108058599D01*
X119088889Y-108143513D01*
X119307050Y-108165000D01*
X119452950Y-108165000D01*
X119671111Y-108143513D01*
X119951034Y-108058599D01*
X120209014Y-107920706D01*
X120435134Y-107735134D01*
X120620706Y-107509014D01*
X120650000Y-107454209D01*
X120679294Y-107509014D01*
X120864866Y-107735134D01*
X121090986Y-107920706D01*
X121348966Y-108058599D01*
X121628889Y-108143513D01*
X121847050Y-108165000D01*
X121992950Y-108165000D01*
X122211111Y-108143513D01*
X122491034Y-108058599D01*
X122749014Y-107920706D01*
X122975134Y-107735134D01*
X123160706Y-107509014D01*
X123298599Y-107251034D01*
X123383513Y-106971111D01*
X123412185Y-106680000D01*
X123383513Y-106388889D01*
X123298599Y-106108966D01*
X123160706Y-105850986D01*
X122975134Y-105624866D01*
X122749014Y-105439294D01*
X122694209Y-105410000D01*
X122749014Y-105380706D01*
X122975134Y-105195134D01*
X123160706Y-104969014D01*
X123298599Y-104711034D01*
X123315699Y-104654661D01*
X126991800Y-104654661D01*
X126991800Y-104858539D01*
X127031574Y-105058498D01*
X127109595Y-105246856D01*
X127222863Y-105416374D01*
X127367026Y-105560537D01*
X127536544Y-105673805D01*
X127724902Y-105751826D01*
X127924861Y-105791600D01*
X127986999Y-105791600D01*
X128247042Y-106051643D01*
X128160147Y-106261426D01*
X128105000Y-106538665D01*
X128105000Y-106821335D01*
X128160147Y-107098574D01*
X128268320Y-107359727D01*
X128425363Y-107594759D01*
X128625241Y-107794637D01*
X128860273Y-107951680D01*
X129121426Y-108059853D01*
X129398665Y-108115000D01*
X129681335Y-108115000D01*
X129958574Y-108059853D01*
X130219727Y-107951680D01*
X130454759Y-107794637D01*
X130654637Y-107594759D01*
X130811680Y-107359727D01*
X130919853Y-107098574D01*
X130975000Y-106821335D01*
X130975000Y-106538665D01*
X135725000Y-106538665D01*
X135725000Y-106821335D01*
X135780147Y-107098574D01*
X135888320Y-107359727D01*
X136045363Y-107594759D01*
X136245241Y-107794637D01*
X136480273Y-107951680D01*
X136741426Y-108059853D01*
X137018665Y-108115000D01*
X137301335Y-108115000D01*
X137578574Y-108059853D01*
X137839727Y-107951680D01*
X138074759Y-107794637D01*
X138274637Y-107594759D01*
X138431680Y-107359727D01*
X138539853Y-107098574D01*
X138595000Y-106821335D01*
X138595000Y-106538665D01*
X143345000Y-106538665D01*
X143345000Y-106821335D01*
X143400147Y-107098574D01*
X143508320Y-107359727D01*
X143665363Y-107594759D01*
X143865241Y-107794637D01*
X144100273Y-107951680D01*
X144361426Y-108059853D01*
X144638665Y-108115000D01*
X144921335Y-108115000D01*
X145198574Y-108059853D01*
X145459727Y-107951680D01*
X145694759Y-107794637D01*
X145894637Y-107594759D01*
X146051680Y-107359727D01*
X146159853Y-107098574D01*
X146215000Y-106821335D01*
X146215000Y-106538665D01*
X150965000Y-106538665D01*
X150965000Y-106821335D01*
X151020147Y-107098574D01*
X151128320Y-107359727D01*
X151285363Y-107594759D01*
X151485241Y-107794637D01*
X151720273Y-107951680D01*
X151981426Y-108059853D01*
X152258665Y-108115000D01*
X152541335Y-108115000D01*
X152818574Y-108059853D01*
X153079727Y-107951680D01*
X153314759Y-107794637D01*
X153514637Y-107594759D01*
X153671680Y-107359727D01*
X153779853Y-107098574D01*
X153835000Y-106821335D01*
X153835000Y-106538665D01*
X153779853Y-106261426D01*
X153671680Y-106000273D01*
X153514637Y-105765241D01*
X153314759Y-105565363D01*
X153079727Y-105408320D01*
X152818574Y-105300147D01*
X152541335Y-105245000D01*
X152258665Y-105245000D01*
X151981426Y-105300147D01*
X151720273Y-105408320D01*
X151485241Y-105565363D01*
X151285363Y-105765241D01*
X151128320Y-106000273D01*
X151020147Y-106261426D01*
X150965000Y-106538665D01*
X146215000Y-106538665D01*
X146159853Y-106261426D01*
X146051680Y-106000273D01*
X145894637Y-105765241D01*
X145694759Y-105565363D01*
X145459727Y-105408320D01*
X145198574Y-105300147D01*
X144921335Y-105245000D01*
X144638665Y-105245000D01*
X144361426Y-105300147D01*
X144100273Y-105408320D01*
X143865241Y-105565363D01*
X143665363Y-105765241D01*
X143508320Y-106000273D01*
X143400147Y-106261426D01*
X143345000Y-106538665D01*
X138595000Y-106538665D01*
X138539853Y-106261426D01*
X138431680Y-106000273D01*
X138274637Y-105765241D01*
X138074759Y-105565363D01*
X137839727Y-105408320D01*
X137578574Y-105300147D01*
X137301335Y-105245000D01*
X137018665Y-105245000D01*
X136741426Y-105300147D01*
X136480273Y-105408320D01*
X136245241Y-105565363D01*
X136045363Y-105765241D01*
X135888320Y-106000273D01*
X135780147Y-106261426D01*
X135725000Y-106538665D01*
X130975000Y-106538665D01*
X130919853Y-106261426D01*
X130811680Y-106000273D01*
X130654637Y-105765241D01*
X130454759Y-105565363D01*
X130219727Y-105408320D01*
X129958574Y-105300147D01*
X129681335Y-105245000D01*
X129590002Y-105245000D01*
X129061800Y-104716799D01*
X129061800Y-104654661D01*
X129022026Y-104454702D01*
X129007474Y-104419570D01*
X165485000Y-104419570D01*
X165485000Y-104820430D01*
X165563204Y-105213587D01*
X165716607Y-105583934D01*
X165939313Y-105917237D01*
X166222763Y-106200687D01*
X166556066Y-106423393D01*
X166926413Y-106576796D01*
X167319570Y-106655000D01*
X167720430Y-106655000D01*
X168113587Y-106576796D01*
X168483934Y-106423393D01*
X168817237Y-106200687D01*
X169100687Y-105917237D01*
X169323393Y-105583934D01*
X169476796Y-105213587D01*
X169555000Y-104820430D01*
X169555000Y-104419570D01*
X169476796Y-104026413D01*
X169323393Y-103656066D01*
X169100687Y-103322763D01*
X168817237Y-103039313D01*
X168483934Y-102816607D01*
X168113587Y-102663204D01*
X168074420Y-102655413D01*
X173564192Y-102655413D01*
X173659956Y-102919814D01*
X173949571Y-103060704D01*
X174261108Y-103142384D01*
X174582595Y-103161718D01*
X174901675Y-103117961D01*
X175206088Y-103012795D01*
X175380044Y-102919814D01*
X175475808Y-102655413D01*
X174520000Y-101699605D01*
X173564192Y-102655413D01*
X168074420Y-102655413D01*
X167720430Y-102585000D01*
X167319570Y-102585000D01*
X166926413Y-102663204D01*
X166556066Y-102816607D01*
X166222763Y-103039313D01*
X165939313Y-103322763D01*
X165716607Y-103656066D01*
X165563204Y-104026413D01*
X165485000Y-104419570D01*
X129007474Y-104419570D01*
X128944005Y-104266344D01*
X128830737Y-104096826D01*
X128686574Y-103952663D01*
X128517056Y-103839395D01*
X128328698Y-103761374D01*
X128128739Y-103721600D01*
X127924861Y-103721600D01*
X127724902Y-103761374D01*
X127536544Y-103839395D01*
X127367026Y-103952663D01*
X127222863Y-104096826D01*
X127109595Y-104266344D01*
X127031574Y-104454702D01*
X126991800Y-104654661D01*
X123315699Y-104654661D01*
X123383513Y-104431111D01*
X123412185Y-104140000D01*
X123383513Y-103848889D01*
X123298599Y-103568966D01*
X123160706Y-103310986D01*
X122975134Y-103084866D01*
X122749014Y-102899294D01*
X122694209Y-102870000D01*
X122749014Y-102840706D01*
X122975134Y-102655134D01*
X123160706Y-102429014D01*
X123298599Y-102171034D01*
X123383513Y-101891111D01*
X123412185Y-101600000D01*
X123383513Y-101308889D01*
X123298599Y-101028966D01*
X123160706Y-100770986D01*
X122975134Y-100544866D01*
X122749014Y-100359294D01*
X122694209Y-100330000D01*
X122749014Y-100300706D01*
X122909538Y-100168967D01*
X124095000Y-100168967D01*
X124095000Y-100491033D01*
X124157832Y-100806912D01*
X124281082Y-101104463D01*
X124460013Y-101372252D01*
X124687748Y-101599987D01*
X124955537Y-101778918D01*
X125253088Y-101902168D01*
X125568967Y-101965000D01*
X125891033Y-101965000D01*
X126206912Y-101902168D01*
X126504463Y-101778918D01*
X126772252Y-101599987D01*
X126999987Y-101372252D01*
X127008863Y-101358967D01*
X158385000Y-101358967D01*
X158385000Y-101681033D01*
X158447832Y-101996912D01*
X158571082Y-102294463D01*
X158750013Y-102562252D01*
X158977748Y-102789987D01*
X159245537Y-102968918D01*
X159543088Y-103092168D01*
X159858967Y-103155000D01*
X160181033Y-103155000D01*
X160496912Y-103092168D01*
X160794463Y-102968918D01*
X161062252Y-102789987D01*
X161289987Y-102562252D01*
X161468918Y-102294463D01*
X161592168Y-101996912D01*
X161655000Y-101681033D01*
X161655000Y-101582595D01*
X172878282Y-101582595D01*
X172922039Y-101901675D01*
X173027205Y-102206088D01*
X173120186Y-102380044D01*
X173384587Y-102475808D01*
X174340395Y-101520000D01*
X174699605Y-101520000D01*
X175655413Y-102475808D01*
X175919814Y-102380044D01*
X176060704Y-102090429D01*
X176142384Y-101778892D01*
X176161718Y-101457405D01*
X176117961Y-101138325D01*
X176012795Y-100833912D01*
X175919814Y-100659956D01*
X175655413Y-100564192D01*
X174699605Y-101520000D01*
X174340395Y-101520000D01*
X173384587Y-100564192D01*
X173120186Y-100659956D01*
X172979296Y-100949571D01*
X172897616Y-101261108D01*
X172878282Y-101582595D01*
X161655000Y-101582595D01*
X161655000Y-101358967D01*
X161592168Y-101043088D01*
X161468918Y-100745537D01*
X161289987Y-100477748D01*
X161196826Y-100384587D01*
X173564192Y-100384587D01*
X174520000Y-101340395D01*
X175475808Y-100384587D01*
X175380044Y-100120186D01*
X175090429Y-99979296D01*
X174778892Y-99897616D01*
X174457405Y-99878282D01*
X174138325Y-99922039D01*
X173833912Y-100027205D01*
X173659956Y-100120186D01*
X173564192Y-100384587D01*
X161196826Y-100384587D01*
X161062252Y-100250013D01*
X160965065Y-100185075D01*
X160975808Y-100155413D01*
X160020000Y-99199605D01*
X159064192Y-100155413D01*
X159074935Y-100185075D01*
X158977748Y-100250013D01*
X158750013Y-100477748D01*
X158571082Y-100745537D01*
X158447832Y-101043088D01*
X158385000Y-101358967D01*
X127008863Y-101358967D01*
X127178918Y-101104463D01*
X127302168Y-100806912D01*
X127365000Y-100491033D01*
X127365000Y-100168967D01*
X127302168Y-99853088D01*
X127178918Y-99555537D01*
X126999987Y-99287748D01*
X126794834Y-99082595D01*
X158378282Y-99082595D01*
X158422039Y-99401675D01*
X158527205Y-99706088D01*
X158620186Y-99880044D01*
X158884587Y-99975808D01*
X159840395Y-99020000D01*
X159826253Y-99005858D01*
X160005858Y-98826253D01*
X160020000Y-98840395D01*
X160034143Y-98826253D01*
X160213748Y-99005858D01*
X160199605Y-99020000D01*
X161155413Y-99975808D01*
X161419814Y-99880044D01*
X161560704Y-99590429D01*
X161642384Y-99278892D01*
X161661718Y-98957405D01*
X161617961Y-98638325D01*
X161512795Y-98333912D01*
X161419814Y-98159956D01*
X161270777Y-98105976D01*
X161374494Y-98050537D01*
X161471185Y-97971185D01*
X161550537Y-97874494D01*
X161609502Y-97764180D01*
X161645812Y-97644482D01*
X161658072Y-97520000D01*
X161658072Y-95520000D01*
X161645812Y-95395518D01*
X161609502Y-95275820D01*
X161550537Y-95165506D01*
X161471185Y-95068815D01*
X161374494Y-94989463D01*
X161264180Y-94930498D01*
X161144482Y-94894188D01*
X161020000Y-94881928D01*
X159020000Y-94881928D01*
X158895518Y-94894188D01*
X158775820Y-94930498D01*
X158665506Y-94989463D01*
X158568815Y-95068815D01*
X158489463Y-95165506D01*
X158430498Y-95275820D01*
X158394188Y-95395518D01*
X158381928Y-95520000D01*
X158381928Y-97520000D01*
X158394188Y-97644482D01*
X158430498Y-97764180D01*
X158489463Y-97874494D01*
X158568815Y-97971185D01*
X158665506Y-98050537D01*
X158769223Y-98105976D01*
X158620186Y-98159956D01*
X158479296Y-98449571D01*
X158397616Y-98761108D01*
X158378282Y-99082595D01*
X126794834Y-99082595D01*
X126772252Y-99060013D01*
X126504463Y-98881082D01*
X126206912Y-98757832D01*
X125891033Y-98695000D01*
X125568967Y-98695000D01*
X125253088Y-98757832D01*
X124955537Y-98881082D01*
X124687748Y-99060013D01*
X124460013Y-99287748D01*
X124281082Y-99555537D01*
X124157832Y-99853088D01*
X124095000Y-100168967D01*
X122909538Y-100168967D01*
X122975134Y-100115134D01*
X123160706Y-99889014D01*
X123298599Y-99631034D01*
X123383513Y-99351111D01*
X123412185Y-99060000D01*
X123383513Y-98768889D01*
X123298599Y-98488966D01*
X123160706Y-98230986D01*
X122975134Y-98004866D01*
X122749014Y-97819294D01*
X122694209Y-97790000D01*
X122749014Y-97760706D01*
X122975134Y-97575134D01*
X123160706Y-97349014D01*
X123298599Y-97091034D01*
X123383513Y-96811111D01*
X123412185Y-96520000D01*
X123383513Y-96228889D01*
X123298599Y-95948966D01*
X123160706Y-95690986D01*
X122975134Y-95464866D01*
X122749014Y-95279294D01*
X122694209Y-95250000D01*
X122749014Y-95220706D01*
X122975134Y-95035134D01*
X123160706Y-94809014D01*
X123298599Y-94551034D01*
X123383513Y-94271111D01*
X123412185Y-93980000D01*
X123383513Y-93688889D01*
X123298599Y-93408966D01*
X123160706Y-93150986D01*
X122975134Y-92924866D01*
X122749014Y-92739294D01*
X122694209Y-92710000D01*
X122749014Y-92680706D01*
X122975134Y-92495134D01*
X123102449Y-92340000D01*
X128001928Y-92340000D01*
X128014188Y-92464482D01*
X128050498Y-92584180D01*
X128109463Y-92694494D01*
X128188815Y-92791185D01*
X128285506Y-92870537D01*
X128395820Y-92929502D01*
X128414127Y-92935056D01*
X128347688Y-93001495D01*
X128179701Y-93252905D01*
X128063989Y-93532257D01*
X128005000Y-93828816D01*
X128005000Y-94131184D01*
X128063989Y-94427743D01*
X128179701Y-94707095D01*
X128347688Y-94958505D01*
X128561495Y-95172312D01*
X128764025Y-95307638D01*
X128738899Y-95321068D01*
X128520392Y-95500392D01*
X128341068Y-95718899D01*
X128207818Y-95968192D01*
X128125764Y-96238691D01*
X128098057Y-96520000D01*
X128125764Y-96801309D01*
X128207818Y-97071808D01*
X128341068Y-97321101D01*
X128520392Y-97539608D01*
X128738899Y-97718932D01*
X128988192Y-97852182D01*
X129258691Y-97934236D01*
X129469508Y-97955000D01*
X129610492Y-97955000D01*
X129821309Y-97934236D01*
X130091808Y-97852182D01*
X130341101Y-97718932D01*
X130559608Y-97539608D01*
X130738932Y-97321101D01*
X130872182Y-97071808D01*
X130954236Y-96801309D01*
X130981943Y-96520000D01*
X130954236Y-96238691D01*
X130872182Y-95968192D01*
X130738932Y-95718899D01*
X130559608Y-95500392D01*
X130341101Y-95321068D01*
X130315975Y-95307638D01*
X130518505Y-95172312D01*
X130732312Y-94958505D01*
X130900299Y-94707095D01*
X131016011Y-94427743D01*
X131075000Y-94131184D01*
X131075000Y-93828816D01*
X131016011Y-93532257D01*
X130900299Y-93252905D01*
X130732312Y-93001495D01*
X130665873Y-92935056D01*
X130684180Y-92929502D01*
X130794494Y-92870537D01*
X130891185Y-92791185D01*
X130970537Y-92694494D01*
X131029502Y-92584180D01*
X131065812Y-92464482D01*
X131078072Y-92340000D01*
X135621928Y-92340000D01*
X135634188Y-92464482D01*
X135670498Y-92584180D01*
X135729463Y-92694494D01*
X135808815Y-92791185D01*
X135905506Y-92870537D01*
X136015820Y-92929502D01*
X136034127Y-92935056D01*
X135967688Y-93001495D01*
X135799701Y-93252905D01*
X135683989Y-93532257D01*
X135625000Y-93828816D01*
X135625000Y-94131184D01*
X135683989Y-94427743D01*
X135799701Y-94707095D01*
X135967688Y-94958505D01*
X136181495Y-95172312D01*
X136384025Y-95307638D01*
X136358899Y-95321068D01*
X136140392Y-95500392D01*
X135961068Y-95718899D01*
X135827818Y-95968192D01*
X135745764Y-96238691D01*
X135718057Y-96520000D01*
X135745764Y-96801309D01*
X135827818Y-97071808D01*
X135961068Y-97321101D01*
X136140392Y-97539608D01*
X136358899Y-97718932D01*
X136608192Y-97852182D01*
X136878691Y-97934236D01*
X137089508Y-97955000D01*
X137230492Y-97955000D01*
X137441309Y-97934236D01*
X137711808Y-97852182D01*
X137961101Y-97718932D01*
X138179608Y-97539608D01*
X138358932Y-97321101D01*
X138492182Y-97071808D01*
X138574236Y-96801309D01*
X138601943Y-96520000D01*
X138574236Y-96238691D01*
X138492182Y-95968192D01*
X138358932Y-95718899D01*
X138179608Y-95500392D01*
X137961101Y-95321068D01*
X137935975Y-95307638D01*
X138138505Y-95172312D01*
X138352312Y-94958505D01*
X138520299Y-94707095D01*
X138636011Y-94427743D01*
X138695000Y-94131184D01*
X138695000Y-93828816D01*
X138636011Y-93532257D01*
X138520299Y-93252905D01*
X138352312Y-93001495D01*
X138285873Y-92935056D01*
X138304180Y-92929502D01*
X138414494Y-92870537D01*
X138511185Y-92791185D01*
X138590537Y-92694494D01*
X138649502Y-92584180D01*
X138685812Y-92464482D01*
X138698072Y-92340000D01*
X143241928Y-92340000D01*
X143254188Y-92464482D01*
X143290498Y-92584180D01*
X143349463Y-92694494D01*
X143428815Y-92791185D01*
X143525506Y-92870537D01*
X143635820Y-92929502D01*
X143654127Y-92935056D01*
X143587688Y-93001495D01*
X143419701Y-93252905D01*
X143303989Y-93532257D01*
X143245000Y-93828816D01*
X143245000Y-94131184D01*
X143303989Y-94427743D01*
X143419701Y-94707095D01*
X143587688Y-94958505D01*
X143801495Y-95172312D01*
X144004025Y-95307638D01*
X143978899Y-95321068D01*
X143760392Y-95500392D01*
X143581068Y-95718899D01*
X143447818Y-95968192D01*
X143365764Y-96238691D01*
X143338057Y-96520000D01*
X143365764Y-96801309D01*
X143447818Y-97071808D01*
X143581068Y-97321101D01*
X143760392Y-97539608D01*
X143978899Y-97718932D01*
X144228192Y-97852182D01*
X144498691Y-97934236D01*
X144709508Y-97955000D01*
X144850492Y-97955000D01*
X145061309Y-97934236D01*
X145331808Y-97852182D01*
X145581101Y-97718932D01*
X145799608Y-97539608D01*
X145978932Y-97321101D01*
X146112182Y-97071808D01*
X146194236Y-96801309D01*
X146221943Y-96520000D01*
X146194236Y-96238691D01*
X146112182Y-95968192D01*
X145978932Y-95718899D01*
X145799608Y-95500392D01*
X145581101Y-95321068D01*
X145555975Y-95307638D01*
X145758505Y-95172312D01*
X145972312Y-94958505D01*
X146140299Y-94707095D01*
X146256011Y-94427743D01*
X146315000Y-94131184D01*
X146315000Y-93828816D01*
X146256011Y-93532257D01*
X146140299Y-93252905D01*
X145972312Y-93001495D01*
X145905873Y-92935056D01*
X145924180Y-92929502D01*
X146034494Y-92870537D01*
X146131185Y-92791185D01*
X146210537Y-92694494D01*
X146269502Y-92584180D01*
X146305812Y-92464482D01*
X146318072Y-92340000D01*
X150861928Y-92340000D01*
X150874188Y-92464482D01*
X150910498Y-92584180D01*
X150969463Y-92694494D01*
X151048815Y-92791185D01*
X151145506Y-92870537D01*
X151255820Y-92929502D01*
X151274127Y-92935056D01*
X151207688Y-93001495D01*
X151039701Y-93252905D01*
X150923989Y-93532257D01*
X150865000Y-93828816D01*
X150865000Y-94131184D01*
X150923989Y-94427743D01*
X151039701Y-94707095D01*
X151207688Y-94958505D01*
X151421495Y-95172312D01*
X151624025Y-95307638D01*
X151598899Y-95321068D01*
X151380392Y-95500392D01*
X151201068Y-95718899D01*
X151067818Y-95968192D01*
X150985764Y-96238691D01*
X150958057Y-96520000D01*
X150985764Y-96801309D01*
X151067818Y-97071808D01*
X151201068Y-97321101D01*
X151380392Y-97539608D01*
X151598899Y-97718932D01*
X151848192Y-97852182D01*
X152118691Y-97934236D01*
X152329508Y-97955000D01*
X152470492Y-97955000D01*
X152681309Y-97934236D01*
X152951808Y-97852182D01*
X153201101Y-97718932D01*
X153419608Y-97539608D01*
X153598932Y-97321101D01*
X153732182Y-97071808D01*
X153814236Y-96801309D01*
X153841943Y-96520000D01*
X153814236Y-96238691D01*
X153732182Y-95968192D01*
X153598932Y-95718899D01*
X153419608Y-95500392D01*
X153201101Y-95321068D01*
X153175975Y-95307638D01*
X153378505Y-95172312D01*
X153592312Y-94958505D01*
X153760299Y-94707095D01*
X153876011Y-94427743D01*
X153935000Y-94131184D01*
X153935000Y-93828816D01*
X153876011Y-93532257D01*
X153760299Y-93252905D01*
X153738026Y-93219570D01*
X165485000Y-93219570D01*
X165485000Y-93620430D01*
X165563204Y-94013587D01*
X165716607Y-94383934D01*
X165939313Y-94717237D01*
X166222763Y-95000687D01*
X166556066Y-95223393D01*
X166926413Y-95376796D01*
X167319570Y-95455000D01*
X167720430Y-95455000D01*
X168113587Y-95376796D01*
X168483934Y-95223393D01*
X168817237Y-95000687D01*
X169100687Y-94717237D01*
X169323393Y-94383934D01*
X169476796Y-94013587D01*
X169555000Y-93620430D01*
X169555000Y-93219570D01*
X169476796Y-92826413D01*
X169323393Y-92456066D01*
X169100687Y-92122763D01*
X168817237Y-91839313D01*
X168483934Y-91616607D01*
X168113587Y-91463204D01*
X167720430Y-91385000D01*
X167319570Y-91385000D01*
X166926413Y-91463204D01*
X166556066Y-91616607D01*
X166222763Y-91839313D01*
X165939313Y-92122763D01*
X165716607Y-92456066D01*
X165563204Y-92826413D01*
X165485000Y-93219570D01*
X153738026Y-93219570D01*
X153592312Y-93001495D01*
X153525873Y-92935056D01*
X153544180Y-92929502D01*
X153654494Y-92870537D01*
X153751185Y-92791185D01*
X153830537Y-92694494D01*
X153889502Y-92584180D01*
X153925812Y-92464482D01*
X153938072Y-92340000D01*
X153935000Y-91725750D01*
X153776250Y-91567000D01*
X152527000Y-91567000D01*
X152527000Y-91587000D01*
X152273000Y-91587000D01*
X152273000Y-91567000D01*
X151023750Y-91567000D01*
X150865000Y-91725750D01*
X150861928Y-92340000D01*
X146318072Y-92340000D01*
X146315000Y-91725750D01*
X146156250Y-91567000D01*
X144907000Y-91567000D01*
X144907000Y-91587000D01*
X144653000Y-91587000D01*
X144653000Y-91567000D01*
X143403750Y-91567000D01*
X143245000Y-91725750D01*
X143241928Y-92340000D01*
X138698072Y-92340000D01*
X138695000Y-91725750D01*
X138536250Y-91567000D01*
X137287000Y-91567000D01*
X137287000Y-91587000D01*
X137033000Y-91587000D01*
X137033000Y-91567000D01*
X135783750Y-91567000D01*
X135625000Y-91725750D01*
X135621928Y-92340000D01*
X131078072Y-92340000D01*
X131075000Y-91725750D01*
X130916250Y-91567000D01*
X129667000Y-91567000D01*
X129667000Y-91587000D01*
X129413000Y-91587000D01*
X129413000Y-91567000D01*
X128163750Y-91567000D01*
X128005000Y-91725750D01*
X128001928Y-92340000D01*
X123102449Y-92340000D01*
X123160706Y-92269014D01*
X123298599Y-92011034D01*
X123383513Y-91731111D01*
X123412185Y-91440000D01*
X123383513Y-91148889D01*
X123298599Y-90868966D01*
X123160706Y-90610986D01*
X123102450Y-90540000D01*
X128001928Y-90540000D01*
X128005000Y-91154250D01*
X128163750Y-91313000D01*
X129413000Y-91313000D01*
X129413000Y-90063750D01*
X129667000Y-90063750D01*
X129667000Y-91313000D01*
X130916250Y-91313000D01*
X131075000Y-91154250D01*
X131078072Y-90540000D01*
X135621928Y-90540000D01*
X135625000Y-91154250D01*
X135783750Y-91313000D01*
X137033000Y-91313000D01*
X137033000Y-90063750D01*
X137287000Y-90063750D01*
X137287000Y-91313000D01*
X138536250Y-91313000D01*
X138695000Y-91154250D01*
X138698072Y-90540000D01*
X143241928Y-90540000D01*
X143245000Y-91154250D01*
X143403750Y-91313000D01*
X144653000Y-91313000D01*
X144653000Y-90063750D01*
X144907000Y-90063750D01*
X144907000Y-91313000D01*
X146156250Y-91313000D01*
X146315000Y-91154250D01*
X146318072Y-90540000D01*
X150861928Y-90540000D01*
X150865000Y-91154250D01*
X151023750Y-91313000D01*
X152273000Y-91313000D01*
X152273000Y-90063750D01*
X152527000Y-90063750D01*
X152527000Y-91313000D01*
X153776250Y-91313000D01*
X153935000Y-91154250D01*
X153938072Y-90540000D01*
X153925812Y-90415518D01*
X153889502Y-90295820D01*
X153830537Y-90185506D01*
X153751185Y-90088815D01*
X153654494Y-90009463D01*
X153544180Y-89950498D01*
X153424482Y-89914188D01*
X153300000Y-89901928D01*
X152685750Y-89905000D01*
X152527000Y-90063750D01*
X152273000Y-90063750D01*
X152114250Y-89905000D01*
X151500000Y-89901928D01*
X151375518Y-89914188D01*
X151255820Y-89950498D01*
X151145506Y-90009463D01*
X151048815Y-90088815D01*
X150969463Y-90185506D01*
X150910498Y-90295820D01*
X150874188Y-90415518D01*
X150861928Y-90540000D01*
X146318072Y-90540000D01*
X146305812Y-90415518D01*
X146269502Y-90295820D01*
X146210537Y-90185506D01*
X146131185Y-90088815D01*
X146034494Y-90009463D01*
X145924180Y-89950498D01*
X145804482Y-89914188D01*
X145680000Y-89901928D01*
X145065750Y-89905000D01*
X144907000Y-90063750D01*
X144653000Y-90063750D01*
X144494250Y-89905000D01*
X143880000Y-89901928D01*
X143755518Y-89914188D01*
X143635820Y-89950498D01*
X143525506Y-90009463D01*
X143428815Y-90088815D01*
X143349463Y-90185506D01*
X143290498Y-90295820D01*
X143254188Y-90415518D01*
X143241928Y-90540000D01*
X138698072Y-90540000D01*
X138685812Y-90415518D01*
X138649502Y-90295820D01*
X138590537Y-90185506D01*
X138511185Y-90088815D01*
X138414494Y-90009463D01*
X138304180Y-89950498D01*
X138184482Y-89914188D01*
X138060000Y-89901928D01*
X137445750Y-89905000D01*
X137287000Y-90063750D01*
X137033000Y-90063750D01*
X136874250Y-89905000D01*
X136260000Y-89901928D01*
X136135518Y-89914188D01*
X136015820Y-89950498D01*
X135905506Y-90009463D01*
X135808815Y-90088815D01*
X135729463Y-90185506D01*
X135670498Y-90295820D01*
X135634188Y-90415518D01*
X135621928Y-90540000D01*
X131078072Y-90540000D01*
X131065812Y-90415518D01*
X131029502Y-90295820D01*
X130970537Y-90185506D01*
X130891185Y-90088815D01*
X130794494Y-90009463D01*
X130684180Y-89950498D01*
X130564482Y-89914188D01*
X130440000Y-89901928D01*
X129825750Y-89905000D01*
X129667000Y-90063750D01*
X129413000Y-90063750D01*
X129254250Y-89905000D01*
X128640000Y-89901928D01*
X128515518Y-89914188D01*
X128395820Y-89950498D01*
X128285506Y-90009463D01*
X128188815Y-90088815D01*
X128109463Y-90185506D01*
X128050498Y-90295820D01*
X128014188Y-90415518D01*
X128001928Y-90540000D01*
X123102450Y-90540000D01*
X122975134Y-90384866D01*
X122749014Y-90199294D01*
X122694209Y-90170000D01*
X122749014Y-90140706D01*
X122975134Y-89955134D01*
X123160706Y-89729014D01*
X123298599Y-89471034D01*
X123383513Y-89191111D01*
X123412185Y-88900000D01*
X123383513Y-88608889D01*
X123298599Y-88328966D01*
X123160706Y-88070986D01*
X122975134Y-87844866D01*
X122749014Y-87659294D01*
X122684477Y-87624799D01*
X122801355Y-87555178D01*
X123017588Y-87360269D01*
X123023232Y-87352702D01*
X131266903Y-87352702D01*
X131338486Y-87596671D01*
X131593996Y-87717571D01*
X131868184Y-87786300D01*
X132150512Y-87800217D01*
X132430130Y-87758787D01*
X132696292Y-87663603D01*
X132821514Y-87596671D01*
X132893097Y-87352702D01*
X132080000Y-86539605D01*
X131266903Y-87352702D01*
X123023232Y-87352702D01*
X123191641Y-87126920D01*
X123316825Y-86864099D01*
X123361476Y-86716890D01*
X123240155Y-86487000D01*
X122047000Y-86487000D01*
X122047000Y-86507000D01*
X121793000Y-86507000D01*
X121793000Y-86487000D01*
X121773000Y-86487000D01*
X121773000Y-86430512D01*
X130639783Y-86430512D01*
X130681213Y-86710130D01*
X130776397Y-86976292D01*
X130843329Y-87101514D01*
X131087298Y-87173097D01*
X131900395Y-86360000D01*
X132259605Y-86360000D01*
X133072702Y-87173097D01*
X133316671Y-87101514D01*
X133330324Y-87072659D01*
X133465363Y-87274759D01*
X133665241Y-87474637D01*
X133900273Y-87631680D01*
X134161426Y-87739853D01*
X134438665Y-87795000D01*
X134721335Y-87795000D01*
X134998574Y-87739853D01*
X135259727Y-87631680D01*
X135494759Y-87474637D01*
X135694637Y-87274759D01*
X135851680Y-87039727D01*
X135959853Y-86778574D01*
X136015000Y-86501335D01*
X136015000Y-86218665D01*
X136011082Y-86198967D01*
X136795000Y-86198967D01*
X136795000Y-86521033D01*
X136857832Y-86836912D01*
X136981082Y-87134463D01*
X137160013Y-87402252D01*
X137387748Y-87629987D01*
X137655537Y-87808918D01*
X137953088Y-87932168D01*
X138268967Y-87995000D01*
X138591033Y-87995000D01*
X138906912Y-87932168D01*
X139204463Y-87808918D01*
X139472252Y-87629987D01*
X139699987Y-87402252D01*
X139878918Y-87134463D01*
X140002168Y-86836912D01*
X140065000Y-86521033D01*
X140065000Y-86360000D01*
X140798057Y-86360000D01*
X140825764Y-86641309D01*
X140907818Y-86911808D01*
X141041068Y-87161101D01*
X141220392Y-87379608D01*
X141438899Y-87558932D01*
X141688192Y-87692182D01*
X141958691Y-87774236D01*
X142169508Y-87795000D01*
X142310492Y-87795000D01*
X142521309Y-87774236D01*
X142791808Y-87692182D01*
X143041101Y-87558932D01*
X143259608Y-87379608D01*
X143438932Y-87161101D01*
X143572182Y-86911808D01*
X143654236Y-86641309D01*
X143681943Y-86360000D01*
X143668023Y-86218665D01*
X150965000Y-86218665D01*
X150965000Y-86501335D01*
X151020147Y-86778574D01*
X151128320Y-87039727D01*
X151285363Y-87274759D01*
X151485241Y-87474637D01*
X151720273Y-87631680D01*
X151981426Y-87739853D01*
X152258665Y-87795000D01*
X152541335Y-87795000D01*
X152818574Y-87739853D01*
X153079727Y-87631680D01*
X153314759Y-87474637D01*
X153514637Y-87274759D01*
X153671680Y-87039727D01*
X153673650Y-87034971D01*
X153741068Y-87161101D01*
X153920392Y-87379608D01*
X154138899Y-87558932D01*
X154388192Y-87692182D01*
X154658691Y-87774236D01*
X154869508Y-87795000D01*
X155010492Y-87795000D01*
X155221309Y-87774236D01*
X155491808Y-87692182D01*
X155741101Y-87558932D01*
X155959608Y-87379608D01*
X156138932Y-87161101D01*
X156272182Y-86911808D01*
X156354236Y-86641309D01*
X156381943Y-86360000D01*
X156368023Y-86218665D01*
X163665000Y-86218665D01*
X163665000Y-86501335D01*
X163720147Y-86778574D01*
X163828320Y-87039727D01*
X163985363Y-87274759D01*
X164185241Y-87474637D01*
X164420273Y-87631680D01*
X164681426Y-87739853D01*
X164958665Y-87795000D01*
X165241335Y-87795000D01*
X165518574Y-87739853D01*
X165779727Y-87631680D01*
X166014759Y-87474637D01*
X166214637Y-87274759D01*
X166371680Y-87039727D01*
X166479853Y-86778574D01*
X166535000Y-86501335D01*
X166535000Y-86360000D01*
X171278057Y-86360000D01*
X171305764Y-86641309D01*
X171387818Y-86911808D01*
X171521068Y-87161101D01*
X171700392Y-87379608D01*
X171918899Y-87558932D01*
X172168192Y-87692182D01*
X172438691Y-87774236D01*
X172649508Y-87795000D01*
X172790492Y-87795000D01*
X173001309Y-87774236D01*
X173271808Y-87692182D01*
X173521101Y-87558932D01*
X173739608Y-87379608D01*
X173918932Y-87161101D01*
X174052182Y-86911808D01*
X174134236Y-86641309D01*
X174161943Y-86360000D01*
X174134236Y-86078691D01*
X174052182Y-85808192D01*
X173918932Y-85558899D01*
X173739608Y-85340392D01*
X173521101Y-85161068D01*
X173271808Y-85027818D01*
X173001309Y-84945764D01*
X172790492Y-84925000D01*
X172649508Y-84925000D01*
X172438691Y-84945764D01*
X172168192Y-85027818D01*
X171918899Y-85161068D01*
X171700392Y-85340392D01*
X171521068Y-85558899D01*
X171387818Y-85808192D01*
X171305764Y-86078691D01*
X171278057Y-86360000D01*
X166535000Y-86360000D01*
X166535000Y-86218665D01*
X166479853Y-85941426D01*
X166371680Y-85680273D01*
X166214637Y-85445241D01*
X166014759Y-85245363D01*
X165779727Y-85088320D01*
X165518574Y-84980147D01*
X165241335Y-84925000D01*
X164958665Y-84925000D01*
X164681426Y-84980147D01*
X164420273Y-85088320D01*
X164185241Y-85245363D01*
X163985363Y-85445241D01*
X163828320Y-85680273D01*
X163720147Y-85941426D01*
X163665000Y-86218665D01*
X156368023Y-86218665D01*
X156354236Y-86078691D01*
X156272182Y-85808192D01*
X156138932Y-85558899D01*
X155959608Y-85340392D01*
X155741101Y-85161068D01*
X155491808Y-85027818D01*
X155221309Y-84945764D01*
X155010492Y-84925000D01*
X154869508Y-84925000D01*
X154658691Y-84945764D01*
X154388192Y-85027818D01*
X154138899Y-85161068D01*
X153920392Y-85340392D01*
X153741068Y-85558899D01*
X153673650Y-85685029D01*
X153671680Y-85680273D01*
X153514637Y-85445241D01*
X153314759Y-85245363D01*
X153079727Y-85088320D01*
X152818574Y-84980147D01*
X152541335Y-84925000D01*
X152258665Y-84925000D01*
X151981426Y-84980147D01*
X151720273Y-85088320D01*
X151485241Y-85245363D01*
X151285363Y-85445241D01*
X151128320Y-85680273D01*
X151020147Y-85941426D01*
X150965000Y-86218665D01*
X143668023Y-86218665D01*
X143654236Y-86078691D01*
X143572182Y-85808192D01*
X143438932Y-85558899D01*
X143259608Y-85340392D01*
X143041101Y-85161068D01*
X142791808Y-85027818D01*
X142521309Y-84945764D01*
X142310492Y-84925000D01*
X142169508Y-84925000D01*
X141958691Y-84945764D01*
X141688192Y-85027818D01*
X141438899Y-85161068D01*
X141220392Y-85340392D01*
X141041068Y-85558899D01*
X140907818Y-85808192D01*
X140825764Y-86078691D01*
X140798057Y-86360000D01*
X140065000Y-86360000D01*
X140065000Y-86198967D01*
X140002168Y-85883088D01*
X139878918Y-85585537D01*
X139699987Y-85317748D01*
X139472252Y-85090013D01*
X139204463Y-84911082D01*
X138906912Y-84787832D01*
X138591033Y-84725000D01*
X138268967Y-84725000D01*
X137953088Y-84787832D01*
X137655537Y-84911082D01*
X137387748Y-85090013D01*
X137160013Y-85317748D01*
X136981082Y-85585537D01*
X136857832Y-85883088D01*
X136795000Y-86198967D01*
X136011082Y-86198967D01*
X135959853Y-85941426D01*
X135851680Y-85680273D01*
X135694637Y-85445241D01*
X135494759Y-85245363D01*
X135259727Y-85088320D01*
X134998574Y-84980147D01*
X134721335Y-84925000D01*
X134438665Y-84925000D01*
X134161426Y-84980147D01*
X133900273Y-85088320D01*
X133665241Y-85245363D01*
X133465363Y-85445241D01*
X133331308Y-85645869D01*
X133316671Y-85618486D01*
X133072702Y-85546903D01*
X132259605Y-86360000D01*
X131900395Y-86360000D01*
X131087298Y-85546903D01*
X130843329Y-85618486D01*
X130722429Y-85873996D01*
X130653700Y-86148184D01*
X130639783Y-86430512D01*
X121773000Y-86430512D01*
X121773000Y-86233000D01*
X121793000Y-86233000D01*
X121793000Y-83947000D01*
X122047000Y-83947000D01*
X122047000Y-86233000D01*
X123240155Y-86233000D01*
X123361476Y-86003110D01*
X123316825Y-85855901D01*
X123191641Y-85593080D01*
X123023233Y-85367298D01*
X131266903Y-85367298D01*
X132080000Y-86180395D01*
X132893097Y-85367298D01*
X132821514Y-85123329D01*
X132566004Y-85002429D01*
X132291816Y-84933700D01*
X132009488Y-84919783D01*
X131729870Y-84961213D01*
X131463708Y-85056397D01*
X131338486Y-85123329D01*
X131266903Y-85367298D01*
X123023233Y-85367298D01*
X123017588Y-85359731D01*
X122801355Y-85164822D01*
X122675745Y-85090000D01*
X122801355Y-85015178D01*
X123017588Y-84820269D01*
X123191641Y-84586920D01*
X123316825Y-84324099D01*
X123361476Y-84176890D01*
X123240155Y-83947000D01*
X122047000Y-83947000D01*
X121793000Y-83947000D01*
X119507000Y-83947000D01*
X119507000Y-83967000D01*
X119253000Y-83967000D01*
X119253000Y-83947000D01*
X118059845Y-83947000D01*
X117938524Y-84176890D01*
X117983175Y-84324099D01*
X118108359Y-84586920D01*
X118282412Y-84820269D01*
X118498645Y-85015178D01*
X118615523Y-85084799D01*
X118550986Y-85119294D01*
X118324866Y-85304866D01*
X118139294Y-85530986D01*
X118001401Y-85788966D01*
X117916487Y-86068889D01*
X117887815Y-86360000D01*
X116332000Y-86360000D01*
X116332000Y-63500000D01*
X117887815Y-63500000D01*
X117916487Y-63791111D01*
X118001401Y-64071034D01*
X118139294Y-64329014D01*
X118324866Y-64555134D01*
X118550986Y-64740706D01*
X118605791Y-64770000D01*
X118550986Y-64799294D01*
X118324866Y-64984866D01*
X118139294Y-65210986D01*
X118001401Y-65468966D01*
X117916487Y-65748889D01*
X117887815Y-66040000D01*
X117916487Y-66331111D01*
X118001401Y-66611034D01*
X118139294Y-66869014D01*
X118324866Y-67095134D01*
X118550986Y-67280706D01*
X118605791Y-67310000D01*
X118550986Y-67339294D01*
X118324866Y-67524866D01*
X118139294Y-67750986D01*
X118001401Y-68008966D01*
X117916487Y-68288889D01*
X117887815Y-68580000D01*
X117916487Y-68871111D01*
X118001401Y-69151034D01*
X118139294Y-69409014D01*
X118324866Y-69635134D01*
X118550986Y-69820706D01*
X118605791Y-69850000D01*
X118550986Y-69879294D01*
X118324866Y-70064866D01*
X118139294Y-70290986D01*
X118001401Y-70548966D01*
X117916487Y-70828889D01*
X117887815Y-71120000D01*
X117916487Y-71411111D01*
X118001401Y-71691034D01*
X118139294Y-71949014D01*
X118324866Y-72175134D01*
X118550986Y-72360706D01*
X118605791Y-72390000D01*
X118550986Y-72419294D01*
X118324866Y-72604866D01*
X118139294Y-72830986D01*
X118001401Y-73088966D01*
X117916487Y-73368889D01*
X117887815Y-73660000D01*
X117916487Y-73951111D01*
X118001401Y-74231034D01*
X118139294Y-74489014D01*
X118324866Y-74715134D01*
X118550986Y-74900706D01*
X118605791Y-74930000D01*
X118550986Y-74959294D01*
X118324866Y-75144866D01*
X118139294Y-75370986D01*
X118001401Y-75628966D01*
X117916487Y-75908889D01*
X117887815Y-76200000D01*
X117916487Y-76491111D01*
X118001401Y-76771034D01*
X118139294Y-77029014D01*
X118324866Y-77255134D01*
X118550986Y-77440706D01*
X118605791Y-77470000D01*
X118550986Y-77499294D01*
X118324866Y-77684866D01*
X118139294Y-77910986D01*
X118001401Y-78168966D01*
X117916487Y-78448889D01*
X117887815Y-78740000D01*
X117916487Y-79031111D01*
X118001401Y-79311034D01*
X118139294Y-79569014D01*
X118324866Y-79795134D01*
X118550986Y-79980706D01*
X118605791Y-80010000D01*
X118550986Y-80039294D01*
X118324866Y-80224866D01*
X118139294Y-80450986D01*
X118001401Y-80708966D01*
X117916487Y-80988889D01*
X117887815Y-81280000D01*
X117916487Y-81571111D01*
X118001401Y-81851034D01*
X118139294Y-82109014D01*
X118324866Y-82335134D01*
X118550986Y-82520706D01*
X118615523Y-82555201D01*
X118498645Y-82624822D01*
X118282412Y-82819731D01*
X118108359Y-83053080D01*
X117983175Y-83315901D01*
X117938524Y-83463110D01*
X118059845Y-83693000D01*
X119253000Y-83693000D01*
X119253000Y-83673000D01*
X119507000Y-83673000D01*
X119507000Y-83693000D01*
X121793000Y-83693000D01*
X121793000Y-83673000D01*
X122047000Y-83673000D01*
X122047000Y-83693000D01*
X123240155Y-83693000D01*
X123361476Y-83463110D01*
X123316825Y-83315901D01*
X123191641Y-83053080D01*
X123017588Y-82819731D01*
X122801355Y-82624822D01*
X122684477Y-82555201D01*
X122749014Y-82520706D01*
X122975134Y-82335134D01*
X123026370Y-82272702D01*
X131306903Y-82272702D01*
X131378486Y-82516671D01*
X131633996Y-82637571D01*
X131908184Y-82706300D01*
X132190512Y-82720217D01*
X132470130Y-82678787D01*
X132736292Y-82583603D01*
X132861514Y-82516671D01*
X132933097Y-82272702D01*
X132120000Y-81459605D01*
X131306903Y-82272702D01*
X123026370Y-82272702D01*
X123160706Y-82109014D01*
X123298599Y-81851034D01*
X123383513Y-81571111D01*
X123405240Y-81350512D01*
X130679783Y-81350512D01*
X130721213Y-81630130D01*
X130816397Y-81896292D01*
X130883329Y-82021514D01*
X131127298Y-82093097D01*
X131940395Y-81280000D01*
X132299605Y-81280000D01*
X133112702Y-82093097D01*
X133356671Y-82021514D01*
X133370324Y-81992659D01*
X133505363Y-82194759D01*
X133705241Y-82394637D01*
X133940273Y-82551680D01*
X134201426Y-82659853D01*
X134478665Y-82715000D01*
X134761335Y-82715000D01*
X135038574Y-82659853D01*
X135299727Y-82551680D01*
X135534759Y-82394637D01*
X135734637Y-82194759D01*
X135891680Y-81959727D01*
X135999853Y-81698574D01*
X136055000Y-81421335D01*
X136055000Y-81138665D01*
X136051082Y-81118967D01*
X136795000Y-81118967D01*
X136795000Y-81441033D01*
X136857832Y-81756912D01*
X136981082Y-82054463D01*
X137160013Y-82322252D01*
X137387748Y-82549987D01*
X137655537Y-82728918D01*
X137953088Y-82852168D01*
X138268967Y-82915000D01*
X138591033Y-82915000D01*
X138906912Y-82852168D01*
X139204463Y-82728918D01*
X139472252Y-82549987D01*
X139699987Y-82322252D01*
X139878918Y-82054463D01*
X140002168Y-81756912D01*
X140065000Y-81441033D01*
X140065000Y-81280000D01*
X140798057Y-81280000D01*
X140825764Y-81561309D01*
X140907818Y-81831808D01*
X141041068Y-82081101D01*
X141220392Y-82299608D01*
X141438899Y-82478932D01*
X141688192Y-82612182D01*
X141958691Y-82694236D01*
X142169508Y-82715000D01*
X142310492Y-82715000D01*
X142521309Y-82694236D01*
X142791808Y-82612182D01*
X143041101Y-82478932D01*
X143259608Y-82299608D01*
X143438932Y-82081101D01*
X143572182Y-81831808D01*
X143654236Y-81561309D01*
X143681943Y-81280000D01*
X143668023Y-81138665D01*
X150965000Y-81138665D01*
X150965000Y-81421335D01*
X151020147Y-81698574D01*
X151128320Y-81959727D01*
X151285363Y-82194759D01*
X151485241Y-82394637D01*
X151720273Y-82551680D01*
X151981426Y-82659853D01*
X152258665Y-82715000D01*
X152541335Y-82715000D01*
X152818574Y-82659853D01*
X153079727Y-82551680D01*
X153314759Y-82394637D01*
X153514637Y-82194759D01*
X153671680Y-81959727D01*
X153673650Y-81954971D01*
X153741068Y-82081101D01*
X153920392Y-82299608D01*
X154138899Y-82478932D01*
X154388192Y-82612182D01*
X154658691Y-82694236D01*
X154869508Y-82715000D01*
X155010492Y-82715000D01*
X155221309Y-82694236D01*
X155491808Y-82612182D01*
X155741101Y-82478932D01*
X155959608Y-82299608D01*
X156138932Y-82081101D01*
X156272182Y-81831808D01*
X156354236Y-81561309D01*
X156381943Y-81280000D01*
X156368023Y-81138665D01*
X163665000Y-81138665D01*
X163665000Y-81421335D01*
X163720147Y-81698574D01*
X163828320Y-81959727D01*
X163985363Y-82194759D01*
X164185241Y-82394637D01*
X164420273Y-82551680D01*
X164681426Y-82659853D01*
X164958665Y-82715000D01*
X165241335Y-82715000D01*
X165518574Y-82659853D01*
X165779727Y-82551680D01*
X166014759Y-82394637D01*
X166214637Y-82194759D01*
X166371680Y-81959727D01*
X166479853Y-81698574D01*
X166535000Y-81421335D01*
X166535000Y-81138665D01*
X166515135Y-81038800D01*
X168659489Y-81038800D01*
X168703426Y-81082737D01*
X168872944Y-81196005D01*
X169061302Y-81274026D01*
X169261261Y-81313800D01*
X169465139Y-81313800D01*
X169665098Y-81274026D01*
X169853456Y-81196005D01*
X170022974Y-81082737D01*
X170167137Y-80938574D01*
X170280405Y-80769056D01*
X170358426Y-80580698D01*
X170398200Y-80380739D01*
X170398200Y-80176861D01*
X170358426Y-79976902D01*
X170280405Y-79788544D01*
X170167137Y-79619026D01*
X170022974Y-79474863D01*
X169853456Y-79361595D01*
X169665098Y-79283574D01*
X169465139Y-79243800D01*
X169261261Y-79243800D01*
X169061302Y-79283574D01*
X168872944Y-79361595D01*
X168703426Y-79474863D01*
X168659489Y-79518800D01*
X166138533Y-79518800D01*
X166101200Y-79515123D01*
X166063867Y-79518800D01*
X165952214Y-79529797D01*
X165808953Y-79573254D01*
X165676924Y-79643826D01*
X165561199Y-79738799D01*
X165537401Y-79767797D01*
X165423886Y-79881312D01*
X165241335Y-79845000D01*
X164958665Y-79845000D01*
X164681426Y-79900147D01*
X164420273Y-80008320D01*
X164185241Y-80165363D01*
X163985363Y-80365241D01*
X163828320Y-80600273D01*
X163720147Y-80861426D01*
X163665000Y-81138665D01*
X156368023Y-81138665D01*
X156354236Y-80998691D01*
X156272182Y-80728192D01*
X156138932Y-80478899D01*
X155959608Y-80260392D01*
X155741101Y-80081068D01*
X155491808Y-79947818D01*
X155221309Y-79865764D01*
X155010492Y-79845000D01*
X154869508Y-79845000D01*
X154658691Y-79865764D01*
X154388192Y-79947818D01*
X154138899Y-80081068D01*
X153920392Y-80260392D01*
X153741068Y-80478899D01*
X153673650Y-80605029D01*
X153671680Y-80600273D01*
X153514637Y-80365241D01*
X153314759Y-80165363D01*
X153079727Y-80008320D01*
X152818574Y-79900147D01*
X152541335Y-79845000D01*
X152258665Y-79845000D01*
X151981426Y-79900147D01*
X151720273Y-80008320D01*
X151485241Y-80165363D01*
X151285363Y-80365241D01*
X151128320Y-80600273D01*
X151020147Y-80861426D01*
X150965000Y-81138665D01*
X143668023Y-81138665D01*
X143654236Y-80998691D01*
X143572182Y-80728192D01*
X143438932Y-80478899D01*
X143259608Y-80260392D01*
X143041101Y-80081068D01*
X142791808Y-79947818D01*
X142521309Y-79865764D01*
X142310492Y-79845000D01*
X142169508Y-79845000D01*
X141958691Y-79865764D01*
X141688192Y-79947818D01*
X141438899Y-80081068D01*
X141220392Y-80260392D01*
X141041068Y-80478899D01*
X140907818Y-80728192D01*
X140825764Y-80998691D01*
X140798057Y-81280000D01*
X140065000Y-81280000D01*
X140065000Y-81118967D01*
X140002168Y-80803088D01*
X139878918Y-80505537D01*
X139699987Y-80237748D01*
X139472252Y-80010013D01*
X139204463Y-79831082D01*
X138906912Y-79707832D01*
X138591033Y-79645000D01*
X138268967Y-79645000D01*
X137953088Y-79707832D01*
X137655537Y-79831082D01*
X137387748Y-80010013D01*
X137160013Y-80237748D01*
X136981082Y-80505537D01*
X136857832Y-80803088D01*
X136795000Y-81118967D01*
X136051082Y-81118967D01*
X135999853Y-80861426D01*
X135891680Y-80600273D01*
X135734637Y-80365241D01*
X135534759Y-80165363D01*
X135299727Y-80008320D01*
X135038574Y-79900147D01*
X134761335Y-79845000D01*
X134478665Y-79845000D01*
X134201426Y-79900147D01*
X133940273Y-80008320D01*
X133705241Y-80165363D01*
X133505363Y-80365241D01*
X133371308Y-80565869D01*
X133356671Y-80538486D01*
X133112702Y-80466903D01*
X132299605Y-81280000D01*
X131940395Y-81280000D01*
X131127298Y-80466903D01*
X130883329Y-80538486D01*
X130762429Y-80793996D01*
X130693700Y-81068184D01*
X130679783Y-81350512D01*
X123405240Y-81350512D01*
X123412185Y-81280000D01*
X123383513Y-80988889D01*
X123298599Y-80708966D01*
X123160706Y-80450986D01*
X123026371Y-80287298D01*
X131306903Y-80287298D01*
X132120000Y-81100395D01*
X132933097Y-80287298D01*
X132861514Y-80043329D01*
X132606004Y-79922429D01*
X132331816Y-79853700D01*
X132049488Y-79839783D01*
X131769870Y-79881213D01*
X131503708Y-79976397D01*
X131378486Y-80043329D01*
X131306903Y-80287298D01*
X123026371Y-80287298D01*
X122975134Y-80224866D01*
X122749014Y-80039294D01*
X122694209Y-80010000D01*
X122749014Y-79980706D01*
X122975134Y-79795134D01*
X123160706Y-79569014D01*
X123298599Y-79311034D01*
X123383513Y-79031111D01*
X123412185Y-78740000D01*
X123383513Y-78448889D01*
X123298599Y-78168966D01*
X123160706Y-77910986D01*
X122975134Y-77684866D01*
X122749014Y-77499294D01*
X122694209Y-77470000D01*
X122749014Y-77440706D01*
X122975134Y-77255134D01*
X123160706Y-77029014D01*
X123298599Y-76771034D01*
X123383513Y-76491111D01*
X123412185Y-76200000D01*
X123398265Y-76058665D01*
X140805000Y-76058665D01*
X140805000Y-76341335D01*
X140860147Y-76618574D01*
X140968320Y-76879727D01*
X141125363Y-77114759D01*
X141325241Y-77314637D01*
X141560273Y-77471680D01*
X141821426Y-77579853D01*
X142098665Y-77635000D01*
X142381335Y-77635000D01*
X142658574Y-77579853D01*
X142919727Y-77471680D01*
X143154759Y-77314637D01*
X143354637Y-77114759D01*
X143511680Y-76879727D01*
X143619853Y-76618574D01*
X143675000Y-76341335D01*
X143675000Y-76200000D01*
X150958057Y-76200000D01*
X150985764Y-76481309D01*
X151067818Y-76751808D01*
X151201068Y-77001101D01*
X151380392Y-77219608D01*
X151598899Y-77398932D01*
X151848192Y-77532182D01*
X152118691Y-77614236D01*
X152329508Y-77635000D01*
X152470492Y-77635000D01*
X152681309Y-77614236D01*
X152951808Y-77532182D01*
X153201101Y-77398932D01*
X153419608Y-77219608D01*
X153598932Y-77001101D01*
X153666350Y-76874971D01*
X153668320Y-76879727D01*
X153825363Y-77114759D01*
X154025241Y-77314637D01*
X154260273Y-77471680D01*
X154521426Y-77579853D01*
X154798665Y-77635000D01*
X155081335Y-77635000D01*
X155358574Y-77579853D01*
X155619727Y-77471680D01*
X155854759Y-77314637D01*
X156054637Y-77114759D01*
X156211680Y-76879727D01*
X156319853Y-76618574D01*
X156375000Y-76341335D01*
X156375000Y-76200000D01*
X163658057Y-76200000D01*
X163685764Y-76481309D01*
X163767818Y-76751808D01*
X163901068Y-77001101D01*
X164080392Y-77219608D01*
X164298899Y-77398932D01*
X164548192Y-77532182D01*
X164818691Y-77614236D01*
X165029508Y-77635000D01*
X165170492Y-77635000D01*
X165381309Y-77614236D01*
X165651808Y-77532182D01*
X165901101Y-77398932D01*
X166119608Y-77219608D01*
X166298932Y-77001101D01*
X166432182Y-76751808D01*
X166514236Y-76481309D01*
X166541943Y-76200000D01*
X166514236Y-75918691D01*
X166432182Y-75648192D01*
X166298932Y-75398899D01*
X166119608Y-75180392D01*
X165901101Y-75001068D01*
X165860000Y-74979099D01*
X165860000Y-71677408D01*
X168843000Y-71677408D01*
X168843000Y-71952592D01*
X168896686Y-72222490D01*
X169001995Y-72476727D01*
X169154880Y-72705535D01*
X169349465Y-72900120D01*
X169578273Y-73053005D01*
X169832510Y-73158314D01*
X170102408Y-73212000D01*
X170377592Y-73212000D01*
X170531570Y-73181372D01*
X171960000Y-74609802D01*
X171960000Y-74981956D01*
X171805241Y-75085363D01*
X171605363Y-75285241D01*
X171448320Y-75520273D01*
X171340147Y-75781426D01*
X171285000Y-76058665D01*
X171285000Y-76341335D01*
X171340147Y-76618574D01*
X171448320Y-76879727D01*
X171605363Y-77114759D01*
X171805241Y-77314637D01*
X172040273Y-77471680D01*
X172301426Y-77579853D01*
X172578665Y-77635000D01*
X172861335Y-77635000D01*
X173138574Y-77579853D01*
X173399727Y-77471680D01*
X173634759Y-77314637D01*
X173834637Y-77114759D01*
X173991680Y-76879727D01*
X174099853Y-76618574D01*
X174155000Y-76341335D01*
X174155000Y-76058665D01*
X174099853Y-75781426D01*
X173991680Y-75520273D01*
X173834637Y-75285241D01*
X173634759Y-75085363D01*
X173480000Y-74981957D01*
X173480000Y-74332325D01*
X173483676Y-74295000D01*
X173480000Y-74257675D01*
X173480000Y-74257667D01*
X173469003Y-74146014D01*
X173425546Y-74002753D01*
X173354974Y-73870724D01*
X173260001Y-73754999D01*
X173231004Y-73731202D01*
X172363769Y-72863967D01*
X173625000Y-72863967D01*
X173625000Y-73186033D01*
X173687832Y-73501912D01*
X173811082Y-73799463D01*
X173990013Y-74067252D01*
X174217748Y-74294987D01*
X174485537Y-74473918D01*
X174783088Y-74597168D01*
X175098967Y-74660000D01*
X175421033Y-74660000D01*
X175736912Y-74597168D01*
X176034463Y-74473918D01*
X176302252Y-74294987D01*
X176529987Y-74067252D01*
X176708918Y-73799463D01*
X176832168Y-73501912D01*
X176895000Y-73186033D01*
X176895000Y-72863967D01*
X176832168Y-72548088D01*
X176708918Y-72250537D01*
X176529987Y-71982748D01*
X176302252Y-71755013D01*
X176034463Y-71576082D01*
X175736912Y-71452832D01*
X175421033Y-71390000D01*
X175098967Y-71390000D01*
X174783088Y-71452832D01*
X174485537Y-71576082D01*
X174217748Y-71755013D01*
X173990013Y-71982748D01*
X173811082Y-72250537D01*
X173687832Y-72548088D01*
X173625000Y-72863967D01*
X172363769Y-72863967D01*
X171606372Y-72106570D01*
X171637000Y-71952592D01*
X171637000Y-71677408D01*
X171583314Y-71407510D01*
X171478005Y-71153273D01*
X171325120Y-70924465D01*
X171130535Y-70729880D01*
X170901727Y-70576995D01*
X170830057Y-70547308D01*
X170843023Y-70542636D01*
X170958980Y-70480656D01*
X171025960Y-70240565D01*
X170240000Y-69454605D01*
X169454040Y-70240565D01*
X169521020Y-70480656D01*
X169656760Y-70544485D01*
X169578273Y-70576995D01*
X169349465Y-70729880D01*
X169154880Y-70924465D01*
X169001995Y-71153273D01*
X168896686Y-71407510D01*
X168843000Y-71677408D01*
X165860000Y-71677408D01*
X165860000Y-71488501D01*
X168369202Y-68979300D01*
X168431339Y-68979300D01*
X168631298Y-68939526D01*
X168819656Y-68861505D01*
X168923243Y-68792291D01*
X168917244Y-68805048D01*
X168850977Y-69072135D01*
X168838090Y-69347017D01*
X168879078Y-69619133D01*
X168972364Y-69878023D01*
X169034344Y-69993980D01*
X169274435Y-70060960D01*
X170060395Y-69275000D01*
X170419605Y-69275000D01*
X171205565Y-70060960D01*
X171445656Y-69993980D01*
X171562756Y-69744952D01*
X171629023Y-69477865D01*
X171641910Y-69202983D01*
X171600922Y-68930867D01*
X171507636Y-68671977D01*
X171445656Y-68556020D01*
X171205565Y-68489040D01*
X170419605Y-69275000D01*
X170060395Y-69275000D01*
X170046253Y-69260858D01*
X170225858Y-69081253D01*
X170240000Y-69095395D01*
X171025960Y-68309435D01*
X170958980Y-68069344D01*
X170709952Y-67952244D01*
X170442865Y-67885977D01*
X170167983Y-67873090D01*
X169895867Y-67914078D01*
X169636977Y-68007364D01*
X169521020Y-68069344D01*
X169454041Y-68309433D01*
X169337631Y-68193023D01*
X169334600Y-68196054D01*
X169364400Y-68046239D01*
X169364400Y-67842361D01*
X169324626Y-67642402D01*
X169246605Y-67454044D01*
X169133337Y-67284526D01*
X168989174Y-67140363D01*
X168819656Y-67027095D01*
X168631298Y-66949074D01*
X168431339Y-66909300D01*
X168227461Y-66909300D01*
X168027502Y-66949074D01*
X167839144Y-67027095D01*
X167669626Y-67140363D01*
X167525463Y-67284526D01*
X167412195Y-67454044D01*
X167334174Y-67642402D01*
X167294400Y-67842361D01*
X167294400Y-67904498D01*
X164588998Y-70609901D01*
X164560000Y-70633699D01*
X164536202Y-70662697D01*
X164536201Y-70662698D01*
X164465026Y-70749424D01*
X164394454Y-70881454D01*
X164350998Y-71024715D01*
X164336324Y-71173700D01*
X164340001Y-71211032D01*
X164340000Y-74979099D01*
X164298899Y-75001068D01*
X164080392Y-75180392D01*
X163901068Y-75398899D01*
X163767818Y-75648192D01*
X163685764Y-75918691D01*
X163658057Y-76200000D01*
X156375000Y-76200000D01*
X156375000Y-76058665D01*
X156319853Y-75781426D01*
X156211680Y-75520273D01*
X156054637Y-75285241D01*
X155854759Y-75085363D01*
X155619727Y-74928320D01*
X155358574Y-74820147D01*
X155081335Y-74765000D01*
X154798665Y-74765000D01*
X154521426Y-74820147D01*
X154260273Y-74928320D01*
X154025241Y-75085363D01*
X153825363Y-75285241D01*
X153668320Y-75520273D01*
X153666350Y-75525029D01*
X153598932Y-75398899D01*
X153419608Y-75180392D01*
X153201101Y-75001068D01*
X152951808Y-74867818D01*
X152681309Y-74785764D01*
X152470492Y-74765000D01*
X152329508Y-74765000D01*
X152118691Y-74785764D01*
X151848192Y-74867818D01*
X151598899Y-75001068D01*
X151380392Y-75180392D01*
X151201068Y-75398899D01*
X151067818Y-75648192D01*
X150985764Y-75918691D01*
X150958057Y-76200000D01*
X143675000Y-76200000D01*
X143675000Y-76058665D01*
X143619853Y-75781426D01*
X143511680Y-75520273D01*
X143354637Y-75285241D01*
X143154759Y-75085363D01*
X142919727Y-74928320D01*
X142658574Y-74820147D01*
X142381335Y-74765000D01*
X142098665Y-74765000D01*
X141821426Y-74820147D01*
X141560273Y-74928320D01*
X141325241Y-75085363D01*
X141125363Y-75285241D01*
X140968320Y-75520273D01*
X140860147Y-75781426D01*
X140805000Y-76058665D01*
X123398265Y-76058665D01*
X123383513Y-75908889D01*
X123298599Y-75628966D01*
X123160706Y-75370986D01*
X122975134Y-75144866D01*
X122749014Y-74959294D01*
X122694209Y-74930000D01*
X122749014Y-74900706D01*
X122975134Y-74715134D01*
X123160706Y-74489014D01*
X123298599Y-74231034D01*
X123383513Y-73951111D01*
X123412185Y-73660000D01*
X123383513Y-73368889D01*
X123298599Y-73088966D01*
X123160706Y-72830986D01*
X122975134Y-72604866D01*
X122749014Y-72419294D01*
X122694209Y-72390000D01*
X122749014Y-72360706D01*
X122975134Y-72175134D01*
X123160706Y-71949014D01*
X123298599Y-71691034D01*
X123302732Y-71677408D01*
X130743000Y-71677408D01*
X130743000Y-71952592D01*
X130796686Y-72222490D01*
X130901995Y-72476727D01*
X131054880Y-72705535D01*
X131249465Y-72900120D01*
X131478273Y-73053005D01*
X131732510Y-73158314D01*
X132002408Y-73212000D01*
X132277592Y-73212000D01*
X132431570Y-73181372D01*
X133320914Y-74070716D01*
X133349474Y-74214298D01*
X133427495Y-74402656D01*
X133540763Y-74572174D01*
X133684926Y-74716337D01*
X133854444Y-74829605D01*
X134042802Y-74907626D01*
X134242761Y-74947400D01*
X134446639Y-74947400D01*
X134646598Y-74907626D01*
X134834956Y-74829605D01*
X135004474Y-74716337D01*
X135148637Y-74572174D01*
X135261905Y-74402656D01*
X135339926Y-74214298D01*
X135379700Y-74014339D01*
X135379700Y-73810461D01*
X135339926Y-73610502D01*
X135261905Y-73422144D01*
X135148637Y-73252626D01*
X135004474Y-73108463D01*
X134834956Y-72995195D01*
X134646598Y-72917174D01*
X134446639Y-72877400D01*
X134277202Y-72877400D01*
X133506372Y-72106570D01*
X133537000Y-71952592D01*
X133537000Y-71677408D01*
X133483314Y-71407510D01*
X133378005Y-71153273D01*
X133225120Y-70924465D01*
X133030535Y-70729880D01*
X132801727Y-70576995D01*
X132730057Y-70547308D01*
X132743023Y-70542636D01*
X132858980Y-70480656D01*
X132925960Y-70240565D01*
X132140000Y-69454605D01*
X131354040Y-70240565D01*
X131421020Y-70480656D01*
X131556760Y-70544485D01*
X131478273Y-70576995D01*
X131249465Y-70729880D01*
X131054880Y-70924465D01*
X130901995Y-71153273D01*
X130796686Y-71407510D01*
X130743000Y-71677408D01*
X123302732Y-71677408D01*
X123383513Y-71411111D01*
X123412185Y-71120000D01*
X123383513Y-70828889D01*
X123298599Y-70548966D01*
X123160706Y-70290986D01*
X122975134Y-70064866D01*
X122749014Y-69879294D01*
X122684477Y-69844799D01*
X122801355Y-69775178D01*
X123017588Y-69580269D01*
X123191568Y-69347017D01*
X130738090Y-69347017D01*
X130779078Y-69619133D01*
X130872364Y-69878023D01*
X130934344Y-69993980D01*
X131174435Y-70060960D01*
X131960395Y-69275000D01*
X132319605Y-69275000D01*
X133105565Y-70060960D01*
X133345656Y-69993980D01*
X133462756Y-69744952D01*
X133529023Y-69477865D01*
X133541910Y-69202983D01*
X133500922Y-68930867D01*
X133407636Y-68671977D01*
X133345656Y-68556020D01*
X133105565Y-68489040D01*
X132319605Y-69275000D01*
X131960395Y-69275000D01*
X131174435Y-68489040D01*
X130934344Y-68556020D01*
X130817244Y-68805048D01*
X130750977Y-69072135D01*
X130738090Y-69347017D01*
X123191568Y-69347017D01*
X123191641Y-69346920D01*
X123316825Y-69084099D01*
X123361476Y-68936890D01*
X123240155Y-68707000D01*
X122047000Y-68707000D01*
X122047000Y-68727000D01*
X121793000Y-68727000D01*
X121793000Y-68707000D01*
X121773000Y-68707000D01*
X121773000Y-68453000D01*
X121793000Y-68453000D01*
X121793000Y-68433000D01*
X122047000Y-68433000D01*
X122047000Y-68453000D01*
X123240155Y-68453000D01*
X123315919Y-68309435D01*
X131354040Y-68309435D01*
X132140000Y-69095395D01*
X132925960Y-68309435D01*
X132858980Y-68069344D01*
X132609952Y-67952244D01*
X132342865Y-67885977D01*
X132067983Y-67873090D01*
X131795867Y-67914078D01*
X131536977Y-68007364D01*
X131421020Y-68069344D01*
X131354040Y-68309435D01*
X123315919Y-68309435D01*
X123361476Y-68223110D01*
X123316825Y-68075901D01*
X123191641Y-67813080D01*
X123017588Y-67579731D01*
X122801355Y-67384822D01*
X122684477Y-67315201D01*
X122749014Y-67280706D01*
X122975134Y-67095134D01*
X123160706Y-66869014D01*
X123298599Y-66611034D01*
X123383513Y-66331111D01*
X123412185Y-66040000D01*
X123383513Y-65748889D01*
X123298599Y-65468966D01*
X123160706Y-65210986D01*
X122975134Y-64984866D01*
X122749014Y-64799294D01*
X122694209Y-64770000D01*
X122749014Y-64740706D01*
X122975134Y-64555134D01*
X123160706Y-64329014D01*
X123272340Y-64120161D01*
X130950700Y-64120161D01*
X130950700Y-64324039D01*
X130990474Y-64523998D01*
X131068495Y-64712356D01*
X131181763Y-64881874D01*
X131325926Y-65026037D01*
X131495444Y-65139305D01*
X131683802Y-65217326D01*
X131883761Y-65257100D01*
X131945899Y-65257100D01*
X133323700Y-66634902D01*
X133323700Y-66697039D01*
X133363474Y-66896998D01*
X133441495Y-67085356D01*
X133554763Y-67254874D01*
X133698926Y-67399037D01*
X133868444Y-67512305D01*
X134056802Y-67590326D01*
X134256761Y-67630100D01*
X134460639Y-67630100D01*
X134660598Y-67590326D01*
X134848956Y-67512305D01*
X135018474Y-67399037D01*
X135162637Y-67254874D01*
X135275905Y-67085356D01*
X135353926Y-66896998D01*
X135393700Y-66697039D01*
X135393700Y-66493161D01*
X135353926Y-66293202D01*
X135275905Y-66104844D01*
X135162637Y-65935326D01*
X135018474Y-65791163D01*
X134848956Y-65677895D01*
X134660598Y-65599874D01*
X134460639Y-65560100D01*
X134398502Y-65560100D01*
X133020700Y-64182299D01*
X133020700Y-64120161D01*
X132980926Y-63920202D01*
X132902905Y-63731844D01*
X132789637Y-63562326D01*
X132645474Y-63418163D01*
X132475956Y-63304895D01*
X132287598Y-63226874D01*
X132087639Y-63187100D01*
X131883761Y-63187100D01*
X131683802Y-63226874D01*
X131495444Y-63304895D01*
X131325926Y-63418163D01*
X131181763Y-63562326D01*
X131068495Y-63731844D01*
X130990474Y-63920202D01*
X130950700Y-64120161D01*
X123272340Y-64120161D01*
X123298599Y-64071034D01*
X123383513Y-63791111D01*
X123412185Y-63500000D01*
X123383513Y-63208889D01*
X123298599Y-62928966D01*
X123160706Y-62670986D01*
X122975134Y-62444866D01*
X122749014Y-62259294D01*
X122694209Y-62230000D01*
X122749014Y-62200706D01*
X122975134Y-62015134D01*
X123160706Y-61789014D01*
X123298599Y-61531034D01*
X123383513Y-61251111D01*
X123412185Y-60960000D01*
X123383513Y-60668889D01*
X123298599Y-60388966D01*
X123160706Y-60130986D01*
X122975134Y-59904866D01*
X122749014Y-59719294D01*
X122491034Y-59581401D01*
X122211111Y-59496487D01*
X121992950Y-59475000D01*
X121847050Y-59475000D01*
X121628889Y-59496487D01*
X121348966Y-59581401D01*
X121090986Y-59719294D01*
X120864866Y-59904866D01*
X120840393Y-59934687D01*
X120819502Y-59865820D01*
X120760537Y-59755506D01*
X120681185Y-59658815D01*
X120584494Y-59579463D01*
X120474180Y-59520498D01*
X120354482Y-59484188D01*
X120230000Y-59471928D01*
X118530000Y-59471928D01*
X118405518Y-59484188D01*
X118285820Y-59520498D01*
X118175506Y-59579463D01*
X118078815Y-59658815D01*
X117999463Y-59755506D01*
X117940498Y-59865820D01*
X117904188Y-59985518D01*
X117891928Y-60110000D01*
X117891928Y-61810000D01*
X117904188Y-61934482D01*
X117940498Y-62054180D01*
X117999463Y-62164494D01*
X118078815Y-62261185D01*
X118175506Y-62340537D01*
X118285820Y-62399502D01*
X118354687Y-62420393D01*
X118324866Y-62444866D01*
X118139294Y-62670986D01*
X118001401Y-62928966D01*
X117916487Y-63208889D01*
X117887815Y-63500000D01*
X116332000Y-63500000D01*
X116332000Y-52570413D01*
X123504192Y-52570413D01*
X123599956Y-52834814D01*
X123889571Y-52975704D01*
X124201108Y-53057384D01*
X124522595Y-53076718D01*
X124841675Y-53032961D01*
X125146088Y-52927795D01*
X125320044Y-52834814D01*
X125415808Y-52570413D01*
X124460000Y-51614605D01*
X123504192Y-52570413D01*
X116332000Y-52570413D01*
X116332000Y-51497595D01*
X122818282Y-51497595D01*
X122862039Y-51816675D01*
X122967205Y-52121088D01*
X123060186Y-52295044D01*
X123324587Y-52390808D01*
X124280395Y-51435000D01*
X124639605Y-51435000D01*
X125595413Y-52390808D01*
X125859814Y-52295044D01*
X126000704Y-52005429D01*
X126082384Y-51693892D01*
X126101718Y-51372405D01*
X126099662Y-51357408D01*
X130743000Y-51357408D01*
X130743000Y-51632592D01*
X130796686Y-51902490D01*
X130901995Y-52156727D01*
X131054880Y-52385535D01*
X131249465Y-52580120D01*
X131478273Y-52733005D01*
X131555515Y-52765000D01*
X131478273Y-52796995D01*
X131249465Y-52949880D01*
X131054880Y-53144465D01*
X130901995Y-53373273D01*
X130796686Y-53627510D01*
X130743000Y-53897408D01*
X130743000Y-54172592D01*
X130796686Y-54442490D01*
X130901995Y-54696727D01*
X131054880Y-54925535D01*
X131249465Y-55120120D01*
X131478273Y-55273005D01*
X131732510Y-55378314D01*
X132002408Y-55432000D01*
X132277592Y-55432000D01*
X132547490Y-55378314D01*
X132801727Y-55273005D01*
X133030535Y-55120120D01*
X133225120Y-54925535D01*
X133378005Y-54696727D01*
X133483314Y-54442490D01*
X133537000Y-54172592D01*
X133537000Y-53897408D01*
X133483314Y-53627510D01*
X133378005Y-53373273D01*
X133225120Y-53144465D01*
X133030535Y-52949880D01*
X132801727Y-52796995D01*
X132724485Y-52765000D01*
X132801727Y-52733005D01*
X133030535Y-52580120D01*
X133225120Y-52385535D01*
X133378005Y-52156727D01*
X133483314Y-51902490D01*
X133537000Y-51632592D01*
X133537000Y-51357408D01*
X138363000Y-51357408D01*
X138363000Y-51632592D01*
X138416686Y-51902490D01*
X138521995Y-52156727D01*
X138674880Y-52385535D01*
X138869465Y-52580120D01*
X139098273Y-52733005D01*
X139352510Y-52838314D01*
X139622408Y-52892000D01*
X139897592Y-52892000D01*
X140167490Y-52838314D01*
X140421727Y-52733005D01*
X140465000Y-52704091D01*
X140465001Y-56275088D01*
X140421063Y-56319026D01*
X140307795Y-56488544D01*
X140229774Y-56676902D01*
X140190000Y-56876861D01*
X140190000Y-57080739D01*
X140229774Y-57280698D01*
X140307795Y-57469056D01*
X140421063Y-57638574D01*
X140565226Y-57782737D01*
X140734744Y-57896005D01*
X140923102Y-57974026D01*
X141123061Y-58013800D01*
X141326939Y-58013800D01*
X141526898Y-57974026D01*
X141715256Y-57896005D01*
X141884774Y-57782737D01*
X142028937Y-57638574D01*
X142142205Y-57469056D01*
X142220226Y-57280698D01*
X142260000Y-57080739D01*
X142260000Y-56876861D01*
X142220226Y-56676902D01*
X142142205Y-56488544D01*
X142028937Y-56319026D01*
X141985000Y-56275089D01*
X141985000Y-52884801D01*
X142008429Y-52861372D01*
X142162408Y-52892000D01*
X142437592Y-52892000D01*
X142707490Y-52838314D01*
X142961727Y-52733005D01*
X143190535Y-52580120D01*
X143385120Y-52385535D01*
X143538005Y-52156727D01*
X143570000Y-52079485D01*
X143601995Y-52156727D01*
X143754880Y-52385535D01*
X143949465Y-52580120D01*
X144080000Y-52667341D01*
X144080001Y-53359588D01*
X144036063Y-53403526D01*
X143922795Y-53573044D01*
X143844774Y-53761402D01*
X143805000Y-53961361D01*
X143805000Y-54165239D01*
X143844774Y-54365198D01*
X143922795Y-54553556D01*
X144036063Y-54723074D01*
X144180226Y-54867237D01*
X144349744Y-54980505D01*
X144538102Y-55058526D01*
X144738061Y-55098300D01*
X144941939Y-55098300D01*
X145141898Y-55058526D01*
X145330256Y-54980505D01*
X145499774Y-54867237D01*
X145643937Y-54723074D01*
X145757205Y-54553556D01*
X145835226Y-54365198D01*
X145839005Y-54346200D01*
X145840339Y-54346200D01*
X146040298Y-54306426D01*
X146228656Y-54228405D01*
X146398174Y-54115137D01*
X146542337Y-53970974D01*
X146655605Y-53801456D01*
X146733626Y-53613098D01*
X146773400Y-53413139D01*
X146773400Y-53351001D01*
X147234062Y-52890340D01*
X147242408Y-52892000D01*
X147517592Y-52892000D01*
X147787490Y-52838314D01*
X148041727Y-52733005D01*
X148270535Y-52580120D01*
X148465120Y-52385535D01*
X148618005Y-52156727D01*
X148650000Y-52079485D01*
X148681995Y-52156727D01*
X148834880Y-52385535D01*
X149029465Y-52580120D01*
X149258273Y-52733005D01*
X149512510Y-52838314D01*
X149782408Y-52892000D01*
X150057592Y-52892000D01*
X150327490Y-52838314D01*
X150581727Y-52733005D01*
X150810535Y-52580120D01*
X151005120Y-52385535D01*
X151158005Y-52156727D01*
X151190000Y-52079485D01*
X151221995Y-52156727D01*
X151374880Y-52385535D01*
X151569465Y-52580120D01*
X151798273Y-52733005D01*
X152052510Y-52838314D01*
X152322408Y-52892000D01*
X152597592Y-52892000D01*
X152867490Y-52838314D01*
X153121727Y-52733005D01*
X153350535Y-52580120D01*
X153545120Y-52385535D01*
X153698005Y-52156727D01*
X153730000Y-52079485D01*
X153761995Y-52156727D01*
X153914880Y-52385535D01*
X154109465Y-52580120D01*
X154338273Y-52733005D01*
X154592510Y-52838314D01*
X154862408Y-52892000D01*
X155137592Y-52892000D01*
X155407490Y-52838314D01*
X155661727Y-52733005D01*
X155890535Y-52580120D01*
X156010090Y-52460565D01*
X156754040Y-52460565D01*
X156821020Y-52700656D01*
X157070048Y-52817756D01*
X157337135Y-52884023D01*
X157612017Y-52896910D01*
X157884133Y-52855922D01*
X158143023Y-52762636D01*
X158258980Y-52700656D01*
X158325960Y-52460565D01*
X159294040Y-52460565D01*
X159361020Y-52700656D01*
X159610048Y-52817756D01*
X159877135Y-52884023D01*
X160152017Y-52896910D01*
X160424133Y-52855922D01*
X160683023Y-52762636D01*
X160798980Y-52700656D01*
X160865960Y-52460565D01*
X161834040Y-52460565D01*
X161901020Y-52700656D01*
X162150048Y-52817756D01*
X162417135Y-52884023D01*
X162692017Y-52896910D01*
X162964133Y-52855922D01*
X163223023Y-52762636D01*
X163338980Y-52700656D01*
X163405960Y-52460565D01*
X162620000Y-51674605D01*
X161834040Y-52460565D01*
X160865960Y-52460565D01*
X160080000Y-51674605D01*
X159294040Y-52460565D01*
X158325960Y-52460565D01*
X157540000Y-51674605D01*
X156754040Y-52460565D01*
X156010090Y-52460565D01*
X156085120Y-52385535D01*
X156238005Y-52156727D01*
X156267692Y-52085057D01*
X156272364Y-52098023D01*
X156334344Y-52213980D01*
X156574435Y-52280960D01*
X157360395Y-51495000D01*
X157719605Y-51495000D01*
X158505565Y-52280960D01*
X158745656Y-52213980D01*
X158807079Y-52083356D01*
X158812364Y-52098023D01*
X158874344Y-52213980D01*
X159114435Y-52280960D01*
X159900395Y-51495000D01*
X160259605Y-51495000D01*
X161045565Y-52280960D01*
X161285656Y-52213980D01*
X161347079Y-52083356D01*
X161352364Y-52098023D01*
X161414344Y-52213980D01*
X161654435Y-52280960D01*
X162440395Y-51495000D01*
X162799605Y-51495000D01*
X163585565Y-52280960D01*
X163825656Y-52213980D01*
X163942756Y-51964952D01*
X164009023Y-51697865D01*
X164021910Y-51422983D01*
X164012033Y-51357408D01*
X168843000Y-51357408D01*
X168843000Y-51632592D01*
X168896686Y-51902490D01*
X169001995Y-52156727D01*
X169154880Y-52385535D01*
X169349465Y-52580120D01*
X169578273Y-52733005D01*
X169655515Y-52765000D01*
X169578273Y-52796995D01*
X169349465Y-52949880D01*
X169154880Y-53144465D01*
X169001995Y-53373273D01*
X168896686Y-53627510D01*
X168843000Y-53897408D01*
X168843000Y-54172592D01*
X168896686Y-54442490D01*
X169001995Y-54696727D01*
X169154880Y-54925535D01*
X169349465Y-55120120D01*
X169578273Y-55273005D01*
X169832510Y-55378314D01*
X170102408Y-55432000D01*
X170377592Y-55432000D01*
X170647490Y-55378314D01*
X170901727Y-55273005D01*
X171130535Y-55120120D01*
X171325120Y-54925535D01*
X171478005Y-54696727D01*
X171583314Y-54442490D01*
X171637000Y-54172592D01*
X171637000Y-53897408D01*
X171583314Y-53627510D01*
X171478005Y-53373273D01*
X171325120Y-53144465D01*
X171130535Y-52949880D01*
X170901727Y-52796995D01*
X170824485Y-52765000D01*
X170901727Y-52733005D01*
X171130535Y-52580120D01*
X171140242Y-52570413D01*
X176844192Y-52570413D01*
X176939956Y-52834814D01*
X177229571Y-52975704D01*
X177541108Y-53057384D01*
X177862595Y-53076718D01*
X178181675Y-53032961D01*
X178486088Y-52927795D01*
X178660044Y-52834814D01*
X178755808Y-52570413D01*
X177800000Y-51614605D01*
X176844192Y-52570413D01*
X171140242Y-52570413D01*
X171325120Y-52385535D01*
X171478005Y-52156727D01*
X171583314Y-51902490D01*
X171637000Y-51632592D01*
X171637000Y-51497595D01*
X176158282Y-51497595D01*
X176202039Y-51816675D01*
X176307205Y-52121088D01*
X176400186Y-52295044D01*
X176664587Y-52390808D01*
X177620395Y-51435000D01*
X177979605Y-51435000D01*
X178935413Y-52390808D01*
X179199814Y-52295044D01*
X179340704Y-52005429D01*
X179422384Y-51693892D01*
X179441718Y-51372405D01*
X179397961Y-51053325D01*
X179292795Y-50748912D01*
X179199814Y-50574956D01*
X178935413Y-50479192D01*
X177979605Y-51435000D01*
X177620395Y-51435000D01*
X176664587Y-50479192D01*
X176400186Y-50574956D01*
X176259296Y-50864571D01*
X176177616Y-51176108D01*
X176158282Y-51497595D01*
X171637000Y-51497595D01*
X171637000Y-51357408D01*
X171583314Y-51087510D01*
X171478005Y-50833273D01*
X171325120Y-50604465D01*
X171130535Y-50409880D01*
X170965471Y-50299587D01*
X176844192Y-50299587D01*
X177800000Y-51255395D01*
X178755808Y-50299587D01*
X178660044Y-50035186D01*
X178370429Y-49894296D01*
X178058892Y-49812616D01*
X177737405Y-49793282D01*
X177418325Y-49837039D01*
X177113912Y-49942205D01*
X176939956Y-50035186D01*
X176844192Y-50299587D01*
X170965471Y-50299587D01*
X170901727Y-50256995D01*
X170647490Y-50151686D01*
X170377592Y-50098000D01*
X170102408Y-50098000D01*
X169832510Y-50151686D01*
X169578273Y-50256995D01*
X169349465Y-50409880D01*
X169154880Y-50604465D01*
X169001995Y-50833273D01*
X168896686Y-51087510D01*
X168843000Y-51357408D01*
X164012033Y-51357408D01*
X163980922Y-51150867D01*
X163887636Y-50891977D01*
X163825656Y-50776020D01*
X163585565Y-50709040D01*
X162799605Y-51495000D01*
X162440395Y-51495000D01*
X161654435Y-50709040D01*
X161414344Y-50776020D01*
X161352921Y-50906644D01*
X161347636Y-50891977D01*
X161285656Y-50776020D01*
X161045565Y-50709040D01*
X160259605Y-51495000D01*
X159900395Y-51495000D01*
X159114435Y-50709040D01*
X158874344Y-50776020D01*
X158812921Y-50906644D01*
X158807636Y-50891977D01*
X158745656Y-50776020D01*
X158505565Y-50709040D01*
X157719605Y-51495000D01*
X157360395Y-51495000D01*
X156574435Y-50709040D01*
X156334344Y-50776020D01*
X156270515Y-50911760D01*
X156238005Y-50833273D01*
X156085120Y-50604465D01*
X156010090Y-50529435D01*
X156754040Y-50529435D01*
X157540000Y-51315395D01*
X158325960Y-50529435D01*
X159294040Y-50529435D01*
X160080000Y-51315395D01*
X160865960Y-50529435D01*
X161834040Y-50529435D01*
X162620000Y-51315395D01*
X163405960Y-50529435D01*
X163338980Y-50289344D01*
X163089952Y-50172244D01*
X162822865Y-50105977D01*
X162547983Y-50093090D01*
X162275867Y-50134078D01*
X162016977Y-50227364D01*
X161901020Y-50289344D01*
X161834040Y-50529435D01*
X160865960Y-50529435D01*
X160798980Y-50289344D01*
X160549952Y-50172244D01*
X160282865Y-50105977D01*
X160007983Y-50093090D01*
X159735867Y-50134078D01*
X159476977Y-50227364D01*
X159361020Y-50289344D01*
X159294040Y-50529435D01*
X158325960Y-50529435D01*
X158258980Y-50289344D01*
X158009952Y-50172244D01*
X157742865Y-50105977D01*
X157467983Y-50093090D01*
X157195867Y-50134078D01*
X156936977Y-50227364D01*
X156821020Y-50289344D01*
X156754040Y-50529435D01*
X156010090Y-50529435D01*
X155890535Y-50409880D01*
X155661727Y-50256995D01*
X155407490Y-50151686D01*
X155137592Y-50098000D01*
X154862408Y-50098000D01*
X154592510Y-50151686D01*
X154338273Y-50256995D01*
X154109465Y-50409880D01*
X153914880Y-50604465D01*
X153761995Y-50833273D01*
X153730000Y-50910515D01*
X153698005Y-50833273D01*
X153545120Y-50604465D01*
X153350535Y-50409880D01*
X153220000Y-50322659D01*
X153220000Y-47773491D01*
X153442252Y-47624987D01*
X153669987Y-47397252D01*
X153848918Y-47129463D01*
X153972168Y-46831912D01*
X154035000Y-46516033D01*
X154035000Y-46193967D01*
X155845000Y-46193967D01*
X155845000Y-46516033D01*
X155907832Y-46831912D01*
X156031082Y-47129463D01*
X156210013Y-47397252D01*
X156437748Y-47624987D01*
X156705537Y-47803918D01*
X157003088Y-47927168D01*
X157318967Y-47990000D01*
X157641033Y-47990000D01*
X157956912Y-47927168D01*
X158254463Y-47803918D01*
X158522252Y-47624987D01*
X158749987Y-47397252D01*
X158928918Y-47129463D01*
X159052168Y-46831912D01*
X159115000Y-46516033D01*
X159115000Y-46193967D01*
X163465000Y-46193967D01*
X163465000Y-46516033D01*
X163527832Y-46831912D01*
X163651082Y-47129463D01*
X163830013Y-47397252D01*
X164057748Y-47624987D01*
X164325537Y-47803918D01*
X164623088Y-47927168D01*
X164938967Y-47990000D01*
X165261033Y-47990000D01*
X165576912Y-47927168D01*
X165874463Y-47803918D01*
X166142252Y-47624987D01*
X166369987Y-47397252D01*
X166548918Y-47129463D01*
X166672168Y-46831912D01*
X166735000Y-46516033D01*
X166735000Y-46193967D01*
X168545000Y-46193967D01*
X168545000Y-46516033D01*
X168607832Y-46831912D01*
X168731082Y-47129463D01*
X168910013Y-47397252D01*
X169137748Y-47624987D01*
X169405537Y-47803918D01*
X169703088Y-47927168D01*
X170018967Y-47990000D01*
X170341033Y-47990000D01*
X170656912Y-47927168D01*
X170954463Y-47803918D01*
X171222252Y-47624987D01*
X171449987Y-47397252D01*
X171628918Y-47129463D01*
X171752168Y-46831912D01*
X171815000Y-46516033D01*
X171815000Y-46193967D01*
X171752168Y-45878088D01*
X171628918Y-45580537D01*
X171449987Y-45312748D01*
X171222252Y-45085013D01*
X170954463Y-44906082D01*
X170656912Y-44782832D01*
X170341033Y-44720000D01*
X170018967Y-44720000D01*
X169703088Y-44782832D01*
X169405537Y-44906082D01*
X169137748Y-45085013D01*
X168910013Y-45312748D01*
X168731082Y-45580537D01*
X168607832Y-45878088D01*
X168545000Y-46193967D01*
X166735000Y-46193967D01*
X166672168Y-45878088D01*
X166548918Y-45580537D01*
X166369987Y-45312748D01*
X166142252Y-45085013D01*
X165874463Y-44906082D01*
X165576912Y-44782832D01*
X165261033Y-44720000D01*
X164938967Y-44720000D01*
X164623088Y-44782832D01*
X164325537Y-44906082D01*
X164057748Y-45085013D01*
X163830013Y-45312748D01*
X163651082Y-45580537D01*
X163527832Y-45878088D01*
X163465000Y-46193967D01*
X159115000Y-46193967D01*
X159052168Y-45878088D01*
X158928918Y-45580537D01*
X158749987Y-45312748D01*
X158522252Y-45085013D01*
X158254463Y-44906082D01*
X157956912Y-44782832D01*
X157641033Y-44720000D01*
X157318967Y-44720000D01*
X157003088Y-44782832D01*
X156705537Y-44906082D01*
X156437748Y-45085013D01*
X156210013Y-45312748D01*
X156031082Y-45580537D01*
X155907832Y-45878088D01*
X155845000Y-46193967D01*
X154035000Y-46193967D01*
X153972168Y-45878088D01*
X153848918Y-45580537D01*
X153669987Y-45312748D01*
X153442252Y-45085013D01*
X153174463Y-44906082D01*
X152876912Y-44782832D01*
X152561033Y-44720000D01*
X152238967Y-44720000D01*
X151923088Y-44782832D01*
X151625537Y-44906082D01*
X151357748Y-45085013D01*
X151130013Y-45312748D01*
X150951082Y-45580537D01*
X150827832Y-45878088D01*
X150765000Y-46193967D01*
X150765000Y-46516033D01*
X150827832Y-46831912D01*
X150951082Y-47129463D01*
X151130013Y-47397252D01*
X151357748Y-47624987D01*
X151625537Y-47803918D01*
X151700000Y-47834762D01*
X151700001Y-50322659D01*
X151569465Y-50409880D01*
X151374880Y-50604465D01*
X151221995Y-50833273D01*
X151190000Y-50910515D01*
X151158005Y-50833273D01*
X151005120Y-50604465D01*
X150810535Y-50409880D01*
X150581727Y-50256995D01*
X150327490Y-50151686D01*
X150057592Y-50098000D01*
X149782408Y-50098000D01*
X149512510Y-50151686D01*
X149258273Y-50256995D01*
X149029465Y-50409880D01*
X148834880Y-50604465D01*
X148681995Y-50833273D01*
X148650000Y-50910515D01*
X148618005Y-50833273D01*
X148465120Y-50604465D01*
X148270535Y-50409880D01*
X148041727Y-50256995D01*
X147787490Y-50151686D01*
X147517592Y-50098000D01*
X147242408Y-50098000D01*
X146972510Y-50151686D01*
X146718273Y-50256995D01*
X146489465Y-50409880D01*
X146294880Y-50604465D01*
X146141995Y-50833273D01*
X146110000Y-50910515D01*
X146078005Y-50833273D01*
X145925120Y-50604465D01*
X145730535Y-50409880D01*
X145501727Y-50256995D01*
X145247490Y-50151686D01*
X144977592Y-50098000D01*
X144702408Y-50098000D01*
X144432510Y-50151686D01*
X144178273Y-50256995D01*
X143949465Y-50409880D01*
X143754880Y-50604465D01*
X143601995Y-50833273D01*
X143570000Y-50910515D01*
X143538005Y-50833273D01*
X143385120Y-50604465D01*
X143190535Y-50409880D01*
X142961727Y-50256995D01*
X142707490Y-50151686D01*
X142437592Y-50098000D01*
X142162408Y-50098000D01*
X141892510Y-50151686D01*
X141638273Y-50256995D01*
X141409465Y-50409880D01*
X141214880Y-50604465D01*
X141061995Y-50833273D01*
X141030000Y-50910515D01*
X140998005Y-50833273D01*
X140845120Y-50604465D01*
X140650535Y-50409880D01*
X140421727Y-50256995D01*
X140167490Y-50151686D01*
X139897592Y-50098000D01*
X139622408Y-50098000D01*
X139352510Y-50151686D01*
X139098273Y-50256995D01*
X138869465Y-50409880D01*
X138674880Y-50604465D01*
X138521995Y-50833273D01*
X138416686Y-51087510D01*
X138363000Y-51357408D01*
X133537000Y-51357408D01*
X133483314Y-51087510D01*
X133378005Y-50833273D01*
X133225120Y-50604465D01*
X133030535Y-50409880D01*
X132801727Y-50256995D01*
X132547490Y-50151686D01*
X132277592Y-50098000D01*
X132002408Y-50098000D01*
X131732510Y-50151686D01*
X131478273Y-50256995D01*
X131249465Y-50409880D01*
X131054880Y-50604465D01*
X130901995Y-50833273D01*
X130796686Y-51087510D01*
X130743000Y-51357408D01*
X126099662Y-51357408D01*
X126057961Y-51053325D01*
X125952795Y-50748912D01*
X125859814Y-50574956D01*
X125595413Y-50479192D01*
X124639605Y-51435000D01*
X124280395Y-51435000D01*
X123324587Y-50479192D01*
X123060186Y-50574956D01*
X122919296Y-50864571D01*
X122837616Y-51176108D01*
X122818282Y-51497595D01*
X116332000Y-51497595D01*
X116332000Y-50299587D01*
X123504192Y-50299587D01*
X124460000Y-51255395D01*
X125415808Y-50299587D01*
X125320044Y-50035186D01*
X125030429Y-49894296D01*
X124718892Y-49812616D01*
X124397405Y-49793282D01*
X124078325Y-49837039D01*
X123773912Y-49942205D01*
X123599956Y-50035186D01*
X123504192Y-50299587D01*
X116332000Y-50299587D01*
X116332000Y-46193967D01*
X143145000Y-46193967D01*
X143145000Y-46516033D01*
X143207832Y-46831912D01*
X143331082Y-47129463D01*
X143510013Y-47397252D01*
X143737748Y-47624987D01*
X144005537Y-47803918D01*
X144303088Y-47927168D01*
X144618967Y-47990000D01*
X144941033Y-47990000D01*
X145256912Y-47927168D01*
X145554463Y-47803918D01*
X145822252Y-47624987D01*
X146049987Y-47397252D01*
X146228918Y-47129463D01*
X146352168Y-46831912D01*
X146415000Y-46516033D01*
X146415000Y-46193967D01*
X146352168Y-45878088D01*
X146228918Y-45580537D01*
X146049987Y-45312748D01*
X145822252Y-45085013D01*
X145554463Y-44906082D01*
X145256912Y-44782832D01*
X144941033Y-44720000D01*
X144618967Y-44720000D01*
X144303088Y-44782832D01*
X144005537Y-44906082D01*
X143737748Y-45085013D01*
X143510013Y-45312748D01*
X143331082Y-45580537D01*
X143207832Y-45878088D01*
X143145000Y-46193967D01*
X116332000Y-46193967D01*
X116332000Y-43942000D01*
X185928000Y-43942000D01*
X185928000Y-75769712D01*
X185928000Y-75769712D01*
G37*
X185928000Y-75769712D02*
X185804056Y-75686895D01*
X185615698Y-75608874D01*
X185415739Y-75569100D01*
X185211861Y-75569100D01*
X185011902Y-75608874D01*
X184823544Y-75686895D01*
X184654026Y-75800163D01*
X184509863Y-75944326D01*
X184396595Y-76113844D01*
X184370019Y-76178005D01*
X184343513Y-75908889D01*
X184258599Y-75628966D01*
X184120706Y-75370986D01*
X183935134Y-75144866D01*
X183709014Y-74959294D01*
X183654209Y-74930000D01*
X183709014Y-74900706D01*
X183935134Y-74715134D01*
X184120706Y-74489014D01*
X184258599Y-74231034D01*
X184343513Y-73951111D01*
X184372185Y-73660000D01*
X184343513Y-73368889D01*
X184258599Y-73088966D01*
X184120706Y-72830986D01*
X183935134Y-72604866D01*
X183709014Y-72419294D01*
X183654209Y-72390000D01*
X183709014Y-72360706D01*
X183935134Y-72175134D01*
X184120706Y-71949014D01*
X184258599Y-71691034D01*
X184343513Y-71411111D01*
X184372185Y-71120000D01*
X184343513Y-70828889D01*
X184258599Y-70548966D01*
X184120706Y-70290986D01*
X183935134Y-70064866D01*
X183709014Y-69879294D01*
X183654209Y-69850000D01*
X183709014Y-69820706D01*
X183935134Y-69635134D01*
X184120706Y-69409014D01*
X184258599Y-69151034D01*
X184343513Y-68871111D01*
X184372185Y-68580000D01*
X184343513Y-68288889D01*
X184258599Y-68008966D01*
X184120706Y-67750986D01*
X183935134Y-67524866D01*
X183709014Y-67339294D01*
X183654209Y-67310000D01*
X183709014Y-67280706D01*
X183935134Y-67095134D01*
X184120706Y-66869014D01*
X184258599Y-66611034D01*
X184343513Y-66331111D01*
X184372185Y-66040000D01*
X184343513Y-65748889D01*
X184258599Y-65468966D01*
X184120706Y-65210986D01*
X183935134Y-64984866D01*
X183709014Y-64799294D01*
X183654209Y-64770000D01*
X183709014Y-64740706D01*
X183935134Y-64555134D01*
X184120706Y-64329014D01*
X184258599Y-64071034D01*
X184343513Y-63791111D01*
X184372185Y-63500000D01*
X184343513Y-63208889D01*
X184258599Y-62928966D01*
X184120706Y-62670986D01*
X183935134Y-62444866D01*
X183709014Y-62259294D01*
X183654209Y-62230000D01*
X183709014Y-62200706D01*
X183935134Y-62015134D01*
X184120706Y-61789014D01*
X184258599Y-61531034D01*
X184343513Y-61251111D01*
X184372185Y-60960000D01*
X184343513Y-60668889D01*
X184258599Y-60388966D01*
X184120706Y-60130986D01*
X183935134Y-59904866D01*
X183709014Y-59719294D01*
X183451034Y-59581401D01*
X183171111Y-59496487D01*
X182952950Y-59475000D01*
X182807050Y-59475000D01*
X182588889Y-59496487D01*
X182308966Y-59581401D01*
X182050986Y-59719294D01*
X181824866Y-59904866D01*
X181800393Y-59934687D01*
X181779502Y-59865820D01*
X181720537Y-59755506D01*
X181641185Y-59658815D01*
X181544494Y-59579463D01*
X181434180Y-59520498D01*
X181314482Y-59484188D01*
X181190000Y-59471928D01*
X179490000Y-59471928D01*
X179365518Y-59484188D01*
X179245820Y-59520498D01*
X179135506Y-59579463D01*
X179038815Y-59658815D01*
X178959463Y-59755506D01*
X178900498Y-59865820D01*
X178864188Y-59985518D01*
X178851928Y-60110000D01*
X178851928Y-61810000D01*
X178864188Y-61934482D01*
X178900498Y-62054180D01*
X178959463Y-62164494D01*
X179038815Y-62261185D01*
X179135506Y-62340537D01*
X179245820Y-62399502D01*
X179314687Y-62420393D01*
X179284866Y-62444866D01*
X179099294Y-62670986D01*
X179062405Y-62740000D01*
X178344225Y-62740000D01*
X178306900Y-62736324D01*
X178269575Y-62740000D01*
X178269567Y-62740000D01*
X178157914Y-62750997D01*
X178014653Y-62794454D01*
X177914103Y-62848200D01*
X177821761Y-62848200D01*
X177621802Y-62887974D01*
X177433444Y-62965995D01*
X177263926Y-63079263D01*
X177119763Y-63223426D01*
X177006495Y-63392944D01*
X176928474Y-63581302D01*
X176888700Y-63781261D01*
X176888700Y-63985139D01*
X176928474Y-64185098D01*
X177006495Y-64373456D01*
X177119763Y-64542974D01*
X177263926Y-64687137D01*
X177433444Y-64800405D01*
X177621802Y-64878426D01*
X177821761Y-64918200D01*
X178025639Y-64918200D01*
X178225598Y-64878426D01*
X178413956Y-64800405D01*
X178583474Y-64687137D01*
X178727637Y-64542974D01*
X178840905Y-64373456D01*
X178887900Y-64260000D01*
X179062405Y-64260000D01*
X179099294Y-64329014D01*
X179284866Y-64555134D01*
X179510986Y-64740706D01*
X179565791Y-64770000D01*
X179510986Y-64799294D01*
X179284866Y-64984866D01*
X179099294Y-65210986D01*
X178961401Y-65468966D01*
X178876487Y-65748889D01*
X178847815Y-66040000D01*
X178876487Y-66331111D01*
X178961401Y-66611034D01*
X179099294Y-66869014D01*
X179284866Y-67095134D01*
X179510986Y-67280706D01*
X179565791Y-67310000D01*
X179510986Y-67339294D01*
X179284866Y-67524866D01*
X179099294Y-67750986D01*
X178961401Y-68008966D01*
X178876487Y-68288889D01*
X178847815Y-68580000D01*
X178876487Y-68871111D01*
X178961401Y-69151034D01*
X179099294Y-69409014D01*
X179284866Y-69635134D01*
X179510986Y-69820706D01*
X179575523Y-69855201D01*
X179458645Y-69924822D01*
X179242412Y-70119731D01*
X179068359Y-70353080D01*
X179019165Y-70456363D01*
X172459725Y-63896924D01*
X172510726Y-63773798D01*
X172550500Y-63573839D01*
X172550500Y-63369961D01*
X172510726Y-63170002D01*
X172432705Y-62981644D01*
X172319437Y-62812126D01*
X172175274Y-62667963D01*
X172005756Y-62554695D01*
X171817398Y-62476674D01*
X171617439Y-62436900D01*
X171413561Y-62436900D01*
X171213602Y-62476674D01*
X171025244Y-62554695D01*
X170855726Y-62667963D01*
X170711563Y-62812126D01*
X170598295Y-62981644D01*
X170520274Y-63170002D01*
X170480500Y-63369961D01*
X170480500Y-63573839D01*
X170520274Y-63773798D01*
X170598295Y-63962156D01*
X170711563Y-64131674D01*
X170770904Y-64191015D01*
X170809954Y-64319747D01*
X170834537Y-64365736D01*
X170880526Y-64451776D01*
X170935018Y-64518174D01*
X170975500Y-64567501D01*
X171004498Y-64591299D01*
X179164604Y-72751406D01*
X179099294Y-72830986D01*
X178961401Y-73088966D01*
X178876487Y-73368889D01*
X178847815Y-73660000D01*
X178876487Y-73951111D01*
X178961401Y-74231034D01*
X179099294Y-74489014D01*
X179284866Y-74715134D01*
X179510986Y-74900706D01*
X179565791Y-74930000D01*
X179510986Y-74959294D01*
X179284866Y-75144866D01*
X179099294Y-75370986D01*
X178961401Y-75628966D01*
X178876487Y-75908889D01*
X178847815Y-76200000D01*
X178876487Y-76491111D01*
X178961401Y-76771034D01*
X179099294Y-77029014D01*
X179284866Y-77255134D01*
X179510986Y-77440706D01*
X179565791Y-77470000D01*
X179510986Y-77499294D01*
X179284866Y-77684866D01*
X179099294Y-77910986D01*
X178961401Y-78168966D01*
X178876487Y-78448889D01*
X178847815Y-78740000D01*
X178876487Y-79031111D01*
X178961401Y-79311034D01*
X179099294Y-79569014D01*
X179284866Y-79795134D01*
X179510986Y-79980706D01*
X179565791Y-80010000D01*
X179510986Y-80039294D01*
X179284866Y-80224866D01*
X179099294Y-80450986D01*
X178961401Y-80708966D01*
X178876487Y-80988889D01*
X178847815Y-81280000D01*
X178876487Y-81571111D01*
X178961401Y-81851034D01*
X179099294Y-82109014D01*
X179284866Y-82335134D01*
X179510986Y-82520706D01*
X179565791Y-82550000D01*
X179510986Y-82579294D01*
X179284866Y-82764866D01*
X179099294Y-82990986D01*
X178961401Y-83248966D01*
X178876487Y-83528889D01*
X178847815Y-83820000D01*
X178876487Y-84111111D01*
X178961401Y-84391034D01*
X179099294Y-84649014D01*
X179284866Y-84875134D01*
X179510986Y-85060706D01*
X179565791Y-85090000D01*
X179510986Y-85119294D01*
X179284866Y-85304866D01*
X179099294Y-85530986D01*
X178961401Y-85788966D01*
X178876487Y-86068889D01*
X178847815Y-86360000D01*
X178876487Y-86651111D01*
X178961401Y-86931034D01*
X179099294Y-87189014D01*
X179284866Y-87415134D01*
X179510986Y-87600706D01*
X179565791Y-87630000D01*
X179510986Y-87659294D01*
X179284866Y-87844866D01*
X179099294Y-88070986D01*
X178961401Y-88328966D01*
X178876487Y-88608889D01*
X178847815Y-88900000D01*
X178876487Y-89191111D01*
X178961401Y-89471034D01*
X179099294Y-89729014D01*
X179284866Y-89955134D01*
X179510986Y-90140706D01*
X179565791Y-90170000D01*
X179510986Y-90199294D01*
X179284866Y-90384866D01*
X179099294Y-90610986D01*
X178961401Y-90868966D01*
X178876487Y-91148889D01*
X178847815Y-91440000D01*
X178876487Y-91731111D01*
X178961401Y-92011034D01*
X179099294Y-92269014D01*
X179284866Y-92495134D01*
X179510986Y-92680706D01*
X179565791Y-92710000D01*
X179510986Y-92739294D01*
X179284866Y-92924866D01*
X179099294Y-93150986D01*
X178961401Y-93408966D01*
X178876487Y-93688889D01*
X178847815Y-93980000D01*
X178876487Y-94271111D01*
X178961401Y-94551034D01*
X179099294Y-94809014D01*
X179284866Y-95035134D01*
X179510986Y-95220706D01*
X179565791Y-95250000D01*
X179510986Y-95279294D01*
X179284866Y-95464866D01*
X179099294Y-95690986D01*
X178961401Y-95948966D01*
X178876487Y-96228889D01*
X178847815Y-96520000D01*
X178876487Y-96811111D01*
X178961401Y-97091034D01*
X179099294Y-97349014D01*
X179284866Y-97575134D01*
X179510986Y-97760706D01*
X179565791Y-97790000D01*
X179510986Y-97819294D01*
X179284866Y-98004866D01*
X179099294Y-98230986D01*
X179013778Y-98390976D01*
X177290000Y-96667199D01*
X177290000Y-89719909D01*
X177304463Y-89713918D01*
X177572252Y-89534987D01*
X177799987Y-89307252D01*
X177978918Y-89039463D01*
X178102168Y-88741912D01*
X178165000Y-88426033D01*
X178165000Y-88103967D01*
X178102168Y-87788088D01*
X177978918Y-87490537D01*
X177799987Y-87222748D01*
X177572252Y-86995013D01*
X177304463Y-86816082D01*
X177006912Y-86692832D01*
X176691033Y-86630000D01*
X176368967Y-86630000D01*
X176053088Y-86692832D01*
X175755537Y-86816082D01*
X175487748Y-86995013D01*
X175260013Y-87222748D01*
X175081082Y-87490537D01*
X174957832Y-87788088D01*
X174895000Y-88103967D01*
X174895000Y-88426033D01*
X174957832Y-88741912D01*
X175081082Y-89039463D01*
X175260013Y-89307252D01*
X175487748Y-89534987D01*
X175755537Y-89713918D01*
X175770001Y-89719909D01*
X175770000Y-95457761D01*
X175562252Y-95250013D01*
X175294463Y-95071082D01*
X174996912Y-94947832D01*
X174681033Y-94885000D01*
X174358967Y-94885000D01*
X174043088Y-94947832D01*
X173745537Y-95071082D01*
X173477748Y-95250013D01*
X173250013Y-95477748D01*
X173071082Y-95745537D01*
X172947832Y-96043088D01*
X172885000Y-96358967D01*
X172885000Y-96681033D01*
X172947832Y-96996912D01*
X173071082Y-97294463D01*
X173250013Y-97562252D01*
X173477748Y-97789987D01*
X173745537Y-97968918D01*
X174043088Y-98092168D01*
X174358967Y-98155000D01*
X174681033Y-98155000D01*
X174996912Y-98092168D01*
X175294463Y-97968918D01*
X175562252Y-97789987D01*
X175789987Y-97562252D01*
X175894662Y-97405595D01*
X175895026Y-97406276D01*
X175907963Y-97422039D01*
X175989999Y-97522001D01*
X176019003Y-97545804D01*
X179164604Y-100691406D01*
X179099294Y-100770986D01*
X178961401Y-101028966D01*
X178876487Y-101308889D01*
X178847815Y-101600000D01*
X178876487Y-101891111D01*
X178961401Y-102171034D01*
X179099294Y-102429014D01*
X179284866Y-102655134D01*
X179510986Y-102840706D01*
X179565791Y-102870000D01*
X179510986Y-102899294D01*
X179284866Y-103084866D01*
X179099294Y-103310986D01*
X178961401Y-103568966D01*
X178876487Y-103848889D01*
X178847815Y-104140000D01*
X178876487Y-104431111D01*
X178961401Y-104711034D01*
X179099294Y-104969014D01*
X179284866Y-105195134D01*
X179510986Y-105380706D01*
X179565791Y-105410000D01*
X179510986Y-105439294D01*
X179284866Y-105624866D01*
X179099294Y-105850986D01*
X178961401Y-106108966D01*
X178876487Y-106388889D01*
X178847815Y-106680000D01*
X178876487Y-106971111D01*
X178961401Y-107251034D01*
X179099294Y-107509014D01*
X179284866Y-107735134D01*
X179510986Y-107920706D01*
X179768966Y-108058599D01*
X180048889Y-108143513D01*
X180267050Y-108165000D01*
X180412950Y-108165000D01*
X180631111Y-108143513D01*
X180911034Y-108058599D01*
X181169014Y-107920706D01*
X181395134Y-107735134D01*
X181580706Y-107509014D01*
X181610000Y-107454209D01*
X181639294Y-107509014D01*
X181824866Y-107735134D01*
X182050986Y-107920706D01*
X182308966Y-108058599D01*
X182588889Y-108143513D01*
X182807050Y-108165000D01*
X182952950Y-108165000D01*
X183171111Y-108143513D01*
X183451034Y-108058599D01*
X183709014Y-107920706D01*
X183935134Y-107735134D01*
X184120706Y-107509014D01*
X184258599Y-107251034D01*
X184343513Y-106971111D01*
X184372185Y-106680000D01*
X184343513Y-106388889D01*
X184258599Y-106108966D01*
X184120706Y-105850986D01*
X183935134Y-105624866D01*
X183709014Y-105439294D01*
X183654209Y-105410000D01*
X183709014Y-105380706D01*
X183935134Y-105195134D01*
X184120706Y-104969014D01*
X184258599Y-104711034D01*
X184343513Y-104431111D01*
X184372185Y-104140000D01*
X184343513Y-103848889D01*
X184258599Y-103568966D01*
X184120706Y-103310986D01*
X183935134Y-103084866D01*
X183709014Y-102899294D01*
X183654209Y-102870000D01*
X183709014Y-102840706D01*
X183935134Y-102655134D01*
X184120706Y-102429014D01*
X184258599Y-102171034D01*
X184343513Y-101891111D01*
X184372185Y-101600000D01*
X184343513Y-101308889D01*
X184258599Y-101028966D01*
X184120706Y-100770986D01*
X183935134Y-100544866D01*
X183709014Y-100359294D01*
X183654209Y-100330000D01*
X183709014Y-100300706D01*
X183935134Y-100115134D01*
X184120706Y-99889014D01*
X184258599Y-99631034D01*
X184343513Y-99351111D01*
X184372185Y-99060000D01*
X184343513Y-98768889D01*
X184258599Y-98488966D01*
X184120706Y-98230986D01*
X183935134Y-98004866D01*
X183709014Y-97819294D01*
X183654209Y-97790000D01*
X183709014Y-97760706D01*
X183935134Y-97575134D01*
X184120706Y-97349014D01*
X184258599Y-97091034D01*
X184343513Y-96811111D01*
X184372185Y-96520000D01*
X184343513Y-96228889D01*
X184258599Y-95948966D01*
X184120706Y-95690986D01*
X183935134Y-95464866D01*
X183709014Y-95279294D01*
X183654209Y-95250000D01*
X183709014Y-95220706D01*
X183935134Y-95035134D01*
X184120706Y-94809014D01*
X184258599Y-94551034D01*
X184343513Y-94271111D01*
X184372185Y-93980000D01*
X184343513Y-93688889D01*
X184258599Y-93408966D01*
X184120706Y-93150986D01*
X183935134Y-92924866D01*
X183709014Y-92739294D01*
X183654209Y-92710000D01*
X183709014Y-92680706D01*
X183935134Y-92495134D01*
X184120706Y-92269014D01*
X184258599Y-92011034D01*
X184343513Y-91731111D01*
X184372185Y-91440000D01*
X184343513Y-91148889D01*
X184258599Y-90868966D01*
X184120706Y-90610986D01*
X183935134Y-90384866D01*
X183709014Y-90199294D01*
X183654209Y-90170000D01*
X183709014Y-90140706D01*
X183935134Y-89955134D01*
X184120706Y-89729014D01*
X184258599Y-89471034D01*
X184343513Y-89191111D01*
X184372185Y-88900000D01*
X184343513Y-88608889D01*
X184258599Y-88328966D01*
X184120706Y-88070986D01*
X183935134Y-87844866D01*
X183709014Y-87659294D01*
X183654209Y-87630000D01*
X183709014Y-87600706D01*
X183935134Y-87415134D01*
X184120706Y-87189014D01*
X184258599Y-86931034D01*
X184343513Y-86651111D01*
X184372185Y-86360000D01*
X184343513Y-86068889D01*
X184258599Y-85788966D01*
X184120706Y-85530986D01*
X183935134Y-85304866D01*
X183709014Y-85119294D01*
X183644477Y-85084799D01*
X183761355Y-85015178D01*
X183977588Y-84820269D01*
X184151641Y-84586920D01*
X184276825Y-84324099D01*
X184321476Y-84176890D01*
X184200155Y-83947000D01*
X183007000Y-83947000D01*
X183007000Y-83967000D01*
X182753000Y-83967000D01*
X182753000Y-83947000D01*
X182733000Y-83947000D01*
X182733000Y-83693000D01*
X182753000Y-83693000D01*
X182753000Y-83673000D01*
X183007000Y-83673000D01*
X183007000Y-83693000D01*
X184200155Y-83693000D01*
X184321476Y-83463110D01*
X184276825Y-83315901D01*
X184151641Y-83053080D01*
X183977588Y-82819731D01*
X183761355Y-82624822D01*
X183644477Y-82555201D01*
X183709014Y-82520706D01*
X183935134Y-82335134D01*
X184120706Y-82109014D01*
X184258599Y-81851034D01*
X184343513Y-81571111D01*
X184372185Y-81280000D01*
X184343513Y-80988889D01*
X184258599Y-80708966D01*
X184120706Y-80450986D01*
X184055396Y-80371405D01*
X185824803Y-78601999D01*
X185853801Y-78578201D01*
X185928000Y-78487789D01*
X185928000Y-109728000D01*
X116332000Y-109728000D01*
X116332000Y-86360000D01*
X117887815Y-86360000D01*
X117916487Y-86651111D01*
X118001401Y-86931034D01*
X118139294Y-87189014D01*
X118324866Y-87415134D01*
X118550986Y-87600706D01*
X118605791Y-87630000D01*
X118550986Y-87659294D01*
X118324866Y-87844866D01*
X118139294Y-88070986D01*
X118001401Y-88328966D01*
X117916487Y-88608889D01*
X117887815Y-88900000D01*
X117916487Y-89191111D01*
X118001401Y-89471034D01*
X118139294Y-89729014D01*
X118324866Y-89955134D01*
X118550986Y-90140706D01*
X118605791Y-90170000D01*
X118550986Y-90199294D01*
X118324866Y-90384866D01*
X118139294Y-90610986D01*
X118001401Y-90868966D01*
X117916487Y-91148889D01*
X117887815Y-91440000D01*
X117916487Y-91731111D01*
X118001401Y-92011034D01*
X118139294Y-92269014D01*
X118324866Y-92495134D01*
X118550986Y-92680706D01*
X118605791Y-92710000D01*
X118550986Y-92739294D01*
X118324866Y-92924866D01*
X118139294Y-93150986D01*
X118001401Y-93408966D01*
X117916487Y-93688889D01*
X117887815Y-93980000D01*
X117916487Y-94271111D01*
X118001401Y-94551034D01*
X118139294Y-94809014D01*
X118324866Y-95035134D01*
X118550986Y-95220706D01*
X118605791Y-95250000D01*
X118550986Y-95279294D01*
X118324866Y-95464866D01*
X118139294Y-95690986D01*
X118001401Y-95948966D01*
X117916487Y-96228889D01*
X117887815Y-96520000D01*
X117916487Y-96811111D01*
X118001401Y-97091034D01*
X118139294Y-97349014D01*
X118324866Y-97575134D01*
X118550986Y-97760706D01*
X118605791Y-97790000D01*
X118550986Y-97819294D01*
X118324866Y-98004866D01*
X118139294Y-98230986D01*
X118001401Y-98488966D01*
X117916487Y-98768889D01*
X117887815Y-99060000D01*
X117916487Y-99351111D01*
X118001401Y-99631034D01*
X118139294Y-99889014D01*
X118324866Y-100115134D01*
X118550986Y-100300706D01*
X118605791Y-100330000D01*
X118550986Y-100359294D01*
X118324866Y-100544866D01*
X118139294Y-100770986D01*
X118001401Y-101028966D01*
X117916487Y-101308889D01*
X117887815Y-101600000D01*
X117916487Y-101891111D01*
X118001401Y-102171034D01*
X118139294Y-102429014D01*
X118324866Y-102655134D01*
X118550986Y-102840706D01*
X118605791Y-102870000D01*
X118550986Y-102899294D01*
X118324866Y-103084866D01*
X118139294Y-103310986D01*
X118001401Y-103568966D01*
X117916487Y-103848889D01*
X117887815Y-104140000D01*
X117916487Y-104431111D01*
X118001401Y-104711034D01*
X118139294Y-104969014D01*
X118324866Y-105195134D01*
X118550986Y-105380706D01*
X118605791Y-105410000D01*
X118550986Y-105439294D01*
X118324866Y-105624866D01*
X118139294Y-105850986D01*
X118001401Y-106108966D01*
X117916487Y-106388889D01*
X117887815Y-106680000D01*
X117916487Y-106971111D01*
X118001401Y-107251034D01*
X118139294Y-107509014D01*
X118324866Y-107735134D01*
X118550986Y-107920706D01*
X118808966Y-108058599D01*
X119088889Y-108143513D01*
X119307050Y-108165000D01*
X119452950Y-108165000D01*
X119671111Y-108143513D01*
X119951034Y-108058599D01*
X120209014Y-107920706D01*
X120435134Y-107735134D01*
X120620706Y-107509014D01*
X120650000Y-107454209D01*
X120679294Y-107509014D01*
X120864866Y-107735134D01*
X121090986Y-107920706D01*
X121348966Y-108058599D01*
X121628889Y-108143513D01*
X121847050Y-108165000D01*
X121992950Y-108165000D01*
X122211111Y-108143513D01*
X122491034Y-108058599D01*
X122749014Y-107920706D01*
X122975134Y-107735134D01*
X123160706Y-107509014D01*
X123298599Y-107251034D01*
X123383513Y-106971111D01*
X123412185Y-106680000D01*
X123383513Y-106388889D01*
X123298599Y-106108966D01*
X123160706Y-105850986D01*
X122975134Y-105624866D01*
X122749014Y-105439294D01*
X122694209Y-105410000D01*
X122749014Y-105380706D01*
X122975134Y-105195134D01*
X123160706Y-104969014D01*
X123298599Y-104711034D01*
X123315699Y-104654661D01*
X126991800Y-104654661D01*
X126991800Y-104858539D01*
X127031574Y-105058498D01*
X127109595Y-105246856D01*
X127222863Y-105416374D01*
X127367026Y-105560537D01*
X127536544Y-105673805D01*
X127724902Y-105751826D01*
X127924861Y-105791600D01*
X127986999Y-105791600D01*
X128247042Y-106051643D01*
X128160147Y-106261426D01*
X128105000Y-106538665D01*
X128105000Y-106821335D01*
X128160147Y-107098574D01*
X128268320Y-107359727D01*
X128425363Y-107594759D01*
X128625241Y-107794637D01*
X128860273Y-107951680D01*
X129121426Y-108059853D01*
X129398665Y-108115000D01*
X129681335Y-108115000D01*
X129958574Y-108059853D01*
X130219727Y-107951680D01*
X130454759Y-107794637D01*
X130654637Y-107594759D01*
X130811680Y-107359727D01*
X130919853Y-107098574D01*
X130975000Y-106821335D01*
X130975000Y-106538665D01*
X135725000Y-106538665D01*
X135725000Y-106821335D01*
X135780147Y-107098574D01*
X135888320Y-107359727D01*
X136045363Y-107594759D01*
X136245241Y-107794637D01*
X136480273Y-107951680D01*
X136741426Y-108059853D01*
X137018665Y-108115000D01*
X137301335Y-108115000D01*
X137578574Y-108059853D01*
X137839727Y-107951680D01*
X138074759Y-107794637D01*
X138274637Y-107594759D01*
X138431680Y-107359727D01*
X138539853Y-107098574D01*
X138595000Y-106821335D01*
X138595000Y-106538665D01*
X143345000Y-106538665D01*
X143345000Y-106821335D01*
X143400147Y-107098574D01*
X143508320Y-107359727D01*
X143665363Y-107594759D01*
X143865241Y-107794637D01*
X144100273Y-107951680D01*
X144361426Y-108059853D01*
X144638665Y-108115000D01*
X144921335Y-108115000D01*
X145198574Y-108059853D01*
X145459727Y-107951680D01*
X145694759Y-107794637D01*
X145894637Y-107594759D01*
X146051680Y-107359727D01*
X146159853Y-107098574D01*
X146215000Y-106821335D01*
X146215000Y-106538665D01*
X150965000Y-106538665D01*
X150965000Y-106821335D01*
X151020147Y-107098574D01*
X151128320Y-107359727D01*
X151285363Y-107594759D01*
X151485241Y-107794637D01*
X151720273Y-107951680D01*
X151981426Y-108059853D01*
X152258665Y-108115000D01*
X152541335Y-108115000D01*
X152818574Y-108059853D01*
X153079727Y-107951680D01*
X153314759Y-107794637D01*
X153514637Y-107594759D01*
X153671680Y-107359727D01*
X153779853Y-107098574D01*
X153835000Y-106821335D01*
X153835000Y-106538665D01*
X153779853Y-106261426D01*
X153671680Y-106000273D01*
X153514637Y-105765241D01*
X153314759Y-105565363D01*
X153079727Y-105408320D01*
X152818574Y-105300147D01*
X152541335Y-105245000D01*
X152258665Y-105245000D01*
X151981426Y-105300147D01*
X151720273Y-105408320D01*
X151485241Y-105565363D01*
X151285363Y-105765241D01*
X151128320Y-106000273D01*
X151020147Y-106261426D01*
X150965000Y-106538665D01*
X146215000Y-106538665D01*
X146159853Y-106261426D01*
X146051680Y-106000273D01*
X145894637Y-105765241D01*
X145694759Y-105565363D01*
X145459727Y-105408320D01*
X145198574Y-105300147D01*
X144921335Y-105245000D01*
X144638665Y-105245000D01*
X144361426Y-105300147D01*
X144100273Y-105408320D01*
X143865241Y-105565363D01*
X143665363Y-105765241D01*
X143508320Y-106000273D01*
X143400147Y-106261426D01*
X143345000Y-106538665D01*
X138595000Y-106538665D01*
X138539853Y-106261426D01*
X138431680Y-106000273D01*
X138274637Y-105765241D01*
X138074759Y-105565363D01*
X137839727Y-105408320D01*
X137578574Y-105300147D01*
X137301335Y-105245000D01*
X137018665Y-105245000D01*
X136741426Y-105300147D01*
X136480273Y-105408320D01*
X136245241Y-105565363D01*
X136045363Y-105765241D01*
X135888320Y-106000273D01*
X135780147Y-106261426D01*
X135725000Y-106538665D01*
X130975000Y-106538665D01*
X130919853Y-106261426D01*
X130811680Y-106000273D01*
X130654637Y-105765241D01*
X130454759Y-105565363D01*
X130219727Y-105408320D01*
X129958574Y-105300147D01*
X129681335Y-105245000D01*
X129590002Y-105245000D01*
X129061800Y-104716799D01*
X129061800Y-104654661D01*
X129022026Y-104454702D01*
X129007474Y-104419570D01*
X165485000Y-104419570D01*
X165485000Y-104820430D01*
X165563204Y-105213587D01*
X165716607Y-105583934D01*
X165939313Y-105917237D01*
X166222763Y-106200687D01*
X166556066Y-106423393D01*
X166926413Y-106576796D01*
X167319570Y-106655000D01*
X167720430Y-106655000D01*
X168113587Y-106576796D01*
X168483934Y-106423393D01*
X168817237Y-106200687D01*
X169100687Y-105917237D01*
X169323393Y-105583934D01*
X169476796Y-105213587D01*
X169555000Y-104820430D01*
X169555000Y-104419570D01*
X169476796Y-104026413D01*
X169323393Y-103656066D01*
X169100687Y-103322763D01*
X168817237Y-103039313D01*
X168483934Y-102816607D01*
X168113587Y-102663204D01*
X168074420Y-102655413D01*
X173564192Y-102655413D01*
X173659956Y-102919814D01*
X173949571Y-103060704D01*
X174261108Y-103142384D01*
X174582595Y-103161718D01*
X174901675Y-103117961D01*
X175206088Y-103012795D01*
X175380044Y-102919814D01*
X175475808Y-102655413D01*
X174520000Y-101699605D01*
X173564192Y-102655413D01*
X168074420Y-102655413D01*
X167720430Y-102585000D01*
X167319570Y-102585000D01*
X166926413Y-102663204D01*
X166556066Y-102816607D01*
X166222763Y-103039313D01*
X165939313Y-103322763D01*
X165716607Y-103656066D01*
X165563204Y-104026413D01*
X165485000Y-104419570D01*
X129007474Y-104419570D01*
X128944005Y-104266344D01*
X128830737Y-104096826D01*
X128686574Y-103952663D01*
X128517056Y-103839395D01*
X128328698Y-103761374D01*
X128128739Y-103721600D01*
X127924861Y-103721600D01*
X127724902Y-103761374D01*
X127536544Y-103839395D01*
X127367026Y-103952663D01*
X127222863Y-104096826D01*
X127109595Y-104266344D01*
X127031574Y-104454702D01*
X126991800Y-104654661D01*
X123315699Y-104654661D01*
X123383513Y-104431111D01*
X123412185Y-104140000D01*
X123383513Y-103848889D01*
X123298599Y-103568966D01*
X123160706Y-103310986D01*
X122975134Y-103084866D01*
X122749014Y-102899294D01*
X122694209Y-102870000D01*
X122749014Y-102840706D01*
X122975134Y-102655134D01*
X123160706Y-102429014D01*
X123298599Y-102171034D01*
X123383513Y-101891111D01*
X123412185Y-101600000D01*
X123383513Y-101308889D01*
X123298599Y-101028966D01*
X123160706Y-100770986D01*
X122975134Y-100544866D01*
X122749014Y-100359294D01*
X122694209Y-100330000D01*
X122749014Y-100300706D01*
X122909538Y-100168967D01*
X124095000Y-100168967D01*
X124095000Y-100491033D01*
X124157832Y-100806912D01*
X124281082Y-101104463D01*
X124460013Y-101372252D01*
X124687748Y-101599987D01*
X124955537Y-101778918D01*
X125253088Y-101902168D01*
X125568967Y-101965000D01*
X125891033Y-101965000D01*
X126206912Y-101902168D01*
X126504463Y-101778918D01*
X126772252Y-101599987D01*
X126999987Y-101372252D01*
X127008863Y-101358967D01*
X158385000Y-101358967D01*
X158385000Y-101681033D01*
X158447832Y-101996912D01*
X158571082Y-102294463D01*
X158750013Y-102562252D01*
X158977748Y-102789987D01*
X159245537Y-102968918D01*
X159543088Y-103092168D01*
X159858967Y-103155000D01*
X160181033Y-103155000D01*
X160496912Y-103092168D01*
X160794463Y-102968918D01*
X161062252Y-102789987D01*
X161289987Y-102562252D01*
X161468918Y-102294463D01*
X161592168Y-101996912D01*
X161655000Y-101681033D01*
X161655000Y-101582595D01*
X172878282Y-101582595D01*
X172922039Y-101901675D01*
X173027205Y-102206088D01*
X173120186Y-102380044D01*
X173384587Y-102475808D01*
X174340395Y-101520000D01*
X174699605Y-101520000D01*
X175655413Y-102475808D01*
X175919814Y-102380044D01*
X176060704Y-102090429D01*
X176142384Y-101778892D01*
X176161718Y-101457405D01*
X176117961Y-101138325D01*
X176012795Y-100833912D01*
X175919814Y-100659956D01*
X175655413Y-100564192D01*
X174699605Y-101520000D01*
X174340395Y-101520000D01*
X173384587Y-100564192D01*
X173120186Y-100659956D01*
X172979296Y-100949571D01*
X172897616Y-101261108D01*
X172878282Y-101582595D01*
X161655000Y-101582595D01*
X161655000Y-101358967D01*
X161592168Y-101043088D01*
X161468918Y-100745537D01*
X161289987Y-100477748D01*
X161196826Y-100384587D01*
X173564192Y-100384587D01*
X174520000Y-101340395D01*
X175475808Y-100384587D01*
X175380044Y-100120186D01*
X175090429Y-99979296D01*
X174778892Y-99897616D01*
X174457405Y-99878282D01*
X174138325Y-99922039D01*
X173833912Y-100027205D01*
X173659956Y-100120186D01*
X173564192Y-100384587D01*
X161196826Y-100384587D01*
X161062252Y-100250013D01*
X160965065Y-100185075D01*
X160975808Y-100155413D01*
X160020000Y-99199605D01*
X159064192Y-100155413D01*
X159074935Y-100185075D01*
X158977748Y-100250013D01*
X158750013Y-100477748D01*
X158571082Y-100745537D01*
X158447832Y-101043088D01*
X158385000Y-101358967D01*
X127008863Y-101358967D01*
X127178918Y-101104463D01*
X127302168Y-100806912D01*
X127365000Y-100491033D01*
X127365000Y-100168967D01*
X127302168Y-99853088D01*
X127178918Y-99555537D01*
X126999987Y-99287748D01*
X126794834Y-99082595D01*
X158378282Y-99082595D01*
X158422039Y-99401675D01*
X158527205Y-99706088D01*
X158620186Y-99880044D01*
X158884587Y-99975808D01*
X159840395Y-99020000D01*
X159826253Y-99005858D01*
X160005858Y-98826253D01*
X160020000Y-98840395D01*
X160034143Y-98826253D01*
X160213748Y-99005858D01*
X160199605Y-99020000D01*
X161155413Y-99975808D01*
X161419814Y-99880044D01*
X161560704Y-99590429D01*
X161642384Y-99278892D01*
X161661718Y-98957405D01*
X161617961Y-98638325D01*
X161512795Y-98333912D01*
X161419814Y-98159956D01*
X161270777Y-98105976D01*
X161374494Y-98050537D01*
X161471185Y-97971185D01*
X161550537Y-97874494D01*
X161609502Y-97764180D01*
X161645812Y-97644482D01*
X161658072Y-97520000D01*
X161658072Y-95520000D01*
X161645812Y-95395518D01*
X161609502Y-95275820D01*
X161550537Y-95165506D01*
X161471185Y-95068815D01*
X161374494Y-94989463D01*
X161264180Y-94930498D01*
X161144482Y-94894188D01*
X161020000Y-94881928D01*
X159020000Y-94881928D01*
X158895518Y-94894188D01*
X158775820Y-94930498D01*
X158665506Y-94989463D01*
X158568815Y-95068815D01*
X158489463Y-95165506D01*
X158430498Y-95275820D01*
X158394188Y-95395518D01*
X158381928Y-95520000D01*
X158381928Y-97520000D01*
X158394188Y-97644482D01*
X158430498Y-97764180D01*
X158489463Y-97874494D01*
X158568815Y-97971185D01*
X158665506Y-98050537D01*
X158769223Y-98105976D01*
X158620186Y-98159956D01*
X158479296Y-98449571D01*
X158397616Y-98761108D01*
X158378282Y-99082595D01*
X126794834Y-99082595D01*
X126772252Y-99060013D01*
X126504463Y-98881082D01*
X126206912Y-98757832D01*
X125891033Y-98695000D01*
X125568967Y-98695000D01*
X125253088Y-98757832D01*
X124955537Y-98881082D01*
X124687748Y-99060013D01*
X124460013Y-99287748D01*
X124281082Y-99555537D01*
X124157832Y-99853088D01*
X124095000Y-100168967D01*
X122909538Y-100168967D01*
X122975134Y-100115134D01*
X123160706Y-99889014D01*
X123298599Y-99631034D01*
X123383513Y-99351111D01*
X123412185Y-99060000D01*
X123383513Y-98768889D01*
X123298599Y-98488966D01*
X123160706Y-98230986D01*
X122975134Y-98004866D01*
X122749014Y-97819294D01*
X122694209Y-97790000D01*
X122749014Y-97760706D01*
X122975134Y-97575134D01*
X123160706Y-97349014D01*
X123298599Y-97091034D01*
X123383513Y-96811111D01*
X123412185Y-96520000D01*
X123383513Y-96228889D01*
X123298599Y-95948966D01*
X123160706Y-95690986D01*
X122975134Y-95464866D01*
X122749014Y-95279294D01*
X122694209Y-95250000D01*
X122749014Y-95220706D01*
X122975134Y-95035134D01*
X123160706Y-94809014D01*
X123298599Y-94551034D01*
X123383513Y-94271111D01*
X123412185Y-93980000D01*
X123383513Y-93688889D01*
X123298599Y-93408966D01*
X123160706Y-93150986D01*
X122975134Y-92924866D01*
X122749014Y-92739294D01*
X122694209Y-92710000D01*
X122749014Y-92680706D01*
X122975134Y-92495134D01*
X123102449Y-92340000D01*
X128001928Y-92340000D01*
X128014188Y-92464482D01*
X128050498Y-92584180D01*
X128109463Y-92694494D01*
X128188815Y-92791185D01*
X128285506Y-92870537D01*
X128395820Y-92929502D01*
X128414127Y-92935056D01*
X128347688Y-93001495D01*
X128179701Y-93252905D01*
X128063989Y-93532257D01*
X128005000Y-93828816D01*
X128005000Y-94131184D01*
X128063989Y-94427743D01*
X128179701Y-94707095D01*
X128347688Y-94958505D01*
X128561495Y-95172312D01*
X128764025Y-95307638D01*
X128738899Y-95321068D01*
X128520392Y-95500392D01*
X128341068Y-95718899D01*
X128207818Y-95968192D01*
X128125764Y-96238691D01*
X128098057Y-96520000D01*
X128125764Y-96801309D01*
X128207818Y-97071808D01*
X128341068Y-97321101D01*
X128520392Y-97539608D01*
X128738899Y-97718932D01*
X128988192Y-97852182D01*
X129258691Y-97934236D01*
X129469508Y-97955000D01*
X129610492Y-97955000D01*
X129821309Y-97934236D01*
X130091808Y-97852182D01*
X130341101Y-97718932D01*
X130559608Y-97539608D01*
X130738932Y-97321101D01*
X130872182Y-97071808D01*
X130954236Y-96801309D01*
X130981943Y-96520000D01*
X130954236Y-96238691D01*
X130872182Y-95968192D01*
X130738932Y-95718899D01*
X130559608Y-95500392D01*
X130341101Y-95321068D01*
X130315975Y-95307638D01*
X130518505Y-95172312D01*
X130732312Y-94958505D01*
X130900299Y-94707095D01*
X131016011Y-94427743D01*
X131075000Y-94131184D01*
X131075000Y-93828816D01*
X131016011Y-93532257D01*
X130900299Y-93252905D01*
X130732312Y-93001495D01*
X130665873Y-92935056D01*
X130684180Y-92929502D01*
X130794494Y-92870537D01*
X130891185Y-92791185D01*
X130970537Y-92694494D01*
X131029502Y-92584180D01*
X131065812Y-92464482D01*
X131078072Y-92340000D01*
X135621928Y-92340000D01*
X135634188Y-92464482D01*
X135670498Y-92584180D01*
X135729463Y-92694494D01*
X135808815Y-92791185D01*
X135905506Y-92870537D01*
X136015820Y-92929502D01*
X136034127Y-92935056D01*
X135967688Y-93001495D01*
X135799701Y-93252905D01*
X135683989Y-93532257D01*
X135625000Y-93828816D01*
X135625000Y-94131184D01*
X135683989Y-94427743D01*
X135799701Y-94707095D01*
X135967688Y-94958505D01*
X136181495Y-95172312D01*
X136384025Y-95307638D01*
X136358899Y-95321068D01*
X136140392Y-95500392D01*
X135961068Y-95718899D01*
X135827818Y-95968192D01*
X135745764Y-96238691D01*
X135718057Y-96520000D01*
X135745764Y-96801309D01*
X135827818Y-97071808D01*
X135961068Y-97321101D01*
X136140392Y-97539608D01*
X136358899Y-97718932D01*
X136608192Y-97852182D01*
X136878691Y-97934236D01*
X137089508Y-97955000D01*
X137230492Y-97955000D01*
X137441309Y-97934236D01*
X137711808Y-97852182D01*
X137961101Y-97718932D01*
X138179608Y-97539608D01*
X138358932Y-97321101D01*
X138492182Y-97071808D01*
X138574236Y-96801309D01*
X138601943Y-96520000D01*
X138574236Y-96238691D01*
X138492182Y-95968192D01*
X138358932Y-95718899D01*
X138179608Y-95500392D01*
X137961101Y-95321068D01*
X137935975Y-95307638D01*
X138138505Y-95172312D01*
X138352312Y-94958505D01*
X138520299Y-94707095D01*
X138636011Y-94427743D01*
X138695000Y-94131184D01*
X138695000Y-93828816D01*
X138636011Y-93532257D01*
X138520299Y-93252905D01*
X138352312Y-93001495D01*
X138285873Y-92935056D01*
X138304180Y-92929502D01*
X138414494Y-92870537D01*
X138511185Y-92791185D01*
X138590537Y-92694494D01*
X138649502Y-92584180D01*
X138685812Y-92464482D01*
X138698072Y-92340000D01*
X143241928Y-92340000D01*
X143254188Y-92464482D01*
X143290498Y-92584180D01*
X143349463Y-92694494D01*
X143428815Y-92791185D01*
X143525506Y-92870537D01*
X143635820Y-92929502D01*
X143654127Y-92935056D01*
X143587688Y-93001495D01*
X143419701Y-93252905D01*
X143303989Y-93532257D01*
X143245000Y-93828816D01*
X143245000Y-94131184D01*
X143303989Y-94427743D01*
X143419701Y-94707095D01*
X143587688Y-94958505D01*
X143801495Y-95172312D01*
X144004025Y-95307638D01*
X143978899Y-95321068D01*
X143760392Y-95500392D01*
X143581068Y-95718899D01*
X143447818Y-95968192D01*
X143365764Y-96238691D01*
X143338057Y-96520000D01*
X143365764Y-96801309D01*
X143447818Y-97071808D01*
X143581068Y-97321101D01*
X143760392Y-97539608D01*
X143978899Y-97718932D01*
X144228192Y-97852182D01*
X144498691Y-97934236D01*
X144709508Y-97955000D01*
X144850492Y-97955000D01*
X145061309Y-97934236D01*
X145331808Y-97852182D01*
X145581101Y-97718932D01*
X145799608Y-97539608D01*
X145978932Y-97321101D01*
X146112182Y-97071808D01*
X146194236Y-96801309D01*
X146221943Y-96520000D01*
X146194236Y-96238691D01*
X146112182Y-95968192D01*
X145978932Y-95718899D01*
X145799608Y-95500392D01*
X145581101Y-95321068D01*
X145555975Y-95307638D01*
X145758505Y-95172312D01*
X145972312Y-94958505D01*
X146140299Y-94707095D01*
X146256011Y-94427743D01*
X146315000Y-94131184D01*
X146315000Y-93828816D01*
X146256011Y-93532257D01*
X146140299Y-93252905D01*
X145972312Y-93001495D01*
X145905873Y-92935056D01*
X145924180Y-92929502D01*
X146034494Y-92870537D01*
X146131185Y-92791185D01*
X146210537Y-92694494D01*
X146269502Y-92584180D01*
X146305812Y-92464482D01*
X146318072Y-92340000D01*
X150861928Y-92340000D01*
X150874188Y-92464482D01*
X150910498Y-92584180D01*
X150969463Y-92694494D01*
X151048815Y-92791185D01*
X151145506Y-92870537D01*
X151255820Y-92929502D01*
X151274127Y-92935056D01*
X151207688Y-93001495D01*
X151039701Y-93252905D01*
X150923989Y-93532257D01*
X150865000Y-93828816D01*
X150865000Y-94131184D01*
X150923989Y-94427743D01*
X151039701Y-94707095D01*
X151207688Y-94958505D01*
X151421495Y-95172312D01*
X151624025Y-95307638D01*
X151598899Y-95321068D01*
X151380392Y-95500392D01*
X151201068Y-95718899D01*
X151067818Y-95968192D01*
X150985764Y-96238691D01*
X150958057Y-96520000D01*
X150985764Y-96801309D01*
X151067818Y-97071808D01*
X151201068Y-97321101D01*
X151380392Y-97539608D01*
X151598899Y-97718932D01*
X151848192Y-97852182D01*
X152118691Y-97934236D01*
X152329508Y-97955000D01*
X152470492Y-97955000D01*
X152681309Y-97934236D01*
X152951808Y-97852182D01*
X153201101Y-97718932D01*
X153419608Y-97539608D01*
X153598932Y-97321101D01*
X153732182Y-97071808D01*
X153814236Y-96801309D01*
X153841943Y-96520000D01*
X153814236Y-96238691D01*
X153732182Y-95968192D01*
X153598932Y-95718899D01*
X153419608Y-95500392D01*
X153201101Y-95321068D01*
X153175975Y-95307638D01*
X153378505Y-95172312D01*
X153592312Y-94958505D01*
X153760299Y-94707095D01*
X153876011Y-94427743D01*
X153935000Y-94131184D01*
X153935000Y-93828816D01*
X153876011Y-93532257D01*
X153760299Y-93252905D01*
X153738026Y-93219570D01*
X165485000Y-93219570D01*
X165485000Y-93620430D01*
X165563204Y-94013587D01*
X165716607Y-94383934D01*
X165939313Y-94717237D01*
X166222763Y-95000687D01*
X166556066Y-95223393D01*
X166926413Y-95376796D01*
X167319570Y-95455000D01*
X167720430Y-95455000D01*
X168113587Y-95376796D01*
X168483934Y-95223393D01*
X168817237Y-95000687D01*
X169100687Y-94717237D01*
X169323393Y-94383934D01*
X169476796Y-94013587D01*
X169555000Y-93620430D01*
X169555000Y-93219570D01*
X169476796Y-92826413D01*
X169323393Y-92456066D01*
X169100687Y-92122763D01*
X168817237Y-91839313D01*
X168483934Y-91616607D01*
X168113587Y-91463204D01*
X167720430Y-91385000D01*
X167319570Y-91385000D01*
X166926413Y-91463204D01*
X166556066Y-91616607D01*
X166222763Y-91839313D01*
X165939313Y-92122763D01*
X165716607Y-92456066D01*
X165563204Y-92826413D01*
X165485000Y-93219570D01*
X153738026Y-93219570D01*
X153592312Y-93001495D01*
X153525873Y-92935056D01*
X153544180Y-92929502D01*
X153654494Y-92870537D01*
X153751185Y-92791185D01*
X153830537Y-92694494D01*
X153889502Y-92584180D01*
X153925812Y-92464482D01*
X153938072Y-92340000D01*
X153935000Y-91725750D01*
X153776250Y-91567000D01*
X152527000Y-91567000D01*
X152527000Y-91587000D01*
X152273000Y-91587000D01*
X152273000Y-91567000D01*
X151023750Y-91567000D01*
X150865000Y-91725750D01*
X150861928Y-92340000D01*
X146318072Y-92340000D01*
X146315000Y-91725750D01*
X146156250Y-91567000D01*
X144907000Y-91567000D01*
X144907000Y-91587000D01*
X144653000Y-91587000D01*
X144653000Y-91567000D01*
X143403750Y-91567000D01*
X143245000Y-91725750D01*
X143241928Y-92340000D01*
X138698072Y-92340000D01*
X138695000Y-91725750D01*
X138536250Y-91567000D01*
X137287000Y-91567000D01*
X137287000Y-91587000D01*
X137033000Y-91587000D01*
X137033000Y-91567000D01*
X135783750Y-91567000D01*
X135625000Y-91725750D01*
X135621928Y-92340000D01*
X131078072Y-92340000D01*
X131075000Y-91725750D01*
X130916250Y-91567000D01*
X129667000Y-91567000D01*
X129667000Y-91587000D01*
X129413000Y-91587000D01*
X129413000Y-91567000D01*
X128163750Y-91567000D01*
X128005000Y-91725750D01*
X128001928Y-92340000D01*
X123102449Y-92340000D01*
X123160706Y-92269014D01*
X123298599Y-92011034D01*
X123383513Y-91731111D01*
X123412185Y-91440000D01*
X123383513Y-91148889D01*
X123298599Y-90868966D01*
X123160706Y-90610986D01*
X123102450Y-90540000D01*
X128001928Y-90540000D01*
X128005000Y-91154250D01*
X128163750Y-91313000D01*
X129413000Y-91313000D01*
X129413000Y-90063750D01*
X129667000Y-90063750D01*
X129667000Y-91313000D01*
X130916250Y-91313000D01*
X131075000Y-91154250D01*
X131078072Y-90540000D01*
X135621928Y-90540000D01*
X135625000Y-91154250D01*
X135783750Y-91313000D01*
X137033000Y-91313000D01*
X137033000Y-90063750D01*
X137287000Y-90063750D01*
X137287000Y-91313000D01*
X138536250Y-91313000D01*
X138695000Y-91154250D01*
X138698072Y-90540000D01*
X143241928Y-90540000D01*
X143245000Y-91154250D01*
X143403750Y-91313000D01*
X144653000Y-91313000D01*
X144653000Y-90063750D01*
X144907000Y-90063750D01*
X144907000Y-91313000D01*
X146156250Y-91313000D01*
X146315000Y-91154250D01*
X146318072Y-90540000D01*
X150861928Y-90540000D01*
X150865000Y-91154250D01*
X151023750Y-91313000D01*
X152273000Y-91313000D01*
X152273000Y-90063750D01*
X152527000Y-90063750D01*
X152527000Y-91313000D01*
X153776250Y-91313000D01*
X153935000Y-91154250D01*
X153938072Y-90540000D01*
X153925812Y-90415518D01*
X153889502Y-90295820D01*
X153830537Y-90185506D01*
X153751185Y-90088815D01*
X153654494Y-90009463D01*
X153544180Y-89950498D01*
X153424482Y-89914188D01*
X153300000Y-89901928D01*
X152685750Y-89905000D01*
X152527000Y-90063750D01*
X152273000Y-90063750D01*
X152114250Y-89905000D01*
X151500000Y-89901928D01*
X151375518Y-89914188D01*
X151255820Y-89950498D01*
X151145506Y-90009463D01*
X151048815Y-90088815D01*
X150969463Y-90185506D01*
X150910498Y-90295820D01*
X150874188Y-90415518D01*
X150861928Y-90540000D01*
X146318072Y-90540000D01*
X146305812Y-90415518D01*
X146269502Y-90295820D01*
X146210537Y-90185506D01*
X146131185Y-90088815D01*
X146034494Y-90009463D01*
X145924180Y-89950498D01*
X145804482Y-89914188D01*
X145680000Y-89901928D01*
X145065750Y-89905000D01*
X144907000Y-90063750D01*
X144653000Y-90063750D01*
X144494250Y-89905000D01*
X143880000Y-89901928D01*
X143755518Y-89914188D01*
X143635820Y-89950498D01*
X143525506Y-90009463D01*
X143428815Y-90088815D01*
X143349463Y-90185506D01*
X143290498Y-90295820D01*
X143254188Y-90415518D01*
X143241928Y-90540000D01*
X138698072Y-90540000D01*
X138685812Y-90415518D01*
X138649502Y-90295820D01*
X138590537Y-90185506D01*
X138511185Y-90088815D01*
X138414494Y-90009463D01*
X138304180Y-89950498D01*
X138184482Y-89914188D01*
X138060000Y-89901928D01*
X137445750Y-89905000D01*
X137287000Y-90063750D01*
X137033000Y-90063750D01*
X136874250Y-89905000D01*
X136260000Y-89901928D01*
X136135518Y-89914188D01*
X136015820Y-89950498D01*
X135905506Y-90009463D01*
X135808815Y-90088815D01*
X135729463Y-90185506D01*
X135670498Y-90295820D01*
X135634188Y-90415518D01*
X135621928Y-90540000D01*
X131078072Y-90540000D01*
X131065812Y-90415518D01*
X131029502Y-90295820D01*
X130970537Y-90185506D01*
X130891185Y-90088815D01*
X130794494Y-90009463D01*
X130684180Y-89950498D01*
X130564482Y-89914188D01*
X130440000Y-89901928D01*
X129825750Y-89905000D01*
X129667000Y-90063750D01*
X129413000Y-90063750D01*
X129254250Y-89905000D01*
X128640000Y-89901928D01*
X128515518Y-89914188D01*
X128395820Y-89950498D01*
X128285506Y-90009463D01*
X128188815Y-90088815D01*
X128109463Y-90185506D01*
X128050498Y-90295820D01*
X128014188Y-90415518D01*
X128001928Y-90540000D01*
X123102450Y-90540000D01*
X122975134Y-90384866D01*
X122749014Y-90199294D01*
X122694209Y-90170000D01*
X122749014Y-90140706D01*
X122975134Y-89955134D01*
X123160706Y-89729014D01*
X123298599Y-89471034D01*
X123383513Y-89191111D01*
X123412185Y-88900000D01*
X123383513Y-88608889D01*
X123298599Y-88328966D01*
X123160706Y-88070986D01*
X122975134Y-87844866D01*
X122749014Y-87659294D01*
X122684477Y-87624799D01*
X122801355Y-87555178D01*
X123017588Y-87360269D01*
X123023232Y-87352702D01*
X131266903Y-87352702D01*
X131338486Y-87596671D01*
X131593996Y-87717571D01*
X131868184Y-87786300D01*
X132150512Y-87800217D01*
X132430130Y-87758787D01*
X132696292Y-87663603D01*
X132821514Y-87596671D01*
X132893097Y-87352702D01*
X132080000Y-86539605D01*
X131266903Y-87352702D01*
X123023232Y-87352702D01*
X123191641Y-87126920D01*
X123316825Y-86864099D01*
X123361476Y-86716890D01*
X123240155Y-86487000D01*
X122047000Y-86487000D01*
X122047000Y-86507000D01*
X121793000Y-86507000D01*
X121793000Y-86487000D01*
X121773000Y-86487000D01*
X121773000Y-86430512D01*
X130639783Y-86430512D01*
X130681213Y-86710130D01*
X130776397Y-86976292D01*
X130843329Y-87101514D01*
X131087298Y-87173097D01*
X131900395Y-86360000D01*
X132259605Y-86360000D01*
X133072702Y-87173097D01*
X133316671Y-87101514D01*
X133330324Y-87072659D01*
X133465363Y-87274759D01*
X133665241Y-87474637D01*
X133900273Y-87631680D01*
X134161426Y-87739853D01*
X134438665Y-87795000D01*
X134721335Y-87795000D01*
X134998574Y-87739853D01*
X135259727Y-87631680D01*
X135494759Y-87474637D01*
X135694637Y-87274759D01*
X135851680Y-87039727D01*
X135959853Y-86778574D01*
X136015000Y-86501335D01*
X136015000Y-86218665D01*
X136011082Y-86198967D01*
X136795000Y-86198967D01*
X136795000Y-86521033D01*
X136857832Y-86836912D01*
X136981082Y-87134463D01*
X137160013Y-87402252D01*
X137387748Y-87629987D01*
X137655537Y-87808918D01*
X137953088Y-87932168D01*
X138268967Y-87995000D01*
X138591033Y-87995000D01*
X138906912Y-87932168D01*
X139204463Y-87808918D01*
X139472252Y-87629987D01*
X139699987Y-87402252D01*
X139878918Y-87134463D01*
X140002168Y-86836912D01*
X140065000Y-86521033D01*
X140065000Y-86360000D01*
X140798057Y-86360000D01*
X140825764Y-86641309D01*
X140907818Y-86911808D01*
X141041068Y-87161101D01*
X141220392Y-87379608D01*
X141438899Y-87558932D01*
X141688192Y-87692182D01*
X141958691Y-87774236D01*
X142169508Y-87795000D01*
X142310492Y-87795000D01*
X142521309Y-87774236D01*
X142791808Y-87692182D01*
X143041101Y-87558932D01*
X143259608Y-87379608D01*
X143438932Y-87161101D01*
X143572182Y-86911808D01*
X143654236Y-86641309D01*
X143681943Y-86360000D01*
X143668023Y-86218665D01*
X150965000Y-86218665D01*
X150965000Y-86501335D01*
X151020147Y-86778574D01*
X151128320Y-87039727D01*
X151285363Y-87274759D01*
X151485241Y-87474637D01*
X151720273Y-87631680D01*
X151981426Y-87739853D01*
X152258665Y-87795000D01*
X152541335Y-87795000D01*
X152818574Y-87739853D01*
X153079727Y-87631680D01*
X153314759Y-87474637D01*
X153514637Y-87274759D01*
X153671680Y-87039727D01*
X153673650Y-87034971D01*
X153741068Y-87161101D01*
X153920392Y-87379608D01*
X154138899Y-87558932D01*
X154388192Y-87692182D01*
X154658691Y-87774236D01*
X154869508Y-87795000D01*
X155010492Y-87795000D01*
X155221309Y-87774236D01*
X155491808Y-87692182D01*
X155741101Y-87558932D01*
X155959608Y-87379608D01*
X156138932Y-87161101D01*
X156272182Y-86911808D01*
X156354236Y-86641309D01*
X156381943Y-86360000D01*
X156368023Y-86218665D01*
X163665000Y-86218665D01*
X163665000Y-86501335D01*
X163720147Y-86778574D01*
X163828320Y-87039727D01*
X163985363Y-87274759D01*
X164185241Y-87474637D01*
X164420273Y-87631680D01*
X164681426Y-87739853D01*
X164958665Y-87795000D01*
X165241335Y-87795000D01*
X165518574Y-87739853D01*
X165779727Y-87631680D01*
X166014759Y-87474637D01*
X166214637Y-87274759D01*
X166371680Y-87039727D01*
X166479853Y-86778574D01*
X166535000Y-86501335D01*
X166535000Y-86360000D01*
X171278057Y-86360000D01*
X171305764Y-86641309D01*
X171387818Y-86911808D01*
X171521068Y-87161101D01*
X171700392Y-87379608D01*
X171918899Y-87558932D01*
X172168192Y-87692182D01*
X172438691Y-87774236D01*
X172649508Y-87795000D01*
X172790492Y-87795000D01*
X173001309Y-87774236D01*
X173271808Y-87692182D01*
X173521101Y-87558932D01*
X173739608Y-87379608D01*
X173918932Y-87161101D01*
X174052182Y-86911808D01*
X174134236Y-86641309D01*
X174161943Y-86360000D01*
X174134236Y-86078691D01*
X174052182Y-85808192D01*
X173918932Y-85558899D01*
X173739608Y-85340392D01*
X173521101Y-85161068D01*
X173271808Y-85027818D01*
X173001309Y-84945764D01*
X172790492Y-84925000D01*
X172649508Y-84925000D01*
X172438691Y-84945764D01*
X172168192Y-85027818D01*
X171918899Y-85161068D01*
X171700392Y-85340392D01*
X171521068Y-85558899D01*
X171387818Y-85808192D01*
X171305764Y-86078691D01*
X171278057Y-86360000D01*
X166535000Y-86360000D01*
X166535000Y-86218665D01*
X166479853Y-85941426D01*
X166371680Y-85680273D01*
X166214637Y-85445241D01*
X166014759Y-85245363D01*
X165779727Y-85088320D01*
X165518574Y-84980147D01*
X165241335Y-84925000D01*
X164958665Y-84925000D01*
X164681426Y-84980147D01*
X164420273Y-85088320D01*
X164185241Y-85245363D01*
X163985363Y-85445241D01*
X163828320Y-85680273D01*
X163720147Y-85941426D01*
X163665000Y-86218665D01*
X156368023Y-86218665D01*
X156354236Y-86078691D01*
X156272182Y-85808192D01*
X156138932Y-85558899D01*
X155959608Y-85340392D01*
X155741101Y-85161068D01*
X155491808Y-85027818D01*
X155221309Y-84945764D01*
X155010492Y-84925000D01*
X154869508Y-84925000D01*
X154658691Y-84945764D01*
X154388192Y-85027818D01*
X154138899Y-85161068D01*
X153920392Y-85340392D01*
X153741068Y-85558899D01*
X153673650Y-85685029D01*
X153671680Y-85680273D01*
X153514637Y-85445241D01*
X153314759Y-85245363D01*
X153079727Y-85088320D01*
X152818574Y-84980147D01*
X152541335Y-84925000D01*
X152258665Y-84925000D01*
X151981426Y-84980147D01*
X151720273Y-85088320D01*
X151485241Y-85245363D01*
X151285363Y-85445241D01*
X151128320Y-85680273D01*
X151020147Y-85941426D01*
X150965000Y-86218665D01*
X143668023Y-86218665D01*
X143654236Y-86078691D01*
X143572182Y-85808192D01*
X143438932Y-85558899D01*
X143259608Y-85340392D01*
X143041101Y-85161068D01*
X142791808Y-85027818D01*
X142521309Y-84945764D01*
X142310492Y-84925000D01*
X142169508Y-84925000D01*
X141958691Y-84945764D01*
X141688192Y-85027818D01*
X141438899Y-85161068D01*
X141220392Y-85340392D01*
X141041068Y-85558899D01*
X140907818Y-85808192D01*
X140825764Y-86078691D01*
X140798057Y-86360000D01*
X140065000Y-86360000D01*
X140065000Y-86198967D01*
X140002168Y-85883088D01*
X139878918Y-85585537D01*
X139699987Y-85317748D01*
X139472252Y-85090013D01*
X139204463Y-84911082D01*
X138906912Y-84787832D01*
X138591033Y-84725000D01*
X138268967Y-84725000D01*
X137953088Y-84787832D01*
X137655537Y-84911082D01*
X137387748Y-85090013D01*
X137160013Y-85317748D01*
X136981082Y-85585537D01*
X136857832Y-85883088D01*
X136795000Y-86198967D01*
X136011082Y-86198967D01*
X135959853Y-85941426D01*
X135851680Y-85680273D01*
X135694637Y-85445241D01*
X135494759Y-85245363D01*
X135259727Y-85088320D01*
X134998574Y-84980147D01*
X134721335Y-84925000D01*
X134438665Y-84925000D01*
X134161426Y-84980147D01*
X133900273Y-85088320D01*
X133665241Y-85245363D01*
X133465363Y-85445241D01*
X133331308Y-85645869D01*
X133316671Y-85618486D01*
X133072702Y-85546903D01*
X132259605Y-86360000D01*
X131900395Y-86360000D01*
X131087298Y-85546903D01*
X130843329Y-85618486D01*
X130722429Y-85873996D01*
X130653700Y-86148184D01*
X130639783Y-86430512D01*
X121773000Y-86430512D01*
X121773000Y-86233000D01*
X121793000Y-86233000D01*
X121793000Y-83947000D01*
X122047000Y-83947000D01*
X122047000Y-86233000D01*
X123240155Y-86233000D01*
X123361476Y-86003110D01*
X123316825Y-85855901D01*
X123191641Y-85593080D01*
X123023233Y-85367298D01*
X131266903Y-85367298D01*
X132080000Y-86180395D01*
X132893097Y-85367298D01*
X132821514Y-85123329D01*
X132566004Y-85002429D01*
X132291816Y-84933700D01*
X132009488Y-84919783D01*
X131729870Y-84961213D01*
X131463708Y-85056397D01*
X131338486Y-85123329D01*
X131266903Y-85367298D01*
X123023233Y-85367298D01*
X123017588Y-85359731D01*
X122801355Y-85164822D01*
X122675745Y-85090000D01*
X122801355Y-85015178D01*
X123017588Y-84820269D01*
X123191641Y-84586920D01*
X123316825Y-84324099D01*
X123361476Y-84176890D01*
X123240155Y-83947000D01*
X122047000Y-83947000D01*
X121793000Y-83947000D01*
X119507000Y-83947000D01*
X119507000Y-83967000D01*
X119253000Y-83967000D01*
X119253000Y-83947000D01*
X118059845Y-83947000D01*
X117938524Y-84176890D01*
X117983175Y-84324099D01*
X118108359Y-84586920D01*
X118282412Y-84820269D01*
X118498645Y-85015178D01*
X118615523Y-85084799D01*
X118550986Y-85119294D01*
X118324866Y-85304866D01*
X118139294Y-85530986D01*
X118001401Y-85788966D01*
X117916487Y-86068889D01*
X117887815Y-86360000D01*
X116332000Y-86360000D01*
X116332000Y-63500000D01*
X117887815Y-63500000D01*
X117916487Y-63791111D01*
X118001401Y-64071034D01*
X118139294Y-64329014D01*
X118324866Y-64555134D01*
X118550986Y-64740706D01*
X118605791Y-64770000D01*
X118550986Y-64799294D01*
X118324866Y-64984866D01*
X118139294Y-65210986D01*
X118001401Y-65468966D01*
X117916487Y-65748889D01*
X117887815Y-66040000D01*
X117916487Y-66331111D01*
X118001401Y-66611034D01*
X118139294Y-66869014D01*
X118324866Y-67095134D01*
X118550986Y-67280706D01*
X118605791Y-67310000D01*
X118550986Y-67339294D01*
X118324866Y-67524866D01*
X118139294Y-67750986D01*
X118001401Y-68008966D01*
X117916487Y-68288889D01*
X117887815Y-68580000D01*
X117916487Y-68871111D01*
X118001401Y-69151034D01*
X118139294Y-69409014D01*
X118324866Y-69635134D01*
X118550986Y-69820706D01*
X118605791Y-69850000D01*
X118550986Y-69879294D01*
X118324866Y-70064866D01*
X118139294Y-70290986D01*
X118001401Y-70548966D01*
X117916487Y-70828889D01*
X117887815Y-71120000D01*
X117916487Y-71411111D01*
X118001401Y-71691034D01*
X118139294Y-71949014D01*
X118324866Y-72175134D01*
X118550986Y-72360706D01*
X118605791Y-72390000D01*
X118550986Y-72419294D01*
X118324866Y-72604866D01*
X118139294Y-72830986D01*
X118001401Y-73088966D01*
X117916487Y-73368889D01*
X117887815Y-73660000D01*
X117916487Y-73951111D01*
X118001401Y-74231034D01*
X118139294Y-74489014D01*
X118324866Y-74715134D01*
X118550986Y-74900706D01*
X118605791Y-74930000D01*
X118550986Y-74959294D01*
X118324866Y-75144866D01*
X118139294Y-75370986D01*
X118001401Y-75628966D01*
X117916487Y-75908889D01*
X117887815Y-76200000D01*
X117916487Y-76491111D01*
X118001401Y-76771034D01*
X118139294Y-77029014D01*
X118324866Y-77255134D01*
X118550986Y-77440706D01*
X118605791Y-77470000D01*
X118550986Y-77499294D01*
X118324866Y-77684866D01*
X118139294Y-77910986D01*
X118001401Y-78168966D01*
X117916487Y-78448889D01*
X117887815Y-78740000D01*
X117916487Y-79031111D01*
X118001401Y-79311034D01*
X118139294Y-79569014D01*
X118324866Y-79795134D01*
X118550986Y-79980706D01*
X118605791Y-80010000D01*
X118550986Y-80039294D01*
X118324866Y-80224866D01*
X118139294Y-80450986D01*
X118001401Y-80708966D01*
X117916487Y-80988889D01*
X117887815Y-81280000D01*
X117916487Y-81571111D01*
X118001401Y-81851034D01*
X118139294Y-82109014D01*
X118324866Y-82335134D01*
X118550986Y-82520706D01*
X118615523Y-82555201D01*
X118498645Y-82624822D01*
X118282412Y-82819731D01*
X118108359Y-83053080D01*
X117983175Y-83315901D01*
X117938524Y-83463110D01*
X118059845Y-83693000D01*
X119253000Y-83693000D01*
X119253000Y-83673000D01*
X119507000Y-83673000D01*
X119507000Y-83693000D01*
X121793000Y-83693000D01*
X121793000Y-83673000D01*
X122047000Y-83673000D01*
X122047000Y-83693000D01*
X123240155Y-83693000D01*
X123361476Y-83463110D01*
X123316825Y-83315901D01*
X123191641Y-83053080D01*
X123017588Y-82819731D01*
X122801355Y-82624822D01*
X122684477Y-82555201D01*
X122749014Y-82520706D01*
X122975134Y-82335134D01*
X123026370Y-82272702D01*
X131306903Y-82272702D01*
X131378486Y-82516671D01*
X131633996Y-82637571D01*
X131908184Y-82706300D01*
X132190512Y-82720217D01*
X132470130Y-82678787D01*
X132736292Y-82583603D01*
X132861514Y-82516671D01*
X132933097Y-82272702D01*
X132120000Y-81459605D01*
X131306903Y-82272702D01*
X123026370Y-82272702D01*
X123160706Y-82109014D01*
X123298599Y-81851034D01*
X123383513Y-81571111D01*
X123405240Y-81350512D01*
X130679783Y-81350512D01*
X130721213Y-81630130D01*
X130816397Y-81896292D01*
X130883329Y-82021514D01*
X131127298Y-82093097D01*
X131940395Y-81280000D01*
X132299605Y-81280000D01*
X133112702Y-82093097D01*
X133356671Y-82021514D01*
X133370324Y-81992659D01*
X133505363Y-82194759D01*
X133705241Y-82394637D01*
X133940273Y-82551680D01*
X134201426Y-82659853D01*
X134478665Y-82715000D01*
X134761335Y-82715000D01*
X135038574Y-82659853D01*
X135299727Y-82551680D01*
X135534759Y-82394637D01*
X135734637Y-82194759D01*
X135891680Y-81959727D01*
X135999853Y-81698574D01*
X136055000Y-81421335D01*
X136055000Y-81138665D01*
X136051082Y-81118967D01*
X136795000Y-81118967D01*
X136795000Y-81441033D01*
X136857832Y-81756912D01*
X136981082Y-82054463D01*
X137160013Y-82322252D01*
X137387748Y-82549987D01*
X137655537Y-82728918D01*
X137953088Y-82852168D01*
X138268967Y-82915000D01*
X138591033Y-82915000D01*
X138906912Y-82852168D01*
X139204463Y-82728918D01*
X139472252Y-82549987D01*
X139699987Y-82322252D01*
X139878918Y-82054463D01*
X140002168Y-81756912D01*
X140065000Y-81441033D01*
X140065000Y-81280000D01*
X140798057Y-81280000D01*
X140825764Y-81561309D01*
X140907818Y-81831808D01*
X141041068Y-82081101D01*
X141220392Y-82299608D01*
X141438899Y-82478932D01*
X141688192Y-82612182D01*
X141958691Y-82694236D01*
X142169508Y-82715000D01*
X142310492Y-82715000D01*
X142521309Y-82694236D01*
X142791808Y-82612182D01*
X143041101Y-82478932D01*
X143259608Y-82299608D01*
X143438932Y-82081101D01*
X143572182Y-81831808D01*
X143654236Y-81561309D01*
X143681943Y-81280000D01*
X143668023Y-81138665D01*
X150965000Y-81138665D01*
X150965000Y-81421335D01*
X151020147Y-81698574D01*
X151128320Y-81959727D01*
X151285363Y-82194759D01*
X151485241Y-82394637D01*
X151720273Y-82551680D01*
X151981426Y-82659853D01*
X152258665Y-82715000D01*
X152541335Y-82715000D01*
X152818574Y-82659853D01*
X153079727Y-82551680D01*
X153314759Y-82394637D01*
X153514637Y-82194759D01*
X153671680Y-81959727D01*
X153673650Y-81954971D01*
X153741068Y-82081101D01*
X153920392Y-82299608D01*
X154138899Y-82478932D01*
X154388192Y-82612182D01*
X154658691Y-82694236D01*
X154869508Y-82715000D01*
X155010492Y-82715000D01*
X155221309Y-82694236D01*
X155491808Y-82612182D01*
X155741101Y-82478932D01*
X155959608Y-82299608D01*
X156138932Y-82081101D01*
X156272182Y-81831808D01*
X156354236Y-81561309D01*
X156381943Y-81280000D01*
X156368023Y-81138665D01*
X163665000Y-81138665D01*
X163665000Y-81421335D01*
X163720147Y-81698574D01*
X163828320Y-81959727D01*
X163985363Y-82194759D01*
X164185241Y-82394637D01*
X164420273Y-82551680D01*
X164681426Y-82659853D01*
X164958665Y-82715000D01*
X165241335Y-82715000D01*
X165518574Y-82659853D01*
X165779727Y-82551680D01*
X166014759Y-82394637D01*
X166214637Y-82194759D01*
X166371680Y-81959727D01*
X166479853Y-81698574D01*
X166535000Y-81421335D01*
X166535000Y-81138665D01*
X166515135Y-81038800D01*
X168659489Y-81038800D01*
X168703426Y-81082737D01*
X168872944Y-81196005D01*
X169061302Y-81274026D01*
X169261261Y-81313800D01*
X169465139Y-81313800D01*
X169665098Y-81274026D01*
X169853456Y-81196005D01*
X170022974Y-81082737D01*
X170167137Y-80938574D01*
X170280405Y-80769056D01*
X170358426Y-80580698D01*
X170398200Y-80380739D01*
X170398200Y-80176861D01*
X170358426Y-79976902D01*
X170280405Y-79788544D01*
X170167137Y-79619026D01*
X170022974Y-79474863D01*
X169853456Y-79361595D01*
X169665098Y-79283574D01*
X169465139Y-79243800D01*
X169261261Y-79243800D01*
X169061302Y-79283574D01*
X168872944Y-79361595D01*
X168703426Y-79474863D01*
X168659489Y-79518800D01*
X166138533Y-79518800D01*
X166101200Y-79515123D01*
X166063867Y-79518800D01*
X165952214Y-79529797D01*
X165808953Y-79573254D01*
X165676924Y-79643826D01*
X165561199Y-79738799D01*
X165537401Y-79767797D01*
X165423886Y-79881312D01*
X165241335Y-79845000D01*
X164958665Y-79845000D01*
X164681426Y-79900147D01*
X164420273Y-80008320D01*
X164185241Y-80165363D01*
X163985363Y-80365241D01*
X163828320Y-80600273D01*
X163720147Y-80861426D01*
X163665000Y-81138665D01*
X156368023Y-81138665D01*
X156354236Y-80998691D01*
X156272182Y-80728192D01*
X156138932Y-80478899D01*
X155959608Y-80260392D01*
X155741101Y-80081068D01*
X155491808Y-79947818D01*
X155221309Y-79865764D01*
X155010492Y-79845000D01*
X154869508Y-79845000D01*
X154658691Y-79865764D01*
X154388192Y-79947818D01*
X154138899Y-80081068D01*
X153920392Y-80260392D01*
X153741068Y-80478899D01*
X153673650Y-80605029D01*
X153671680Y-80600273D01*
X153514637Y-80365241D01*
X153314759Y-80165363D01*
X153079727Y-80008320D01*
X152818574Y-79900147D01*
X152541335Y-79845000D01*
X152258665Y-79845000D01*
X151981426Y-79900147D01*
X151720273Y-80008320D01*
X151485241Y-80165363D01*
X151285363Y-80365241D01*
X151128320Y-80600273D01*
X151020147Y-80861426D01*
X150965000Y-81138665D01*
X143668023Y-81138665D01*
X143654236Y-80998691D01*
X143572182Y-80728192D01*
X143438932Y-80478899D01*
X143259608Y-80260392D01*
X143041101Y-80081068D01*
X142791808Y-79947818D01*
X142521309Y-79865764D01*
X142310492Y-79845000D01*
X142169508Y-79845000D01*
X141958691Y-79865764D01*
X141688192Y-79947818D01*
X141438899Y-80081068D01*
X141220392Y-80260392D01*
X141041068Y-80478899D01*
X140907818Y-80728192D01*
X140825764Y-80998691D01*
X140798057Y-81280000D01*
X140065000Y-81280000D01*
X140065000Y-81118967D01*
X140002168Y-80803088D01*
X139878918Y-80505537D01*
X139699987Y-80237748D01*
X139472252Y-80010013D01*
X139204463Y-79831082D01*
X138906912Y-79707832D01*
X138591033Y-79645000D01*
X138268967Y-79645000D01*
X137953088Y-79707832D01*
X137655537Y-79831082D01*
X137387748Y-80010013D01*
X137160013Y-80237748D01*
X136981082Y-80505537D01*
X136857832Y-80803088D01*
X136795000Y-81118967D01*
X136051082Y-81118967D01*
X135999853Y-80861426D01*
X135891680Y-80600273D01*
X135734637Y-80365241D01*
X135534759Y-80165363D01*
X135299727Y-80008320D01*
X135038574Y-79900147D01*
X134761335Y-79845000D01*
X134478665Y-79845000D01*
X134201426Y-79900147D01*
X133940273Y-80008320D01*
X133705241Y-80165363D01*
X133505363Y-80365241D01*
X133371308Y-80565869D01*
X133356671Y-80538486D01*
X133112702Y-80466903D01*
X132299605Y-81280000D01*
X131940395Y-81280000D01*
X131127298Y-80466903D01*
X130883329Y-80538486D01*
X130762429Y-80793996D01*
X130693700Y-81068184D01*
X130679783Y-81350512D01*
X123405240Y-81350512D01*
X123412185Y-81280000D01*
X123383513Y-80988889D01*
X123298599Y-80708966D01*
X123160706Y-80450986D01*
X123026371Y-80287298D01*
X131306903Y-80287298D01*
X132120000Y-81100395D01*
X132933097Y-80287298D01*
X132861514Y-80043329D01*
X132606004Y-79922429D01*
X132331816Y-79853700D01*
X132049488Y-79839783D01*
X131769870Y-79881213D01*
X131503708Y-79976397D01*
X131378486Y-80043329D01*
X131306903Y-80287298D01*
X123026371Y-80287298D01*
X122975134Y-80224866D01*
X122749014Y-80039294D01*
X122694209Y-80010000D01*
X122749014Y-79980706D01*
X122975134Y-79795134D01*
X123160706Y-79569014D01*
X123298599Y-79311034D01*
X123383513Y-79031111D01*
X123412185Y-78740000D01*
X123383513Y-78448889D01*
X123298599Y-78168966D01*
X123160706Y-77910986D01*
X122975134Y-77684866D01*
X122749014Y-77499294D01*
X122694209Y-77470000D01*
X122749014Y-77440706D01*
X122975134Y-77255134D01*
X123160706Y-77029014D01*
X123298599Y-76771034D01*
X123383513Y-76491111D01*
X123412185Y-76200000D01*
X123398265Y-76058665D01*
X140805000Y-76058665D01*
X140805000Y-76341335D01*
X140860147Y-76618574D01*
X140968320Y-76879727D01*
X141125363Y-77114759D01*
X141325241Y-77314637D01*
X141560273Y-77471680D01*
X141821426Y-77579853D01*
X142098665Y-77635000D01*
X142381335Y-77635000D01*
X142658574Y-77579853D01*
X142919727Y-77471680D01*
X143154759Y-77314637D01*
X143354637Y-77114759D01*
X143511680Y-76879727D01*
X143619853Y-76618574D01*
X143675000Y-76341335D01*
X143675000Y-76200000D01*
X150958057Y-76200000D01*
X150985764Y-76481309D01*
X151067818Y-76751808D01*
X151201068Y-77001101D01*
X151380392Y-77219608D01*
X151598899Y-77398932D01*
X151848192Y-77532182D01*
X152118691Y-77614236D01*
X152329508Y-77635000D01*
X152470492Y-77635000D01*
X152681309Y-77614236D01*
X152951808Y-77532182D01*
X153201101Y-77398932D01*
X153419608Y-77219608D01*
X153598932Y-77001101D01*
X153666350Y-76874971D01*
X153668320Y-76879727D01*
X153825363Y-77114759D01*
X154025241Y-77314637D01*
X154260273Y-77471680D01*
X154521426Y-77579853D01*
X154798665Y-77635000D01*
X155081335Y-77635000D01*
X155358574Y-77579853D01*
X155619727Y-77471680D01*
X155854759Y-77314637D01*
X156054637Y-77114759D01*
X156211680Y-76879727D01*
X156319853Y-76618574D01*
X156375000Y-76341335D01*
X156375000Y-76200000D01*
X163658057Y-76200000D01*
X163685764Y-76481309D01*
X163767818Y-76751808D01*
X163901068Y-77001101D01*
X164080392Y-77219608D01*
X164298899Y-77398932D01*
X164548192Y-77532182D01*
X164818691Y-77614236D01*
X165029508Y-77635000D01*
X165170492Y-77635000D01*
X165381309Y-77614236D01*
X165651808Y-77532182D01*
X165901101Y-77398932D01*
X166119608Y-77219608D01*
X166298932Y-77001101D01*
X166432182Y-76751808D01*
X166514236Y-76481309D01*
X166541943Y-76200000D01*
X166514236Y-75918691D01*
X166432182Y-75648192D01*
X166298932Y-75398899D01*
X166119608Y-75180392D01*
X165901101Y-75001068D01*
X165860000Y-74979099D01*
X165860000Y-71677408D01*
X168843000Y-71677408D01*
X168843000Y-71952592D01*
X168896686Y-72222490D01*
X169001995Y-72476727D01*
X169154880Y-72705535D01*
X169349465Y-72900120D01*
X169578273Y-73053005D01*
X169832510Y-73158314D01*
X170102408Y-73212000D01*
X170377592Y-73212000D01*
X170531570Y-73181372D01*
X171960000Y-74609802D01*
X171960000Y-74981956D01*
X171805241Y-75085363D01*
X171605363Y-75285241D01*
X171448320Y-75520273D01*
X171340147Y-75781426D01*
X171285000Y-76058665D01*
X171285000Y-76341335D01*
X171340147Y-76618574D01*
X171448320Y-76879727D01*
X171605363Y-77114759D01*
X171805241Y-77314637D01*
X172040273Y-77471680D01*
X172301426Y-77579853D01*
X172578665Y-77635000D01*
X172861335Y-77635000D01*
X173138574Y-77579853D01*
X173399727Y-77471680D01*
X173634759Y-77314637D01*
X173834637Y-77114759D01*
X173991680Y-76879727D01*
X174099853Y-76618574D01*
X174155000Y-76341335D01*
X174155000Y-76058665D01*
X174099853Y-75781426D01*
X173991680Y-75520273D01*
X173834637Y-75285241D01*
X173634759Y-75085363D01*
X173480000Y-74981957D01*
X173480000Y-74332325D01*
X173483676Y-74295000D01*
X173480000Y-74257675D01*
X173480000Y-74257667D01*
X173469003Y-74146014D01*
X173425546Y-74002753D01*
X173354974Y-73870724D01*
X173260001Y-73754999D01*
X173231004Y-73731202D01*
X172363769Y-72863967D01*
X173625000Y-72863967D01*
X173625000Y-73186033D01*
X173687832Y-73501912D01*
X173811082Y-73799463D01*
X173990013Y-74067252D01*
X174217748Y-74294987D01*
X174485537Y-74473918D01*
X174783088Y-74597168D01*
X175098967Y-74660000D01*
X175421033Y-74660000D01*
X175736912Y-74597168D01*
X176034463Y-74473918D01*
X176302252Y-74294987D01*
X176529987Y-74067252D01*
X176708918Y-73799463D01*
X176832168Y-73501912D01*
X176895000Y-73186033D01*
X176895000Y-72863967D01*
X176832168Y-72548088D01*
X176708918Y-72250537D01*
X176529987Y-71982748D01*
X176302252Y-71755013D01*
X176034463Y-71576082D01*
X175736912Y-71452832D01*
X175421033Y-71390000D01*
X175098967Y-71390000D01*
X174783088Y-71452832D01*
X174485537Y-71576082D01*
X174217748Y-71755013D01*
X173990013Y-71982748D01*
X173811082Y-72250537D01*
X173687832Y-72548088D01*
X173625000Y-72863967D01*
X172363769Y-72863967D01*
X171606372Y-72106570D01*
X171637000Y-71952592D01*
X171637000Y-71677408D01*
X171583314Y-71407510D01*
X171478005Y-71153273D01*
X171325120Y-70924465D01*
X171130535Y-70729880D01*
X170901727Y-70576995D01*
X170830057Y-70547308D01*
X170843023Y-70542636D01*
X170958980Y-70480656D01*
X171025960Y-70240565D01*
X170240000Y-69454605D01*
X169454040Y-70240565D01*
X169521020Y-70480656D01*
X169656760Y-70544485D01*
X169578273Y-70576995D01*
X169349465Y-70729880D01*
X169154880Y-70924465D01*
X169001995Y-71153273D01*
X168896686Y-71407510D01*
X168843000Y-71677408D01*
X165860000Y-71677408D01*
X165860000Y-71488501D01*
X168369202Y-68979300D01*
X168431339Y-68979300D01*
X168631298Y-68939526D01*
X168819656Y-68861505D01*
X168923243Y-68792291D01*
X168917244Y-68805048D01*
X168850977Y-69072135D01*
X168838090Y-69347017D01*
X168879078Y-69619133D01*
X168972364Y-69878023D01*
X169034344Y-69993980D01*
X169274435Y-70060960D01*
X170060395Y-69275000D01*
X170419605Y-69275000D01*
X171205565Y-70060960D01*
X171445656Y-69993980D01*
X171562756Y-69744952D01*
X171629023Y-69477865D01*
X171641910Y-69202983D01*
X171600922Y-68930867D01*
X171507636Y-68671977D01*
X171445656Y-68556020D01*
X171205565Y-68489040D01*
X170419605Y-69275000D01*
X170060395Y-69275000D01*
X170046253Y-69260858D01*
X170225858Y-69081253D01*
X170240000Y-69095395D01*
X171025960Y-68309435D01*
X170958980Y-68069344D01*
X170709952Y-67952244D01*
X170442865Y-67885977D01*
X170167983Y-67873090D01*
X169895867Y-67914078D01*
X169636977Y-68007364D01*
X169521020Y-68069344D01*
X169454041Y-68309433D01*
X169337631Y-68193023D01*
X169334600Y-68196054D01*
X169364400Y-68046239D01*
X169364400Y-67842361D01*
X169324626Y-67642402D01*
X169246605Y-67454044D01*
X169133337Y-67284526D01*
X168989174Y-67140363D01*
X168819656Y-67027095D01*
X168631298Y-66949074D01*
X168431339Y-66909300D01*
X168227461Y-66909300D01*
X168027502Y-66949074D01*
X167839144Y-67027095D01*
X167669626Y-67140363D01*
X167525463Y-67284526D01*
X167412195Y-67454044D01*
X167334174Y-67642402D01*
X167294400Y-67842361D01*
X167294400Y-67904498D01*
X164588998Y-70609901D01*
X164560000Y-70633699D01*
X164536202Y-70662697D01*
X164536201Y-70662698D01*
X164465026Y-70749424D01*
X164394454Y-70881454D01*
X164350998Y-71024715D01*
X164336324Y-71173700D01*
X164340001Y-71211032D01*
X164340000Y-74979099D01*
X164298899Y-75001068D01*
X164080392Y-75180392D01*
X163901068Y-75398899D01*
X163767818Y-75648192D01*
X163685764Y-75918691D01*
X163658057Y-76200000D01*
X156375000Y-76200000D01*
X156375000Y-76058665D01*
X156319853Y-75781426D01*
X156211680Y-75520273D01*
X156054637Y-75285241D01*
X155854759Y-75085363D01*
X155619727Y-74928320D01*
X155358574Y-74820147D01*
X155081335Y-74765000D01*
X154798665Y-74765000D01*
X154521426Y-74820147D01*
X154260273Y-74928320D01*
X154025241Y-75085363D01*
X153825363Y-75285241D01*
X153668320Y-75520273D01*
X153666350Y-75525029D01*
X153598932Y-75398899D01*
X153419608Y-75180392D01*
X153201101Y-75001068D01*
X152951808Y-74867818D01*
X152681309Y-74785764D01*
X152470492Y-74765000D01*
X152329508Y-74765000D01*
X152118691Y-74785764D01*
X151848192Y-74867818D01*
X151598899Y-75001068D01*
X151380392Y-75180392D01*
X151201068Y-75398899D01*
X151067818Y-75648192D01*
X150985764Y-75918691D01*
X150958057Y-76200000D01*
X143675000Y-76200000D01*
X143675000Y-76058665D01*
X143619853Y-75781426D01*
X143511680Y-75520273D01*
X143354637Y-75285241D01*
X143154759Y-75085363D01*
X142919727Y-74928320D01*
X142658574Y-74820147D01*
X142381335Y-74765000D01*
X142098665Y-74765000D01*
X141821426Y-74820147D01*
X141560273Y-74928320D01*
X141325241Y-75085363D01*
X141125363Y-75285241D01*
X140968320Y-75520273D01*
X140860147Y-75781426D01*
X140805000Y-76058665D01*
X123398265Y-76058665D01*
X123383513Y-75908889D01*
X123298599Y-75628966D01*
X123160706Y-75370986D01*
X122975134Y-75144866D01*
X122749014Y-74959294D01*
X122694209Y-74930000D01*
X122749014Y-74900706D01*
X122975134Y-74715134D01*
X123160706Y-74489014D01*
X123298599Y-74231034D01*
X123383513Y-73951111D01*
X123412185Y-73660000D01*
X123383513Y-73368889D01*
X123298599Y-73088966D01*
X123160706Y-72830986D01*
X122975134Y-72604866D01*
X122749014Y-72419294D01*
X122694209Y-72390000D01*
X122749014Y-72360706D01*
X122975134Y-72175134D01*
X123160706Y-71949014D01*
X123298599Y-71691034D01*
X123302732Y-71677408D01*
X130743000Y-71677408D01*
X130743000Y-71952592D01*
X130796686Y-72222490D01*
X130901995Y-72476727D01*
X131054880Y-72705535D01*
X131249465Y-72900120D01*
X131478273Y-73053005D01*
X131732510Y-73158314D01*
X132002408Y-73212000D01*
X132277592Y-73212000D01*
X132431570Y-73181372D01*
X133320914Y-74070716D01*
X133349474Y-74214298D01*
X133427495Y-74402656D01*
X133540763Y-74572174D01*
X133684926Y-74716337D01*
X133854444Y-74829605D01*
X134042802Y-74907626D01*
X134242761Y-74947400D01*
X134446639Y-74947400D01*
X134646598Y-74907626D01*
X134834956Y-74829605D01*
X135004474Y-74716337D01*
X135148637Y-74572174D01*
X135261905Y-74402656D01*
X135339926Y-74214298D01*
X135379700Y-74014339D01*
X135379700Y-73810461D01*
X135339926Y-73610502D01*
X135261905Y-73422144D01*
X135148637Y-73252626D01*
X135004474Y-73108463D01*
X134834956Y-72995195D01*
X134646598Y-72917174D01*
X134446639Y-72877400D01*
X134277202Y-72877400D01*
X133506372Y-72106570D01*
X133537000Y-71952592D01*
X133537000Y-71677408D01*
X133483314Y-71407510D01*
X133378005Y-71153273D01*
X133225120Y-70924465D01*
X133030535Y-70729880D01*
X132801727Y-70576995D01*
X132730057Y-70547308D01*
X132743023Y-70542636D01*
X132858980Y-70480656D01*
X132925960Y-70240565D01*
X132140000Y-69454605D01*
X131354040Y-70240565D01*
X131421020Y-70480656D01*
X131556760Y-70544485D01*
X131478273Y-70576995D01*
X131249465Y-70729880D01*
X131054880Y-70924465D01*
X130901995Y-71153273D01*
X130796686Y-71407510D01*
X130743000Y-71677408D01*
X123302732Y-71677408D01*
X123383513Y-71411111D01*
X123412185Y-71120000D01*
X123383513Y-70828889D01*
X123298599Y-70548966D01*
X123160706Y-70290986D01*
X122975134Y-70064866D01*
X122749014Y-69879294D01*
X122684477Y-69844799D01*
X122801355Y-69775178D01*
X123017588Y-69580269D01*
X123191568Y-69347017D01*
X130738090Y-69347017D01*
X130779078Y-69619133D01*
X130872364Y-69878023D01*
X130934344Y-69993980D01*
X131174435Y-70060960D01*
X131960395Y-69275000D01*
X132319605Y-69275000D01*
X133105565Y-70060960D01*
X133345656Y-69993980D01*
X133462756Y-69744952D01*
X133529023Y-69477865D01*
X133541910Y-69202983D01*
X133500922Y-68930867D01*
X133407636Y-68671977D01*
X133345656Y-68556020D01*
X133105565Y-68489040D01*
X132319605Y-69275000D01*
X131960395Y-69275000D01*
X131174435Y-68489040D01*
X130934344Y-68556020D01*
X130817244Y-68805048D01*
X130750977Y-69072135D01*
X130738090Y-69347017D01*
X123191568Y-69347017D01*
X123191641Y-69346920D01*
X123316825Y-69084099D01*
X123361476Y-68936890D01*
X123240155Y-68707000D01*
X122047000Y-68707000D01*
X122047000Y-68727000D01*
X121793000Y-68727000D01*
X121793000Y-68707000D01*
X121773000Y-68707000D01*
X121773000Y-68453000D01*
X121793000Y-68453000D01*
X121793000Y-68433000D01*
X122047000Y-68433000D01*
X122047000Y-68453000D01*
X123240155Y-68453000D01*
X123315919Y-68309435D01*
X131354040Y-68309435D01*
X132140000Y-69095395D01*
X132925960Y-68309435D01*
X132858980Y-68069344D01*
X132609952Y-67952244D01*
X132342865Y-67885977D01*
X132067983Y-67873090D01*
X131795867Y-67914078D01*
X131536977Y-68007364D01*
X131421020Y-68069344D01*
X131354040Y-68309435D01*
X123315919Y-68309435D01*
X123361476Y-68223110D01*
X123316825Y-68075901D01*
X123191641Y-67813080D01*
X123017588Y-67579731D01*
X122801355Y-67384822D01*
X122684477Y-67315201D01*
X122749014Y-67280706D01*
X122975134Y-67095134D01*
X123160706Y-66869014D01*
X123298599Y-66611034D01*
X123383513Y-66331111D01*
X123412185Y-66040000D01*
X123383513Y-65748889D01*
X123298599Y-65468966D01*
X123160706Y-65210986D01*
X122975134Y-64984866D01*
X122749014Y-64799294D01*
X122694209Y-64770000D01*
X122749014Y-64740706D01*
X122975134Y-64555134D01*
X123160706Y-64329014D01*
X123272340Y-64120161D01*
X130950700Y-64120161D01*
X130950700Y-64324039D01*
X130990474Y-64523998D01*
X131068495Y-64712356D01*
X131181763Y-64881874D01*
X131325926Y-65026037D01*
X131495444Y-65139305D01*
X131683802Y-65217326D01*
X131883761Y-65257100D01*
X131945899Y-65257100D01*
X133323700Y-66634902D01*
X133323700Y-66697039D01*
X133363474Y-66896998D01*
X133441495Y-67085356D01*
X133554763Y-67254874D01*
X133698926Y-67399037D01*
X133868444Y-67512305D01*
X134056802Y-67590326D01*
X134256761Y-67630100D01*
X134460639Y-67630100D01*
X134660598Y-67590326D01*
X134848956Y-67512305D01*
X135018474Y-67399037D01*
X135162637Y-67254874D01*
X135275905Y-67085356D01*
X135353926Y-66896998D01*
X135393700Y-66697039D01*
X135393700Y-66493161D01*
X135353926Y-66293202D01*
X135275905Y-66104844D01*
X135162637Y-65935326D01*
X135018474Y-65791163D01*
X134848956Y-65677895D01*
X134660598Y-65599874D01*
X134460639Y-65560100D01*
X134398502Y-65560100D01*
X133020700Y-64182299D01*
X133020700Y-64120161D01*
X132980926Y-63920202D01*
X132902905Y-63731844D01*
X132789637Y-63562326D01*
X132645474Y-63418163D01*
X132475956Y-63304895D01*
X132287598Y-63226874D01*
X132087639Y-63187100D01*
X131883761Y-63187100D01*
X131683802Y-63226874D01*
X131495444Y-63304895D01*
X131325926Y-63418163D01*
X131181763Y-63562326D01*
X131068495Y-63731844D01*
X130990474Y-63920202D01*
X130950700Y-64120161D01*
X123272340Y-64120161D01*
X123298599Y-64071034D01*
X123383513Y-63791111D01*
X123412185Y-63500000D01*
X123383513Y-63208889D01*
X123298599Y-62928966D01*
X123160706Y-62670986D01*
X122975134Y-62444866D01*
X122749014Y-62259294D01*
X122694209Y-62230000D01*
X122749014Y-62200706D01*
X122975134Y-62015134D01*
X123160706Y-61789014D01*
X123298599Y-61531034D01*
X123383513Y-61251111D01*
X123412185Y-60960000D01*
X123383513Y-60668889D01*
X123298599Y-60388966D01*
X123160706Y-60130986D01*
X122975134Y-59904866D01*
X122749014Y-59719294D01*
X122491034Y-59581401D01*
X122211111Y-59496487D01*
X121992950Y-59475000D01*
X121847050Y-59475000D01*
X121628889Y-59496487D01*
X121348966Y-59581401D01*
X121090986Y-59719294D01*
X120864866Y-59904866D01*
X120840393Y-59934687D01*
X120819502Y-59865820D01*
X120760537Y-59755506D01*
X120681185Y-59658815D01*
X120584494Y-59579463D01*
X120474180Y-59520498D01*
X120354482Y-59484188D01*
X120230000Y-59471928D01*
X118530000Y-59471928D01*
X118405518Y-59484188D01*
X118285820Y-59520498D01*
X118175506Y-59579463D01*
X118078815Y-59658815D01*
X117999463Y-59755506D01*
X117940498Y-59865820D01*
X117904188Y-59985518D01*
X117891928Y-60110000D01*
X117891928Y-61810000D01*
X117904188Y-61934482D01*
X117940498Y-62054180D01*
X117999463Y-62164494D01*
X118078815Y-62261185D01*
X118175506Y-62340537D01*
X118285820Y-62399502D01*
X118354687Y-62420393D01*
X118324866Y-62444866D01*
X118139294Y-62670986D01*
X118001401Y-62928966D01*
X117916487Y-63208889D01*
X117887815Y-63500000D01*
X116332000Y-63500000D01*
X116332000Y-52570413D01*
X123504192Y-52570413D01*
X123599956Y-52834814D01*
X123889571Y-52975704D01*
X124201108Y-53057384D01*
X124522595Y-53076718D01*
X124841675Y-53032961D01*
X125146088Y-52927795D01*
X125320044Y-52834814D01*
X125415808Y-52570413D01*
X124460000Y-51614605D01*
X123504192Y-52570413D01*
X116332000Y-52570413D01*
X116332000Y-51497595D01*
X122818282Y-51497595D01*
X122862039Y-51816675D01*
X122967205Y-52121088D01*
X123060186Y-52295044D01*
X123324587Y-52390808D01*
X124280395Y-51435000D01*
X124639605Y-51435000D01*
X125595413Y-52390808D01*
X125859814Y-52295044D01*
X126000704Y-52005429D01*
X126082384Y-51693892D01*
X126101718Y-51372405D01*
X126099662Y-51357408D01*
X130743000Y-51357408D01*
X130743000Y-51632592D01*
X130796686Y-51902490D01*
X130901995Y-52156727D01*
X131054880Y-52385535D01*
X131249465Y-52580120D01*
X131478273Y-52733005D01*
X131555515Y-52765000D01*
X131478273Y-52796995D01*
X131249465Y-52949880D01*
X131054880Y-53144465D01*
X130901995Y-53373273D01*
X130796686Y-53627510D01*
X130743000Y-53897408D01*
X130743000Y-54172592D01*
X130796686Y-54442490D01*
X130901995Y-54696727D01*
X131054880Y-54925535D01*
X131249465Y-55120120D01*
X131478273Y-55273005D01*
X131732510Y-55378314D01*
X132002408Y-55432000D01*
X132277592Y-55432000D01*
X132547490Y-55378314D01*
X132801727Y-55273005D01*
X133030535Y-55120120D01*
X133225120Y-54925535D01*
X133378005Y-54696727D01*
X133483314Y-54442490D01*
X133537000Y-54172592D01*
X133537000Y-53897408D01*
X133483314Y-53627510D01*
X133378005Y-53373273D01*
X133225120Y-53144465D01*
X133030535Y-52949880D01*
X132801727Y-52796995D01*
X132724485Y-52765000D01*
X132801727Y-52733005D01*
X133030535Y-52580120D01*
X133225120Y-52385535D01*
X133378005Y-52156727D01*
X133483314Y-51902490D01*
X133537000Y-51632592D01*
X133537000Y-51357408D01*
X138363000Y-51357408D01*
X138363000Y-51632592D01*
X138416686Y-51902490D01*
X138521995Y-52156727D01*
X138674880Y-52385535D01*
X138869465Y-52580120D01*
X139098273Y-52733005D01*
X139352510Y-52838314D01*
X139622408Y-52892000D01*
X139897592Y-52892000D01*
X140167490Y-52838314D01*
X140421727Y-52733005D01*
X140465000Y-52704091D01*
X140465001Y-56275088D01*
X140421063Y-56319026D01*
X140307795Y-56488544D01*
X140229774Y-56676902D01*
X140190000Y-56876861D01*
X140190000Y-57080739D01*
X140229774Y-57280698D01*
X140307795Y-57469056D01*
X140421063Y-57638574D01*
X140565226Y-57782737D01*
X140734744Y-57896005D01*
X140923102Y-57974026D01*
X141123061Y-58013800D01*
X141326939Y-58013800D01*
X141526898Y-57974026D01*
X141715256Y-57896005D01*
X141884774Y-57782737D01*
X142028937Y-57638574D01*
X142142205Y-57469056D01*
X142220226Y-57280698D01*
X142260000Y-57080739D01*
X142260000Y-56876861D01*
X142220226Y-56676902D01*
X142142205Y-56488544D01*
X142028937Y-56319026D01*
X141985000Y-56275089D01*
X141985000Y-52884801D01*
X142008429Y-52861372D01*
X142162408Y-52892000D01*
X142437592Y-52892000D01*
X142707490Y-52838314D01*
X142961727Y-52733005D01*
X143190535Y-52580120D01*
X143385120Y-52385535D01*
X143538005Y-52156727D01*
X143570000Y-52079485D01*
X143601995Y-52156727D01*
X143754880Y-52385535D01*
X143949465Y-52580120D01*
X144080000Y-52667341D01*
X144080001Y-53359588D01*
X144036063Y-53403526D01*
X143922795Y-53573044D01*
X143844774Y-53761402D01*
X143805000Y-53961361D01*
X143805000Y-54165239D01*
X143844774Y-54365198D01*
X143922795Y-54553556D01*
X144036063Y-54723074D01*
X144180226Y-54867237D01*
X144349744Y-54980505D01*
X144538102Y-55058526D01*
X144738061Y-55098300D01*
X144941939Y-55098300D01*
X145141898Y-55058526D01*
X145330256Y-54980505D01*
X145499774Y-54867237D01*
X145643937Y-54723074D01*
X145757205Y-54553556D01*
X145835226Y-54365198D01*
X145839005Y-54346200D01*
X145840339Y-54346200D01*
X146040298Y-54306426D01*
X146228656Y-54228405D01*
X146398174Y-54115137D01*
X146542337Y-53970974D01*
X146655605Y-53801456D01*
X146733626Y-53613098D01*
X146773400Y-53413139D01*
X146773400Y-53351001D01*
X147234062Y-52890340D01*
X147242408Y-52892000D01*
X147517592Y-52892000D01*
X147787490Y-52838314D01*
X148041727Y-52733005D01*
X148270535Y-52580120D01*
X148465120Y-52385535D01*
X148618005Y-52156727D01*
X148650000Y-52079485D01*
X148681995Y-52156727D01*
X148834880Y-52385535D01*
X149029465Y-52580120D01*
X149258273Y-52733005D01*
X149512510Y-52838314D01*
X149782408Y-52892000D01*
X150057592Y-52892000D01*
X150327490Y-52838314D01*
X150581727Y-52733005D01*
X150810535Y-52580120D01*
X151005120Y-52385535D01*
X151158005Y-52156727D01*
X151190000Y-52079485D01*
X151221995Y-52156727D01*
X151374880Y-52385535D01*
X151569465Y-52580120D01*
X151798273Y-52733005D01*
X152052510Y-52838314D01*
X152322408Y-52892000D01*
X152597592Y-52892000D01*
X152867490Y-52838314D01*
X153121727Y-52733005D01*
X153350535Y-52580120D01*
X153545120Y-52385535D01*
X153698005Y-52156727D01*
X153730000Y-52079485D01*
X153761995Y-52156727D01*
X153914880Y-52385535D01*
X154109465Y-52580120D01*
X154338273Y-52733005D01*
X154592510Y-52838314D01*
X154862408Y-52892000D01*
X155137592Y-52892000D01*
X155407490Y-52838314D01*
X155661727Y-52733005D01*
X155890535Y-52580120D01*
X156010090Y-52460565D01*
X156754040Y-52460565D01*
X156821020Y-52700656D01*
X157070048Y-52817756D01*
X157337135Y-52884023D01*
X157612017Y-52896910D01*
X157884133Y-52855922D01*
X158143023Y-52762636D01*
X158258980Y-52700656D01*
X158325960Y-52460565D01*
X159294040Y-52460565D01*
X159361020Y-52700656D01*
X159610048Y-52817756D01*
X159877135Y-52884023D01*
X160152017Y-52896910D01*
X160424133Y-52855922D01*
X160683023Y-52762636D01*
X160798980Y-52700656D01*
X160865960Y-52460565D01*
X161834040Y-52460565D01*
X161901020Y-52700656D01*
X162150048Y-52817756D01*
X162417135Y-52884023D01*
X162692017Y-52896910D01*
X162964133Y-52855922D01*
X163223023Y-52762636D01*
X163338980Y-52700656D01*
X163405960Y-52460565D01*
X162620000Y-51674605D01*
X161834040Y-52460565D01*
X160865960Y-52460565D01*
X160080000Y-51674605D01*
X159294040Y-52460565D01*
X158325960Y-52460565D01*
X157540000Y-51674605D01*
X156754040Y-52460565D01*
X156010090Y-52460565D01*
X156085120Y-52385535D01*
X156238005Y-52156727D01*
X156267692Y-52085057D01*
X156272364Y-52098023D01*
X156334344Y-52213980D01*
X156574435Y-52280960D01*
X157360395Y-51495000D01*
X157719605Y-51495000D01*
X158505565Y-52280960D01*
X158745656Y-52213980D01*
X158807079Y-52083356D01*
X158812364Y-52098023D01*
X158874344Y-52213980D01*
X159114435Y-52280960D01*
X159900395Y-51495000D01*
X160259605Y-51495000D01*
X161045565Y-52280960D01*
X161285656Y-52213980D01*
X161347079Y-52083356D01*
X161352364Y-52098023D01*
X161414344Y-52213980D01*
X161654435Y-52280960D01*
X162440395Y-51495000D01*
X162799605Y-51495000D01*
X163585565Y-52280960D01*
X163825656Y-52213980D01*
X163942756Y-51964952D01*
X164009023Y-51697865D01*
X164021910Y-51422983D01*
X164012033Y-51357408D01*
X168843000Y-51357408D01*
X168843000Y-51632592D01*
X168896686Y-51902490D01*
X169001995Y-52156727D01*
X169154880Y-52385535D01*
X169349465Y-52580120D01*
X169578273Y-52733005D01*
X169655515Y-52765000D01*
X169578273Y-52796995D01*
X169349465Y-52949880D01*
X169154880Y-53144465D01*
X169001995Y-53373273D01*
X168896686Y-53627510D01*
X168843000Y-53897408D01*
X168843000Y-54172592D01*
X168896686Y-54442490D01*
X169001995Y-54696727D01*
X169154880Y-54925535D01*
X169349465Y-55120120D01*
X169578273Y-55273005D01*
X169832510Y-55378314D01*
X170102408Y-55432000D01*
X170377592Y-55432000D01*
X170647490Y-55378314D01*
X170901727Y-55273005D01*
X171130535Y-55120120D01*
X171325120Y-54925535D01*
X171478005Y-54696727D01*
X171583314Y-54442490D01*
X171637000Y-54172592D01*
X171637000Y-53897408D01*
X171583314Y-53627510D01*
X171478005Y-53373273D01*
X171325120Y-53144465D01*
X171130535Y-52949880D01*
X170901727Y-52796995D01*
X170824485Y-52765000D01*
X170901727Y-52733005D01*
X171130535Y-52580120D01*
X171140242Y-52570413D01*
X176844192Y-52570413D01*
X176939956Y-52834814D01*
X177229571Y-52975704D01*
X177541108Y-53057384D01*
X177862595Y-53076718D01*
X178181675Y-53032961D01*
X178486088Y-52927795D01*
X178660044Y-52834814D01*
X178755808Y-52570413D01*
X177800000Y-51614605D01*
X176844192Y-52570413D01*
X171140242Y-52570413D01*
X171325120Y-52385535D01*
X171478005Y-52156727D01*
X171583314Y-51902490D01*
X171637000Y-51632592D01*
X171637000Y-51497595D01*
X176158282Y-51497595D01*
X176202039Y-51816675D01*
X176307205Y-52121088D01*
X176400186Y-52295044D01*
X176664587Y-52390808D01*
X177620395Y-51435000D01*
X177979605Y-51435000D01*
X178935413Y-52390808D01*
X179199814Y-52295044D01*
X179340704Y-52005429D01*
X179422384Y-51693892D01*
X179441718Y-51372405D01*
X179397961Y-51053325D01*
X179292795Y-50748912D01*
X179199814Y-50574956D01*
X178935413Y-50479192D01*
X177979605Y-51435000D01*
X177620395Y-51435000D01*
X176664587Y-50479192D01*
X176400186Y-50574956D01*
X176259296Y-50864571D01*
X176177616Y-51176108D01*
X176158282Y-51497595D01*
X171637000Y-51497595D01*
X171637000Y-51357408D01*
X171583314Y-51087510D01*
X171478005Y-50833273D01*
X171325120Y-50604465D01*
X171130535Y-50409880D01*
X170965471Y-50299587D01*
X176844192Y-50299587D01*
X177800000Y-51255395D01*
X178755808Y-50299587D01*
X178660044Y-50035186D01*
X178370429Y-49894296D01*
X178058892Y-49812616D01*
X177737405Y-49793282D01*
X177418325Y-49837039D01*
X177113912Y-49942205D01*
X176939956Y-50035186D01*
X176844192Y-50299587D01*
X170965471Y-50299587D01*
X170901727Y-50256995D01*
X170647490Y-50151686D01*
X170377592Y-50098000D01*
X170102408Y-50098000D01*
X169832510Y-50151686D01*
X169578273Y-50256995D01*
X169349465Y-50409880D01*
X169154880Y-50604465D01*
X169001995Y-50833273D01*
X168896686Y-51087510D01*
X168843000Y-51357408D01*
X164012033Y-51357408D01*
X163980922Y-51150867D01*
X163887636Y-50891977D01*
X163825656Y-50776020D01*
X163585565Y-50709040D01*
X162799605Y-51495000D01*
X162440395Y-51495000D01*
X161654435Y-50709040D01*
X161414344Y-50776020D01*
X161352921Y-50906644D01*
X161347636Y-50891977D01*
X161285656Y-50776020D01*
X161045565Y-50709040D01*
X160259605Y-51495000D01*
X159900395Y-51495000D01*
X159114435Y-50709040D01*
X158874344Y-50776020D01*
X158812921Y-50906644D01*
X158807636Y-50891977D01*
X158745656Y-50776020D01*
X158505565Y-50709040D01*
X157719605Y-51495000D01*
X157360395Y-51495000D01*
X156574435Y-50709040D01*
X156334344Y-50776020D01*
X156270515Y-50911760D01*
X156238005Y-50833273D01*
X156085120Y-50604465D01*
X156010090Y-50529435D01*
X156754040Y-50529435D01*
X157540000Y-51315395D01*
X158325960Y-50529435D01*
X159294040Y-50529435D01*
X160080000Y-51315395D01*
X160865960Y-50529435D01*
X161834040Y-50529435D01*
X162620000Y-51315395D01*
X163405960Y-50529435D01*
X163338980Y-50289344D01*
X163089952Y-50172244D01*
X162822865Y-50105977D01*
X162547983Y-50093090D01*
X162275867Y-50134078D01*
X162016977Y-50227364D01*
X161901020Y-50289344D01*
X161834040Y-50529435D01*
X160865960Y-50529435D01*
X160798980Y-50289344D01*
X160549952Y-50172244D01*
X160282865Y-50105977D01*
X160007983Y-50093090D01*
X159735867Y-50134078D01*
X159476977Y-50227364D01*
X159361020Y-50289344D01*
X159294040Y-50529435D01*
X158325960Y-50529435D01*
X158258980Y-50289344D01*
X158009952Y-50172244D01*
X157742865Y-50105977D01*
X157467983Y-50093090D01*
X157195867Y-50134078D01*
X156936977Y-50227364D01*
X156821020Y-50289344D01*
X156754040Y-50529435D01*
X156010090Y-50529435D01*
X155890535Y-50409880D01*
X155661727Y-50256995D01*
X155407490Y-50151686D01*
X155137592Y-50098000D01*
X154862408Y-50098000D01*
X154592510Y-50151686D01*
X154338273Y-50256995D01*
X154109465Y-50409880D01*
X153914880Y-50604465D01*
X153761995Y-50833273D01*
X153730000Y-50910515D01*
X153698005Y-50833273D01*
X153545120Y-50604465D01*
X153350535Y-50409880D01*
X153220000Y-50322659D01*
X153220000Y-47773491D01*
X153442252Y-47624987D01*
X153669987Y-47397252D01*
X153848918Y-47129463D01*
X153972168Y-46831912D01*
X154035000Y-46516033D01*
X154035000Y-46193967D01*
X155845000Y-46193967D01*
X155845000Y-46516033D01*
X155907832Y-46831912D01*
X156031082Y-47129463D01*
X156210013Y-47397252D01*
X156437748Y-47624987D01*
X156705537Y-47803918D01*
X157003088Y-47927168D01*
X157318967Y-47990000D01*
X157641033Y-47990000D01*
X157956912Y-47927168D01*
X158254463Y-47803918D01*
X158522252Y-47624987D01*
X158749987Y-47397252D01*
X158928918Y-47129463D01*
X159052168Y-46831912D01*
X159115000Y-46516033D01*
X159115000Y-46193967D01*
X163465000Y-46193967D01*
X163465000Y-46516033D01*
X163527832Y-46831912D01*
X163651082Y-47129463D01*
X163830013Y-47397252D01*
X164057748Y-47624987D01*
X164325537Y-47803918D01*
X164623088Y-47927168D01*
X164938967Y-47990000D01*
X165261033Y-47990000D01*
X165576912Y-47927168D01*
X165874463Y-47803918D01*
X166142252Y-47624987D01*
X166369987Y-47397252D01*
X166548918Y-47129463D01*
X166672168Y-46831912D01*
X166735000Y-46516033D01*
X166735000Y-46193967D01*
X168545000Y-46193967D01*
X168545000Y-46516033D01*
X168607832Y-46831912D01*
X168731082Y-47129463D01*
X168910013Y-47397252D01*
X169137748Y-47624987D01*
X169405537Y-47803918D01*
X169703088Y-47927168D01*
X170018967Y-47990000D01*
X170341033Y-47990000D01*
X170656912Y-47927168D01*
X170954463Y-47803918D01*
X171222252Y-47624987D01*
X171449987Y-47397252D01*
X171628918Y-47129463D01*
X171752168Y-46831912D01*
X171815000Y-46516033D01*
X171815000Y-46193967D01*
X171752168Y-45878088D01*
X171628918Y-45580537D01*
X171449987Y-45312748D01*
X171222252Y-45085013D01*
X170954463Y-44906082D01*
X170656912Y-44782832D01*
X170341033Y-44720000D01*
X170018967Y-44720000D01*
X169703088Y-44782832D01*
X169405537Y-44906082D01*
X169137748Y-45085013D01*
X168910013Y-45312748D01*
X168731082Y-45580537D01*
X168607832Y-45878088D01*
X168545000Y-46193967D01*
X166735000Y-46193967D01*
X166672168Y-45878088D01*
X166548918Y-45580537D01*
X166369987Y-45312748D01*
X166142252Y-45085013D01*
X165874463Y-44906082D01*
X165576912Y-44782832D01*
X165261033Y-44720000D01*
X164938967Y-44720000D01*
X164623088Y-44782832D01*
X164325537Y-44906082D01*
X164057748Y-45085013D01*
X163830013Y-45312748D01*
X163651082Y-45580537D01*
X163527832Y-45878088D01*
X163465000Y-46193967D01*
X159115000Y-46193967D01*
X159052168Y-45878088D01*
X158928918Y-45580537D01*
X158749987Y-45312748D01*
X158522252Y-45085013D01*
X158254463Y-44906082D01*
X157956912Y-44782832D01*
X157641033Y-44720000D01*
X157318967Y-44720000D01*
X157003088Y-44782832D01*
X156705537Y-44906082D01*
X156437748Y-45085013D01*
X156210013Y-45312748D01*
X156031082Y-45580537D01*
X155907832Y-45878088D01*
X155845000Y-46193967D01*
X154035000Y-46193967D01*
X153972168Y-45878088D01*
X153848918Y-45580537D01*
X153669987Y-45312748D01*
X153442252Y-45085013D01*
X153174463Y-44906082D01*
X152876912Y-44782832D01*
X152561033Y-44720000D01*
X152238967Y-44720000D01*
X151923088Y-44782832D01*
X151625537Y-44906082D01*
X151357748Y-45085013D01*
X151130013Y-45312748D01*
X150951082Y-45580537D01*
X150827832Y-45878088D01*
X150765000Y-46193967D01*
X150765000Y-46516033D01*
X150827832Y-46831912D01*
X150951082Y-47129463D01*
X151130013Y-47397252D01*
X151357748Y-47624987D01*
X151625537Y-47803918D01*
X151700000Y-47834762D01*
X151700001Y-50322659D01*
X151569465Y-50409880D01*
X151374880Y-50604465D01*
X151221995Y-50833273D01*
X151190000Y-50910515D01*
X151158005Y-50833273D01*
X151005120Y-50604465D01*
X150810535Y-50409880D01*
X150581727Y-50256995D01*
X150327490Y-50151686D01*
X150057592Y-50098000D01*
X149782408Y-50098000D01*
X149512510Y-50151686D01*
X149258273Y-50256995D01*
X149029465Y-50409880D01*
X148834880Y-50604465D01*
X148681995Y-50833273D01*
X148650000Y-50910515D01*
X148618005Y-50833273D01*
X148465120Y-50604465D01*
X148270535Y-50409880D01*
X148041727Y-50256995D01*
X147787490Y-50151686D01*
X147517592Y-50098000D01*
X147242408Y-50098000D01*
X146972510Y-50151686D01*
X146718273Y-50256995D01*
X146489465Y-50409880D01*
X146294880Y-50604465D01*
X146141995Y-50833273D01*
X146110000Y-50910515D01*
X146078005Y-50833273D01*
X145925120Y-50604465D01*
X145730535Y-50409880D01*
X145501727Y-50256995D01*
X145247490Y-50151686D01*
X144977592Y-50098000D01*
X144702408Y-50098000D01*
X144432510Y-50151686D01*
X144178273Y-50256995D01*
X143949465Y-50409880D01*
X143754880Y-50604465D01*
X143601995Y-50833273D01*
X143570000Y-50910515D01*
X143538005Y-50833273D01*
X143385120Y-50604465D01*
X143190535Y-50409880D01*
X142961727Y-50256995D01*
X142707490Y-50151686D01*
X142437592Y-50098000D01*
X142162408Y-50098000D01*
X141892510Y-50151686D01*
X141638273Y-50256995D01*
X141409465Y-50409880D01*
X141214880Y-50604465D01*
X141061995Y-50833273D01*
X141030000Y-50910515D01*
X140998005Y-50833273D01*
X140845120Y-50604465D01*
X140650535Y-50409880D01*
X140421727Y-50256995D01*
X140167490Y-50151686D01*
X139897592Y-50098000D01*
X139622408Y-50098000D01*
X139352510Y-50151686D01*
X139098273Y-50256995D01*
X138869465Y-50409880D01*
X138674880Y-50604465D01*
X138521995Y-50833273D01*
X138416686Y-51087510D01*
X138363000Y-51357408D01*
X133537000Y-51357408D01*
X133483314Y-51087510D01*
X133378005Y-50833273D01*
X133225120Y-50604465D01*
X133030535Y-50409880D01*
X132801727Y-50256995D01*
X132547490Y-50151686D01*
X132277592Y-50098000D01*
X132002408Y-50098000D01*
X131732510Y-50151686D01*
X131478273Y-50256995D01*
X131249465Y-50409880D01*
X131054880Y-50604465D01*
X130901995Y-50833273D01*
X130796686Y-51087510D01*
X130743000Y-51357408D01*
X126099662Y-51357408D01*
X126057961Y-51053325D01*
X125952795Y-50748912D01*
X125859814Y-50574956D01*
X125595413Y-50479192D01*
X124639605Y-51435000D01*
X124280395Y-51435000D01*
X123324587Y-50479192D01*
X123060186Y-50574956D01*
X122919296Y-50864571D01*
X122837616Y-51176108D01*
X122818282Y-51497595D01*
X116332000Y-51497595D01*
X116332000Y-50299587D01*
X123504192Y-50299587D01*
X124460000Y-51255395D01*
X125415808Y-50299587D01*
X125320044Y-50035186D01*
X125030429Y-49894296D01*
X124718892Y-49812616D01*
X124397405Y-49793282D01*
X124078325Y-49837039D01*
X123773912Y-49942205D01*
X123599956Y-50035186D01*
X123504192Y-50299587D01*
X116332000Y-50299587D01*
X116332000Y-46193967D01*
X143145000Y-46193967D01*
X143145000Y-46516033D01*
X143207832Y-46831912D01*
X143331082Y-47129463D01*
X143510013Y-47397252D01*
X143737748Y-47624987D01*
X144005537Y-47803918D01*
X144303088Y-47927168D01*
X144618967Y-47990000D01*
X144941033Y-47990000D01*
X145256912Y-47927168D01*
X145554463Y-47803918D01*
X145822252Y-47624987D01*
X146049987Y-47397252D01*
X146228918Y-47129463D01*
X146352168Y-46831912D01*
X146415000Y-46516033D01*
X146415000Y-46193967D01*
X146352168Y-45878088D01*
X146228918Y-45580537D01*
X146049987Y-45312748D01*
X145822252Y-45085013D01*
X145554463Y-44906082D01*
X145256912Y-44782832D01*
X144941033Y-44720000D01*
X144618967Y-44720000D01*
X144303088Y-44782832D01*
X144005537Y-44906082D01*
X143737748Y-45085013D01*
X143510013Y-45312748D01*
X143331082Y-45580537D01*
X143207832Y-45878088D01*
X143145000Y-46193967D01*
X116332000Y-46193967D01*
X116332000Y-43942000D01*
X185928000Y-43942000D01*
X185928000Y-75769712D01*
G36*
X180467000Y-70993000D02*
G01*
X180487000Y-70993000D01*
X180487000Y-71247000D01*
X180467000Y-71247000D01*
X180467000Y-71267000D01*
X180213000Y-71267000D01*
X180213000Y-71247000D01*
X180193000Y-71247000D01*
X180193000Y-70993000D01*
X180213000Y-70993000D01*
X180213000Y-70973000D01*
X180467000Y-70973000D01*
X180467000Y-70993000D01*
X180467000Y-70993000D01*
G37*
X180467000Y-70993000D02*
X180487000Y-70993000D01*
X180487000Y-71247000D01*
X180467000Y-71247000D01*
X180467000Y-71267000D01*
X180213000Y-71267000D01*
X180213000Y-71247000D01*
X180193000Y-71247000D01*
X180193000Y-70993000D01*
X180213000Y-70993000D01*
X180213000Y-70973000D01*
X180467000Y-70973000D01*
X180467000Y-70993000D01*
M02*
